  0
SECTION
  2
HEADER
  9
$ACADVER
  1
AC1014
  9
$HANDSEED
  5
FFFF
  9
$MEASUREMENT
 70
     1
  0
ENDSEC
  0
SECTION
  2
TABLES
  0
TABLE
  2
VPORT
  5
8
330
0
100
AcDbSymbolTable
 70
     4
  0
VPORT
  5
2E
330
8
100
AcDbSymbolTableRecord
100
AcDbViewportTableRecord
  2
*ACTIVE
 70
     0
 10
0.0
 20
0.0
 11
1.0
 21
1.0
 12
210.0
 22
148.5
 13
0.0
 23
0.0
 14
10.0
 24
10.0
 15
10.0
 25
10.0
 16
0.0
 26
0.0
 36
1.0
 17
0.0
 27
0.0
 37
0.0
 40
341.0
 41
1.24
 42
50.0
 43
0.0
 44
0.0
 50
0.0
 51
0.0
 71
     0
 72
   100
 73
     1
 74
     3
 75
     0
 76
     0
 77
     0
 78
     0
  0
ENDTAB
  0
TABLE
  2
LTYPE
  5
5
330
0
100
AcDbSymbolTable
 70
     1
  0
LTYPE
  5
14
330
5
100
AcDbSymbolTableRecord
100
AcDbLinetypeTableRecord
  2
BYBLOCK
 70
     0
  3

 72
    65
 73
     0
 40
0.0
  0
LTYPE
  5
15
330
5
100
AcDbSymbolTableRecord
100
AcDbLinetypeTableRecord
  2
BYLAYER
 70
     0
  3

 72
    65
 73
     0
 40
0.0
  0
LTYPE
  5
16
330
5
100
AcDbSymbolTableRecord
100
AcDbLinetypeTableRecord
  2
CONTINUOUS
 70
     0
  3
Solid line
 72
    65
 73
     0
 40
0.0
  0
ENDTAB
  0
TABLE
  2
LAYER
  5
2
100
AcDbSymbolTable
 70
2
  0
LAYER
  5
50
100
AcDbSymbolTableRecord
100
AcDbLayerTableRecord
  2
0
 70
0
  6
CONTINUOUS
  0
LAYER
  5
51
100
AcDbSymbolTableRecord
100
AcDbLayerTableRecord
  2
Layer_1
 70
0
  6
CONTINUOUS
  0
ENDTAB
  0
TABLE
  2
STYLE
  5
3
330
0
100
AcDbSymbolTable
 70
     1
  0
STYLE
  5
11
330
3
100
AcDbSymbolTableRecord
100
AcDbTextStyleTableRecord
  2
STANDARD
 70
     0
 40
0.0
 41
1.0
 50
0.0
 71
     0
 42
2.5
  3
txt
  4

  0
ENDTAB
  0
TABLE
  2
VIEW
  5
6
330
0
100
AcDbSymbolTable
 70
     0
  0
ENDTAB
  0
TABLE
  2
UCS
  5
7
330
0
100
AcDbSymbolTable
 70
     0
  0
ENDTAB
  0
TABLE
  2
APPID
  5
9
330
0
100
AcDbSymbolTable
 70
     2
  0
APPID
  5
12
330
9
100
AcDbSymbolTableRecord
100
AcDbRegAppTableRecord
  2
ACAD
 70
     0
  0
ENDTAB
  0
TABLE
  2
DIMSTYLE
  5
A
330
0
100
AcDbSymbolTable
 70
     1
  0
DIMSTYLE
105
27
330
A
100
AcDbSymbolTableRecord
100
AcDbDimStyleTableRecord
  2
ISO-25
 70
     0
  3

  4

  5

  6

  7

 40
1.0
 41
2.5
 42
0.625
 43
3.75
 44
1.25
 45
0.0
 46
0.0
 47
0.0
 48
0.0
140
2.5
141
2.5
142
0.0
143
0.03937007874016
144
1.0
145
0.0
146
1.0
147
0.625
 71
     0
 72
     0
 73
     0
 74
     0
 75
     0
 76
     0
 77
     1
 78
     8
170
     0
171
     3
172
     1
173
     0
174
     0
175
     0
176
     0
177
     0
178
     0
270
     2
271
     2
272
     2
273
     2
274
     3
340
11
275
     0
280
     0
281
     0
282
     0
283
     0
284
     8
285
     0
286
     0
287
     3
288
     0
  0
ENDTAB
  0
TABLE
  2
BLOCK_RECORD
  5
1
330
0
100
AcDbSymbolTable
 70
     1
  0
BLOCK_RECORD
  5
1F
330
1
100
AcDbSymbolTableRecord
100
AcDbBlockTableRecord
  2
*MODEL_SPACE
  0
BLOCK_RECORD
  5
1B
330
1
100
AcDbSymbolTableRecord
100
AcDbBlockTableRecord
  2
*PAPER_SPACE
  0
ENDTAB
  0
ENDSEC
  0
SECTION
  2
BLOCKS
  0
BLOCK
  5
20
330
1F
100
AcDbEntity
  8
0
100
AcDbBlockBegin
  2
*MODEL_SPACE
 70
     0
 10
0.0
 20
0.0
 30
0.0
  3
*MODEL_SPACE
  1

  0
ENDBLK
  5
21
330
1F
100
AcDbEntity
  8
0
100
AcDbBlockEnd
  0
BLOCK
  5
1C
330
1B
100
AcDbEntity
 67
     1
  8
0
100
AcDbBlockBegin
  2
*PAPER_SPACE
  1

  0
ENDBLK
  5
1D
330
1B
100
AcDbEntity
 67
     1
  8
0
100
AcDbBlockEnd
  0
ENDSEC
  0
SECTION
  2
ENTITIES
  0
LWPOLYLINE
  5
100
100
AcDbEntity
  8
Layer_1
 62
7
100
AcDbPolyline
 90
11
 70
1
 10
5.605590
 20
77.734096
 30
0.0
 10
3.422193
 20
45.991912
 30
0.0
 10
3.422193
 20
37.450424
 30
0.0
 10
1.335326
 20
36.286604
 30
0.0
 10
1.335326
 20
35.796572
 30
0.0
 10
3.164462
 20
34.740493
 30
0.0
 10
3.802978
 20
34.740493
 30
0.0
 10
4.670648
 20
33.872821
 30
0.0
 10
7.285694
 20
33.872821
 30
0.0
 10
13.065566
 20
39.652691
 30
0.0
 10
13.065566
 20
77.734096
 30
0.0
  0
LWPOLYLINE
  5
101
100
AcDbEntity
  8
Layer_1
 62
7
100
AcDbPolyline
 90
120
 70
1
 10
6.289908
 20
77.685558
 30
0.0
 10
6.937312
 20
77.685558
 30
0.0
 10
6.364973
 20
76.616214
 30
0.0
 10
6.364973
 20
76.297640
 30
0.0
 10
6.942371
 20
75.218999
 30
0.0
 10
6.364973
 20
74.140221
 30
0.0
 10
6.364973
 20
73.837097
 30
0.0
 10
6.942371
 20
72.758456
 30
0.0
 10
6.364973
 20
71.679678
 30
0.0
 10
6.364973
 20
71.376417
 30
0.0
 10
6.942371
 20
70.297775
 30
0.0
 10
6.364973
 20
69.218998
 30
0.0
 10
6.364973
 20
68.915737
 30
0.0
 10
6.942371
 20
67.837096
 30
0.0
 10
6.364973
 20
66.758318
 30
0.0
 10
6.364973
 20
66.455194
 30
0.0
 10
6.942371
 20
65.376553
 30
0.0
 10
6.364973
 20
64.297775
 30
0.0
 10
6.364973
 20
63.994514
 30
0.0
 10
6.942371
 20
62.915873
 30
0.0
 10
6.364973
 20
61.837095
 30
0.0
 10
6.364973
 20
61.533834
 30
0.0
 10
6.942371
 20
60.455192
 30
0.0
 10
6.364973
 20
59.376416
 30
0.0
 10
6.364973
 20
59.073154
 30
0.0
 10
6.942371
 20
57.994512
 30
0.0
 10
6.364973
 20
56.915735
 30
0.0
 10
6.364973
 20
56.612611
 30
0.0
 10
6.942371
 20
55.533970
 30
0.0
 10
6.364973
 20
54.455192
 30
0.0
 10
6.364973
 20
54.151794
 30
0.0
 10
6.942371
 20
53.073155
 30
0.0
 10
6.364973
 20
51.994377
 30
0.0
 10
6.364973
 20
51.693850
 30
0.0
 10
6.942371
 20
50.615210
 30
0.0
 10
6.364973
 20
49.536432
 30
0.0
 10
6.364973
 20
49.230709
 30
0.0
 10
6.942371
 20
48.152069
 30
0.0
 10
6.364973
 20
47.073291
 30
0.0
 10
6.364973
 20
46.770028
 30
0.0
 10
6.942371
 20
45.691385
 30
0.0
 10
6.364973
 20
44.612608
 30
0.0
 10
6.364973
 20
44.309482
 30
0.0
 10
6.942371
 20
43.230842
 30
0.0
 10
6.364973
 20
42.152065
 30
0.0
 10
6.364973
 20
39.830984
 30
0.0
 10
6.657568
 20
39.538386
 30
0.0
 10
6.657568
 20
35.200579
 30
0.0
 10
6.347744
 20
34.890755
 30
0.0
 10
6.347744
 20
34.888638
 30
0.0
 10
5.486774
 20
34.888638
 30
0.0
 10
5.176404
 20
35.199008
 30
0.0
 10
5.176404
 20
35.350503
 30
0.0
 10
5.255843
 20
35.350503
 30
0.0
 10
5.255843
 20
35.231959
 30
0.0
 10
5.519725
 20
34.967939
 30
0.0
 10
6.312607
 20
34.967939
 30
0.0
 10
6.578267
 20
35.233464
 30
0.0
 10
6.578267
 20
39.505369
 30
0.0
 10
6.291686
 20
39.791950
 30
0.0
 10
6.290893
 20
39.791950
 30
0.0
 10
6.290893
 20
39.792743
 30
0.0
 10
6.290893
 20
42.166738
 30
0.0
 10
6.289834
 20
42.168855
 30
0.0
 10
6.289834
 20
44.292912
 30
0.0
 10
6.290893
 20
44.295028
 30
0.0
 10
6.290893
 20
44.627414
 30
0.0
 10
6.289834
 20
44.629530
 30
0.0
 10
6.289834
 20
46.753589
 30
0.0
 10
6.290893
 20
46.755706
 30
0.0
 10
6.290893
 20
47.088227
 30
0.0
 10
6.289834
 20
47.090343
 30
0.0
 10
6.289834
 20
49.214400
 30
0.0
 10
6.290893
 20
49.216516
 30
0.0
 10
6.290893
 20
49.551497
 30
0.0
 10
6.289834
 20
49.553614
 30
0.0
 10
6.289834
 20
51.677671
 30
0.0
 10
6.290893
 20
51.679787
 30
0.0
 10
6.290893
 20
52.009574
 30
0.0
 10
6.289834
 20
52.011691
 30
0.0
 10
6.289834
 20
54.135749
 30
0.0
 10
6.290893
 20
54.137813
 30
0.0
 10
6.290893
 20
54.470471
 30
0.0
 10
6.289834
 20
54.472534
 30
0.0
 10
6.289834
 20
56.596592
 30
0.0
 10
6.290893
 20
56.598656
 30
0.0
 10
6.290893
 20
56.930777
 30
0.0
 10
6.289834
 20
56.932841
 30
0.0
 10
6.289834
 20
59.056898
 30
0.0
 10
6.290893
 20
59.058961
 30
0.0
 10
6.290893
 20
59.391439
 30
0.0
 10
6.289834
 20
59.393502
 30
0.0
 10
6.289834
 20
61.517559
 30
0.0
 10
6.290893
 20
61.519623
 30
0.0
 10
6.290893
 20
61.852007
 30
0.0
 10
6.289834
 20
61.854071
 30
0.0
 10
6.289834
 20
63.978128
 30
0.0
 10
6.290893
 20
63.980324
 30
0.0
 10
6.290893
 20
64.312845
 30
0.0
 10
6.289834
 20
64.314908
 30
0.0
 10
6.289834
 20
66.438904
 30
0.0
 10
6.290893
 20
66.440968
 30
0.0
 10
6.290893
 20
66.773351
 30
0.0
 10
6.289834
 20
66.775415
 30
0.0
 10
6.289834
 20
68.899472
 30
0.0
 10
6.290893
 20
68.901536
 30
0.0
 10
6.290893
 20
69.234057
 30
0.0
 10
6.289834
 20
69.236120
 30
0.0
 10
6.289834
 20
71.360191
 30
0.0
 10
6.290893
 20
71.362255
 30
0.0
 10
6.290893
 20
71.694783
 30
0.0
 10
6.289834
 20
71.696847
 30
0.0
 10
6.289834
 20
73.820827
 30
0.0
 10
6.290893
 20
73.822890
 30
0.0
 10
6.290893
 20
74.155274
 30
0.0
 10
6.289834
 20
74.157338
 30
0.0
 10
6.289834
 20
76.281369
 30
0.0
 10
6.290893
 20
76.283433
 30
0.0
 10
6.290893
 20
76.620466
 30
0.0
 10
6.289834
 20
76.622529
 30
0.0
  0
SPLINE
  5
102
100
AcDbEntity
  8
Layer_1
 62
7
100
AcDbSpline
 70
8
 71
3
 72
8
 73
4
 74
0
 40
0
 40
0
 40
0
 40
0
 40
1
 40
1
 40
1
 40
1
 10
7.680273
 20
39.792693
 30
0.0
 10
7.386956
 20
39.498998
 30
0.0
 10
7.093392
 20
39.205540
 30
0.0
 10
6.799887
 20
38.912033
 30
0.0
  0
LWPOLYLINE
  5
103
100
AcDbEntity
  8
Layer_1
 62
7
100
AcDbPolyline
 90
48
 70
0
 10
7.031107
 20
77.685558
 30
0.0
 10
8.250853
 20
77.685558
 30
0.0
 10
8.251382
 20
77.684870
 30
0.0
 10
7.680411
 20
76.617988
 30
0.0
 10
7.680411
 20
76.286697
 30
0.0
 10
8.254118
 20
75.214756
 30
0.0
 10
7.680411
 20
74.142815
 30
0.0
 10
7.680411
 20
73.826154
 30
0.0
 10
8.254118
 20
72.754214
 30
0.0
 10
7.680411
 20
71.682272
 30
0.0
 10
7.680411
 20
71.365475
 30
0.0
 10
8.254118
 20
70.293534
 30
0.0
 10
7.680411
 20
69.221592
 30
0.0
 10
7.680411
 20
68.904795
 30
0.0
 10
8.254118
 20
67.832853
 30
0.0
 10
7.680411
 20
66.760912
 30
0.0
 10
7.680411
 20
66.444251
 30
0.0
 10
8.254118
 20
65.372310
 30
0.0
 10
7.680411
 20
64.300369
 30
0.0
 10
7.680411
 20
63.983572
 30
0.0
 10
8.254118
 20
62.911631
 30
0.0
 10
7.680411
 20
61.839689
 30
0.0
 10
7.680411
 20
61.523029
 30
0.0
 10
8.254118
 20
60.451087
 30
0.0
 10
7.680273
 20
59.379145
 30
0.0
 10
7.680273
 20
59.062348
 30
0.0
 10
8.253980
 20
57.990407
 30
0.0
 10
7.680273
 20
56.918466
 30
0.0
 10
7.680273
 20
56.601669
 30
0.0
 10
8.253980
 20
55.529727
 30
0.0
 10
7.680273
 20
54.457786
 30
0.0
 10
7.680273
 20
54.140852
 30
0.0
 10
8.253980
 20
53.068911
 30
0.0
 10
7.680273
 20
51.996970
 30
0.0
 10
7.680273
 20
51.681679
 30
0.0
 10
8.253980
 20
50.609738
 30
0.0
 10
7.680273
 20
49.537795
 30
0.0
 10
7.680273
 20
49.219768
 30
0.0
 10
8.253980
 20
48.147827
 30
0.0
 10
7.680273
 20
47.075884
 30
0.0
 10
7.680273
 20
46.759225
 30
0.0
 10
8.253980
 20
45.687282
 30
0.0
 10
7.680273
 20
44.615338
 30
0.0
 10
7.680273
 20
44.298542
 30
0.0
 10
8.253980
 20
43.226601
 30
0.0
 10
7.680273
 20
42.154660
 30
0.0
 10
7.680273
 20
39.792833
 30
0.0
 10
7.680273
 20
39.792693
 30
0.0
  0
SPLINE
  5
104
100
AcDbEntity
  8
Layer_1
 62
7
100
AcDbSpline
 70
8
 71
3
 72
8
 73
4
 74
0
 40
0
 40
0
 40
0
 40
0
 40
1
 40
1
 40
1
 40
1
 10
6.799887
 20
35.133029
 30
0.0
 10
6.667437
 20
35.000226
 30
0.0
 10
6.525771
 20
34.858420
 30
0.0
 10
6.410085
 20
34.742803
 30
0.0
  0
LWPOLYLINE
  5
105
100
AcDbEntity
  8
Layer_1
 62
7
100
AcDbPolyline
 90
2
 70
0
 10
6.799887
 20
38.912033
 30
0.0
 10
6.799887
 20
35.133029
 30
0.0
  0
SPLINE
  5
106
100
AcDbEntity
  8
Layer_1
 62
7
100
AcDbSpline
 70
8
 71
3
 72
8
 73
4
 74
0
 40
0
 40
0
 40
0
 40
0
 40
1
 40
1
 40
1
 40
1
 10
5.367674
 20
34.742803
 30
0.0
 10
5.215057
 20
34.894808
 30
0.0
 10
5.063901
 20
35.046989
 30
0.0
 10
4.911826
 20
35.199063
 30
0.0
  0
LWPOLYLINE
  5
107
100
AcDbEntity
  8
Layer_1
 62
7
100
AcDbPolyline
 90
2
 70
0
 10
6.410085
 20
34.742803
 30
0.0
 10
5.367674
 20
34.742803
 30
0.0
  0
SPLINE
  5
108
100
AcDbEntity
  8
Layer_1
 62
7
100
AcDbSpline
 70
8
 71
3
 72
8
 73
4
 74
0
 40
0
 40
0
 40
0
 40
0
 40
1
 40
1
 40
1
 40
1
 10
4.991265
 20
35.232015
 30
0.0
 10
5.128216
 20
35.095378
 30
0.0
 10
5.263965
 20
34.958766
 30
0.0
 10
5.400490
 20
34.822241
 30
0.0
  0
LWPOLYLINE
  5
109
100
AcDbEntity
  8
Layer_1
 62
7
100
AcDbPolyline
 90
4
 70
0
 10
4.911826
 20
35.199063
 30
0.0
 10
4.911826
 20
35.350556
 30
0.0
 10
4.991265
 20
35.350556
 30
0.0
 10
4.991265
 20
35.232015
 30
0.0
  0
SPLINE
  5
10a
100
AcDbEntity
  8
Layer_1
 62
7
100
AcDbSpline
 70
8
 71
3
 72
8
 73
4
 74
0
 40
0
 40
0
 40
0
 40
0
 40
1
 40
1
 40
1
 40
1
 10
6.377268
 20
34.822241
 30
0.0
 10
6.491243
 20
34.936872
 30
0.0
 10
6.605890
 20
35.051341
 30
0.0
 10
6.720584
 20
35.165980
 30
0.0
  0
LWPOLYLINE
  5
10b
100
AcDbEntity
  8
Layer_1
 62
7
100
AcDbPolyline
 90
2
 70
0
 10
5.400490
 20
34.822241
 30
0.0
 10
6.377268
 20
34.822241
 30
0.0
  0
SPLINE
  5
10c
100
AcDbEntity
  8
Layer_1
 62
7
100
AcDbSpline
 70
8
 71
3
 72
8
 73
4
 74
0
 40
0
 40
0
 40
0
 40
0
 40
1
 40
1
 40
1
 40
1
 10
6.720584
 20
38.944984
 30
0.0
 10
7.015671
 20
39.240288
 30
0.0
 10
7.310972
 20
39.535373
 30
0.0
 10
7.606169
 20
39.830565
 30
0.0
  0
LWPOLYLINE
  5
10d
100
AcDbEntity
  8
Layer_1
 62
7
100
AcDbPolyline
 90
2
 70
0
 10
6.720584
 20
35.165980
 30
0.0
 10
6.720584
 20
38.944984
 30
0.0
  0
LWPOLYLINE
  5
10e
100
AcDbEntity
  8
Layer_1
 62
7
100
AcDbPolyline
 90
46
 70
0
 10
7.606169
 20
39.830565
 30
0.0
 10
7.606169
 20
42.156160
 30
0.0
 10
7.033279
 20
43.226598
 30
0.0
 10
7.606169
 20
44.297034
 30
0.0
 10
7.606169
 20
44.616841
 30
0.0
 10
7.033279
 20
45.687276
 30
0.0
 10
7.606169
 20
46.757717
 30
0.0
 10
7.606169
 20
47.077387
 30
0.0
 10
7.033279
 20
48.147822
 30
0.0
 10
7.606169
 20
49.218260
 30
0.0
 10
7.606169
 20
49.539295
 30
0.0
 10
7.033279
 20
50.609733
 30
0.0
 10
7.606169
 20
51.680171
 30
0.0
 10
7.606169
 20
51.998473
 30
0.0
 10
7.033279
 20
53.068911
 30
0.0
 10
7.606169
 20
54.139346
 30
0.0
 10
7.606169
 20
54.459287
 30
0.0
 10
7.033279
 20
55.529725
 30
0.0
 10
7.606169
 20
56.600163
 30
0.0
 10
7.606169
 20
56.919967
 30
0.0
 10
7.033279
 20
57.990405
 30
0.0
 10
7.606169
 20
59.060843
 30
0.0
 10
7.606169
 20
59.380648
 30
0.0
 10
7.033279
 20
60.451085
 30
0.0
 10
7.606169
 20
61.521522
 30
0.0
 10
7.606169
 20
61.841193
 30
0.0
 10
7.033279
 20
62.911631
 30
0.0
 10
7.606169
 20
63.982068
 30
0.0
 10
7.606169
 20
64.301873
 30
0.0
 10
7.033279
 20
65.372310
 30
0.0
 10
7.606169
 20
66.442748
 30
0.0
 10
7.606169
 20
66.762416
 30
0.0
 10
7.033279
 20
67.832854
 30
0.0
 10
7.606169
 20
68.903291
 30
0.0
 10
7.606169
 20
69.223096
 30
0.0
 10
7.033279
 20
70.293534
 30
0.0
 10
7.606169
 20
71.363971
 30
0.0
 10
7.606169
 20
71.683776
 30
0.0
 10
7.033279
 20
72.754214
 30
0.0
 10
7.606169
 20
73.824651
 30
0.0
 10
7.606169
 20
74.144323
 30
0.0
 10
7.033279
 20
75.214760
 30
0.0
 10
7.606169
 20
76.285198
 30
0.0
 10
7.606169
 20
76.609378
 30
0.0
 10
7.030546
 20
77.684874
 30
0.0
 10
7.031107
 20
77.685558
 30
0.0
  0
SPLINE
  5
10f
100
AcDbEntity
  8
Layer_1
 62
7
100
AcDbSpline
 70
8
 71
3
 72
8
 73
4
 74
0
 40
0
 40
0
 40
0
 40
0
 40
1
 40
1
 40
1
 40
1
 10
8.989733
 20
39.792701
 30
0.0
 10
8.310609
 20
39.112738
 30
0.0
 10
7.629553
 20
38.432931
 30
0.0
 10
6.950584
 20
37.753962
 30
0.0
  0
LWPOLYLINE
  5
110
100
AcDbEntity
  8
Layer_1
 62
7
100
AcDbPolyline
 90
47
 70
0
 10
8.346013
 20
77.685558
 30
0.0
 10
9.560699
 20
77.685558
 30
0.0
 10
9.563715
 20
77.679817
 30
0.0
 10
8.989733
 20
76.607328
 30
0.0
 10
8.989733
 20
76.287250
 30
0.0
 10
9.566448
 20
75.209703
 30
0.0
 10
8.989733
 20
74.132156
 30
0.0
 10
8.989733
 20
73.826707
 30
0.0
 10
9.566448
 20
72.749159
 30
0.0
 10
8.989733
 20
71.671612
 30
0.0
 10
8.989733
 20
71.366027
 30
0.0
 10
9.566448
 20
70.288479
 30
0.0
 10
8.989733
 20
69.210932
 30
0.0
 10
8.989733
 20
68.905346
 30
0.0
 10
9.566448
 20
67.827799
 30
0.0
 10
8.989733
 20
66.750252
 30
0.0
 10
8.989733
 20
66.444803
 30
0.0
 10
9.566448
 20
65.367257
 30
0.0
 10
8.989733
 20
64.289709
 30
0.0
 10
8.989733
 20
63.984123
 30
0.0
 10
9.566448
 20
62.906576
 30
0.0
 10
8.989733
 20
61.829028
 30
0.0
 10
8.989733
 20
61.523580
 30
0.0
 10
9.566448
 20
60.446033
 30
0.0
 10
8.989733
 20
59.368487
 30
0.0
 10
8.989733
 20
59.062900
 30
0.0
 10
9.566448
 20
57.985353
 30
0.0
 10
8.989733
 20
56.907806
 30
0.0
 10
8.989733
 20
56.602221
 30
0.0
 10
9.566448
 20
55.524674
 30
0.0
 10
8.989733
 20
54.447126
 30
0.0
 10
8.989733
 20
54.141540
 30
0.0
 10
9.566448
 20
53.063992
 30
0.0
 10
8.989733
 20
51.986447
 30
0.0
 10
8.989733
 20
51.682227
 30
0.0
 10
9.566448
 20
50.604679
 30
0.0
 10
8.989733
 20
49.527269
 30
0.0
 10
8.989733
 20
49.220318
 30
0.0
 10
9.566448
 20
48.142771
 30
0.0
 10
8.989733
 20
47.065224
 30
0.0
 10
8.989733
 20
46.759775
 30
0.0
 10
9.566448
 20
45.682228
 30
0.0
 10
8.989733
 20
44.604681
 30
0.0
 10
8.989733
 20
44.299095
 30
0.0
 10
9.566448
 20
43.221548
 30
0.0
 10
8.989733
 20
42.144000
 30
0.0
 10
8.989733
 20
39.792701
 30
0.0
  0
SPLINE
  5
111
100
AcDbEntity
  8
Layer_1
 62
7
100
AcDbSpline
 70
8
 71
3
 72
8
 73
4
 74
0
 40
0
 40
0
 40
0
 40
0
 40
1
 40
1
 40
1
 40
1
 10
6.950584
 20
35.065256
 30
0.0
 10
6.788373
 20
34.902754
 30
0.0
 10
6.626075
 20
34.741168
 30
0.0
 10
6.463827
 20
34.578920
 30
0.0
  0
LWPOLYLINE
  5
112
100
AcDbEntity
  8
Layer_1
 62
7
100
AcDbPolyline
 90
4
 70
0
 10
6.950584
 20
37.753962
 30
0.0
 10
6.950584
 20
35.066314
 30
0.0
 10
6.949525
 20
35.066314
 30
0.0
 10
6.950584
 20
35.065256
 30
0.0
  0
SPLINE
  5
113
100
AcDbEntity
  8
Layer_1
 62
7
100
AcDbSpline
 70
8
 71
3
 72
8
 73
4
 74
0
 40
0
 40
0
 40
0
 40
0
 40
1
 40
1
 40
1
 40
1
 10
5.268146
 20
34.578266
 30
0.0
 10
5.061136
 20
34.785128
 30
0.0
 10
4.854202
 20
34.992069
 30
0.0
 10
4.647267
 20
35.199008
 30
0.0
  0
LWPOLYLINE
  5
114
100
AcDbEntity
  8
Layer_1
 62
7
100
AcDbPolyline
 90
4
 70
0
 10
6.463827
 20
34.578920
 30
0.0
 10
6.463687
 20
34.579060
 30
0.0
 10
6.463687
 20
34.578266
 30
0.0
 10
5.268146
 20
34.578266
 30
0.0
  0
SPLINE
  5
115
100
AcDbEntity
  8
Layer_1
 62
7
100
AcDbSpline
 70
8
 71
3
 72
8
 73
4
 74
0
 40
0
 40
0
 40
0
 40
0
 40
1
 40
1
 40
1
 40
1
 10
4.726705
 20
35.232023
 30
0.0
 10
4.918073
 20
35.040509
 30
0.0
 10
5.109520
 20
34.849073
 30
0.0
 10
5.300959
 20
34.657631
 30
0.0
  0
LWPOLYLINE
  5
116
100
AcDbEntity
  8
Layer_1
 62
7
100
AcDbPolyline
 90
4
 70
0
 10
4.647267
 20
35.199008
 30
0.0
 10
4.647267
 20
35.350564
 30
0.0
 10
4.726705
 20
35.350564
 30
0.0
 10
4.726705
 20
35.232023
 30
0.0
  0
SPLINE
  5
117
100
AcDbEntity
  8
Layer_1
 62
7
100
AcDbSpline
 70
8
 71
3
 72
8
 73
4
 74
0
 40
0
 40
0
 40
0
 40
0
 40
1
 40
1
 40
1
 40
1
 10
6.430190
 20
34.657631
 30
0.0
 10
6.577180
 20
34.805054
 30
0.0
 10
6.724153
 20
34.951032
 30
0.0
 10
6.871142
 20
35.098022
 30
0.0
  0
LWPOLYLINE
  5
118
100
AcDbEntity
  8
Layer_1
 62
7
100
AcDbPolyline
 90
2
 70
0
 10
5.300959
 20
34.657631
 30
0.0
 10
6.430190
 20
34.657631
 30
0.0
  0
SPLINE
  5
119
100
AcDbEntity
  8
Layer_1
 62
7
100
AcDbSpline
 70
8
 71
3
 72
8
 73
4
 74
0
 40
0
 40
0
 40
0
 40
0
 40
1
 40
1
 40
1
 40
1
 10
6.869819
 20
37.785352
 30
0.0
 10
7.551757
 20
38.466371
 30
0.0
 10
8.233758
 20
39.148742
 30
0.0
 10
8.915671
 20
39.830655
 30
0.0
  0
LWPOLYLINE
  5
11a
100
AcDbEntity
  8
Layer_1
 62
7
100
AcDbPolyline
 90
3
 70
0
 10
6.871142
 20
35.098022
 30
0.0
 10
6.871142
 20
37.784029
 30
0.0
 10
6.869819
 20
37.785352
 30
0.0
  0
LWPOLYLINE
  5
11b
100
AcDbEntity
  8
Layer_1
 62
7
100
AcDbPolyline
 90
46
 70
0
 10
8.915671
 20
39.830655
 30
0.0
 10
8.915671
 20
42.156671
 30
0.0
 10
8.345790
 20
43.221503
 30
0.0
 10
8.915671
 20
44.286334
 30
0.0
 10
8.915671
 20
44.617352
 30
0.0
 10
8.345790
 20
45.682183
 30
0.0
 10
8.915671
 20
46.747015
 30
0.0
 10
8.915671
 20
47.077895
 30
0.0
 10
8.345790
 20
48.142726
 30
0.0
 10
8.915671
 20
49.207558
 30
0.0
 10
8.915671
 20
49.539940
 30
0.0
 10
8.345790
 20
50.604634
 30
0.0
 10
8.915671
 20
51.669468
 30
0.0
 10
8.915671
 20
51.999115
 30
0.0
 10
8.345790
 20
53.063947
 30
0.0
 10
8.915671
 20
54.128779
 30
0.0
 10
8.915671
 20
54.459796
 30
0.0
 10
8.345790
 20
55.524627
 30
0.0
 10
8.915671
 20
56.589459
 30
0.0
 10
8.915671
 20
56.920518
 30
0.0
 10
8.345790
 20
57.985350
 30
0.0
 10
8.915671
 20
59.050181
 30
0.0
 10
8.915671
 20
59.381198
 30
0.0
 10
8.345790
 20
60.446030
 30
0.0
 10
8.915671
 20
61.510861
 30
0.0
 10
8.915671
 20
61.841741
 30
0.0
 10
8.345790
 20
62.906572
 30
0.0
 10
8.915671
 20
63.971404
 30
0.0
 10
8.915671
 20
64.302421
 30
0.0
 10
8.345790
 20
65.367253
 30
0.0
 10
8.915671
 20
66.432084
 30
0.0
 10
8.915671
 20
66.762964
 30
0.0
 10
8.345790
 20
67.827795
 30
0.0
 10
8.915671
 20
68.892627
 30
0.0
 10
8.915671
 20
69.223646
 30
0.0
 10
8.345790
 20
70.288478
 30
0.0
 10
8.915671
 20
71.353310
 30
0.0
 10
8.915671
 20
71.684327
 30
0.0
 10
8.345790
 20
72.749158
 30
0.0
 10
8.915671
 20
73.813990
 30
0.0
 10
8.915671
 20
74.144870
 30
0.0
 10
8.345790
 20
75.209702
 30
0.0
 10
8.915671
 20
76.274533
 30
0.0
 10
8.915671
 20
76.609925
 30
0.0
 10
8.343058
 20
77.679815
 30
0.0
 10
8.346013
 20
77.685558
 30
0.0
  0
SPLINE
  5
11c
100
AcDbEntity
  8
Layer_1
 62
7
100
AcDbSpline
 70
8
 71
3
 72
8
 73
4
 74
0
 40
0
 40
0
 40
0
 40
0
 40
1
 40
1
 40
1
 40
1
 10
10.300119
 20
39.792698
 30
0.0
 10
9.109661
 20
38.600428
 30
0.0
 10
8.174317
 20
37.667880
 30
0.0
 10
7.101372
 20
36.594936
 30
0.0
  0
LWPOLYLINE
  5
11d
100
AcDbEntity
  8
Layer_1
 62
7
100
AcDbPolyline
 90
46
 70
0
 10
9.649845
 20
77.685558
 30
0.0
 10
10.869998
 20
77.685558
 30
0.0
 10
10.300119
 20
76.620726
 30
0.0
 10
10.300119
 20
76.286428
 30
0.0
 10
10.873143
 20
75.215854
 30
0.0
 10
10.300119
 20
74.145417
 30
0.0
 10
10.300119
 20
73.825885
 30
0.0
 10
10.873143
 20
72.755311
 30
0.0
 10
10.300119
 20
71.684874
 30
0.0
 10
10.300119
 20
71.365205
 30
0.0
 10
10.873143
 20
70.294631
 30
0.0
 10
10.300119
 20
69.224194
 30
0.0
 10
10.300119
 20
68.904525
 30
0.0
 10
10.873143
 20
67.833951
 30
0.0
 10
10.300119
 20
66.763514
 30
0.0
 10
10.300119
 20
66.443982
 30
0.0
 10
10.873143
 20
65.373407
 30
0.0
 10
10.300119
 20
64.302970
 30
0.0
 10
10.300119
 20
63.983302
 30
0.0
 10
10.873143
 20
62.912728
 30
0.0
 10
10.300119
 20
61.842290
 30
0.0
 10
10.300119
 20
61.522758
 30
0.0
 10
10.873143
 20
60.452185
 30
0.0
 10
10.300119
 20
59.381747
 30
0.0
 10
10.300119
 20
59.062079
 30
0.0
 10
10.873143
 20
57.991505
 30
0.0
 10
10.300119
 20
56.921067
 30
0.0
 10
10.300119
 20
56.601399
 30
0.0
 10
10.873143
 20
55.530825
 30
0.0
 10
10.300119
 20
54.460387
 30
0.0
 10
10.300119
 20
54.140719
 30
0.0
 10
10.873143
 20
53.070146
 30
0.0
 10
10.300119
 20
51.999708
 30
0.0
 10
10.300119
 20
51.682912
 30
0.0
 10
10.873143
 20
50.612336
 30
0.0
 10
10.300119
 20
49.541901
 30
0.0
 10
10.300119
 20
49.219633
 30
0.0
 10
10.873143
 20
48.149060
 30
0.0
 10
10.300119
 20
47.078622
 30
0.0
 10
10.300119
 20
46.758955
 30
0.0
 10
10.873143
 20
45.688377
 30
0.0
 10
10.300119
 20
44.617939
 30
0.0
 10
10.300119
 20
44.298407
 30
0.0
 10
10.873143
 20
43.227834
 30
0.0
 10
10.300119
 20
42.157396
 30
0.0
 10
10.300119
 20
39.792698
 30
0.0
  0
SPLINE
  5
11e
100
AcDbEntity
  8
Layer_1
 62
7
100
AcDbSpline
 70
8
 71
3
 72
8
 73
4
 74
0
 40
0
 40
0
 40
0
 40
0
 40
1
 40
1
 40
1
 40
1
 10
7.101372
 20
34.996181
 30
0.0
 10
6.904165
 20
34.799114
 30
0.0
 10
6.709889
 20
34.603433
 30
0.0
 10
6.512640
 20
34.406186
 30
0.0
  0
LWPOLYLINE
  5
11f
100
AcDbEntity
  8
Layer_1
 62
7
100
AcDbPolyline
 90
3
 70
0
 10
7.101372
 20
36.594936
 30
0.0
 10
7.101372
 20
34.996321
 30
0.0
 10
7.101372
 20
34.996181
 30
0.0
  0
SPLINE
  5
120
100
AcDbEntity
  8
Layer_1
 62
7
100
AcDbSpline
 70
8
 71
3
 72
8
 73
4
 74
0
 40
0
 40
0
 40
0
 40
0
 40
1
 40
1
 40
1
 40
1
 10
5.174835
 20
34.408303
 30
0.0
 10
4.910715
 20
34.673384
 30
0.0
 10
4.646893
 20
34.934874
 30
0.0
 10
4.382773
 20
35.198997
 30
0.0
  0
LWPOLYLINE
  5
121
100
AcDbEntity
  8
Layer_1
 62
7
100
AcDbPolyline
 90
3
 70
0
 10
6.512640
 20
34.406186
 30
0.0
 10
6.510523
 20
34.408303
 30
0.0
 10
5.174835
 20
34.408303
 30
0.0
  0
SPLINE
  5
122
100
AcDbEntity
  8
Layer_1
 62
7
100
AcDbSpline
 70
8
 71
3
 72
8
 73
4
 74
0
 40
0
 40
0
 40
0
 40
0
 40
1
 40
1
 40
1
 40
1
 10
4.462212
 20
35.232017
 30
0.0
 10
4.713553
 20
34.981240
 30
0.0
 10
4.986555
 20
34.709039
 30
0.0
 10
5.207786
 20
34.487810
 30
0.0
  0
LWPOLYLINE
  5
123
100
AcDbEntity
  8
Layer_1
 62
7
100
AcDbPolyline
 90
4
 70
0
 10
4.382773
 20
35.198997
 30
0.0
 10
4.382773
 20
35.350558
 30
0.0
 10
4.462212
 20
35.350558
 30
0.0
 10
4.462212
 20
35.232017
 30
0.0
  0
SPLINE
  5
124
100
AcDbEntity
  8
Layer_1
 62
7
100
AcDbSpline
 70
8
 71
3
 72
8
 73
4
 74
0
 40
0
 40
0
 40
0
 40
0
 40
1
 40
1
 40
1
 40
1
 10
6.481948
 20
34.487810
 30
0.0
 10
6.662907
 20
34.668653
 30
0.0
 10
6.840975
 20
34.848102
 30
0.0
 10
7.022003
 20
35.029129
 30
0.0
  0
LWPOLYLINE
  5
125
100
AcDbEntity
  8
Layer_1
 62
7
100
AcDbPolyline
 90
2
 70
0
 10
5.207786
 20
34.487810
 30
0.0
 10
6.481948
 20
34.487810
 30
0.0
  0
SPLINE
  5
126
100
AcDbEntity
  8
Layer_1
 62
7
100
AcDbSpline
 70
8
 71
3
 72
8
 73
4
 74
0
 40
0
 40
0
 40
0
 40
0
 40
1
 40
1
 40
1
 40
1
 10
7.029517
 20
36.635402
 30
0.0
 10
8.095172
 20
37.698754
 30
0.0
 10
9.160712
 20
38.765337
 30
0.0
 10
10.226078
 20
39.830703
 30
0.0
  0
LWPOLYLINE
  5
127
100
AcDbEntity
  8
Layer_1
 62
7
100
AcDbPolyline
 90
3
 70
0
 10
7.022003
 20
35.029129
 30
0.0
 10
7.022003
 20
36.635402
 30
0.0
 10
7.029517
 20
36.635402
 30
0.0
  0
LWPOLYLINE
  5
128
100
AcDbEntity
  8
Layer_1
 62
7
100
AcDbPolyline
 90
45
 70
0
 10
10.226078
 20
39.830703
 30
0.0
 10
10.226078
 20
42.155885
 30
0.0
 10
9.652372
 20
43.227829
 30
0.0
 10
10.226078
 20
44.299905
 30
0.0
 10
10.226078
 20
44.616431
 30
0.0
 10
9.652372
 20
45.688372
 30
0.0
 10
10.226078
 20
46.760453
 30
0.0
 10
10.226078
 20
47.077111
 30
0.0
 10
9.652372
 20
48.149052
 30
0.0
 10
10.226078
 20
49.221131
 30
0.0
 10
10.226078
 20
49.540390
 30
0.0
 10
9.652372
 20
50.612331
 30
0.0
 10
10.226078
 20
51.684409
 30
0.0
 10
10.226078
 20
51.998195
 30
0.0
 10
9.652372
 20
53.070138
 30
0.0
 10
10.226078
 20
54.142217
 30
0.0
 10
10.226078
 20
54.458877
 30
0.0
 10
9.652372
 20
55.530820
 30
0.0
 10
10.226078
 20
56.602897
 30
0.0
 10
10.226078
 20
56.919558
 30
0.0
 10
9.652372
 20
57.991499
 30
0.0
 10
10.226078
 20
59.063577
 30
0.0
 10
10.226078
 20
59.380237
 30
0.0
 10
9.652372
 20
60.452179
 30
0.0
 10
10.226078
 20
61.524257
 30
0.0
 10
10.226078
 20
61.840780
 30
0.0
 10
9.652372
 20
62.912721
 30
0.0
 10
10.226078
 20
63.984801
 30
0.0
 10
10.226078
 20
64.301459
 30
0.0
 10
9.652372
 20
65.373401
 30
0.0
 10
10.226078
 20
66.445480
 30
0.0
 10
10.226078
 20
66.762003
 30
0.0
 10
9.652372
 20
67.833944
 30
0.0
 10
10.226078
 20
68.906023
 30
0.0
 10
10.226078
 20
69.222683
 30
0.0
 10
9.652372
 20
70.294624
 30
0.0
 10
10.226078
 20
71.366703
 30
0.0
 10
10.226078
 20
71.683363
 30
0.0
 10
9.652372
 20
72.755304
 30
0.0
 10
10.226078
 20
73.827383
 30
0.0
 10
10.226078
 20
74.143906
 30
0.0
 10
9.652372
 20
75.215845
 30
0.0
 10
10.226078
 20
76.287923
 30
0.0
 10
10.226078
 20
76.608959
 30
0.0
 10
9.649845
 20
77.685558
 30
0.0
  0
SPLINE
  5
129
100
AcDbEntity
  8
Layer_1
 62
7
100
AcDbSpline
 70
8
 71
3
 72
8
 73
4
 74
0
 40
0
 40
0
 40
0
 40
0
 40
1
 40
1
 40
1
 40
1
 10
11.613939
 20
39.792701
 30
0.0
 10
10.008030
 20
38.186212
 30
0.0
 10
8.823635
 20
37.002776
 30
0.0
 10
7.313735
 20
35.492081
 30
0.0
  0
LWPOLYLINE
  5
12a
100
AcDbEntity
  8
Layer_1
 62
7
100
AcDbPolyline
 90
47
 70
0
 10
10.967896
 20
77.685558
 30
0.0
 10
12.180939
 20
77.685558
 30
0.0
 10
12.184776
 20
77.678449
 30
0.0
 10
11.613939
 20
76.611840
 30
0.0
 10
11.613939
 20
76.279866
 30
0.0
 10
12.187511
 20
75.208198
 30
0.0
 10
11.613939
 20
74.136530
 30
0.0
 10
11.613939
 20
73.819323
 30
0.0
 10
12.187511
 20
72.747655
 30
0.0
 10
11.613939
 20
71.675986
 30
0.0
 10
11.613939
 20
71.358643
 30
0.0
 10
12.187511
 20
70.286975
 30
0.0
 10
11.613939
 20
69.215306
 30
0.0
 10
11.613939
 20
68.897963
 30
0.0
 10
12.187511
 20
67.826295
 30
0.0
 10
11.613939
 20
66.754627
 30
0.0
 10
11.613939
 20
66.437419
 30
0.0
 10
12.187511
 20
65.365752
 30
0.0
 10
11.613939
 20
64.294085
 30
0.0
 10
11.613939
 20
63.976739
 30
0.0
 10
12.187511
 20
62.905072
 30
0.0
 10
11.613939
 20
61.833403
 30
0.0
 10
11.613939
 20
61.516197
 30
0.0
 10
12.187511
 20
60.444528
 30
0.0
 10
11.613939
 20
59.372861
 30
0.0
 10
11.613939
 20
59.055516
 30
0.0
 10
12.187511
 20
57.983849
 30
0.0
 10
11.613939
 20
56.912181
 30
0.0
 10
11.613939
 20
56.594836
 30
0.0
 10
12.187511
 20
55.523169
 30
0.0
 10
11.613939
 20
54.451502
 30
0.0
 10
11.613939
 20
54.134020
 30
0.0
 10
12.187511
 20
53.062354
 30
0.0
 10
11.613939
 20
51.990683
 30
0.0
 10
11.613939
 20
51.673477
 30
0.0
 10
12.187511
 20
50.601809
 30
0.0
 10
11.613939
 20
49.530140
 30
0.0
 10
11.613939
 20
49.212934
 30
0.0
 10
12.187511
 20
48.141266
 30
0.0
 10
11.613939
 20
47.069597
 30
0.0
 10
11.613939
 20
46.752253
 30
0.0
 10
12.187511
 20
45.680588
 30
0.0
 10
11.613939
 20
44.608919
 30
0.0
 10
11.613939
 20
44.291710
 30
0.0
 10
12.187511
 20
43.220042
 30
0.0
 10
11.613939
 20
42.148376
 30
0.0
 10
11.613939
 20
39.792701
 30
0.0
  0
SPLINE
  5
12b
100
AcDbEntity
  8
Layer_1
 62
7
100
AcDbSpline
 70
8
 71
3
 72
8
 73
4
 74
0
 40
0
 40
0
 40
0
 40
0
 40
1
 40
1
 40
1
 40
1
 10
7.262215
 20
34.936806
 30
0.0
 10
7.028212
 20
34.703160
 30
0.0
 10
6.794794
 20
34.469769
 30
0.0
 10
6.560937
 20
34.235811
 30
0.0
  0
LWPOLYLINE
  5
12c
100
AcDbEntity
  8
Layer_1
 62
7
100
AcDbPolyline
 90
4
 70
0
 10
7.313735
 20
35.492081
 30
0.0
 10
7.312941
 20
35.492875
 30
0.0
 10
7.262215
 20
35.442149
 30
0.0
 10
7.262215
 20
34.936806
 30
0.0
  0
SPLINE
  5
12d
100
AcDbEntity
  8
Layer_1
 62
7
100
AcDbSpline
 70
8
 71
3
 72
8
 73
4
 74
0
 40
0
 40
0
 40
0
 40
0
 40
1
 40
1
 40
1
 40
1
 10
5.082705
 20
34.234488
 30
0.0
 10
4.761170
 20
34.556073
 30
0.0
 10
4.439518
 20
34.877539
 30
0.0
 10
4.117957
 20
35.199098
 30
0.0
  0
LWPOLYLINE
  5
12e
100
AcDbEntity
  8
Layer_1
 62
7
100
AcDbPolyline
 90
5
 70
0
 10
6.560937
 20
34.235811
 30
0.0
 10
6.560937
 20
34.234752
 30
0.0
 10
5.084557
 20
34.234752
 30
0.0
 10
5.084557
 20
34.236340
 30
0.0
 10
5.082705
 20
34.234488
 30
0.0
  0
SPLINE
  5
12f
100
AcDbEntity
  8
Layer_1
 62
7
100
AcDbSpline
 70
8
 71
3
 72
8
 73
4
 74
0
 40
0
 40
0
 40
0
 40
0
 40
1
 40
1
 40
1
 40
1
 10
4.197396
 20
35.232049
 30
0.0
 10
4.503262
 20
34.925968
 30
0.0
 10
4.809337
 20
34.620099
 30
0.0
 10
5.115383
 20
34.314199
 30
0.0
  0
LWPOLYLINE
  5
130
100
AcDbEntity
  8
Layer_1
 62
7
100
AcDbPolyline
 90
4
 70
0
 10
4.117957
 20
35.199098
 30
0.0
 10
4.117957
 20
35.350593
 30
0.0
 10
4.197396
 20
35.350593
 30
0.0
 10
4.197396
 20
35.232049
 30
0.0
  0
SPLINE
  5
131
100
AcDbEntity
  8
Layer_1
 62
7
100
AcDbSpline
 70
8
 71
3
 72
8
 73
4
 74
0
 40
0
 40
0
 40
0
 40
0
 40
1
 40
1
 40
1
 40
1
 10
6.526954
 20
34.314199
 30
0.0
 10
6.745272
 20
34.532880
 30
0.0
 10
6.964382
 20
34.751283
 30
0.0
 10
7.182716
 20
34.969519
 30
0.0
  0
LWPOLYLINE
  5
132
100
AcDbEntity
  8
Layer_1
 62
7
100
AcDbPolyline
 90
2
 70
0
 10
5.115383
 20
34.314199
 30
0.0
 10
6.526954
 20
34.314199
 30
0.0
  0
SPLINE
  5
133
100
AcDbEntity
  8
Layer_1
 62
7
100
AcDbSpline
 70
8
 71
3
 72
8
 73
4
 74
0
 40
0
 40
0
 40
0
 40
0
 40
1
 40
1
 40
1
 40
1
 10
7.181922
 20
35.474251
 30
0.0
 10
8.668876
 20
36.957355
 30
0.0
 10
10.245883
 20
38.537097
 30
0.0
 10
11.539571
 20
39.830777
 30
0.0
  0
LWPOLYLINE
  5
134
100
AcDbEntity
  8
Layer_1
 62
7
100
AcDbPolyline
 90
4
 70
0
 10
7.182716
 20
34.969519
 30
0.0
 10
7.182716
 20
35.472399
 30
0.0
 10
7.183774
 20
35.472399
 30
0.0
 10
7.181922
 20
35.474251
 30
0.0
  0
LWPOLYLINE
  5
135
100
AcDbEntity
  8
Layer_1
 62
7
100
AcDbPolyline
 90
46
 70
0
 10
11.539571
 20
39.830777
 30
0.0
 10
11.539571
 20
42.149398
 30
0.0
 10
10.966547
 20
43.220108
 30
0.0
 10
11.539571
 20
44.290821
 30
0.0
 10
11.539571
 20
44.609941
 30
0.0
 10
10.966547
 20
45.680651
 30
0.0
 10
11.539571
 20
46.751364
 30
0.0
 10
11.539571
 20
47.070621
 30
0.0
 10
10.966547
 20
48.141332
 30
0.0
 10
11.539571
 20
49.212042
 30
0.0
 10
11.539571
 20
49.531164
 30
0.0
 10
10.966547
 20
50.601875
 30
0.0
 10
11.539571
 20
51.672585
 30
0.0
 10
11.539571
 20
51.991707
 30
0.0
 10
10.966547
 20
53.062418
 30
0.0
 10
11.539571
 20
54.133130
 30
0.0
 10
11.539571
 20
54.452525
 30
0.0
 10
10.966547
 20
55.523236
 30
0.0
 10
11.539571
 20
56.593947
 30
0.0
 10
11.539571
 20
56.913205
 30
0.0
 10
10.966547
 20
57.983915
 30
0.0
 10
11.539571
 20
59.054626
 30
0.0
 10
11.539571
 20
59.373884
 30
0.0
 10
10.966547
 20
60.444595
 30
0.0
 10
11.539571
 20
61.515306
 30
0.0
 10
11.539571
 20
61.834428
 30
0.0
 10
10.966547
 20
62.905138
 30
0.0
 10
11.539571
 20
63.975849
 30
0.0
 10
11.539571
 20
64.295028
 30
0.0
 10
10.966547
 20
65.365738
 30
0.0
 10
11.539571
 20
66.436449
 30
0.0
 10
11.539571
 20
66.755570
 30
0.0
 10
10.966547
 20
67.826282
 30
0.0
 10
11.539571
 20
68.896993
 30
0.0
 10
11.539571
 20
69.216251
 30
0.0
 10
10.966547
 20
70.286962
 30
0.0
 10
11.539571
 20
71.357673
 30
0.0
 10
11.539571
 20
71.676931
 30
0.0
 10
10.966547
 20
72.747642
 30
0.0
 10
11.539571
 20
73.818353
 30
0.0
 10
11.539571
 20
74.137474
 30
0.0
 10
10.966547
 20
75.208185
 30
0.0
 10
11.539571
 20
76.278896
 30
0.0
 10
11.539571
 20
76.602665
 30
0.0
 10
10.963811
 20
77.678435
 30
0.0
 10
10.967896
 20
77.685558
 30
0.0
  0
SPLINE
  5
136
100
AcDbEntity
  8
Layer_1
 62
7
100
AcDbSpline
 70
8
 71
3
 72
8
 73
4
 74
0
 40
0
 40
0
 40
0
 40
0
 40
1
 40
1
 40
1
 40
1
 10
12.615186
 20
39.482191
 30
0.0
 10
10.662469
 20
37.526481
 30
0.0
 10
8.912237
 20
35.781567
 30
0.0
 10
7.199144
 20
34.068475
 30
0.0
  0
LWPOLYLINE
  5
137
100
AcDbEntity
  8
Layer_1
 62
7
100
AcDbPolyline
 90
34
 70
0
 10
12.277469
 20
77.685558
 30
0.0
 10
12.925556
 20
77.685558
 30
0.0
 10
12.925556
 20
76.615667
 30
0.0
 10
12.925556
 20
76.278635
 30
0.0
 10
12.925556
 20
74.140221
 30
0.0
 10
12.925556
 20
73.818092
 30
0.0
 10
12.925556
 20
71.679678
 30
0.0
 10
12.925556
 20
71.357412
 30
0.0
 10
12.925556
 20
69.218998
 30
0.0
 10
12.925556
 20
68.896732
 30
0.0
 10
12.925556
 20
66.758318
 30
0.0
 10
12.925556
 20
66.436188
 30
0.0
 10
12.925556
 20
64.297775
 30
0.0
 10
12.925556
 20
63.975508
 30
0.0
 10
12.925556
 20
61.837095
 30
0.0
 10
12.925556
 20
61.514966
 30
0.0
 10
12.925556
 20
59.376552
 30
0.0
 10
12.925556
 20
59.054286
 30
0.0
 10
12.925556
 20
56.915872
 30
0.0
 10
12.925556
 20
56.593606
 30
0.0
 10
12.925556
 20
54.455192
 30
0.0
 10
12.925556
 20
54.132925
 30
0.0
 10
12.925556
 20
51.994512
 30
0.0
 10
12.925556
 20
51.673614
 30
0.0
 10
12.925556
 20
49.535337
 30
0.0
 10
12.925556
 20
49.211704
 30
0.0
 10
12.925556
 20
47.073291
 30
0.0
 10
12.925556
 20
46.751161
 30
0.0
 10
12.925556
 20
44.612743
 30
0.0
 10
12.925556
 20
44.290477
 30
0.0
 10
12.925556
 20
42.152065
 30
0.0
 10
12.925556
 20
40.153659
 30
0.0
 10
12.925556
 20
39.792698
 30
0.0
 10
12.615186
 20
39.482191
 30
0.0
  0
SPLINE
  5
138
100
AcDbEntity
  8
Layer_1
 62
7
100
AcDbSpline
 70
8
 71
3
 72
8
 73
4
 74
0
 40
0
 40
0
 40
0
 40
0
 40
1
 40
1
 40
1
 40
1
 10
4.982795
 20
34.068475
 30
0.0
 10
4.607113
 20
34.445551
 30
0.0
 10
4.230701
 20
34.821937
 30
0.0
 10
3.853567
 20
35.199074
 30
0.0
  0
LWPOLYLINE
  5
139
100
AcDbEntity
  8
Layer_1
 62
7
100
AcDbPolyline
 90
2
 70
0
 10
7.199144
 20
34.068475
 30
0.0
 10
4.982795
 20
34.068475
 30
0.0
  0
SPLINE
  5
13a
100
AcDbEntity
  8
Layer_1
 62
7
100
AcDbSpline
 70
8
 71
3
 72
8
 73
4
 74
0
 40
0
 40
0
 40
0
 40
0
 40
1
 40
1
 40
1
 40
1
 10
3.933003
 20
35.232023
 30
0.0
 10
4.295000
 20
34.871250
 30
0.0
 10
4.655281
 20
34.508387
 30
0.0
 10
5.015612
 20
34.147776
 30
0.0
  0
LWPOLYLINE
  5
13b
100
AcDbEntity
  8
Layer_1
 62
7
100
AcDbPolyline
 90
4
 70
0
 10
3.853567
 20
35.199074
 30
0.0
 10
3.853567
 20
35.350566
 30
0.0
 10
3.933003
 20
35.350566
 30
0.0
 10
3.933003
 20
35.232023
 30
0.0
  0
SPLINE
  5
13c
100
AcDbEntity
  8
Layer_1
 62
7
100
AcDbSpline
 70
8
 71
3
 72
8
 73
4
 74
0
 40
0
 40
0
 40
0
 40
0
 40
1
 40
1
 40
1
 40
1
 10
7.166330
 20
34.147776
 30
0.0
 10
9.028555
 20
36.005974
 30
0.0
 10
10.959241
 20
37.938498
 30
0.0
 10
12.559124
 20
39.538386
 30
0.0
  0
LWPOLYLINE
  5
13d
100
AcDbEntity
  8
Layer_1
 62
7
100
AcDbPolyline
 90
2
 70
0
 10
5.015612
 20
34.147776
 30
0.0
 10
7.166330
 20
34.147776
 30
0.0
  0
LWPOLYLINE
  5
13e
100
AcDbEntity
  8
Layer_1
 62
7
100
AcDbPolyline
 90
47
 70
0
 10
12.559124
 20
39.538386
 30
0.0
 10
12.846250
 20
39.825515
 30
0.0
 10
12.846250
 20
42.157671
 30
0.0
 10
12.277054
 20
43.221272
 30
0.0
 10
12.846250
 20
44.284874
 30
0.0
 10
12.846250
 20
44.618349
 30
0.0
 10
12.277054
 20
45.681950
 30
0.0
 10
12.846250
 20
46.745554
 30
0.0
 10
12.846250
 20
47.078895
 30
0.0
 10
12.277054
 20
48.142496
 30
0.0
 10
12.846250
 20
49.206097
 30
0.0
 10
12.846250
 20
49.540943
 30
0.0
 10
12.277054
 20
50.604544
 30
0.0
 10
12.846250
 20
51.668008
 30
0.0
 10
12.846250
 20
52.000118
 30
0.0
 10
12.277054
 20
53.063720
 30
0.0
 10
12.846250
 20
54.127320
 30
0.0
 10
12.846250
 20
54.460798
 30
0.0
 10
12.277054
 20
55.524399
 30
0.0
 10
12.846250
 20
56.588000
 30
0.0
 10
12.846250
 20
56.921478
 30
0.0
 10
12.277054
 20
57.985079
 30
0.0
 10
12.846250
 20
59.048680
 30
0.0
 10
12.846250
 20
59.382157
 30
0.0
 10
12.277054
 20
60.445758
 30
0.0
 10
12.846250
 20
61.509360
 30
0.0
 10
12.846250
 20
61.842701
 30
0.0
 10
12.277054
 20
62.906302
 30
0.0
 10
12.846250
 20
63.969903
 30
0.0
 10
12.846250
 20
64.303381
 30
0.0
 10
12.277054
 20
65.366982
 30
0.0
 10
12.846250
 20
66.430583
 30
0.0
 10
12.846250
 20
66.763924
 30
0.0
 10
12.277054
 20
67.827524
 30
0.0
 10
12.846250
 20
68.891126
 30
0.0
 10
12.846250
 20
69.224604
 30
0.0
 10
12.277054
 20
70.288205
 30
0.0
 10
12.846250
 20
71.351806
 30
0.0
 10
12.846250
 20
71.685284
 30
0.0
 10
12.277054
 20
72.748885
 30
0.0
 10
12.846250
 20
73.812486
 30
0.0
 10
12.846250
 20
74.145827
 30
0.0
 10
12.277054
 20
75.209428
 30
0.0
 10
12.846250
 20
76.273029
 30
0.0
 10
12.846250
 20
76.611019
 30
0.0
 10
12.274321
 20
77.679679
 30
0.0
 10
12.277469
 20
77.685558
 30
0.0
  0
LWPOLYLINE
  5
13f
100
AcDbEntity
  8
Layer_1
 62
7
100
AcDbPolyline
 90
8
 70
1
 10
6.105465
 20
77.632645
 30
0.0
 10
6.211290
 20
77.632645
 30
0.0
 10
6.211290
 20
38.793087
 30
0.0
 10
6.518654
 20
38.485588
 30
0.0
 10
6.518654
 20
36.125677
 30
0.0
 10
6.412828
 20
36.125677
 30
0.0
 10
6.412828
 20
38.441699
 30
0.0
 10
6.105465
 20
38.749060
 30
0.0
  0
LWPOLYLINE
  5
140
100
AcDbEntity
  8
Layer_1
 62
7
100
AcDbPolyline
 90
4
 70
1
 10
9.608007
 20
77.611314
 30
0.0
 10
10.188960
 20
76.470872
 30
0.0
 10
9.608007
 20
75.330430
 30
0.0
 10
9.016798
 20
76.470872
 30
0.0
  0
LWPOLYLINE
  5
141
100
AcDbEntity
  8
Layer_1
 62
7
100
AcDbPolyline
 90
4
 70
1
 10
6.988996
 20
77.610097
 30
0.0
 10
7.569950
 20
76.469655
 30
0.0
 10
6.988996
 20
75.329213
 30
0.0
 10
6.387122
 20
76.469655
 30
0.0
  0
LWPOLYLINE
  5
142
100
AcDbEntity
  8
Layer_1
 62
7
100
AcDbPolyline
 90
4
 70
1
 10
8.301441
 20
77.605175
 30
0.0
 10
8.882395
 20
76.464733
 30
0.0
 10
8.301441
 20
75.324155
 30
0.0
 10
7.710232
 20
76.464733
 30
0.0
  0
LWPOLYLINE
  5
143
100
AcDbEntity
  8
Layer_1
 62
7
100
AcDbPolyline
 90
4
 70
1
 10
12.232760
 20
77.604911
 30
0.0
 10
12.813714
 20
76.464469
 30
0.0
 10
12.232760
 20
75.324027
 30
0.0
 10
11.641414
 20
76.464469
 30
0.0
  0
SPLINE
  5
144
100
AcDbEntity
  8
Layer_1
 62
7
100
AcDbSpline
 70
8
 71
3
 72
8
 73
4
 74
0
 40
0
 40
0
 40
0
 40
0
 40
1
 40
1
 40
1
 40
1
 10
5.880548
 20
76.606379
 30
0.0
 10
5.956851
 20
76.606410
 30
0.0
 10
6.018734
 20
76.544587
 30
0.0
 10
6.018779
 20
76.468284
 30
0.0
  0
SPLINE
  5
145
100
AcDbEntity
  8
Layer_1
 62
7
100
AcDbSpline
 70
8
 71
3
 72
8
 73
4
 74
0
 40
0
 40
0
 40
0
 40
0
 40
1
 40
1
 40
1
 40
1
 10
6.018779
 20
76.468284
 30
0.0
 10
6.018811
 20
76.391928
 30
0.0
 10
5.956904
 20
76.330022
 30
0.0
 10
5.880548
 20
76.330053
 30
0.0
  0
SPLINE
  5
146
100
AcDbEntity
  8
Layer_1
 62
7
100
AcDbSpline
 70
8
 71
3
 72
8
 73
4
 74
0
 40
0
 40
0
 40
0
 40
0
 40
1
 40
1
 40
1
 40
1
 10
5.880548
 20
76.330053
 30
0.0
 10
5.857053
 20
76.330083
 30
0.0
 10
5.833941
 20
76.336107
 30
0.0
 10
5.813415
 20
76.347555
 30
0.0
  0
LWPOLYLINE
  5
147
100
AcDbEntity
  8
Layer_1
 62
7
100
AcDbPolyline
 90
4
 70
1
 10
10.922367
 20
77.603667
 30
0.0
 10
11.503320
 20
76.463226
 30
0.0
 10
10.922367
 20
75.322784
 30
0.0
 10
10.331158
 20
76.463226
 30
0.0
  0
SPLINE
  5
148
100
AcDbEntity
  8
Layer_1
 62
7
100
AcDbSpline
 70
8
 71
3
 72
8
 73
4
 74
0
 40
0
 40
0
 40
0
 40
0
 40
1
 40
1
 40
1
 40
1
 10
5.758024
 20
76.404424
 30
0.0
 10
5.747732
 20
76.424133
 30
0.0
 10
5.742335
 20
76.446036
 30
0.0
 10
5.742308
 20
76.468275
 30
0.0
  0
SPLINE
  5
149
100
AcDbEntity
  8
Layer_1
 62
7
100
AcDbSpline
 70
8
 71
3
 72
8
 73
4
 74
0
 40
0
 40
0
 40
0
 40
0
 40
1
 40
1
 40
1
 40
1
 10
5.742308
 20
76.468275
 30
0.0
 10
5.742351
 20
76.544578
 30
0.0
 10
5.804237
 20
76.606401
 30
0.0
 10
5.880537
 20
76.606370
 30
0.0
  0
LWPOLYLINE
  5
14a
100
AcDbEntity
  8
Layer_1
 62
7
100
AcDbPolyline
 90
73
 70
0
 10
5.813415
 20
76.347555
 30
0.0
 10
5.737943
 20
76.272082
 30
0.0
 10
5.737943
 20
74.256586
 30
0.0
 10
5.596703
 20
74.115210
 30
0.0
 10
5.596703
 20
72.099577
 30
0.0
 10
5.455328
 20
71.958338
 30
0.0
 10
5.455328
 20
69.942705
 30
0.0
 10
5.314088
 20
69.801466
 30
0.0
 10
5.314088
 20
67.785833
 30
0.0
 10
5.172711
 20
67.644593
 30
0.0
 10
5.172711
 20
65.628961
 30
0.0
 10
5.031473
 20
65.487722
 30
0.0
 10
5.031473
 20
63.472089
 30
0.0
 10
4.890096
 20
63.330850
 30
0.0
 10
4.890096
 20
61.315217
 30
0.0
 10
4.748856
 20
61.173841
 30
0.0
 10
4.748856
 20
59.158345
 30
0.0
 10
4.607481
 20
59.016969
 30
0.0
 10
4.607481
 20
57.001473
 30
0.0
 10
4.466241
 20
56.860097
 30
0.0
 10
4.466241
 20
54.844601
 30
0.0
 10
4.324866
 20
54.703225
 30
0.0
 10
4.324866
 20
52.687728
 30
0.0
 10
4.183627
 20
52.546488
 30
0.0
 10
4.183627
 20
50.530723
 30
0.0
 10
4.042252
 20
50.389483
 30
0.0
 10
4.042252
 20
48.373850
 30
0.0
 10
3.901012
 20
48.232748
 30
0.0
 10
3.901012
 20
46.216975
 30
0.0
 10
3.759634
 20
46.075735
 30
0.0
 10
3.759634
 20
37.415981
 30
0.0
 10
3.472509
 20
37.128852
 30
0.0
 10
3.472509
 20
37.054748
 30
0.0
 10
3.553177
 20
36.974079
 30
0.0
 10
3.754576
 20
36.974079
 30
0.0
 10
3.754576
 20
36.894640
 30
0.0
 10
3.521867
 20
36.894640
 30
0.0
 10
3.397444
 20
37.019061
 30
0.0
 10
3.397973
 20
37.019590
 30
0.0
 10
3.393052
 20
37.019590
 30
0.0
 10
3.393052
 20
37.161650
 30
0.0
 10
3.680180
 20
37.448641
 30
0.0
 10
3.680180
 20
46.108482
 30
0.0
 10
3.821555
 20
46.249857
 30
0.0
 10
3.821555
 20
48.265358
 30
0.0
 10
3.962932
 20
48.406733
 30
0.0
 10
3.962932
 20
50.422257
 30
0.0
 10
4.104170
 20
50.563634
 30
0.0
 10
4.104170
 20
52.579268
 30
0.0
 10
4.245409
 20
52.720370
 30
0.0
 10
4.245409
 20
54.736137
 30
0.0
 10
4.245550
 20
54.736137
 30
0.0
 10
4.386787
 20
54.877376
 30
0.0
 10
4.386787
 20
56.893009
 30
0.0
 10
4.528164
 20
57.034248
 30
0.0
 10
4.528164
 20
59.049881
 30
0.0
 10
4.669404
 20
59.191120
 30
0.0
 10
4.669404
 20
61.206753
 30
0.0
 10
4.810779
 20
61.347992
 30
0.0
 10
4.810779
 20
63.363625
 30
0.0
 10
4.952019
 20
63.505001
 30
0.0
 10
4.952019
 20
65.520498
 30
0.0
 10
5.093394
 20
65.661873
 30
0.0
 10
5.093394
 20
67.677369
 30
0.0
 10
5.234634
 20
67.818745
 30
0.0
 10
5.234634
 20
69.834270
 30
0.0
 10
5.376008
 20
69.975646
 30
0.0
 10
5.376008
 20
71.991143
 30
0.0
 10
5.517248
 20
72.132518
 30
0.0
 10
5.517248
 20
74.148151
 30
0.0
 10
5.658626
 20
74.289391
 30
0.0
 10
5.658626
 20
76.305023
 30
0.0
 10
5.758024
 20
76.404424
 30
0.0
  0
LWPOLYLINE
  5
14b
100
AcDbEntity
  8
Layer_1
 62
7
100
AcDbPolyline
 90
1
 70
1
 10
5.880537
 20
76.606370
 30
0.0
  0
LWPOLYLINE
  5
14c
100
AcDbEntity
  8
Layer_1
 62
7
100
AcDbPolyline
 90
4
 70
1
 10
9.610195
 20
75.134784
 30
0.0
 10
10.191285
 20
73.994342
 30
0.0
 10
9.610195
 20
72.853900
 30
0.0
 10
9.018986
 20
73.994342
 30
0.0
  0
LWPOLYLINE
  5
14d
100
AcDbEntity
  8
Layer_1
 62
7
100
AcDbPolyline
 90
4
 70
1
 10
6.991319
 20
75.133408
 30
0.0
 10
7.572276
 20
73.992966
 30
0.0
 10
6.991319
 20
72.852524
 30
0.0
 10
6.389310
 20
73.992966
 30
0.0
  0
LWPOLYLINE
  5
14e
100
AcDbEntity
  8
Layer_1
 62
7
100
AcDbPolyline
 90
4
 70
1
 10
8.303629
 20
75.128349
 30
0.0
 10
8.884582
 20
73.987907
 30
0.0
 10
8.303629
 20
72.847466
 30
0.0
 10
7.712420
 20
73.987907
 30
0.0
  0
LWPOLYLINE
  5
14f
100
AcDbEntity
  8
Layer_1
 62
7
100
AcDbPolyline
 90
4
 70
1
 10
12.234946
 20
75.128209
 30
0.0
 10
12.815902
 20
73.987767
 30
0.0
 10
12.234946
 20
72.847189
 30
0.0
 10
11.643740
 20
73.987767
 30
0.0
  0
SPLINE
  5
150
100
AcDbEntity
  8
Layer_1
 62
7
100
AcDbSpline
 70
8
 71
3
 72
8
 73
4
 74
0
 40
0
 40
0
 40
0
 40
0
 40
1
 40
1
 40
1
 40
1
 10
5.894631
 20
74.133921
 30
0.0
 10
5.970935
 20
74.133952
 30
0.0
 10
6.032818
 20
74.072129
 30
0.0
 10
6.032863
 20
73.995826
 30
0.0
  0
SPLINE
  5
151
100
AcDbEntity
  8
Layer_1
 62
7
100
AcDbSpline
 70
8
 71
3
 72
8
 73
4
 74
0
 40
0
 40
0
 40
0
 40
0
 40
1
 40
1
 40
1
 40
1
 10
6.032863
 20
73.995826
 30
0.0
 10
6.032895
 20
73.919470
 30
0.0
 10
5.970988
 20
73.857564
 30
0.0
 10
5.894631
 20
73.857595
 30
0.0
  0
SPLINE
  5
152
100
AcDbEntity
  8
Layer_1
 62
7
100
AcDbSpline
 70
8
 71
3
 72
8
 73
4
 74
0
 40
0
 40
0
 40
0
 40
0
 40
1
 40
1
 40
1
 40
1
 10
5.894631
 20
73.857595
 30
0.0
 10
5.869496
 20
73.857693
 30
0.0
 10
5.844871
 20
73.864641
 30
0.0
 10
5.823395
 20
73.877693
 30
0.0
  0
LWPOLYLINE
  5
153
100
AcDbEntity
  8
Layer_1
 62
7
100
AcDbPolyline
 90
4
 70
1
 10
10.924689
 20
75.126833
 30
0.0
 10
11.505643
 20
73.986392
 30
0.0
 10
10.924689
 20
72.845949
 30
0.0
 10
10.333480
 20
73.986392
 30
0.0
  0
SPLINE
  5
154
100
AcDbEntity
  8
Layer_1
 62
7
100
AcDbSpline
 70
8
 71
3
 72
8
 73
4
 74
0
 40
0
 40
0
 40
0
 40
0
 40
1
 40
1
 40
1
 40
1
 10
5.770076
 20
73.936634
 30
0.0
 10
5.761239
 20
73.955121
 30
0.0
 10
5.756609
 20
73.975343
 30
0.0
 10
5.756530
 20
73.995837
 30
0.0
  0
SPLINE
  5
155
100
AcDbEntity
  8
Layer_1
 62
7
100
AcDbSpline
 70
8
 71
3
 72
8
 73
4
 74
0
 40
0
 40
0
 40
0
 40
0
 40
1
 40
1
 40
1
 40
1
 10
5.756530
 20
73.995837
 30
0.0
 10
5.756572
 20
74.072086
 30
0.0
 10
5.818373
 20
74.133888
 30
0.0
 10
5.894624
 20
74.133932
 30
0.0
  0
LWPOLYLINE
  5
156
100
AcDbEntity
  8
Layer_1
 62
7
100
AcDbPolyline
 90
59
 70
0
 10
5.823395
 20
73.877693
 30
0.0
 10
5.759818
 20
73.814251
 30
0.0
 10
5.759818
 20
71.798618
 30
0.0
 10
5.618578
 20
71.657379
 30
0.0
 10
5.618578
 20
69.641746
 30
0.0
 10
5.477204
 20
69.500507
 30
0.0
 10
5.477204
 20
67.484874
 30
0.0
 10
5.335964
 20
67.343498
 30
0.0
 10
5.335964
 20
65.328003
 30
0.0
 10
5.194589
 20
65.186627
 30
0.0
 10
5.194589
 20
63.171134
 30
0.0
 10
5.053349
 20
63.029758
 30
0.0
 10
5.053349
 20
61.014262
 30
0.0
 10
4.911972
 20
60.872886
 30
0.0
 10
4.911972
 20
58.857390
 30
0.0
 10
4.770734
 20
58.716014
 30
0.0
 10
4.770734
 20
56.700518
 30
0.0
 10
4.629357
 20
56.559142
 30
0.0
 10
4.629357
 20
54.543509
 30
0.0
 10
4.488117
 20
54.402270
 30
0.0
 10
4.488117
 20
52.386636
 30
0.0
 10
4.346742
 20
52.245398
 30
0.0
 10
4.346742
 20
50.229767
 30
0.0
 10
4.205502
 20
50.088527
 30
0.0
 10
4.205502
 20
48.072895
 30
0.0
 10
4.064128
 20
47.931655
 30
0.0
 10
4.064128
 20
45.916019
 30
0.0
 10
3.922888
 20
45.774644
 30
0.0
 10
3.922888
 20
37.071274
 30
0.0
 10
3.843449
 20
37.071274
 30
0.0
 10
3.843449
 20
45.807596
 30
0.0
 10
3.984827
 20
45.948973
 30
0.0
 10
3.984827
 20
47.964471
 30
0.0
 10
4.126064
 20
48.105846
 30
0.0
 10
4.126064
 20
50.121341
 30
0.0
 10
4.267304
 20
50.262581
 30
0.0
 10
4.267304
 20
52.278211
 30
0.0
 10
4.267444
 20
52.278211
 30
0.0
 10
4.408681
 20
52.419589
 30
0.0
 10
4.408681
 20
54.435084
 30
0.0
 10
4.550059
 20
54.576460
 30
0.0
 10
4.550059
 20
56.591956
 30
0.0
 10
4.691299
 20
56.733332
 30
0.0
 10
4.691299
 20
58.748965
 30
0.0
 10
4.832673
 20
58.890204
 30
0.0
 10
4.832673
 20
60.905836
 30
0.0
 10
4.973913
 20
61.047076
 30
0.0
 10
4.973913
 20
63.062709
 30
0.0
 10
5.115288
 20
63.203948
 30
0.0
 10
5.115288
 20
65.219597
 30
0.0
 10
5.256528
 20
65.360836
 30
0.0
 10
5.256528
 20
67.376469
 30
0.0
 10
5.397903
 20
67.517845
 30
0.0
 10
5.397903
 20
69.533341
 30
0.0
 10
5.539143
 20
69.674716
 30
0.0
 10
5.539143
 20
71.690206
 30
0.0
 10
5.680520
 20
71.831582
 30
0.0
 10
5.680520
 20
73.847078
 30
0.0
 10
5.770076
 20
73.936634
 30
0.0
  0
LWPOLYLINE
  5
157
100
AcDbEntity
  8
Layer_1
 62
7
100
AcDbPolyline
 90
1
 70
1
 10
5.894624
 20
74.133932
 30
0.0
  0
LWPOLYLINE
  5
158
100
AcDbEntity
  8
Layer_1
 62
7
100
AcDbPolyline
 90
4
 70
1
 10
9.610195
 20
72.674220
 30
0.0
 10
10.191285
 20
71.533779
 30
0.0
 10
9.610195
 20
70.393337
 30
0.0
 10
9.018986
 20
71.533779
 30
0.0
  0
LWPOLYLINE
  5
159
100
AcDbEntity
  8
Layer_1
 62
7
100
AcDbPolyline
 90
4
 70
1
 10
6.991319
 20
72.672712
 30
0.0
 10
7.572276
 20
71.532270
 30
0.0
 10
6.991319
 20
70.391828
 30
0.0
 10
6.389310
 20
71.532270
 30
0.0
  0
LWPOLYLINE
  5
15a
100
AcDbEntity
  8
Layer_1
 62
7
100
AcDbPolyline
 90
4
 70
1
 10
8.303629
 20
72.667651
 30
0.0
 10
8.884582
 20
71.527209
 30
0.0
 10
8.303629
 20
70.386768
 30
0.0
 10
7.712420
 20
71.527209
 30
0.0
  0
LWPOLYLINE
  5
15b
100
AcDbEntity
  8
Layer_1
 62
7
100
AcDbPolyline
 90
4
 70
1
 10
12.234946
 20
72.667511
 30
0.0
 10
12.815902
 20
71.527069
 30
0.0
 10
12.234946
 20
70.386491
 30
0.0
 10
11.643740
 20
71.527069
 30
0.0
  0
SPLINE
  5
15c
100
AcDbEntity
  8
Layer_1
 62
7
100
AcDbSpline
 70
8
 71
3
 72
8
 73
4
 74
0
 40
0
 40
0
 40
0
 40
0
 40
1
 40
1
 40
1
 40
1
 10
5.894631
 20
71.672265
 30
0.0
 10
5.970988
 20
71.672296
 30
0.0
 10
6.032895
 20
71.610389
 30
0.0
 10
6.032863
 20
71.534033
 30
0.0
  0
SPLINE
  5
15d
100
AcDbEntity
  8
Layer_1
 62
7
100
AcDbSpline
 70
8
 71
3
 72
8
 73
4
 74
0
 40
0
 40
0
 40
0
 40
0
 40
1
 40
1
 40
1
 40
1
 10
6.032863
 20
71.534033
 30
0.0
 10
6.032818
 20
71.457731
 30
0.0
 10
5.970935
 20
71.395907
 30
0.0
 10
5.894631
 20
71.395939
 30
0.0
  0
SPLINE
  5
15e
100
AcDbEntity
  8
Layer_1
 62
7
100
AcDbSpline
 70
8
 71
3
 72
8
 73
4
 74
0
 40
0
 40
0
 40
0
 40
0
 40
1
 40
1
 40
1
 40
1
 10
5.894631
 20
71.395939
 30
0.0
 10
5.864503
 20
71.395983
 30
0.0
 10
5.835214
 20
71.405874
 30
0.0
 10
5.811227
 20
71.424105
 30
0.0
  0
LWPOLYLINE
  5
15f
100
AcDbEntity
  8
Layer_1
 62
7
100
AcDbPolyline
 90
4
 70
1
 10
10.924689
 20
72.666135
 30
0.0
 10
11.505643
 20
71.525693
 30
0.0
 10
10.924689
 20
70.385251
 30
0.0
 10
10.333480
 20
71.525693
 30
0.0
  0
SPLINE
  5
160
100
AcDbEntity
  8
Layer_1
 62
7
100
AcDbSpline
 70
8
 71
3
 72
8
 73
4
 74
0
 40
0
 40
0
 40
0
 40
0
 40
1
 40
1
 40
1
 40
1
 10
5.763922
 20
71.489218
 30
0.0
 10
5.758948
 20
71.503648
 30
0.0
 10
5.756408
 20
71.518802
 30
0.0
 10
5.756408
 20
71.534064
 30
0.0
  0
SPLINE
  5
161
100
AcDbEntity
  8
Layer_1
 62
7
100
AcDbSpline
 70
8
 71
3
 72
8
 73
4
 74
0
 40
0
 40
0
 40
0
 40
0
 40
1
 40
1
 40
1
 40
1
 10
5.756408
 20
71.534064
 30
0.0
 10
5.756376
 20
71.610366
 30
0.0
 10
5.818199
 20
71.672251
 30
0.0
 10
5.894502
 20
71.672295
 30
0.0
  0
LWPOLYLINE
  5
162
100
AcDbEntity
  8
Layer_1
 62
7
100
AcDbPolyline
 90
62
 70
0
 10
5.811227
 20
71.424105
 30
0.0
 10
5.767065
 20
71.379942
 30
0.0
 10
5.767065
 20
69.364309
 30
0.0
 10
5.625825
 20
69.222934
 30
0.0
 10
5.625825
 20
67.207301
 30
0.0
 10
5.484451
 20
67.066062
 30
0.0
 10
5.484451
 20
65.050429
 30
0.0
 10
5.343211
 20
64.909190
 30
0.0
 10
5.343211
 20
62.893557
 30
0.0
 10
5.201833
 20
62.752318
 30
0.0
 10
5.201833
 20
60.736685
 30
0.0
 10
5.060596
 20
60.595446
 30
0.0
 10
5.060596
 20
58.579813
 30
0.0
 10
4.919219
 20
58.438573
 30
0.0
 10
4.919219
 20
56.422941
 30
0.0
 10
4.777979
 20
56.281565
 30
0.0
 10
4.777979
 20
54.266069
 30
0.0
 10
4.636604
 20
54.124693
 30
0.0
 10
4.636604
 20
52.109198
 30
0.0
 10
4.495364
 20
51.967818
 30
0.0
 10
4.495364
 20
49.952323
 30
0.0
 10
4.353989
 20
49.810948
 30
0.0
 10
4.353989
 20
47.795450
 30
0.0
 10
4.212749
 20
47.654075
 30
0.0
 10
4.212749
 20
45.638580
 30
0.0
 10
4.212749
 20
45.638440
 30
0.0
 10
4.071374
 20
45.497200
 30
0.0
 10
4.071374
 20
38.029023
 30
0.0
 10
4.052642
 20
37.766096
 30
0.0
 10
4.051584
 20
37.766236
 30
0.0
 10
4.051584
 20
37.137972
 30
0.0
 10
4.051584
 20
37.071797
 30
0.0
 10
3.972145
 20
37.071797
 30
0.0
 10
3.972145
 20
37.778952
 30
0.0
 10
3.990878
 20
38.041876
 30
0.0
 10
3.991936
 20
38.041736
 30
0.0
 10
3.991936
 20
45.530027
 30
0.0
 10
4.133176
 20
45.671401
 30
0.0
 10
4.133176
 20
47.687034
 30
0.0
 10
4.274551
 20
47.828274
 30
0.0
 10
4.274551
 20
49.843907
 30
0.0
 10
4.415791
 20
49.985147
 30
0.0
 10
4.415791
 20
52.000777
 30
0.0
 10
4.557168
 20
52.142018
 30
0.0
 10
4.557168
 20
54.157652
 30
0.0
 10
4.698405
 20
54.298891
 30
0.0
 10
4.698405
 20
56.314524
 30
0.0
 10
4.839783
 20
56.455900
 30
0.0
 10
4.839783
 20
58.471396
 30
0.0
 10
4.981023
 20
58.612772
 30
0.0
 10
4.981023
 20
60.628268
 30
0.0
 10
5.122397
 20
60.769644
 30
0.0
 10
5.122397
 20
62.785140
 30
0.0
 10
5.263637
 20
62.926516
 30
0.0
 10
5.263637
 20
64.942041
 30
0.0
 10
5.405012
 20
65.083417
 30
0.0
 10
5.405012
 20
67.098913
 30
0.0
 10
5.546252
 20
67.240289
 30
0.0
 10
5.546252
 20
69.255922
 30
0.0
 10
5.687492
 20
69.397024
 30
0.0
 10
5.687492
 20
71.412787
 30
0.0
 10
5.763922
 20
71.489218
 30
0.0
  0
LWPOLYLINE
  5
163
100
AcDbEntity
  8
Layer_1
 62
7
100
AcDbPolyline
 90
2
 70
0
 10
5.894502
 20
71.672295
 30
0.0
 10
5.894631
 20
71.672265
 30
0.0
  0
LWPOLYLINE
  5
164
100
AcDbEntity
  8
Layer_1
 62
7
100
AcDbPolyline
 90
4
 70
1
 10
9.610195
 20
70.213522
 30
0.0
 10
10.191285
 20
69.073080
 30
0.0
 10
9.610195
 20
67.932639
 30
0.0
 10
9.018986
 20
69.073080
 30
0.0
  0
LWPOLYLINE
  5
165
100
AcDbEntity
  8
Layer_1
 62
7
100
AcDbPolyline
 90
4
 70
1
 10
6.991319
 20
70.212146
 30
0.0
 10
7.572276
 20
69.071704
 30
0.0
 10
6.991319
 20
67.931263
 30
0.0
 10
6.389310
 20
69.071704
 30
0.0
  0
LWPOLYLINE
  5
166
100
AcDbEntity
  8
Layer_1
 62
7
100
AcDbPolyline
 90
4
 70
1
 10
8.303629
 20
70.206953
 30
0.0
 10
8.884582
 20
69.066510
 30
0.0
 10
8.303629
 20
67.926069
 30
0.0
 10
7.712420
 20
69.066510
 30
0.0
  0
LWPOLYLINE
  5
167
100
AcDbEntity
  8
Layer_1
 62
7
100
AcDbPolyline
 90
4
 70
1
 10
12.234946
 20
70.206812
 30
0.0
 10
12.815902
 20
69.066370
 30
0.0
 10
12.234946
 20
67.925792
 30
0.0
 10
11.643740
 20
69.066370
 30
0.0
  0
SPLINE
  5
168
100
AcDbEntity
  8
Layer_1
 62
7
100
AcDbSpline
 70
8
 71
3
 72
8
 73
4
 74
0
 40
0
 40
0
 40
0
 40
0
 40
1
 40
1
 40
1
 40
1
 10
5.898185
 20
69.214020
 30
0.0
 10
5.974541
 20
69.214052
 30
0.0
 10
6.036448
 20
69.152145
 30
0.0
 10
6.036416
 20
69.075789
 30
0.0
  0
SPLINE
  5
169
100
AcDbEntity
  8
Layer_1
 62
7
100
AcDbSpline
 70
8
 71
3
 72
8
 73
4
 74
0
 40
0
 40
0
 40
0
 40
0
 40
1
 40
1
 40
1
 40
1
 10
6.036416
 20
69.075789
 30
0.0
 10
6.036374
 20
68.999487
 30
0.0
 10
5.974488
 20
68.937663
 30
0.0
 10
5.898185
 20
68.937694
 30
0.0
  0
SPLINE
  5
16a
100
AcDbEntity
  8
Layer_1
 62
7
100
AcDbSpline
 70
8
 71
3
 72
8
 73
4
 74
0
 40
0
 40
0
 40
0
 40
0
 40
1
 40
1
 40
1
 40
1
 10
5.898185
 20
68.937694
 30
0.0
 10
5.868057
 20
68.937739
 30
0.0
 10
5.838770
 20
68.947629
 30
0.0
 10
5.814783
 20
68.965860
 30
0.0
  0
LWPOLYLINE
  5
16b
100
AcDbEntity
  8
Layer_1
 62
7
100
AcDbPolyline
 90
4
 70
1
 10
10.924689
 20
70.205436
 30
0.0
 10
11.505643
 20
69.064994
 30
0.0
 10
10.924689
 20
67.924552
 30
0.0
 10
10.333480
 20
69.064994
 30
0.0
  0
SPLINE
  5
16c
100
AcDbEntity
  8
Layer_1
 62
7
100
AcDbSpline
 70
8
 71
3
 72
8
 73
4
 74
0
 40
0
 40
0
 40
0
 40
0
 40
1
 40
1
 40
1
 40
1
 10
5.767610
 20
69.030998
 30
0.0
 10
5.762636
 20
69.045428
 30
0.0
 10
5.760096
 20
69.060583
 30
0.0
 10
5.760096
 20
69.075845
 30
0.0
  0
SPLINE
  5
16d
100
AcDbEntity
  8
Layer_1
 62
7
100
AcDbSpline
 70
8
 71
3
 72
8
 73
4
 74
0
 40
0
 40
0
 40
0
 40
0
 40
1
 40
1
 40
1
 40
1
 10
5.760096
 20
69.075845
 30
0.0
 10
5.760064
 20
69.152147
 30
0.0
 10
5.821890
 20
69.214032
 30
0.0
 10
5.898190
 20
69.214076
 30
0.0
  0
LWPOLYLINE
  5
16e
100
AcDbEntity
  8
Layer_1
 62
7
100
AcDbPolyline
 90
55
 70
0
 10
5.814783
 20
68.965860
 30
0.0
 10
5.770619
 20
68.921697
 30
0.0
 10
5.770619
 20
66.906065
 30
0.0
 10
5.629244
 20
66.764825
 30
0.0
 10
5.629244
 20
64.749193
 30
0.0
 10
5.488004
 20
64.607954
 30
0.0
 10
5.488004
 20
62.592321
 30
0.0
 10
5.346629
 20
62.451082
 30
0.0
 10
5.346629
 20
60.435450
 30
0.0
 10
5.205389
 20
60.294210
 30
0.0
 10
5.205389
 20
58.278577
 30
0.0
 10
5.064012
 20
58.137201
 30
0.0
 10
5.064012
 20
56.121705
 30
0.0
 10
4.922775
 20
55.980329
 30
0.0
 10
4.922775
 20
53.964832
 30
0.0
 10
4.781397
 20
53.823458
 30
0.0
 10
4.781397
 20
51.807962
 30
0.0
 10
4.640157
 20
51.666584
 30
0.0
 10
4.640157
 20
49.651089
 30
0.0
 10
4.498782
 20
49.509712
 30
0.0
 10
4.498782
 20
47.494079
 30
0.0
 10
4.357543
 20
47.352842
 30
0.0
 10
4.357543
 20
45.337206
 30
0.0
 10
4.216168
 20
45.195966
 30
0.0
 10
4.216168
 20
38.012045
 30
0.0
 10
4.183899
 20
37.746794
 30
0.0
 10
4.183899
 20
37.137946
 30
0.0
 10
4.183899
 20
37.071771
 30
0.0
 10
4.104461
 20
37.071771
 30
0.0
 10
4.104461
 20
37.755407
 30
0.0
 10
4.136867
 20
38.022025
 30
0.0
 10
4.136867
 20
45.228788
 30
0.0
 10
4.278104
 20
45.370163
 30
0.0
 10
4.278104
 20
47.385661
 30
0.0
 10
4.419481
 20
47.527038
 30
0.0
 10
4.419481
 20
49.542671
 30
0.0
 10
4.560721
 20
49.683908
 30
0.0
 10
4.560721
 20
51.699541
 30
0.0
 10
4.702096
 20
51.840781
 30
0.0
 10
4.702096
 20
53.856414
 30
0.0
 10
4.843336
 20
53.997653
 30
0.0
 10
4.843336
 20
56.013285
 30
0.0
 10
4.984711
 20
56.154525
 30
0.0
 10
4.984711
 20
58.170158
 30
0.0
 10
5.125951
 20
58.311534
 30
0.0
 10
5.125951
 20
60.327030
 30
0.0
 10
5.267326
 20
60.468406
 30
0.0
 10
5.267326
 20
62.483901
 30
0.0
 10
5.408565
 20
62.625277
 30
0.0
 10
5.408565
 20
64.640774
 30
0.0
 10
5.549943
 20
64.782149
 30
0.0
 10
5.549943
 20
66.797646
 30
0.0
 10
5.691180
 20
66.939022
 30
0.0
 10
5.691180
 20
68.954567
 30
0.0
 10
5.767610
 20
69.030998
 30
0.0
  0
LWPOLYLINE
  5
16f
100
AcDbEntity
  8
Layer_1
 62
7
100
AcDbPolyline
 90
1
 70
1
 10
5.898190
 20
69.214076
 30
0.0
  0
LWPOLYLINE
  5
170
100
AcDbEntity
  8
Layer_1
 62
7
100
AcDbPolyline
 90
4
 70
1
 10
9.610195
 20
67.752680
 30
0.0
 10
10.191285
 20
66.612238
 30
0.0
 10
9.610195
 20
65.471795
 30
0.0
 10
9.018986
 20
66.612238
 30
0.0
  0
LWPOLYLINE
  5
171
100
AcDbEntity
  8
Layer_1
 62
7
100
AcDbPolyline
 90
4
 70
1
 10
6.991319
 20
67.751304
 30
0.0
 10
7.572276
 20
66.610862
 30
0.0
 10
6.991319
 20
65.470420
 30
0.0
 10
6.389310
 20
66.610862
 30
0.0
  0
LWPOLYLINE
  5
172
100
AcDbEntity
  8
Layer_1
 62
7
100
AcDbPolyline
 90
4
 70
1
 10
8.303629
 20
67.746242
 30
0.0
 10
8.884582
 20
66.605800
 30
0.0
 10
8.303629
 20
65.465359
 30
0.0
 10
7.712420
 20
66.605800
 30
0.0
  0
LWPOLYLINE
  5
173
100
AcDbEntity
  8
Layer_1
 62
7
100
AcDbPolyline
 90
4
 70
1
 10
12.234946
 20
67.746102
 30
0.0
 10
12.815902
 20
66.605661
 30
0.0
 10
12.234946
 20
65.465082
 30
0.0
 10
11.643740
 20
66.605661
 30
0.0
  0
SPLINE
  5
174
100
AcDbEntity
  8
Layer_1
 62
7
100
AcDbSpline
 70
8
 71
3
 72
8
 73
4
 74
0
 40
0
 40
0
 40
0
 40
0
 40
1
 40
1
 40
1
 40
1
 10
5.901193
 20
66.749352
 30
0.0
 10
5.977549
 20
66.749383
 30
0.0
 10
6.039456
 20
66.687476
 30
0.0
 10
6.039425
 20
66.611121
 30
0.0
  0
SPLINE
  5
175
100
AcDbEntity
  8
Layer_1
 62
7
100
AcDbSpline
 70
8
 71
3
 72
8
 73
4
 74
0
 40
0
 40
0
 40
0
 40
0
 40
1
 40
1
 40
1
 40
1
 10
6.039425
 20
66.611121
 30
0.0
 10
6.039380
 20
66.534818
 30
0.0
 10
5.977496
 20
66.472995
 30
0.0
 10
5.901193
 20
66.473027
 30
0.0
  0
SPLINE
  5
176
100
AcDbEntity
  8
Layer_1
 62
7
100
AcDbSpline
 70
8
 71
3
 72
8
 73
4
 74
0
 40
0
 40
0
 40
0
 40
0
 40
1
 40
1
 40
1
 40
1
 10
5.901193
 20
66.473027
 30
0.0
 10
5.871065
 20
66.473071
 30
0.0
 10
5.841778
 20
66.482962
 30
0.0
 10
5.817791
 20
66.501192
 30
0.0
  0
LWPOLYLINE
  5
177
100
AcDbEntity
  8
Layer_1
 62
7
100
AcDbPolyline
 90
4
 70
1
 10
10.924689
 20
67.744726
 30
0.0
 10
11.505643
 20
66.604285
 30
0.0
 10
10.924689
 20
65.463843
 30
0.0
 10
10.333480
 20
66.604285
 30
0.0
  0
SPLINE
  5
178
100
AcDbEntity
  8
Layer_1
 62
7
100
AcDbSpline
 70
8
 71
3
 72
8
 73
4
 74
0
 40
0
 40
0
 40
0
 40
0
 40
1
 40
1
 40
1
 40
1
 10
5.770619
 20
66.566280
 30
0.0
 10
5.765644
 20
66.580710
 30
0.0
 10
5.763104
 20
66.595865
 30
0.0
 10
5.763104
 20
66.611126
 30
0.0
  0
SPLINE
  5
179
100
AcDbEntity
  8
Layer_1
 62
7
100
AcDbSpline
 70
8
 71
3
 72
8
 73
4
 74
0
 40
0
 40
0
 40
0
 40
0
 40
1
 40
1
 40
1
 40
1
 10
5.763104
 20
66.611126
 30
0.0
 10
5.763073
 20
66.687429
 30
0.0
 10
5.824898
 20
66.749314
 30
0.0
 10
5.901198
 20
66.749357
 30
0.0
  0
LWPOLYLINE
  5
17a
100
AcDbEntity
  8
Layer_1
 62
7
100
AcDbPolyline
 90
53
 70
0
 10
5.817791
 20
66.501192
 30
0.0
 10
5.773627
 20
66.457029
 30
0.0
 10
5.773627
 20
64.441396
 30
0.0
 10
5.632252
 20
64.300158
 30
0.0
 10
5.632252
 20
62.284525
 30
0.0
 10
5.491012
 20
62.143149
 30
0.0
 10
5.491012
 20
60.127653
 30
0.0
 10
5.349637
 20
59.986277
 30
0.0
 10
5.349637
 20
57.970780
 30
0.0
 10
5.208398
 20
57.829404
 30
0.0
 10
5.208398
 20
55.813909
 30
0.0
 10
5.067020
 20
55.672533
 30
0.0
 10
5.067020
 20
53.657038
 30
0.0
 10
4.925783
 20
53.515660
 30
0.0
 10
4.925783
 20
51.500027
 30
0.0
 10
4.784405
 20
51.358787
 30
0.0
 10
4.784405
 20
49.343154
 30
0.0
 10
4.643166
 20
49.201914
 30
0.0
 10
4.643166
 20
47.186284
 30
0.0
 10
4.501791
 20
47.045044
 30
0.0
 10
4.501791
 20
45.029408
 30
0.0
 10
4.360551
 20
44.888169
 30
0.0
 10
4.360551
 20
37.945161
 30
0.0
 10
4.317482
 20
37.693444
 30
0.0
 10
4.316159
 20
37.693708
 30
0.0
 10
4.316159
 20
37.137911
 30
0.0
 10
4.316159
 20
37.071737
 30
0.0
 10
4.236721
 20
37.071737
 30
0.0
 10
4.236721
 20
37.713809
 30
0.0
 10
4.279789
 20
37.965523
 30
0.0
 10
4.281112
 20
37.965258
 30
0.0
 10
4.281112
 20
44.920982
 30
0.0
 10
4.422490
 20
45.062360
 30
0.0
 10
4.422490
 20
47.077858
 30
0.0
 10
4.563730
 20
47.219232
 30
0.0
 10
4.563730
 20
49.234730
 30
0.0
 10
4.705104
 20
49.376105
 30
0.0
 10
4.705104
 20
51.391600
 30
0.0
 10
4.846344
 20
51.532978
 30
0.0
 10
4.846344
 20
53.548612
 30
0.0
 10
4.987719
 20
53.689849
 30
0.0
 10
4.987719
 20
55.705483
 30
0.0
 10
5.128959
 20
55.846722
 30
0.0
 10
5.128959
 20
57.862355
 30
0.0
 10
5.270334
 20
58.003593
 30
0.0
 10
5.270334
 20
60.019226
 30
0.0
 10
5.411574
 20
60.160466
 30
0.0
 10
5.411574
 20
62.176099
 30
0.0
 10
5.552951
 20
62.317338
 30
0.0
 10
5.552951
 20
64.332971
 30
0.0
 10
5.694188
 20
64.474347
 30
0.0
 10
5.694188
 20
66.489849
 30
0.0
 10
5.770619
 20
66.566280
 30
0.0
  0
LWPOLYLINE
  5
17b
100
AcDbEntity
  8
Layer_1
 62
7
100
AcDbPolyline
 90
1
 70
1
 10
5.901198
 20
66.749357
 30
0.0
  0
LWPOLYLINE
  5
17c
100
AcDbEntity
  8
Layer_1
 62
7
100
AcDbPolyline
 90
4
 70
1
 10
9.610195
 20
65.292114
 30
0.0
 10
10.191285
 20
64.151671
 30
0.0
 10
9.610195
 20
63.011230
 30
0.0
 10
9.018986
 20
64.151671
 30
0.0
  0
LWPOLYLINE
  5
17d
100
AcDbEntity
  8
Layer_1
 62
7
100
AcDbPolyline
 90
4
 70
1
 10
6.991319
 20
65.290738
 30
0.0
 10
7.572276
 20
64.150295
 30
0.0
 10
6.991319
 20
63.009854
 30
0.0
 10
6.389310
 20
64.150295
 30
0.0
  0
LWPOLYLINE
  5
17e
100
AcDbEntity
  8
Layer_1
 62
7
100
AcDbPolyline
 90
4
 70
1
 10
8.303629
 20
65.285676
 30
0.0
 10
8.884582
 20
64.145235
 30
0.0
 10
8.303629
 20
63.004793
 30
0.0
 10
7.712420
 20
64.145235
 30
0.0
  0
LWPOLYLINE
  5
17f
100
AcDbEntity
  8
Layer_1
 62
7
100
AcDbPolyline
 90
4
 70
1
 10
12.234946
 20
65.285536
 30
0.0
 10
12.815902
 20
64.145095
 30
0.0
 10
12.234946
 20
63.004516
 30
0.0
 10
11.643740
 20
64.145095
 30
0.0
  0
SPLINE
  5
180
100
AcDbEntity
  8
Layer_1
 62
7
100
AcDbSpline
 70
8
 71
3
 72
8
 73
4
 74
0
 40
0
 40
0
 40
0
 40
0
 40
1
 40
1
 40
1
 40
1
 10
5.902288
 20
64.279352
 30
0.0
 10
5.978645
 20
64.279383
 30
0.0
 10
6.040549
 20
64.217476
 30
0.0
 10
6.040520
 20
64.141120
 30
0.0
  0
SPLINE
  5
181
100
AcDbEntity
  8
Layer_1
 62
7
100
AcDbSpline
 70
8
 71
3
 72
8
 73
4
 74
0
 40
0
 40
0
 40
0
 40
0
 40
1
 40
1
 40
1
 40
1
 10
6.040520
 20
64.141120
 30
0.0
 10
6.040475
 20
64.064818
 30
0.0
 10
5.978589
 20
64.002995
 30
0.0
 10
5.902288
 20
64.003026
 30
0.0
  0
SPLINE
  5
182
100
AcDbEntity
  8
Layer_1
 62
7
100
AcDbSpline
 70
8
 71
3
 72
8
 73
4
 74
0
 40
0
 40
0
 40
0
 40
0
 40
1
 40
1
 40
1
 40
1
 10
5.902288
 20
64.003026
 30
0.0
 10
5.872160
 20
64.003071
 30
0.0
 10
5.842871
 20
64.012961
 30
0.0
 10
5.818884
 20
64.031192
 30
0.0
  0
LWPOLYLINE
  5
183
100
AcDbEntity
  8
Layer_1
 62
7
100
AcDbPolyline
 90
4
 70
1
 10
10.924689
 20
65.284160
 30
0.0
 10
11.505643
 20
64.143718
 30
0.0
 10
10.924689
 20
63.003277
 30
0.0
 10
10.333480
 20
64.143718
 30
0.0
  0
SPLINE
  5
184
100
AcDbEntity
  8
Layer_1
 62
7
100
AcDbSpline
 70
8
 71
3
 72
8
 73
4
 74
0
 40
0
 40
0
 40
0
 40
0
 40
1
 40
1
 40
1
 40
1
 10
5.771714
 20
64.096373
 30
0.0
 10
5.766740
 20
64.110803
 30
0.0
 10
5.764200
 20
64.125958
 30
0.0
 10
5.764200
 20
64.141219
 30
0.0
  0
SPLINE
  5
185
100
AcDbEntity
  8
Layer_1
 62
7
100
AcDbSpline
 70
8
 71
3
 72
8
 73
4
 74
0
 40
0
 40
0
 40
0
 40
0
 40
1
 40
1
 40
1
 40
1
 10
5.764200
 20
64.141219
 30
0.0
 10
5.764168
 20
64.217522
 30
0.0
 10
5.825991
 20
64.279406
 30
0.0
 10
5.902294
 20
64.279451
 30
0.0
  0
LWPOLYLINE
  5
186
100
AcDbEntity
  8
Layer_1
 62
7
100
AcDbPolyline
 90
47
 70
0
 10
5.818884
 20
64.031192
 30
0.0
 10
5.774722
 20
63.987029
 30
0.0
 10
5.774722
 20
61.971396
 30
0.0
 10
5.633345
 20
61.830157
 30
0.0
 10
5.633345
 20
59.814524
 30
0.0
 10
5.492108
 20
59.673148
 30
0.0
 10
5.492108
 20
57.657652
 30
0.0
 10
5.350730
 20
57.516276
 30
0.0
 10
5.350730
 20
55.500780
 30
0.0
 10
5.209490
 20
55.359404
 30
0.0
 10
5.209490
 20
53.343911
 30
0.0
 10
5.068115
 20
53.202531
 30
0.0
 10
5.068115
 20
51.187038
 30
0.0
 10
4.926876
 20
51.045660
 30
0.0
 10
4.926876
 20
49.030170
 30
0.0
 10
4.785501
 20
48.888798
 30
0.0
 10
4.785501
 20
46.873165
 30
0.0
 10
4.644261
 20
46.731925
 30
0.0
 10
4.644261
 20
44.716290
 30
0.0
 10
4.502886
 20
44.575050
 30
0.0
 10
4.502886
 20
37.887585
 30
0.0
 10
4.448467
 20
37.638469
 30
0.0
 10
4.448467
 20
37.137909
 30
0.0
 10
4.448467
 20
37.071734
 30
0.0
 10
4.369028
 20
37.071734
 30
0.0
 10
4.369028
 20
37.654465
 30
0.0
 10
4.423583
 20
37.903581
 30
0.0
 10
4.423583
 20
44.607959
 30
0.0
 10
4.564822
 20
44.749334
 30
0.0
 10
4.564822
 20
46.764834
 30
0.0
 10
4.706197
 20
46.906206
 30
0.0
 10
4.706197
 20
48.921839
 30
0.0
 10
4.847437
 20
49.063082
 30
0.0
 10
4.847437
 20
51.078715
 30
0.0
 10
4.988812
 20
51.219955
 30
0.0
 10
4.988812
 20
53.235586
 30
0.0
 10
5.130052
 20
53.376823
 30
0.0
 10
5.130052
 20
55.392457
 30
0.0
 10
5.271429
 20
55.533696
 30
0.0
 10
5.271429
 20
57.549329
 30
0.0
 10
5.412666
 20
57.690431
 30
0.0
 10
5.412666
 20
59.706201
 30
0.0
 10
5.554044
 20
59.847577
 30
0.0
 10
5.554044
 20
61.863072
 30
0.0
 10
5.695284
 20
62.004311
 30
0.0
 10
5.695284
 20
64.019942
 30
0.0
 10
5.771714
 20
64.096373
 30
0.0
  0
LWPOLYLINE
  5
187
100
AcDbEntity
  8
Layer_1
 62
7
100
AcDbPolyline
 90
1
 70
1
 10
5.902294
 20
64.279451
 30
0.0
  0
LWPOLYLINE
  5
188
100
AcDbEntity
  8
Layer_1
 62
7
100
AcDbPolyline
 90
4
 70
1
 10
9.610195
 20
62.831411
 30
0.0
 10
10.191285
 20
61.690968
 30
0.0
 10
9.610195
 20
60.550527
 30
0.0
 10
9.018986
 20
61.690968
 30
0.0
  0
LWPOLYLINE
  5
189
100
AcDbEntity
  8
Layer_1
 62
7
100
AcDbPolyline
 90
4
 70
1
 10
6.991319
 20
62.830035
 30
0.0
 10
7.572276
 20
61.689594
 30
0.0
 10
6.991319
 20
60.549151
 30
0.0
 10
6.389310
 20
61.689594
 30
0.0
  0
LWPOLYLINE
  5
18a
100
AcDbEntity
  8
Layer_1
 62
7
100
AcDbPolyline
 90
4
 70
1
 10
8.303629
 20
62.824973
 30
0.0
 10
8.884582
 20
61.684531
 30
0.0
 10
8.303629
 20
60.544090
 30
0.0
 10
7.712420
 20
61.684531
 30
0.0
  0
LWPOLYLINE
  5
18b
100
AcDbEntity
  8
Layer_1
 62
7
100
AcDbPolyline
 90
4
 70
1
 10
12.234946
 20
62.824833
 30
0.0
 10
12.815902
 20
61.684391
 30
0.0
 10
12.234946
 20
60.543813
 30
0.0
 10
11.643740
 20
61.684391
 30
0.0
  0
SPLINE
  5
18c
100
AcDbEntity
  8
Layer_1
 62
7
100
AcDbSpline
 70
8
 71
3
 72
8
 73
4
 74
0
 40
0
 40
0
 40
0
 40
0
 40
1
 40
1
 40
1
 40
1
 10
5.899963
 20
61.840945
 30
0.0
 10
5.976319
 20
61.840977
 30
0.0
 10
6.038226
 20
61.779070
 30
0.0
 10
6.038194
 20
61.702714
 30
0.0
  0
SPLINE
  5
18d
100
AcDbEntity
  8
Layer_1
 62
7
100
AcDbSpline
 70
8
 71
3
 72
8
 73
4
 74
0
 40
0
 40
0
 40
0
 40
0
 40
1
 40
1
 40
1
 40
1
 10
6.038194
 20
61.702714
 30
0.0
 10
6.038149
 20
61.626411
 30
0.0
 10
5.976266
 20
61.564587
 30
0.0
 10
5.899963
 20
61.564619
 30
0.0
  0
SPLINE
  5
18e
100
AcDbEntity
  8
Layer_1
 62
7
100
AcDbSpline
 70
8
 71
3
 72
8
 73
4
 74
0
 40
0
 40
0
 40
0
 40
0
 40
1
 40
1
 40
1
 40
1
 10
5.899963
 20
61.564619
 30
0.0
 10
5.869835
 20
61.564664
 30
0.0
 10
5.840545
 20
61.574554
 30
0.0
 10
5.816561
 20
61.592785
 30
0.0
  0
LWPOLYLINE
  5
18f
100
AcDbEntity
  8
Layer_1
 62
7
100
AcDbPolyline
 90
4
 70
1
 10
10.924689
 20
62.823458
 30
0.0
 10
11.505643
 20
61.683015
 30
0.0
 10
10.924689
 20
60.542573
 30
0.0
 10
10.333480
 20
61.683015
 30
0.0
  0
SPLINE
  5
190
100
AcDbEntity
  8
Layer_1
 62
7
100
AcDbSpline
 70
8
 71
3
 72
8
 73
4
 74
0
 40
0
 40
0
 40
0
 40
0
 40
1
 40
1
 40
1
 40
1
 10
5.769388
 20
61.657866
 30
0.0
 10
5.764414
 20
61.672296
 30
0.0
 10
5.761874
 20
61.687450
 30
0.0
 10
5.761874
 20
61.702712
 30
0.0
  0
SPLINE
  5
191
100
AcDbEntity
  8
Layer_1
 62
7
100
AcDbSpline
 70
8
 71
3
 72
8
 73
4
 74
0
 40
0
 40
0
 40
0
 40
0
 40
1
 40
1
 40
1
 40
1
 10
5.761874
 20
61.702712
 30
0.0
 10
5.761842
 20
61.779015
 30
0.0
 10
5.823665
 20
61.840900
 30
0.0
 10
5.899968
 20
61.840943
 30
0.0
  0
LWPOLYLINE
  5
192
100
AcDbEntity
  8
Layer_1
 62
7
100
AcDbPolyline
 90
44
 70
0
 10
5.816561
 20
61.592785
 30
0.0
 10
5.772397
 20
61.548622
 30
0.0
 10
5.772397
 20
59.532989
 30
0.0
 10
5.631157
 20
59.391614
 30
0.0
 10
5.631157
 20
57.376117
 30
0.0
 10
5.489782
 20
57.234741
 30
0.0
 10
5.489782
 20
55.219246
 30
0.0
 10
5.348542
 20
55.077869
 30
0.0
 10
5.348542
 20
53.062374
 30
0.0
 10
5.207167
 20
52.920996
 30
0.0
 10
5.207167
 20
50.905497
 30
0.0
 10
5.065927
 20
50.764122
 30
0.0
 10
5.065927
 20
48.748627
 30
0.0
 10
4.924550
 20
48.607250
 30
0.0
 10
4.924550
 20
46.591614
 30
0.0
 10
4.783313
 20
46.450377
 30
0.0
 10
4.783313
 20
44.434744
 30
0.0
 10
4.641935
 20
44.293504
 30
0.0
 10
4.641935
 20
37.855840
 30
0.0
 10
4.580819
 20
37.576779
 30
0.0
 10
4.580819
 20
37.137885
 30
0.0
 10
4.580819
 20
37.071707
 30
0.0
 10
4.501381
 20
37.071707
 30
0.0
 10
4.501381
 20
37.588812
 30
0.0
 10
4.562634
 20
37.868418
 30
0.0
 10
4.562634
 20
44.326318
 30
0.0
 10
4.703874
 20
44.467695
 30
0.0
 10
4.703874
 20
46.483191
 30
0.0
 10
4.845249
 20
46.624565
 30
0.0
 10
4.845249
 20
48.640063
 30
0.0
 10
4.845249
 20
48.640204
 30
0.0
 10
4.986489
 20
48.781443
 30
0.0
 10
4.986489
 20
50.797076
 30
0.0
 10
5.127864
 20
50.938314
 30
0.0
 10
5.127864
 20
52.953947
 30
0.0
 10
5.269104
 20
53.095187
 30
0.0
 10
5.269104
 20
55.110819
 30
0.0
 10
5.410481
 20
55.252059
 30
0.0
 10
5.410481
 20
57.267691
 30
0.0
 10
5.551718
 20
57.408930
 30
0.0
 10
5.551718
 20
59.424563
 30
0.0
 10
5.692958
 20
59.565802
 30
0.0
 10
5.692958
 20
61.581435
 30
0.0
 10
5.769388
 20
61.657866
 30
0.0
  0
LWPOLYLINE
  5
193
100
AcDbEntity
  8
Layer_1
 62
7
100
AcDbPolyline
 90
1
 70
1
 10
5.899968
 20
61.840943
 30
0.0
  0
LWPOLYLINE
  5
194
100
AcDbEntity
  8
Layer_1
 62
7
100
AcDbPolyline
 90
4
 70
1
 10
9.610195
 20
60.370854
 30
0.0
 10
10.191285
 20
59.230412
 30
0.0
 10
9.610195
 20
58.089970
 30
0.0
 10
9.018986
 20
59.230412
 30
0.0
  0
LWPOLYLINE
  5
195
100
AcDbEntity
  8
Layer_1
 62
7
100
AcDbPolyline
 90
4
 70
1
 10
6.991319
 20
60.369346
 30
0.0
 10
7.572276
 20
59.228903
 30
0.0
 10
6.991319
 20
58.088461
 30
0.0
 10
6.389310
 20
59.228903
 30
0.0
  0
LWPOLYLINE
  5
196
100
AcDbEntity
  8
Layer_1
 62
7
100
AcDbPolyline
 90
4
 70
1
 10
8.303629
 20
60.364284
 30
0.0
 10
8.884582
 20
59.223843
 30
0.0
 10
8.303629
 20
58.083401
 30
0.0
 10
7.712420
 20
59.223843
 30
0.0
  0
LWPOLYLINE
  5
197
100
AcDbEntity
  8
Layer_1
 62
7
100
AcDbPolyline
 90
4
 70
1
 10
12.234946
 20
60.364144
 30
0.0
 10
12.815902
 20
59.223702
 30
0.0
 10
12.234946
 20
58.083124
 30
0.0
 10
11.643740
 20
59.223702
 30
0.0
  0
SPLINE
  5
198
100
AcDbEntity
  8
Layer_1
 62
7
100
AcDbSpline
 70
8
 71
3
 72
8
 73
4
 74
0
 40
0
 40
0
 40
0
 40
0
 40
1
 40
1
 40
1
 40
1
 10
5.900373
 20
59.358096
 30
0.0
 10
5.976729
 20
59.358128
 30
0.0
 10
6.038636
 20
59.296221
 30
0.0
 10
6.038604
 20
59.219865
 30
0.0
  0
SPLINE
  5
199
100
AcDbEntity
  8
Layer_1
 62
7
100
AcDbSpline
 70
8
 71
3
 72
8
 73
4
 74
0
 40
0
 40
0
 40
0
 40
0
 40
1
 40
1
 40
1
 40
1
 10
6.038604
 20
59.219865
 30
0.0
 10
6.038559
 20
59.143562
 30
0.0
 10
5.976676
 20
59.081739
 30
0.0
 10
5.900373
 20
59.081771
 30
0.0
  0
SPLINE
  5
19a
100
AcDbEntity
  8
Layer_1
 62
7
100
AcDbSpline
 70
8
 71
3
 72
8
 73
4
 74
0
 40
0
 40
0
 40
0
 40
0
 40
1
 40
1
 40
1
 40
1
 10
5.900373
 20
59.081771
 30
0.0
 10
5.870245
 20
59.081816
 30
0.0
 10
5.840958
 20
59.091706
 30
0.0
 10
5.816971
 20
59.109936
 30
0.0
  0
LWPOLYLINE
  5
19b
100
AcDbEntity
  8
Layer_1
 62
7
100
AcDbPolyline
 90
4
 70
1
 10
10.924689
 20
60.362768
 30
0.0
 10
11.505643
 20
59.222326
 30
0.0
 10
10.924689
 20
58.081884
 30
0.0
 10
10.333480
 20
59.222326
 30
0.0
  0
SPLINE
  5
19c
100
AcDbEntity
  8
Layer_1
 62
7
100
AcDbSpline
 70
8
 71
3
 72
8
 73
4
 74
0
 40
0
 40
0
 40
0
 40
0
 40
1
 40
1
 40
1
 40
1
 10
5.769798
 20
59.175155
 30
0.0
 10
5.764824
 20
59.189586
 30
0.0
 10
5.762284
 20
59.204739
 30
0.0
 10
5.762284
 20
59.220001
 30
0.0
  0
SPLINE
  5
19d
100
AcDbEntity
  8
Layer_1
 62
7
100
AcDbSpline
 70
8
 71
3
 72
8
 73
4
 74
0
 40
0
 40
0
 40
0
 40
0
 40
1
 40
1
 40
1
 40
1
 10
5.762284
 20
59.220001
 30
0.0
 10
5.762252
 20
59.296303
 30
0.0
 10
5.824078
 20
59.358188
 30
0.0
 10
5.900378
 20
59.358232
 30
0.0
  0
LWPOLYLINE
  5
19e
100
AcDbEntity
  8
Layer_1
 62
7
100
AcDbPolyline
 90
40
 70
0
 10
5.816971
 20
59.109936
 30
0.0
 10
5.772807
 20
59.065774
 30
0.0
 10
5.772807
 20
57.050141
 30
0.0
 10
5.631432
 20
56.908765
 30
0.0
 10
5.631432
 20
54.893269
 30
0.0
 10
5.490192
 20
54.751893
 30
0.0
 10
5.490192
 20
52.736399
 30
0.0
 10
5.348815
 20
52.595019
 30
0.0
 10
5.348815
 20
50.579523
 30
0.0
 10
5.207577
 20
50.438145
 30
0.0
 10
5.207577
 20
48.422650
 30
0.0
 10
5.066200
 20
48.281275
 30
0.0
 10
5.066200
 20
46.265640
 30
0.0
 10
4.924960
 20
46.124400
 30
0.0
 10
4.924960
 20
44.108772
 30
0.0
 10
4.783585
 20
43.967532
 30
0.0
 10
4.783585
 20
37.808382
 30
0.0
 10
4.713034
 20
37.548463
 30
0.0
 10
4.713034
 20
37.137872
 30
0.0
 10
4.713034
 20
37.071694
 30
0.0
 10
4.633596
 20
37.071694
 30
0.0
 10
4.633596
 20
37.576355
 30
0.0
 10
4.704284
 20
37.836274
 30
0.0
 10
4.704284
 20
44.000478
 30
0.0
 10
4.845524
 20
44.141853
 30
0.0
 10
4.845524
 20
46.157348
 30
0.0
 10
4.986899
 20
46.298726
 30
0.0
 10
4.986899
 20
48.314224
 30
0.0
 10
4.986899
 20
48.314364
 30
0.0
 10
5.128139
 20
48.455601
 30
0.0
 10
5.128139
 20
50.471234
 30
0.0
 10
5.269514
 20
50.612471
 30
0.0
 10
5.269514
 20
52.628108
 30
0.0
 10
5.410754
 20
52.769347
 30
0.0
 10
5.410754
 20
54.784980
 30
0.0
 10
5.552128
 20
54.926219
 30
0.0
 10
5.552128
 20
56.941852
 30
0.0
 10
5.693368
 20
57.083092
 30
0.0
 10
5.693368
 20
59.098724
 30
0.0
 10
5.769798
 20
59.175155
 30
0.0
  0
LWPOLYLINE
  5
19f
100
AcDbEntity
  8
Layer_1
 62
7
100
AcDbPolyline
 90
2
 70
0
 10
5.900378
 20
59.358232
 30
0.0
 10
5.900373
 20
59.358096
 30
0.0
  0
LWPOLYLINE
  5
1a0
100
AcDbEntity
  8
Layer_1
 62
7
100
AcDbPolyline
 90
4
 70
1
 10
9.610195
 20
57.910155
 30
0.0
 10
10.191285
 20
56.769713
 30
0.0
 10
9.610195
 20
55.629272
 30
0.0
 10
9.018986
 20
56.769713
 30
0.0
  0
LWPOLYLINE
  5
1a1
100
AcDbEntity
  8
Layer_1
 62
7
100
AcDbPolyline
 90
4
 70
1
 10
6.991319
 20
57.908779
 30
0.0
 10
7.572276
 20
56.768337
 30
0.0
 10
6.991319
 20
55.627896
 30
0.0
 10
6.389310
 20
56.768337
 30
0.0
  0
LWPOLYLINE
  5
1a2
100
AcDbEntity
  8
Layer_1
 62
7
100
AcDbPolyline
 90
4
 70
1
 10
8.303629
 20
57.903718
 30
0.0
 10
8.884582
 20
56.763276
 30
0.0
 10
8.303629
 20
55.622834
 30
0.0
 10
7.712420
 20
56.763276
 30
0.0
  0
LWPOLYLINE
  5
1a3
100
AcDbEntity
  8
Layer_1
 62
7
100
AcDbPolyline
 90
4
 70
1
 10
12.234946
 20
57.903578
 30
0.0
 10
12.815902
 20
56.763136
 30
0.0
 10
12.234946
 20
55.622558
 30
0.0
 10
11.643740
 20
56.763136
 30
0.0
  0
SPLINE
  5
1a4
100
AcDbEntity
  8
Layer_1
 62
7
100
AcDbSpline
 70
8
 71
3
 72
8
 73
4
 74
0
 40
0
 40
0
 40
0
 40
0
 40
1
 40
1
 40
1
 40
1
 10
5.898050
 20
56.901768
 30
0.0
 10
5.974406
 20
56.901800
 30
0.0
 10
6.036311
 20
56.839893
 30
0.0
 10
6.036281
 20
56.763537
 30
0.0
  0
SPLINE
  5
1a5
100
AcDbEntity
  8
Layer_1
 62
7
100
AcDbSpline
 70
8
 71
3
 72
8
 73
4
 74
0
 40
0
 40
0
 40
0
 40
0
 40
1
 40
1
 40
1
 40
1
 10
6.036281
 20
56.763537
 30
0.0
 10
6.036236
 20
56.687234
 30
0.0
 10
5.974350
 20
56.625411
 30
0.0
 10
5.898050
 20
56.625443
 30
0.0
  0
SPLINE
  5
1a6
100
AcDbEntity
  8
Layer_1
 62
7
100
AcDbSpline
 70
8
 71
3
 72
8
 73
4
 74
0
 40
0
 40
0
 40
0
 40
0
 40
1
 40
1
 40
1
 40
1
 10
5.898050
 20
56.625443
 30
0.0
 10
5.867922
 20
56.625488
 30
0.0
 10
5.838632
 20
56.635378
 30
0.0
 10
5.814645
 20
56.653608
 30
0.0
  0
LWPOLYLINE
  5
1a7
100
AcDbEntity
  8
Layer_1
 62
7
100
AcDbPolyline
 90
4
 70
1
 10
10.924689
 20
57.902202
 30
0.0
 10
11.505643
 20
56.761760
 30
0.0
 10
10.924689
 20
55.621318
 30
0.0
 10
10.333480
 20
56.761760
 30
0.0
  0
SPLINE
  5
1a8
100
AcDbEntity
  8
Layer_1
 62
7
100
AcDbSpline
 70
8
 71
3
 72
8
 73
4
 74
0
 40
0
 40
0
 40
0
 40
0
 40
1
 40
1
 40
1
 40
1
 10
5.767475
 20
56.718707
 30
0.0
 10
5.762501
 20
56.733138
 30
0.0
 10
5.759961
 20
56.748292
 30
0.0
 10
5.759961
 20
56.763554
 30
0.0
  0
SPLINE
  5
1a9
100
AcDbEntity
  8
Layer_1
 62
7
100
AcDbSpline
 70
8
 71
3
 72
8
 73
4
 74
0
 40
0
 40
0
 40
0
 40
0
 40
1
 40
1
 40
1
 40
1
 10
5.759961
 20
56.763554
 30
0.0
 10
5.759929
 20
56.839856
 30
0.0
 10
5.821752
 20
56.901740
 30
0.0
 10
5.898055
 20
56.901785
 30
0.0
  0
LWPOLYLINE
  5
1aa
100
AcDbEntity
  8
Layer_1
 62
7
100
AcDbPolyline
 90
35
 70
0
 10
5.814645
 20
56.653608
 30
0.0
 10
5.770484
 20
56.609445
 30
0.0
 10
5.770484
 20
54.593813
 30
0.0
 10
5.629106
 20
54.452573
 30
0.0
 10
5.629106
 20
52.436943
 30
0.0
 10
5.487866
 20
52.295700
 30
0.0
 10
5.487866
 20
50.280070
 30
0.0
 10
5.346492
 20
50.138830
 30
0.0
 10
5.346492
 20
48.123197
 30
0.0
 10
5.205252
 20
47.981822
 30
0.0
 10
5.205252
 20
45.966324
 30
0.0
 10
5.063877
 20
45.824947
 30
0.0
 10
5.063877
 20
43.809452
 30
0.0
 10
4.922637
 20
43.668077
 30
0.0
 10
4.922637
 20
37.765696
 30
0.0
 10
4.845387
 20
37.559925
 30
0.0
 10
4.845387
 20
37.137845
 30
0.0
 10
4.845387
 20
37.071670
 30
0.0
 10
4.765948
 20
37.071670
 30
0.0
 10
4.765948
 20
37.582766
 30
0.0
 10
4.843198
 20
37.788678
 30
0.0
 10
4.843198
 20
43.701044
 30
0.0
 10
4.984576
 20
43.842284
 30
0.0
 10
4.984576
 20
45.857917
 30
0.0
 10
5.125813
 20
45.999154
 30
0.0
 10
5.125813
 20
48.014789
 30
0.0
 10
5.267191
 20
48.156029
 30
0.0
 10
5.267191
 20
50.171662
 30
0.0
 10
5.408428
 20
50.313037
 30
0.0
 10
5.408428
 20
52.328533
 30
0.0
 10
5.549805
 20
52.469907
 30
0.0
 10
5.549805
 20
54.485405
 30
0.0
 10
5.691045
 20
54.626781
 30
0.0
 10
5.691045
 20
56.642277
 30
0.0
 10
5.767475
 20
56.718707
 30
0.0
  0
LWPOLYLINE
  5
1ab
100
AcDbEntity
  8
Layer_1
 62
7
100
AcDbPolyline
 90
1
 70
1
 10
5.898055
 20
56.901785
 30
0.0
  0
LWPOLYLINE
  5
1ac
100
AcDbEntity
  8
Layer_1
 62
7
100
AcDbPolyline
 90
4
 70
1
 10
9.610195
 20
55.449452
 30
0.0
 10
10.191285
 20
54.309010
 30
0.0
 10
9.610195
 20
53.168569
 30
0.0
 10
9.018986
 20
54.309010
 30
0.0
  0
LWPOLYLINE
  5
1ad
100
AcDbEntity
  8
Layer_1
 62
7
100
AcDbPolyline
 90
4
 70
1
 10
6.991319
 20
55.448076
 30
0.0
 10
7.572276
 20
54.307634
 30
0.0
 10
6.991319
 20
53.167190
 30
0.0
 10
6.389310
 20
54.307634
 30
0.0
  0
LWPOLYLINE
  5
1ae
100
AcDbEntity
  8
Layer_1
 62
7
100
AcDbPolyline
 90
4
 70
1
 10
8.303629
 20
55.443014
 30
0.0
 10
8.884582
 20
54.302573
 30
0.0
 10
8.303629
 20
53.162129
 30
0.0
 10
7.712420
 20
54.302573
 30
0.0
  0
LWPOLYLINE
  5
1af
100
AcDbEntity
  8
Layer_1
 62
7
100
AcDbPolyline
 90
4
 70
1
 10
12.234946
 20
55.442723
 30
0.0
 10
12.815902
 20
54.302281
 30
0.0
 10
12.234946
 20
53.161703
 30
0.0
 10
11.643740
 20
54.302281
 30
0.0
  0
SPLINE
  5
1b0
100
AcDbEntity
  8
Layer_1
 62
7
100
AcDbSpline
 70
8
 71
3
 72
8
 73
4
 74
0
 40
0
 40
0
 40
0
 40
0
 40
1
 40
1
 40
1
 40
1
 10
5.901058
 20
54.445559
 30
0.0
 10
5.977412
 20
54.445590
 30
0.0
 10
6.039319
 20
54.383683
 30
0.0
 10
6.039287
 20
54.307327
 30
0.0
  0
SPLINE
  5
1b1
100
AcDbEntity
  8
Layer_1
 62
7
100
AcDbSpline
 70
8
 71
3
 72
8
 73
4
 74
0
 40
0
 40
0
 40
0
 40
0
 40
1
 40
1
 40
1
 40
1
 10
6.039287
 20
54.307327
 30
0.0
 10
6.039245
 20
54.231025
 30
0.0
 10
5.977359
 20
54.169201
 30
0.0
 10
5.901058
 20
54.169232
 30
0.0
  0
SPLINE
  5
1b2
100
AcDbEntity
  8
Layer_1
 62
7
100
AcDbSpline
 70
8
 71
3
 72
8
 73
4
 74
0
 40
0
 40
0
 40
0
 40
0
 40
1
 40
1
 40
1
 40
1
 10
5.901058
 20
54.169232
 30
0.0
 10
5.870927
 20
54.169277
 30
0.0
 10
5.841641
 20
54.179168
 30
0.0
 10
5.817654
 20
54.197398
 30
0.0
  0
LWPOLYLINE
  5
1b3
100
AcDbEntity
  8
Layer_1
 62
7
100
AcDbPolyline
 90
4
 70
1
 10
10.924689
 20
55.441348
 30
0.0
 10
11.505643
 20
54.300906
 30
0.0
 10
10.924689
 20
53.160465
 30
0.0
 10
10.333480
 20
54.300906
 30
0.0
  0
SPLINE
  5
1b4
100
AcDbEntity
  8
Layer_1
 62
7
100
AcDbSpline
 70
8
 71
3
 72
8
 73
4
 74
0
 40
0
 40
0
 40
0
 40
0
 40
1
 40
1
 40
1
 40
1
 10
5.770476
 20
54.262497
 30
0.0
 10
5.765502
 20
54.276927
 30
0.0
 10
5.762962
 20
54.292082
 30
0.0
 10
5.762962
 20
54.307344
 30
0.0
  0
SPLINE
  5
1b5
100
AcDbEntity
  8
Layer_1
 62
7
100
AcDbSpline
 70
8
 71
3
 72
8
 73
4
 74
0
 40
0
 40
0
 40
0
 40
0
 40
1
 40
1
 40
1
 40
1
 10
5.762962
 20
54.307344
 30
0.0
 10
5.762930
 20
54.383647
 30
0.0
 10
5.824752
 20
54.445531
 30
0.0
 10
5.901056
 20
54.445575
 30
0.0
  0
LWPOLYLINE
  5
1b6
100
AcDbEntity
  8
Layer_1
 62
7
100
AcDbPolyline
 90
32
 70
0
 10
5.817654
 20
54.197398
 30
0.0
 10
5.773492
 20
54.153235
 30
0.0
 10
5.773492
 20
52.137601
 30
0.0
 10
5.632115
 20
51.996364
 30
0.0
 10
5.632115
 20
49.980734
 30
0.0
 10
5.490875
 20
49.839491
 30
0.0
 10
5.490875
 20
47.823858
 30
0.0
 10
5.349500
 20
47.682618
 30
0.0
 10
5.349500
 20
45.666983
 30
0.0
 10
5.208260
 20
45.525608
 30
0.0
 10
5.208260
 20
43.510113
 30
0.0
 10
5.066885
 20
43.368735
 30
0.0
 10
5.066885
 20
37.743503
 30
0.0
 10
4.977739
 20
37.581356
 30
0.0
 10
4.977739
 20
37.137814
 30
0.0
 10
4.977739
 20
37.071636
 30
0.0
 10
4.898301
 20
37.071636
 30
0.0
 10
4.898301
 20
37.585047
 30
0.0
 10
4.898565
 20
37.585047
 30
0.0
 10
4.987576
 20
37.747070
 30
0.0
 10
4.987576
 20
43.401705
 30
0.0
 10
5.128814
 20
43.542945
 30
0.0
 10
5.128814
 20
45.558578
 30
0.0
 10
5.270191
 20
45.699953
 30
0.0
 10
5.270191
 20
47.715450
 30
0.0
 10
5.411431
 20
47.856828
 30
0.0
 10
5.411431
 20
49.872323
 30
0.0
 10
5.552806
 20
50.013701
 30
0.0
 10
5.552806
 20
52.029196
 30
0.0
 10
5.694046
 20
52.170571
 30
0.0
 10
5.694046
 20
54.186066
 30
0.0
 10
5.770476
 20
54.262497
 30
0.0
  0
LWPOLYLINE
  5
1b7
100
AcDbEntity
  8
Layer_1
 62
7
100
AcDbPolyline
 90
1
 70
1
 10
5.901056
 20
54.445575
 30
0.0
  0
LWPOLYLINE
  5
1b8
100
AcDbEntity
  8
Layer_1
 62
7
100
AcDbPolyline
 90
4
 70
1
 10
9.610195
 20
52.988456
 30
0.0
 10
10.191285
 20
51.848015
 30
0.0
 10
9.610195
 20
50.707573
 30
0.0
 10
9.018986
 20
51.848015
 30
0.0
  0
LWPOLYLINE
  5
1b9
100
AcDbEntity
  8
Layer_1
 62
7
100
AcDbPolyline
 90
4
 70
1
 10
6.991319
 20
52.987133
 30
0.0
 10
7.572276
 20
51.846692
 30
0.0
 10
6.991319
 20
50.706250
 30
0.0
 10
6.389310
 20
51.846692
 30
0.0
  0
LWPOLYLINE
  5
1ba
100
AcDbEntity
  8
Layer_1
 62
7
100
AcDbPolyline
 90
4
 70
1
 10
8.303629
 20
52.982080
 30
0.0
 10
8.884582
 20
51.841638
 30
0.0
 10
8.303629
 20
50.701197
 30
0.0
 10
7.712420
 20
51.841638
 30
0.0
  0
LWPOLYLINE
  5
1bb
100
AcDbEntity
  8
Layer_1
 62
7
100
AcDbPolyline
 90
4
 70
1
 10
12.234946
 20
52.981940
 30
0.0
 10
12.815902
 20
51.841498
 30
0.0
 10
12.234946
 20
50.700919
 30
0.0
 10
11.643740
 20
51.841498
 30
0.0
  0
SPLINE
  5
1bc
100
AcDbEntity
  8
Layer_1
 62
7
100
AcDbSpline
 70
8
 71
3
 72
8
 73
4
 74
0
 40
0
 40
0
 40
0
 40
0
 40
1
 40
1
 40
1
 40
1
 10
5.897775
 20
51.989344
 30
0.0
 10
5.974131
 20
51.989376
 30
0.0
 10
6.036038
 20
51.927469
 30
0.0
 10
6.036006
 20
51.851113
 30
0.0
  0
SPLINE
  5
1bd
100
AcDbEntity
  8
Layer_1
 62
7
100
AcDbSpline
 70
8
 71
3
 72
8
 73
4
 74
0
 40
0
 40
0
 40
0
 40
0
 40
1
 40
1
 40
1
 40
1
 10
6.036006
 20
51.851113
 30
0.0
 10
6.035964
 20
51.774812
 30
0.0
 10
5.974078
 20
51.712987
 30
0.0
 10
5.897775
 20
51.713019
 30
0.0
  0
SPLINE
  5
1be
100
AcDbEntity
  8
Layer_1
 62
7
100
AcDbSpline
 70
8
 71
3
 72
8
 73
4
 74
0
 40
0
 40
0
 40
0
 40
0
 40
1
 40
1
 40
1
 40
1
 10
5.897775
 20
51.713019
 30
0.0
 10
5.867647
 20
51.713064
 30
0.0
 10
5.838360
 20
51.722941
 30
0.0
 10
5.814373
 20
51.741186
 30
0.0
  0
LWPOLYLINE
  5
1bf
100
AcDbEntity
  8
Layer_1
 62
7
100
AcDbPolyline
 90
4
 70
1
 10
10.924689
 20
52.980617
 30
0.0
 10
11.505643
 20
51.840175
 30
0.0
 10
10.924689
 20
50.699733
 30
0.0
 10
10.333480
 20
51.840175
 30
0.0
  0
SPLINE
  5
1c0
100
AcDbEntity
  8
Layer_1
 62
7
100
AcDbSpline
 70
8
 71
3
 72
8
 73
4
 74
0
 40
0
 40
0
 40
0
 40
0
 40
1
 40
1
 40
1
 40
1
 10
5.767200
 20
51.806263
 30
0.0
 10
5.762226
 20
51.820683
 30
0.0
 10
5.759686
 20
51.835849
 30
0.0
 10
5.759686
 20
51.851110
 30
0.0
  0
SPLINE
  5
1c1
100
AcDbEntity
  8
Layer_1
 62
7
100
AcDbSpline
 70
8
 71
3
 72
8
 73
4
 74
0
 40
0
 40
0
 40
0
 40
0
 40
1
 40
1
 40
1
 40
1
 10
5.759686
 20
51.851110
 30
0.0
 10
5.759654
 20
51.927413
 30
0.0
 10
5.821479
 20
51.989297
 30
0.0
 10
5.897780
 20
51.989342
 30
0.0
  0
LWPOLYLINE
  5
1c2
100
AcDbEntity
  8
Layer_1
 62
7
100
AcDbPolyline
 90
28
 70
0
 10
5.814373
 20
51.741186
 30
0.0
 10
5.770208
 20
51.697022
 30
0.0
 10
5.770208
 20
49.681527
 30
0.0
 10
5.770208
 20
49.681387
 30
0.0
 10
5.628969
 20
49.540147
 30
0.0
 10
5.628969
 20
47.524514
 30
0.0
 10
5.487594
 20
47.383274
 30
0.0
 10
5.487594
 20
45.367638
 30
0.0
 10
5.346354
 20
45.226401
 30
0.0
 10
5.346354
 20
43.210768
 30
0.0
 10
5.204979
 20
43.069529
 30
0.0
 10
5.204979
 20
37.745916
 30
0.0
 10
5.109954
 20
37.577059
 30
0.0
 10
5.109954
 20
37.137755
 30
0.0
 10
5.109954
 20
37.071578
 30
0.0
 10
5.030516
 20
37.071578
 30
0.0
 10
5.030516
 20
37.588679
 30
0.0
 10
5.125678
 20
37.757539
 30
0.0
 10
5.125678
 20
43.102342
 30
0.0
 10
5.266915
 20
43.243720
 30
0.0
 10
5.266915
 20
45.259215
 30
0.0
 10
5.408293
 20
45.400592
 30
0.0
 10
5.408293
 20
47.416090
 30
0.0
 10
5.549533
 20
47.557465
 30
0.0
 10
5.549533
 20
49.572960
 30
0.0
 10
5.690770
 20
49.714200
 30
0.0
 10
5.690770
 20
51.729833
 30
0.0
 10
5.767200
 20
51.806263
 30
0.0
  0
LWPOLYLINE
  5
1c3
100
AcDbEntity
  8
Layer_1
 62
7
100
AcDbPolyline
 90
1
 70
1
 10
5.897780
 20
51.989342
 30
0.0
  0
LWPOLYLINE
  5
1c4
100
AcDbEntity
  8
Layer_1
 62
7
100
AcDbPolyline
 90
4
 70
1
 10
6.991319
 20
50.527868
 30
0.0
 10
7.572276
 20
49.387427
 30
0.0
 10
6.991319
 20
48.246985
 30
0.0
 10
6.389310
 20
49.387427
 30
0.0
  0
LWPOLYLINE
  5
1c5
100
AcDbEntity
  8
Layer_1
 62
7
100
AcDbPolyline
 90
4
 70
1
 10
9.610195
 20
50.527868
 30
0.0
 10
10.191285
 20
49.387427
 30
0.0
 10
9.610195
 20
48.246985
 30
0.0
 10
9.018986
 20
49.387427
 30
0.0
  0
LWPOLYLINE
  5
1c6
100
AcDbEntity
  8
Layer_1
 62
7
100
AcDbPolyline
 90
4
 70
1
 10
8.303629
 20
50.522815
 30
0.0
 10
8.884582
 20
49.382373
 30
0.0
 10
8.303629
 20
48.241929
 30
0.0
 10
7.712420
 20
49.382373
 30
0.0
  0
LWPOLYLINE
  5
1c7
100
AcDbEntity
  8
Layer_1
 62
7
100
AcDbPolyline
 90
4
 70
1
 10
12.234946
 20
50.522674
 30
0.0
 10
12.815902
 20
49.382233
 30
0.0
 10
12.234946
 20
48.241654
 30
0.0
 10
11.643740
 20
49.382233
 30
0.0
  0
SPLINE
  5
1c8
100
AcDbEntity
  8
Layer_1
 62
7
100
AcDbSpline
 70
8
 71
3
 72
8
 73
4
 74
0
 40
0
 40
0
 40
0
 40
0
 40
1
 40
1
 40
1
 40
1
 10
5.900510
 20
49.520150
 30
0.0
 10
5.976867
 20
49.520181
 30
0.0
 10
6.038774
 20
49.458274
 30
0.0
 10
6.038742
 20
49.381921
 30
0.0
  0
SPLINE
  5
1c9
100
AcDbEntity
  8
Layer_1
 62
7
100
AcDbSpline
 70
8
 71
3
 72
8
 73
4
 74
0
 40
0
 40
0
 40
0
 40
0
 40
1
 40
1
 40
1
 40
1
 10
6.038742
 20
49.381921
 30
0.0
 10
6.038697
 20
49.305617
 30
0.0
 10
5.976814
 20
49.243795
 30
0.0
 10
5.900510
 20
49.243827
 30
0.0
  0
SPLINE
  5
1ca
100
AcDbEntity
  8
Layer_1
 62
7
100
AcDbSpline
 70
8
 71
3
 72
8
 73
4
 74
0
 40
0
 40
0
 40
0
 40
0
 40
1
 40
1
 40
1
 40
1
 10
5.900510
 20
49.243827
 30
0.0
 10
5.870382
 20
49.243869
 30
0.0
 10
5.841093
 20
49.253749
 30
0.0
 10
5.817106
 20
49.271992
 30
0.0
  0
LWPOLYLINE
  5
1cb
100
AcDbEntity
  8
Layer_1
 62
7
100
AcDbPolyline
 90
4
 70
1
 10
10.924689
 20
50.520028
 30
0.0
 10
11.505643
 20
49.379587
 30
0.0
 10
10.924689
 20
48.239146
 30
0.0
 10
10.333480
 20
49.379587
 30
0.0
  0
SPLINE
  5
1cc
100
AcDbEntity
  8
Layer_1
 62
7
100
AcDbSpline
 70
8
 71
3
 72
8
 73
4
 74
0
 40
0
 40
0
 40
0
 40
0
 40
1
 40
1
 40
1
 40
1
 10
5.769984
 20
49.337124
 30
0.0
 10
5.765009
 20
49.351544
 30
0.0
 10
5.762469
 20
49.366710
 30
0.0
 10
5.762469
 20
49.381971
 30
0.0
  0
SPLINE
  5
1cd
100
AcDbEntity
  8
Layer_1
 62
7
100
AcDbSpline
 70
8
 71
3
 72
8
 73
4
 74
0
 40
0
 40
0
 40
0
 40
0
 40
1
 40
1
 40
1
 40
1
 10
5.762469
 20
49.381971
 30
0.0
 10
5.762438
 20
49.458274
 30
0.0
 10
5.824260
 20
49.520158
 30
0.0
 10
5.900563
 20
49.520202
 30
0.0
  0
LWPOLYLINE
  5
1ce
100
AcDbEntity
  8
Layer_1
 62
7
100
AcDbPolyline
 90
32
 70
0
 10
5.817106
 20
49.271992
 30
0.0
 10
5.772944
 20
49.227827
 30
0.0
 10
5.772944
 20
47.212194
 30
0.0
 10
5.631567
 20
47.070955
 30
0.0
 10
5.631567
 20
45.055322
 30
0.0
 10
5.490330
 20
44.914082
 30
0.0
 10
5.490330
 20
42.898449
 30
0.0
 10
5.348952
 20
42.757074
 30
0.0
 10
5.348952
 20
38.281581
 30
0.0
 10
5.488141
 20
38.142392
 30
0.0
 10
5.488406
 20
38.142656
 30
0.0
 10
5.798776
 20
37.832284
 30
0.0
 10
5.796394
 20
37.829903
 30
0.0
 10
5.796923
 20
37.829903
 30
0.0
 10
5.796923
 20
37.075171
 30
0.0
 10
5.624920
 20
36.903303
 30
0.0
 10
5.473563
 20
36.903303
 30
0.0
 10
5.473563
 20
36.982741
 30
0.0
 10
5.593747
 20
36.982741
 30
0.0
 10
5.717485
 20
37.106482
 30
0.0
 10
5.717485
 20
37.801328
 30
0.0
 10
5.580211
 20
37.938602
 30
0.0
 10
5.580071
 20
37.938461
 30
0.0
 10
5.269699
 20
38.248833
 30
0.0
 10
5.269699
 20
42.790091
 30
0.0
 10
5.410939
 20
42.931466
 30
0.0
 10
5.410939
 20
44.946948
 30
0.0
 10
5.552314
 20
45.088323
 30
0.0
 10
5.552314
 20
47.103824
 30
0.0
 10
5.693553
 20
47.245199
 30
0.0
 10
5.693553
 20
49.260694
 30
0.0
 10
5.769984
 20
49.337124
 30
0.0
  0
LWPOLYLINE
  5
1cf
100
AcDbEntity
  8
Layer_1
 62
7
100
AcDbPolyline
 90
1
 70
1
 10
5.900563
 20
49.520202
 30
0.0
  0
LWPOLYLINE
  5
1d0
100
AcDbEntity
  8
Layer_1
 62
7
100
AcDbPolyline
 90
4
 70
1
 10
9.610195
 20
48.067288
 30
0.0
 10
10.191285
 20
46.926847
 30
0.0
 10
9.610195
 20
45.786402
 30
0.0
 10
9.018986
 20
46.926847
 30
0.0
  0
LWPOLYLINE
  5
1d1
100
AcDbEntity
  8
Layer_1
 62
7
100
AcDbPolyline
 90
4
 70
1
 10
6.991319
 20
48.065965
 30
0.0
 10
7.572276
 20
46.925524
 30
0.0
 10
6.991319
 20
45.785077
 30
0.0
 10
6.389310
 20
46.925524
 30
0.0
  0
LWPOLYLINE
  5
1d2
100
AcDbEntity
  8
Layer_1
 62
7
100
AcDbPolyline
 90
4
 70
1
 10
8.303629
 20
48.060912
 30
0.0
 10
8.884582
 20
46.920470
 30
0.0
 10
8.303629
 20
45.780029
 30
0.0
 10
7.712420
 20
46.920470
 30
0.0
  0
LWPOLYLINE
  5
1d3
100
AcDbEntity
  8
Layer_1
 62
7
100
AcDbPolyline
 90
4
 70
1
 10
12.234946
 20
48.060774
 30
0.0
 10
12.815902
 20
46.920333
 30
0.0
 10
12.234946
 20
45.779748
 30
0.0
 10
11.643740
 20
46.920333
 30
0.0
  0
SPLINE
  5
1d4
100
AcDbEntity
  8
Layer_1
 62
7
100
AcDbSpline
 70
8
 71
3
 72
8
 73
4
 74
0
 40
0
 40
0
 40
0
 40
0
 40
1
 40
1
 40
1
 40
1
 10
5.897230
 20
47.061070
 30
0.0
 10
5.973586
 20
47.061104
 30
0.0
 10
6.035493
 20
46.999194
 30
0.0
 10
6.035461
 20
46.922841
 30
0.0
  0
SPLINE
  5
1d5
100
AcDbEntity
  8
Layer_1
 62
7
100
AcDbSpline
 70
8
 71
3
 72
8
 73
4
 74
0
 40
0
 40
0
 40
0
 40
0
 40
1
 40
1
 40
1
 40
1
 10
6.035461
 20
46.922841
 30
0.0
 10
6.035416
 20
46.846535
 30
0.0
 10
5.973533
 20
46.784715
 30
0.0
 10
5.897230
 20
46.784744
 30
0.0
  0
SPLINE
  5
1d6
100
AcDbEntity
  8
Layer_1
 62
7
100
AcDbSpline
 70
8
 71
3
 72
8
 73
4
 74
0
 40
0
 40
0
 40
0
 40
0
 40
1
 40
1
 40
1
 40
1
 10
5.897230
 20
46.784744
 30
0.0
 10
5.867115
 20
46.784749
 30
0.0
 10
5.837831
 20
46.794587
 30
0.0
 10
5.813825
 20
46.812774
 30
0.0
  0
LWPOLYLINE
  5
1d7
100
AcDbEntity
  8
Layer_1
 62
7
100
AcDbPolyline
 90
4
 70
1
 10
10.924689
 20
48.059451
 30
0.0
 10
11.505643
 20
46.919010
 30
0.0
 10
10.924689
 20
45.778568
 30
0.0
 10
10.333480
 20
46.919010
 30
0.0
  0
SPLINE
  5
1d8
100
AcDbEntity
  8
Layer_1
 62
7
100
AcDbSpline
 70
8
 71
3
 72
8
 73
4
 74
0
 40
0
 40
0
 40
0
 40
0
 40
1
 40
1
 40
1
 40
1
 10
5.766584
 20
46.878026
 30
0.0
 10
5.761610
 20
46.892498
 30
0.0
 10
5.759070
 20
46.907701
 30
0.0
 10
5.759070
 20
46.923008
 30
0.0
  0
SPLINE
  5
1d9
100
AcDbEntity
  8
Layer_1
 62
7
100
AcDbSpline
 70
8
 71
3
 72
8
 73
4
 74
0
 40
0
 40
0
 40
0
 40
0
 40
1
 40
1
 40
1
 40
1
 10
5.759070
 20
46.923008
 30
0.0
 10
5.759040
 20
46.999311
 30
0.0
 10
5.820863
 20
47.061194
 30
0.0
 10
5.897166
 20
47.061239
 30
0.0
  0
LWPOLYLINE
  5
1da
100
AcDbEntity
  8
Layer_1
 62
7
100
AcDbPolyline
 90
35
 70
0
 10
5.813825
 20
46.812774
 30
0.0
 10
5.769663
 20
46.768747
 30
0.0
 10
5.769663
 20
44.753112
 30
0.0
 10
5.628424
 20
44.611737
 30
0.0
 10
5.628424
 20
42.596104
 30
0.0
 10
5.487046
 20
42.454862
 30
0.0
 10
5.487046
 20
38.373828
 30
0.0
 10
5.773492
 20
38.087247
 30
0.0
 10
5.773352
 20
38.087107
 30
0.0
 10
5.954377
 20
37.906219
 30
0.0
 10
5.955700
 20
37.906219
 30
0.0
 10
5.955700
 20
37.904896
 30
0.0
 10
5.956494
 20
37.904103
 30
0.0
 10
5.955700
 20
37.903309
 30
0.0
 10
5.955700
 20
37.030033
 30
0.0
 10
5.869152
 20
36.943485
 30
0.0
 10
5.869681
 20
36.942956
 30
0.0
 10
5.697678
 20
36.771091
 30
0.0
 10
5.473584
 20
36.771091
 30
0.0
 10
5.473584
 20
36.850529
 30
0.0
 10
5.666367
 20
36.850529
 30
0.0
 10
5.728854
 20
36.913013
 30
0.0
 10
5.728325
 20
36.913542
 30
0.0
 10
5.876264
 20
37.061344
 30
0.0
 10
5.876264
 20
37.872133
 30
0.0
 10
5.589956
 20
38.158576
 30
0.0
 10
5.590096
 20
38.158716
 30
0.0
 10
5.406880
 20
38.341795
 30
0.0
 10
5.407674
 20
38.342589
 30
0.0
 10
5.407674
 20
42.487884
 30
0.0
 10
5.548914
 20
42.629259
 30
0.0
 10
5.548914
 20
44.644757
 30
0.0
 10
5.690151
 20
44.785994
 30
0.0
 10
5.690151
 20
46.801730
 30
0.0
 10
5.766584
 20
46.878026
 30
0.0
  0
LWPOLYLINE
  5
1db
100
AcDbEntity
  8
Layer_1
 62
7
100
AcDbPolyline
 90
2
 70
0
 10
5.897166
 20
47.061239
 30
0.0
 10
5.897230
 20
47.061070
 30
0.0
  0
LWPOLYLINE
  5
1dc
100
AcDbEntity
  8
Layer_1
 62
7
100
AcDbPolyline
 90
4
 70
1
 10
9.610195
 20
45.606700
 30
0.0
 10
10.191285
 20
44.466256
 30
0.0
 10
9.610195
 20
43.325815
 30
0.0
 10
9.018986
 20
44.466256
 30
0.0
  0
LWPOLYLINE
  5
1dd
100
AcDbEntity
  8
Layer_1
 62
7
100
AcDbPolyline
 90
4
 70
1
 10
6.991319
 20
45.605377
 30
0.0
 10
7.572276
 20
44.464936
 30
0.0
 10
6.991319
 20
43.324494
 30
0.0
 10
6.389310
 20
44.464936
 30
0.0
  0
LWPOLYLINE
  5
1de
100
AcDbEntity
  8
Layer_1
 62
7
100
AcDbPolyline
 90
4
 70
1
 10
8.303629
 20
45.600456
 30
0.0
 10
8.884582
 20
44.460014
 30
0.0
 10
8.303629
 20
43.319570
 30
0.0
 10
7.712420
 20
44.460014
 30
0.0
  0
LWPOLYLINE
  5
1df
100
AcDbEntity
  8
Layer_1
 62
7
100
AcDbPolyline
 90
4
 70
1
 10
12.234946
 20
45.600316
 30
0.0
 10
12.815902
 20
44.459737
 30
0.0
 10
12.234946
 20
43.319163
 30
0.0
 10
11.643740
 20
44.459737
 30
0.0
  0
SPLINE
  5
1e0
100
AcDbEntity
  8
Layer_1
 62
7
100
AcDbSpline
 70
8
 71
3
 72
8
 73
4
 74
0
 40
0
 40
0
 40
0
 40
0
 40
1
 40
1
 40
1
 40
1
 10
5.894904
 20
44.601022
 30
0.0
 10
5.971260
 20
44.601056
 30
0.0
 10
6.033167
 20
44.539146
 30
0.0
 10
6.033136
 20
44.462790
 30
0.0
  0
SPLINE
  5
1e1
100
AcDbEntity
  8
Layer_1
 62
7
100
AcDbSpline
 70
8
 71
3
 72
8
 73
4
 74
0
 40
0
 40
0
 40
0
 40
0
 40
1
 40
1
 40
1
 40
1
 10
6.033136
 20
44.462790
 30
0.0
 10
6.033091
 20
44.386487
 30
0.0
 10
5.971207
 20
44.324667
 30
0.0
 10
5.894904
 20
44.324696
 30
0.0
  0
SPLINE
  5
1e2
100
AcDbEntity
  8
Layer_1
 62
7
100
AcDbSpline
 70
8
 71
3
 72
8
 73
4
 74
0
 40
0
 40
0
 40
0
 40
0
 40
1
 40
1
 40
1
 40
1
 10
5.894904
 20
44.324696
 30
0.0
 10
5.864776
 20
44.324741
 30
0.0
 10
5.835489
 20
44.334618
 30
0.0
 10
5.811502
 20
44.352861
 30
0.0
  0
LWPOLYLINE
  5
1e3
100
AcDbEntity
  8
Layer_1
 62
7
100
AcDbPolyline
 90
4
 70
1
 10
10.924689
 20
45.598993
 30
0.0
 10
11.505643
 20
44.458551
 30
0.0
 10
10.924689
 20
43.318110
 30
0.0
 10
10.333480
 20
44.458551
 30
0.0
  0
SPLINE
  5
1e4
100
AcDbEntity
  8
Layer_1
 62
7
100
AcDbSpline
 70
8
 71
3
 72
8
 73
4
 74
0
 40
0
 40
0
 40
0
 40
0
 40
1
 40
1
 40
1
 40
1
 10
5.764385
 20
44.417943
 30
0.0
 10
5.759411
 20
44.432363
 30
0.0
 10
5.756871
 20
44.447526
 30
0.0
 10
5.756871
 20
44.462787
 30
0.0
  0
SPLINE
  5
1e5
100
AcDbEntity
  8
Layer_1
 62
7
100
AcDbSpline
 70
8
 71
3
 72
8
 73
4
 74
0
 40
0
 40
0
 40
0
 40
0
 40
1
 40
1
 40
1
 40
1
 10
5.756871
 20
44.462787
 30
0.0
 10
5.756839
 20
44.539091
 30
0.0
 10
5.818662
 20
44.600974
 30
0.0
 10
5.894965
 20
44.601019
 30
0.0
  0
LWPOLYLINE
  5
1e6
100
AcDbEntity
  8
Layer_1
 62
7
100
AcDbPolyline
 90
27
 70
0
 10
5.811502
 20
44.352861
 30
0.0
 10
5.767338
 20
44.308564
 30
0.0
 10
5.767338
 20
42.293066
 30
0.0
 10
5.767338
 20
42.292929
 30
0.0
 10
5.625963
 20
42.151686
 30
0.0
 10
5.625963
 20
38.446924
 30
0.0
 10
5.804255
 20
38.268770
 30
0.0
 10
5.804395
 20
38.268910
 30
0.0
 10
6.114765
 20
37.958400
 30
0.0
 10
6.114625
 20
37.958260
 30
0.0
 10
6.117006
 20
37.958260
 30
0.0
 10
6.117006
 20
36.982575
 30
0.0
 10
5.945138
 20
36.810572
 30
0.0
 10
5.773137
 20
36.638704
 30
0.0
 10
5.473566
 20
36.638704
 30
0.0
 10
5.473566
 20
36.718142
 30
0.0
 10
5.741827
 20
36.718142
 30
0.0
 10
5.889763
 20
36.865944
 30
0.0
 10
6.037567
 20
37.013883
 30
0.0
 10
6.037567
 20
37.923393
 30
0.0
 10
5.857225
 20
38.103736
 30
0.0
 10
5.748251
 20
38.212707
 30
0.0
 10
5.546715
 20
38.414108
 30
0.0
 10
5.546715
 20
42.184503
 30
0.0
 10
5.687955
 20
42.325877
 30
0.0
 10
5.687955
 20
44.341510
 30
0.0
 10
5.764385
 20
44.417943
 30
0.0
  0
LWPOLYLINE
  5
1e7
100
AcDbEntity
  8
Layer_1
 62
7
100
AcDbPolyline
 90
1
 70
1
 10
5.894965
 20
44.601019
 30
0.0
  0
LWPOLYLINE
  5
1e8
100
AcDbEntity
  8
Layer_1
 62
7
100
AcDbPolyline
 90
4
 70
1
 10
9.610195
 20
43.146244
 30
0.0
 10
10.191285
 20
42.005803
 30
0.0
 10
9.610195
 20
40.865359
 30
0.0
 10
9.018986
 20
42.005803
 30
0.0
  0
LWPOLYLINE
  5
1e9
100
AcDbEntity
  8
Layer_1
 62
7
100
AcDbPolyline
 90
4
 70
1
 10
6.991319
 20
43.144922
 30
0.0
 10
7.572276
 20
42.004477
 30
0.0
 10
6.991319
 20
40.864036
 30
0.0
 10
6.389310
 20
42.004477
 30
0.0
  0
LWPOLYLINE
  5
1ea
100
AcDbEntity
  8
Layer_1
 62
7
100
AcDbPolyline
 90
4
 70
1
 10
8.303629
 20
43.139868
 30
0.0
 10
8.884582
 20
41.999424
 30
0.0
 10
8.303629
 20
40.858982
 30
0.0
 10
7.712420
 20
41.999424
 30
0.0
  0
LWPOLYLINE
  5
1eb
100
AcDbEntity
  8
Layer_1
 62
7
100
AcDbPolyline
 90
4
 70
1
 10
12.234946
 20
43.139728
 30
0.0
 10
12.815902
 20
41.999286
 30
0.0
 10
12.234946
 20
40.858707
 30
0.0
 10
11.643740
 20
41.999286
 30
0.0
  0
SPLINE
  5
1ec
100
AcDbEntity
  8
Layer_1
 62
7
100
AcDbSpline
 70
8
 71
3
 72
8
 73
4
 74
0
 40
0
 40
0
 40
0
 40
0
 40
1
 40
1
 40
1
 40
1
 10
5.902561
 20
42.150414
 30
0.0
 10
5.978917
 20
42.150445
 30
0.0
 10
6.040824
 20
42.088538
 30
0.0
 10
6.040793
 20
42.012182
 30
0.0
  0
SPLINE
  5
1ed
100
AcDbEntity
  8
Layer_1
 62
7
100
AcDbSpline
 70
8
 71
3
 72
8
 73
4
 74
0
 40
0
 40
0
 40
0
 40
0
 40
1
 40
1
 40
1
 40
1
 10
6.040793
 20
42.012182
 30
0.0
 10
6.040748
 20
41.935882
 30
0.0
 10
5.978864
 20
41.874056
 30
0.0
 10
5.902561
 20
41.874088
 30
0.0
  0
SPLINE
  5
1ee
100
AcDbEntity
  8
Layer_1
 62
7
100
AcDbSpline
 70
8
 71
3
 72
8
 73
4
 74
0
 40
0
 40
0
 40
0
 40
0
 40
1
 40
1
 40
1
 40
1
 10
5.902561
 20
41.874088
 30
0.0
 10
5.872433
 20
41.874133
 30
0.0
 10
5.843144
 20
41.884010
 30
0.0
 10
5.819156
 20
41.902256
 30
0.0
  0
LWPOLYLINE
  5
1ef
100
AcDbEntity
  8
Layer_1
 62
7
100
AcDbPolyline
 90
4
 70
1
 10
10.924689
 20
43.138405
 30
0.0
 10
11.505643
 20
41.997963
 30
0.0
 10
10.924689
 20
40.857522
 30
0.0
 10
10.333480
 20
41.997963
 30
0.0
  0
SPLINE
  5
1f0
100
AcDbEntity
  8
Layer_1
 62
7
100
AcDbSpline
 70
8
 71
3
 72
8
 73
4
 74
0
 40
0
 40
0
 40
0
 40
0
 40
1
 40
1
 40
1
 40
1
 10
5.772034
 20
41.967134
 30
0.0
 10
5.767060
 20
41.981554
 30
0.0
 10
5.764520
 20
41.996720
 30
0.0
 10
5.764520
 20
42.011981
 30
0.0
  0
SPLINE
  5
1f1
100
AcDbEntity
  8
Layer_1
 62
7
100
AcDbSpline
 70
8
 71
3
 72
8
 73
4
 74
0
 40
0
 40
0
 40
0
 40
0
 40
1
 40
1
 40
1
 40
1
 10
5.764520
 20
42.011981
 30
0.0
 10
5.764488
 20
42.088284
 30
0.0
 10
5.826311
 20
42.150168
 30
0.0
 10
5.902614
 20
42.150213
 30
0.0
  0
LWPOLYLINE
  5
1f2
100
AcDbEntity
  8
Layer_1
 62
7
100
AcDbPolyline
 90
31
 70
0
 10
5.819156
 20
41.902256
 30
0.0
 10
5.774995
 20
41.858091
 30
0.0
 10
5.774995
 20
39.842459
 30
0.0
 10
5.774995
 20
38.518939
 30
0.0
 10
6.063078
 20
38.230855
 30
0.0
 10
6.276237
 20
38.017834
 30
0.0
 10
6.276767
 20
38.017834
 30
0.0
 10
6.276767
 20
38.017304
 30
0.0
 10
6.277825
 20
38.016246
 30
0.0
 10
6.276767
 20
38.015188
 30
0.0
 10
6.276767
 20
36.933264
 30
0.0
 10
6.104901
 20
36.761261
 30
0.0
 10
6.104761
 20
36.761401
 30
0.0
 10
5.993877
 20
36.650515
 30
0.0
 10
5.848671
 20
36.505311
 30
0.0
 10
5.847877
 20
36.506105
 30
0.0
 10
5.473518
 20
36.506105
 30
0.0
 10
5.473518
 20
36.585544
 30
0.0
 10
5.818207
 20
36.585544
 30
0.0
 10
5.938526
 20
36.705865
 30
0.0
 10
6.110394
 20
36.877731
 30
0.0
 10
6.110534
 20
36.877591
 30
0.0
 10
6.197495
 20
36.964549
 30
0.0
 10
6.197495
 20
37.983988
 30
0.0
 10
6.007032
 20
38.174448
 30
0.0
 10
5.696662
 20
38.484956
 30
0.0
 10
5.696927
 20
38.485220
 30
0.0
 10
5.695604
 20
38.485220
 30
0.0
 10
5.695604
 20
39.842257
 30
0.0
 10
5.695604
 20
41.890704
 30
0.0
 10
5.772034
 20
41.967134
 30
0.0
  0
SPLINE
  5
1f3
100
AcDbEntity
  8
Layer_1
 62
7
100
AcDbSpline
 70
8
 71
3
 72
8
 73
4
 74
0
 40
0
 40
0
 40
0
 40
0
 40
1
 40
1
 40
1
 40
1
 10
5.425382
 20
37.880697
 30
0.0
 10
5.501686
 20
37.880652
 30
0.0
 10
5.563508
 20
37.818769
 30
0.0
 10
5.563479
 20
37.742466
 30
0.0
  0
SPLINE
  5
1f4
100
AcDbEntity
  8
Layer_1
 62
7
100
AcDbSpline
 70
8
 71
3
 72
8
 73
4
 74
0
 40
0
 40
0
 40
0
 40
0
 40
1
 40
1
 40
1
 40
1
 10
5.563479
 20
37.742466
 30
0.0
 10
5.563508
 20
37.666163
 30
0.0
 10
5.501686
 20
37.604279
 30
0.0
 10
5.425382
 20
37.604234
 30
0.0
  0
SPLINE
  5
1f5
100
AcDbEntity
  8
Layer_1
 62
7
100
AcDbSpline
 70
8
 71
3
 72
8
 73
4
 74
0
 40
0
 40
0
 40
0
 40
0
 40
1
 40
1
 40
1
 40
1
 10
5.425382
 20
37.604234
 30
0.0
 10
5.409428
 20
37.604295
 30
0.0
 10
5.393611
 20
37.607118
 30
0.0
 10
5.378623
 20
37.612569
 30
0.0
  0
LWPOLYLINE
  5
1f6
100
AcDbEntity
  8
Layer_1
 62
7
100
AcDbPolyline
 90
2
 70
0
 10
5.902614
 20
42.150213
 30
0.0
 10
5.902561
 20
42.150414
 30
0.0
  0
SPLINE
  5
1f7
100
AcDbEntity
  8
Layer_1
 62
7
100
AcDbSpline
 70
8
 71
3
 72
8
 73
4
 74
0
 40
0
 40
0
 40
0
 40
0
 40
1
 40
1
 40
1
 40
1
 10
5.314908
 20
37.659604
 30
0.0
 10
5.296943
 20
37.683496
 30
0.0
 10
5.287198
 20
37.712565
 30
0.0
 10
5.287151
 20
37.742461
 30
0.0
  0
SPLINE
  5
1f8
100
AcDbEntity
  8
Layer_1
 62
7
100
AcDbSpline
 70
8
 71
3
 72
8
 73
4
 74
0
 40
0
 40
0
 40
0
 40
0
 40
1
 40
1
 40
1
 40
1
 10
5.287151
 20
37.742461
 30
0.0
 10
5.287122
 20
37.818817
 30
0.0
 10
5.349026
 20
37.880724
 30
0.0
 10
5.425382
 20
37.880692
 30
0.0
  0
LWPOLYLINE
  5
1f9
100
AcDbEntity
  8
Layer_1
 62
7
100
AcDbPolyline
 90
7
 70
0
 10
5.378623
 20
37.612569
 30
0.0
 10
5.242307
 20
37.476253
 30
0.0
 10
5.242307
 20
37.137716
 30
0.0
 10
5.242307
 20
37.071538
 30
0.0
 10
5.162868
 20
37.071538
 30
0.0
 10
5.162868
 20
37.507564
 30
0.0
 10
5.314908
 20
37.659604
 30
0.0
  0
SPLINE
  5
1fa
100
AcDbEntity
  8
Layer_1
 62
7
100
AcDbSpline
 70
8
 71
3
 72
8
 73
4
 74
0
 40
0
 40
0
 40
0
 40
0
 40
1
 40
1
 40
1
 40
1
 10
5.428795
 20
37.511807
 30
0.0
 10
5.505099
 20
37.511762
 30
0.0
 10
5.566924
 20
37.449876
 30
0.0
 10
5.566892
 20
37.373576
 30
0.0
  0
SPLINE
  5
1fb
100
AcDbEntity
  8
Layer_1
 62
7
100
AcDbSpline
 70
8
 71
3
 72
8
 73
4
 74
0
 40
0
 40
0
 40
0
 40
0
 40
1
 40
1
 40
1
 40
1
 10
5.566892
 20
37.373576
 30
0.0
 10
5.566847
 20
37.297326
 30
0.0
 10
5.505046
 20
37.235524
 30
0.0
 10
5.428795
 20
37.235482
 30
0.0
  0
SPLINE
  5
1fc
100
AcDbEntity
  8
Layer_1
 62
7
100
AcDbSpline
 70
8
 71
3
 72
8
 73
4
 74
0
 40
0
 40
0
 40
0
 40
0
 40
1
 40
1
 40
1
 40
1
 10
5.428795
 20
37.235482
 30
0.0
 10
5.410142
 20
37.235426
 30
0.0
 10
5.391685
 20
37.239160
 30
0.0
 10
5.374516
 20
37.246409
 30
0.0
  0
LWPOLYLINE
  5
1fd
100
AcDbEntity
  8
Layer_1
 62
7
100
AcDbPolyline
 90
1
 70
1
 10
5.425382
 20
37.880692
 30
0.0
  0
SPLINE
  5
1fe
100
AcDbEntity
  8
Layer_1
 62
7
100
AcDbSpline
 70
8
 71
3
 72
8
 73
4
 74
0
 40
0
 40
0
 40
0
 40
0
 40
1
 40
1
 40
1
 40
1
 10
5.295078
 20
37.339109
 30
0.0
 10
5.292141
 20
37.350353
 30
0.0
 10
5.290606
 20
37.361942
 30
0.0
 10
5.290580
 20
37.373565
 30
0.0
  0
SPLINE
  5
1ff
100
AcDbEntity
  8
Layer_1
 62
7
100
AcDbSpline
 70
8
 71
3
 72
8
 73
4
 74
0
 40
0
 40
0
 40
0
 40
0
 40
1
 40
1
 40
1
 40
1
 10
5.290580
 20
37.373565
 30
0.0
 10
5.290627
 20
37.385181
 30
0.0
 10
5.292167
 20
37.396769
 30
0.0
 10
5.295078
 20
37.408019
 30
0.0
  0
LWPOLYLINE
  5
200
100
AcDbEntity
  8
Layer_1
 62
7
100
AcDbPolyline
 90
5
 70
0
 10
5.374516
 20
37.246409
 30
0.0
 10
5.374516
 20
37.137710
 30
0.0
 10
5.374516
 20
37.071533
 30
0.0
 10
5.295078
 20
37.071533
 30
0.0
 10
5.295078
 20
37.339109
 30
0.0
  0
SPLINE
  5
201
100
AcDbEntity
  8
Layer_1
 62
7
100
AcDbSpline
 70
8
 71
3
 72
8
 73
4
 74
0
 40
0
 40
0
 40
0
 40
0
 40
1
 40
1
 40
1
 40
1
 10
5.296136
 20
37.412544
 30
0.0
 10
5.313413
 20
37.471400
 30
0.0
 10
5.367420
 20
37.511826
 30
0.0
 10
5.428761
 20
37.511807
 30
0.0
  0
LWPOLYLINE
  5
202
100
AcDbEntity
  8
Layer_1
 62
7
100
AcDbPolyline
 90
3
 70
0
 10
5.295078
 20
37.408019
 30
0.0
 10
5.295078
 20
37.412544
 30
0.0
 10
5.296136
 20
37.412544
 30
0.0
  0
SPLINE
  5
203
100
AcDbEntity
  8
Layer_1
 62
7
100
AcDbSpline
 70
8
 71
3
 72
8
 73
4
 74
0
 40
0
 40
0
 40
0
 40
0
 40
1
 40
1
 40
1
 40
1
 10
3.207801
 20
37.048437
 30
0.0
 10
3.284101
 20
37.048469
 30
0.0
 10
3.345988
 20
36.986647
 30
0.0
 10
3.346030
 20
36.910343
 30
0.0
  0
SPLINE
  5
204
100
AcDbEntity
  8
Layer_1
 62
7
100
AcDbSpline
 70
8
 71
3
 72
8
 73
4
 74
0
 40
0
 40
0
 40
0
 40
0
 40
1
 40
1
 40
1
 40
1
 10
3.346030
 20
36.910343
 30
0.0
 10
3.346014
 20
36.891188
 30
0.0
 10
3.342008
 20
36.872228
 30
0.0
 10
3.334282
 20
36.854696
 30
0.0
  0
LWPOLYLINE
  5
205
100
AcDbEntity
  8
Layer_1
 62
7
100
AcDbPolyline
 90
1
 70
1
 10
5.428761
 20
37.511807
 30
0.0
  0
SPLINE
  5
206
100
AcDbEntity
  8
Layer_1
 62
7
100
AcDbSpline
 70
8
 71
3
 72
8
 73
4
 74
0
 40
0
 40
0
 40
0
 40
0
 40
1
 40
1
 40
1
 40
1
 10
3.236934
 20
36.775395
 30
0.0
 10
3.227356
 20
36.773279
 30
0.0
 10
3.217593
 20
36.772167
 30
0.0
 10
3.207812
 20
36.772114
 30
0.0
  0
SPLINE
  5
207
100
AcDbEntity
  8
Layer_1
 62
7
100
AcDbSpline
 70
8
 71
3
 72
8
 73
4
 74
0
 40
0
 40
0
 40
0
 40
0
 40
1
 40
1
 40
1
 40
1
 10
3.207812
 20
36.772114
 30
0.0
 10
3.131508
 20
36.772159
 30
0.0
 10
3.069683
 20
36.834045
 30
0.0
 10
3.069715
 20
36.910346
 30
0.0
  0
SPLINE
  5
208
100
AcDbEntity
  8
Layer_1
 62
7
100
AcDbSpline
 70
8
 71
3
 72
8
 73
4
 74
0
 40
0
 40
0
 40
0
 40
0
 40
1
 40
1
 40
1
 40
1
 10
3.069715
 20
36.910346
 30
0.0
 10
3.069760
 20
36.986596
 30
0.0
 10
3.131561
 20
37.048398
 30
0.0
 10
3.207812
 20
37.048440
 30
0.0
  0
LWPOLYLINE
  5
209
100
AcDbEntity
  8
Layer_1
 62
7
100
AcDbPolyline
 90
5
 70
0
 10
3.334282
 20
36.854696
 30
0.0
 10
3.754581
 20
36.854696
 30
0.0
 10
3.754581
 20
36.841573
 30
0.0
 10
3.754581
 20
36.775395
 30
0.0
 10
3.236934
 20
36.775395
 30
0.0
  0
SPLINE
  5
20a
100
AcDbEntity
  8
Layer_1
 62
7
100
AcDbSpline
 70
8
 71
3
 72
8
 73
4
 74
0
 40
0
 40
0
 40
0
 40
0
 40
1
 40
1
 40
1
 40
1
 10
2.901530
 20
36.919368
 30
0.0
 10
2.977833
 20
36.919397
 30
0.0
 10
3.039716
 20
36.857575
 30
0.0
 10
3.039761
 20
36.781274
 30
0.0
  0
SPLINE
  5
20b
100
AcDbEntity
  8
Layer_1
 62
7
100
AcDbSpline
 70
8
 71
3
 72
8
 73
4
 74
0
 40
0
 40
0
 40
0
 40
0
 40
1
 40
1
 40
1
 40
1
 10
3.039761
 20
36.781274
 30
0.0
 10
3.039698
 20
36.760875
 30
0.0
 10
3.035131
 20
36.740759
 30
0.0
 10
3.026373
 20
36.722344
 30
0.0
  0
LWPOLYLINE
  5
20c
100
AcDbEntity
  8
Layer_1
 62
7
100
AcDbPolyline
 90
1
 70
1
 10
3.207812
 20
37.048440
 30
0.0
  0
SPLINE
  5
20d
100
AcDbEntity
  8
Layer_1
 62
7
100
AcDbSpline
 70
8
 71
3
 72
8
 73
4
 74
0
 40
0
 40
0
 40
0
 40
0
 40
1
 40
1
 40
1
 40
1
 10
2.916855
 20
36.644104
 30
0.0
 10
2.911775
 20
36.643575
 30
0.0
 10
2.906668
 20
36.643310
 30
0.0
 10
2.901535
 20
36.643045
 30
0.0
  0
SPLINE
  5
20e
100
AcDbEntity
  8
Layer_1
 62
7
100
AcDbSpline
 70
8
 71
3
 72
8
 73
4
 74
0
 40
0
 40
0
 40
0
 40
0
 40
1
 40
1
 40
1
 40
1
 10
2.901535
 20
36.643045
 30
0.0
 10
2.825235
 20
36.643088
 30
0.0
 10
2.763409
 20
36.704974
 30
0.0
 10
2.763441
 20
36.781277
 30
0.0
  0
SPLINE
  5
20f
100
AcDbEntity
  8
Layer_1
 62
7
100
AcDbSpline
 70
8
 71
3
 72
8
 73
4
 74
0
 40
0
 40
0
 40
0
 40
0
 40
1
 40
1
 40
1
 40
1
 10
2.763441
 20
36.781277
 30
0.0
 10
2.763486
 20
36.857525
 30
0.0
 10
2.825288
 20
36.919326
 30
0.0
 10
2.901535
 20
36.919371
 30
0.0
  0
LWPOLYLINE
  5
210
100
AcDbEntity
  8
Layer_1
 62
7
100
AcDbPolyline
 90
6
 70
0
 10
3.026373
 20
36.722344
 30
0.0
 10
3.754581
 20
36.722344
 30
0.0
 10
3.754581
 20
36.709220
 30
0.0
 10
3.754581
 20
36.643045
 30
0.0
 10
2.916855
 20
36.643045
 30
0.0
 10
2.916855
 20
36.644104
 30
0.0
  0
SPLINE
  5
211
100
AcDbEntity
  8
Layer_1
 62
7
100
AcDbSpline
 70
8
 71
3
 72
8
 73
4
 74
0
 40
0
 40
0
 40
0
 40
0
 40
1
 40
1
 40
1
 40
1
 10
2.600320
 20
36.784145
 30
0.0
 10
2.676568
 20
36.784100
 30
0.0
 10
2.738369
 20
36.722299
 30
0.0
 10
2.738414
 20
36.646051
 30
0.0
  0
SPLINE
  5
212
100
AcDbEntity
  8
Layer_1
 62
7
100
AcDbSpline
 70
8
 71
3
 72
8
 73
4
 74
0
 40
0
 40
0
 40
0
 40
0
 40
1
 40
1
 40
1
 40
1
 10
2.738414
 20
36.646051
 30
0.0
 10
2.738393
 20
36.626789
 30
0.0
 10
2.734340
 20
36.607737
 30
0.0
 10
2.726508
 20
36.590129
 30
0.0
  0
LWPOLYLINE
  5
213
100
AcDbEntity
  8
Layer_1
 62
7
100
AcDbPolyline
 90
1
 70
1
 10
2.901535
 20
36.919371
 30
0.0
  0
SPLINE
  5
214
100
AcDbEntity
  8
Layer_1
 62
7
100
AcDbSpline
 70
8
 71
3
 72
8
 73
4
 74
0
 40
0
 40
0
 40
0
 40
0
 40
1
 40
1
 40
1
 40
1
 10
2.627927
 20
36.510830
 30
0.0
 10
2.618852
 20
36.508978
 30
0.0
 10
2.609591
 20
36.507894
 30
0.0
 10
2.600307
 20
36.507814
 30
0.0
  0
SPLINE
  5
215
100
AcDbEntity
  8
Layer_1
 62
7
100
AcDbSpline
 70
8
 71
3
 72
8
 73
4
 74
0
 40
0
 40
0
 40
0
 40
0
 40
1
 40
1
 40
1
 40
1
 10
2.600307
 20
36.507814
 30
0.0
 10
2.523951
 20
36.507782
 30
0.0
 10
2.462044
 20
36.569690
 30
0.0
 10
2.462076
 20
36.646046
 30
0.0
  0
SPLINE
  5
216
100
AcDbEntity
  8
Layer_1
 62
7
100
AcDbSpline
 70
8
 71
3
 72
8
 73
4
 74
0
 40
0
 40
0
 40
0
 40
0
 40
1
 40
1
 40
1
 40
1
 10
2.462076
 20
36.646046
 30
0.0
 10
2.462121
 20
36.722349
 30
0.0
 10
2.524004
 20
36.784172
 30
0.0
 10
2.600307
 20
36.784140
 30
0.0
  0
LWPOLYLINE
  5
217
100
AcDbEntity
  8
Layer_1
 62
7
100
AcDbPolyline
 90
5
 70
0
 10
2.726508
 20
36.590129
 30
0.0
 10
3.754557
 20
36.590129
 30
0.0
 10
3.754557
 20
36.577005
 30
0.0
 10
3.754557
 20
36.510830
 30
0.0
 10
2.627927
 20
36.510830
 30
0.0
  0
SPLINE
  5
218
100
AcDbEntity
  8
Layer_1
 62
7
100
AcDbSpline
 70
8
 71
3
 72
8
 73
4
 74
0
 40
0
 40
0
 40
0
 40
0
 40
1
 40
1
 40
1
 40
1
 10
2.293914
 20
36.654253
 30
0.0
 10
2.370218
 20
36.654285
 30
0.0
 10
2.432101
 20
36.592462
 30
0.0
 10
2.432146
 20
36.516159
 30
0.0
  0
SPLINE
  5
219
100
AcDbEntity
  8
Layer_1
 62
7
100
AcDbSpline
 70
8
 71
3
 72
8
 73
4
 74
0
 40
0
 40
0
 40
0
 40
0
 40
1
 40
1
 40
1
 40
1
 10
2.432146
 20
36.516159
 30
0.0
 10
2.432088
 20
36.495971
 30
0.0
 10
2.427622
 20
36.476046
 30
0.0
 10
2.419023
 20
36.457776
 30
0.0
  0
LWPOLYLINE
  5
21a
100
AcDbEntity
  8
Layer_1
 62
7
100
AcDbPolyline
 90
1
 70
1
 10
2.600307
 20
36.784140
 30
0.0
  0
SPLINE
  5
21b
100
AcDbEntity
  8
Layer_1
 62
7
100
AcDbSpline
 70
8
 71
3
 72
8
 73
4
 74
0
 40
0
 40
0
 40
0
 40
0
 40
1
 40
1
 40
1
 40
1
 10
2.305813
 20
36.378478
 30
0.0
 10
2.301870
 20
36.378213
 30
0.0
 10
2.297875
 20
36.377949
 30
0.0
 10
2.293906
 20
36.377949
 30
0.0
  0
SPLINE
  5
21c
100
AcDbEntity
  8
Layer_1
 62
7
100
AcDbSpline
 70
8
 71
3
 72
8
 73
4
 74
0
 40
0
 40
0
 40
0
 40
0
 40
1
 40
1
 40
1
 40
1
 10
2.293906
 20
36.377949
 30
0.0
 10
2.217603
 20
36.377994
 30
0.0
 10
2.155781
 20
36.439877
 30
0.0
 10
2.155812
 20
36.516180
 30
0.0
  0
SPLINE
  5
21d
100
AcDbEntity
  8
Layer_1
 62
7
100
AcDbSpline
 70
8
 71
3
 72
8
 73
4
 74
0
 40
0
 40
0
 40
0
 40
0
 40
1
 40
1
 40
1
 40
1
 10
2.155812
 20
36.516180
 30
0.0
 10
2.155857
 20
36.592428
 30
0.0
 10
2.217659
 20
36.654229
 30
0.0
 10
2.293906
 20
36.654274
 30
0.0
  0
LWPOLYLINE
  5
21e
100
AcDbEntity
  8
Layer_1
 62
7
100
AcDbPolyline
 90
5
 70
0
 10
2.419023
 20
36.457776
 30
0.0
 10
3.754573
 20
36.457776
 30
0.0
 10
3.754573
 20
36.444653
 30
0.0
 10
3.754573
 20
36.378478
 30
0.0
 10
2.305813
 20
36.378478
 30
0.0
  0
SPLINE
  5
21f
100
AcDbEntity
  8
Layer_1
 62
7
100
AcDbSpline
 70
8
 71
3
 72
8
 73
4
 74
0
 40
0
 40
0
 40
0
 40
0
 40
1
 40
1
 40
1
 40
1
 10
1.987646
 20
36.524364
 30
0.0
 10
2.064002
 20
36.524393
 30
0.0
 10
2.125909
 20
36.462488
 30
0.0
 10
2.125877
 20
36.386132
 30
0.0
  0
SPLINE
  5
220
100
AcDbEntity
  8
Layer_1
 62
7
100
AcDbSpline
 70
8
 71
3
 72
8
 73
4
 74
0
 40
0
 40
0
 40
0
 40
0
 40
1
 40
1
 40
1
 40
1
 10
2.125877
 20
36.386132
 30
0.0
 10
2.125809
 20
36.365124
 30
0.0
 10
2.120930
 20
36.344408
 30
0.0
 10
2.111643
 20
36.325561
 30
0.0
  0
LWPOLYLINE
  5
221
100
AcDbEntity
  8
Layer_1
 62
7
100
AcDbPolyline
 90
1
 70
1
 10
2.293906
 20
36.654274
 30
0.0
  0
SPLINE
  5
222
100
AcDbEntity
  8
Layer_1
 62
7
100
AcDbSpline
 70
8
 71
3
 72
8
 73
4
 74
0
 40
0
 40
0
 40
0
 40
0
 40
1
 40
1
 40
1
 40
1
 10
1.985445
 20
36.248120
 30
0.0
 10
1.910104
 20
36.249443
 30
0.0
 10
1.849645
 20
36.310729
 30
0.0
 10
1.849539
 20
36.386077
 30
0.0
  0
SPLINE
  5
223
100
AcDbEntity
  8
Layer_1
 62
7
100
AcDbSpline
 70
8
 71
3
 72
8
 73
4
 74
0
 40
0
 40
0
 40
0
 40
0
 40
1
 40
1
 40
1
 40
1
 10
1.849539
 20
36.386077
 30
0.0
 10
1.849507
 20
36.462377
 30
0.0
 10
1.911329
 20
36.524266
 30
0.0
 10
1.987633
 20
36.524311
 30
0.0
  0
LWPOLYLINE
  5
224
100
AcDbEntity
  8
Layer_1
 62
7
100
AcDbPolyline
 90
6
 70
0
 10
2.111643
 20
36.325561
 30
0.0
 10
3.754557
 20
36.325561
 30
0.0
 10
3.754557
 20
36.312306
 30
0.0
 10
3.754557
 20
36.246268
 30
0.0
 10
1.985445
 20
36.246268
 30
0.0
 10
1.985445
 20
36.248120
 30
0.0
  0
SPLINE
  5
225
100
AcDbEntity
  8
Layer_1
 62
7
100
AcDbSpline
 70
8
 71
3
 72
8
 73
4
 74
0
 40
0
 40
0
 40
0
 40
0
 40
1
 40
1
 40
1
 40
1
 10
1.693956
 20
36.295891
 30
0.0
 10
1.756564
 20
36.295849
 30
0.0
 10
1.811320
 20
36.253716
 30
0.0
 10
1.827401
 20
36.193209
 30
0.0
  0
LWPOLYLINE
  5
226
100
AcDbEntity
  8
Layer_1
 62
7
100
AcDbPolyline
 90
1
 70
1
 10
1.987633
 20
36.524311
 30
0.0
  0
SPLINE
  5
227
100
AcDbEntity
  8
Layer_1
 62
7
100
AcDbSpline
 70
8
 71
3
 72
8
 73
4
 74
0
 40
0
 40
0
 40
0
 40
0
 40
1
 40
1
 40
1
 40
1
 10
1.824940
 20
36.113911
 30
0.0
 10
1.806102
 20
36.057575
 30
0.0
 10
1.753357
 20
36.019592
 30
0.0
 10
1.693956
 20
36.019568
 30
0.0
  0
SPLINE
  5
228
100
AcDbEntity
  8
Layer_1
 62
7
100
AcDbSpline
 70
8
 71
3
 72
8
 73
4
 74
0
 40
0
 40
0
 40
0
 40
0
 40
1
 40
1
 40
1
 40
1
 10
1.693956
 20
36.019568
 30
0.0
 10
1.617708
 20
36.019613
 30
0.0
 10
1.555907
 20
36.081414
 30
0.0
 10
1.555862
 20
36.157662
 30
0.0
  0
SPLINE
  5
229
100
AcDbEntity
  8
Layer_1
 62
7
100
AcDbSpline
 70
8
 71
3
 72
8
 73
4
 74
0
 40
0
 40
0
 40
0
 40
0
 40
1
 40
1
 40
1
 40
1
 10
1.555862
 20
36.157662
 30
0.0
 10
1.555830
 20
36.233965
 30
0.0
 10
1.617653
 20
36.295849
 30
0.0
 10
1.693956
 20
36.295894
 30
0.0
  0
LWPOLYLINE
  5
22a
100
AcDbEntity
  8
Layer_1
 62
7
100
AcDbPolyline
 90
5
 70
0
 10
1.827401
 20
36.193209
 30
0.0
 10
3.754570
 20
36.193209
 30
0.0
 10
3.754570
 20
36.180085
 30
0.0
 10
3.754570
 20
36.113911
 30
0.0
 10
1.824940
 20
36.113911
 30
0.0
  0
SPLINE
  5
22b
100
AcDbEntity
  8
Layer_1
 62
7
100
AcDbSpline
 70
8
 71
3
 72
8
 73
4
 74
0
 40
0
 40
0
 40
0
 40
0
 40
1
 40
1
 40
1
 40
1
 10
1.997216
 20
36.065232
 30
0.0
 10
2.008434
 20
36.065172
 30
0.0
 10
2.019573
 20
36.063645
 30
0.0
 10
2.030442
 20
36.060999
 30
0.0
  0
LWPOLYLINE
  5
22c
100
AcDbEntity
  8
Layer_1
 62
7
100
AcDbPolyline
 90
1
 70
1
 10
1.693956
 20
36.295894
 30
0.0
  0
SPLINE
  5
22d
100
AcDbEntity
  8
Layer_1
 62
7
100
AcDbSpline
 70
8
 71
3
 72
8
 73
4
 74
0
 40
0
 40
0
 40
0
 40
0
 40
1
 40
1
 40
1
 40
1
 10
2.123965
 20
35.981704
 30
0.0
 10
2.131399
 20
35.964479
 30
0.0
 10
2.135262
 20
35.945916
 30
0.0
 10
2.135315
 20
35.927149
 30
0.0
  0
SPLINE
  5
22e
100
AcDbEntity
  8
Layer_1
 62
7
100
AcDbSpline
 70
8
 71
3
 72
8
 73
4
 74
0
 40
0
 40
0
 40
0
 40
0
 40
1
 40
1
 40
1
 40
1
 10
2.135315
 20
35.927149
 30
0.0
 10
2.135347
 20
35.850849
 30
0.0
 10
2.073524
 20
35.788965
 30
0.0
 10
1.997221
 20
35.788920
 30
0.0
  0
SPLINE
  5
22f
100
AcDbEntity
  8
Layer_1
 62
7
100
AcDbSpline
 70
8
 71
3
 72
8
 73
4
 74
0
 40
0
 40
0
 40
0
 40
0
 40
1
 40
1
 40
1
 40
1
 10
1.997221
 20
35.788920
 30
0.0
 10
1.920868
 20
35.788888
 30
0.0
 10
1.858961
 20
35.850793
 30
0.0
 10
1.858992
 20
35.927149
 30
0.0
  0
SPLINE
  5
230
100
AcDbEntity
  8
Layer_1
 62
7
100
AcDbSpline
 70
8
 71
3
 72
8
 73
4
 74
0
 40
0
 40
0
 40
0
 40
0
 40
1
 40
1
 40
1
 40
1
 10
1.858992
 20
35.927149
 30
0.0
 10
1.859035
 20
36.003452
 30
0.0
 10
1.920921
 20
36.065277
 30
0.0
 10
1.997221
 20
36.065246
 30
0.0
  0
LWPOLYLINE
  5
231
100
AcDbEntity
  8
Layer_1
 62
7
100
AcDbPolyline
 90
5
 70
0
 10
2.030442
 20
36.060999
 30
0.0
 10
3.754570
 20
36.060999
 30
0.0
 10
3.754570
 20
36.047744
 30
0.0
 10
3.754570
 20
35.981704
 30
0.0
 10
2.123965
 20
35.981704
 30
0.0
  0
SPLINE
  5
232
100
AcDbEntity
  8
Layer_1
 62
7
100
AcDbSpline
 70
8
 71
3
 72
8
 73
4
 74
0
 40
0
 40
0
 40
0
 40
0
 40
1
 40
1
 40
1
 40
1
 10
2.306358
 20
35.933428
 30
0.0
 10
2.318370
 20
35.933385
 30
0.0
 10
2.330329
 20
35.931840
 30
0.0
 10
2.341907
 20
35.928639
 30
0.0
  0
LWPOLYLINE
  5
233
100
AcDbEntity
  8
Layer_1
 62
7
100
AcDbPolyline
 90
1
 70
1
 10
1.997221
 20
36.065246
 30
0.0
  0
SPLINE
  5
234
100
AcDbEntity
  8
Layer_1
 62
7
100
AcDbSpline
 70
8
 71
3
 72
8
 73
4
 74
0
 40
0
 40
0
 40
0
 40
0
 40
1
 40
1
 40
1
 40
1
 10
2.433379
 20
35.849340
 30
0.0
 10
2.440681
 20
35.832222
 30
0.0
 10
2.444438
 20
35.813807
 30
0.0
 10
2.444465
 20
35.795196
 30
0.0
  0
SPLINE
  5
235
100
AcDbEntity
  8
Layer_1
 62
7
100
AcDbSpline
 70
8
 71
3
 72
8
 73
4
 74
0
 40
0
 40
0
 40
0
 40
0
 40
1
 40
1
 40
1
 40
1
 10
2.444465
 20
35.795196
 30
0.0
 10
2.444420
 20
35.718946
 30
0.0
 10
2.382619
 20
35.657144
 30
0.0
 10
2.306368
 20
35.657102
 30
0.0
  0
SPLINE
  5
236
100
AcDbEntity
  8
Layer_1
 62
7
100
AcDbSpline
 70
8
 71
3
 72
8
 73
4
 74
0
 40
0
 40
0
 40
0
 40
0
 40
1
 40
1
 40
1
 40
1
 10
2.306368
 20
35.657102
 30
0.0
 10
2.230068
 20
35.657070
 30
0.0
 10
2.168182
 20
35.718893
 30
0.0
 10
2.168139
 20
35.795196
 30
0.0
  0
SPLINE
  5
237
100
AcDbEntity
  8
Layer_1
 62
7
100
AcDbSpline
 70
8
 71
3
 72
8
 73
4
 74
0
 40
0
 40
0
 40
0
 40
0
 40
1
 40
1
 40
1
 40
1
 10
2.168139
 20
35.795196
 30
0.0
 10
2.168108
 20
35.871552
 30
0.0
 10
2.230015
 20
35.933459
 30
0.0
 10
2.306368
 20
35.933428
 30
0.0
  0
LWPOLYLINE
  5
238
100
AcDbEntity
  8
Layer_1
 62
7
100
AcDbPolyline
 90
5
 70
0
 10
2.341907
 20
35.928639
 30
0.0
 10
3.754570
 20
35.928639
 30
0.0
 10
3.754570
 20
35.915515
 30
0.0
 10
3.754570
 20
35.849340
 30
0.0
 10
2.433379
 20
35.849340
 30
0.0
  0
SPLINE
  5
239
100
AcDbEntity
  8
Layer_1
 62
7
100
AcDbSpline
 70
8
 71
3
 72
8
 73
4
 74
0
 40
0
 40
0
 40
0
 40
0
 40
1
 40
1
 40
1
 40
1
 10
2.625890
 20
35.801485
 30
0.0
 10
2.638457
 20
35.801453
 30
0.0
 10
2.650972
 20
35.799633
 30
0.0
 10
2.663079
 20
35.796299
 30
0.0
  0
LWPOLYLINE
  5
23a
100
AcDbEntity
  8
Layer_1
 62
7
100
AcDbPolyline
 90
1
 70
1
 10
2.306368
 20
35.933428
 30
0.0
  0
SPLINE
  5
23b
100
AcDbEntity
  8
Layer_1
 62
7
100
AcDbSpline
 70
8
 71
3
 72
8
 73
4
 74
0
 40
0
 40
0
 40
0
 40
0
 40
1
 40
1
 40
1
 40
1
 10
2.753046
 20
35.717001
 30
0.0
 10
2.760269
 20
35.700041
 30
0.0
 10
2.764052
 20
35.681827
 30
0.0
 10
2.764132
 20
35.663407
 30
0.0
  0
SPLINE
  5
23c
100
AcDbEntity
  8
Layer_1
 62
7
100
AcDbSpline
 70
8
 71
3
 72
8
 73
4
 74
0
 40
0
 40
0
 40
0
 40
0
 40
1
 40
1
 40
1
 40
1
 10
2.764132
 20
35.663407
 30
0.0
 10
2.764163
 20
35.587048
 30
0.0
 10
2.702256
 20
35.525141
 30
0.0
 10
2.625900
 20
35.525173
 30
0.0
  0
SPLINE
  5
23d
100
AcDbEntity
  8
Layer_1
 62
7
100
AcDbSpline
 70
8
 71
3
 72
8
 73
4
 74
0
 40
0
 40
0
 40
0
 40
0
 40
1
 40
1
 40
1
 40
1
 10
2.625900
 20
35.525173
 30
0.0
 10
2.549600
 20
35.525207
 30
0.0
 10
2.487775
 20
35.587093
 30
0.0
 10
2.487806
 20
35.663399
 30
0.0
  0
SPLINE
  5
23e
100
AcDbEntity
  8
Layer_1
 62
7
100
AcDbSpline
 70
8
 71
3
 72
8
 73
4
 74
0
 40
0
 40
0
 40
0
 40
0
 40
1
 40
1
 40
1
 40
1
 10
2.487806
 20
35.663399
 30
0.0
 10
2.487851
 20
35.739644
 30
0.0
 10
2.549653
 20
35.801446
 30
0.0
 10
2.625900
 20
35.801491
 30
0.0
  0
LWPOLYLINE
  5
23f
100
AcDbEntity
  8
Layer_1
 62
7
100
AcDbPolyline
 90
5
 70
0
 10
2.663079
 20
35.796299
 30
0.0
 10
3.754570
 20
35.796299
 30
0.0
 10
3.754570
 20
35.783176
 30
0.0
 10
3.754570
 20
35.717001
 30
0.0
 10
2.753046
 20
35.717001
 30
0.0
  0
LWPOLYLINE
  5
240
100
AcDbEntity
  8
Layer_1
 62
7
100
AcDbPolyline
 90
1
 70
1
 10
2.625900
 20
35.801491
 30
0.0
  0
SPLINE
  5
241
100
AcDbEntity
  8
Layer_1
 62
7
100
AcDbSpline
 70
8
 71
3
 72
8
 73
4
 74
0
 40
0
 40
0
 40
0
 40
0
 40
1
 40
1
 40
1
 40
1
 10
3.069979
 20
35.584776
 30
0.0
 10
3.078817
 20
35.566281
 30
0.0
 10
3.083447
 20
35.546067
 30
0.0
 10
3.083526
 20
35.525572
 30
0.0
  0
SPLINE
  5
242
100
AcDbEntity
  8
Layer_1
 62
7
100
AcDbSpline
 70
8
 71
3
 72
8
 73
4
 74
0
 40
0
 40
0
 40
0
 40
0
 40
1
 40
1
 40
1
 40
1
 10
3.083526
 20
35.525572
 30
0.0
 10
3.083558
 20
35.449216
 30
0.0
 10
3.021651
 20
35.387309
 30
0.0
 10
2.945295
 20
35.387341
 30
0.0
  0
SPLINE
  5
243
100
AcDbEntity
  8
Layer_1
 62
7
100
AcDbSpline
 70
8
 71
3
 72
8
 73
4
 74
0
 40
0
 40
0
 40
0
 40
0
 40
1
 40
1
 40
1
 40
1
 10
2.945295
 20
35.387341
 30
0.0
 10
2.868991
 20
35.387386
 30
0.0
 10
2.807169
 20
35.449269
 30
0.0
 10
2.807201
 20
35.525572
 30
0.0
  0
SPLINE
  5
244
100
AcDbEntity
  8
Layer_1
 62
7
100
AcDbSpline
 70
8
 71
3
 72
8
 73
4
 74
0
 40
0
 40
0
 40
0
 40
0
 40
1
 40
1
 40
1
 40
1
 10
2.807201
 20
35.525572
 30
0.0
 10
2.807243
 20
35.601823
 30
0.0
 10
2.869044
 20
35.663624
 30
0.0
 10
2.945295
 20
35.663666
 30
0.0
  0
SPLINE
  5
245
100
AcDbEntity
  8
Layer_1
 62
7
100
AcDbSpline
 70
8
 71
3
 72
8
 73
4
 74
0
 40
0
 40
0
 40
0
 40
0
 40
1
 40
1
 40
1
 40
1
 10
2.945295
 20
35.663666
 30
0.0
 10
2.948946
 20
35.663629
 30
0.0
 10
2.952597
 20
35.663457
 30
0.0
 10
2.956222
 20
35.663137
 30
0.0
  0
LWPOLYLINE
  5
246
100
AcDbEntity
  8
Layer_1
 62
7
100
AcDbPolyline
 90
5
 70
0
 10
2.956222
 20
35.664074
 30
0.0
 10
3.754570
 20
35.664074
 30
0.0
 10
3.754570
 20
35.650951
 30
0.0
 10
3.754570
 20
35.584776
 30
0.0
 10
3.069979
 20
35.584776
 30
0.0
  0
SPLINE
  5
247
100
AcDbEntity
  8
Layer_1
 62
7
100
AcDbSpline
 70
8
 71
3
 72
8
 73
4
 74
0
 40
0
 40
0
 40
0
 40
0
 40
1
 40
1
 40
1
 40
1
 10
3.262490
 20
35.532407
 30
0.0
 10
3.267094
 20
35.532409
 30
0.0
 10
3.271724
 20
35.532195
 30
0.0
 10
3.276302
 20
35.531613
 30
0.0
  0
LWPOLYLINE
  5
248
100
AcDbEntity
  8
Layer_1
 62
7
100
AcDbPolyline
 90
2
 70
0
 10
2.956222
 20
35.663137
 30
0.0
 10
2.956222
 20
35.664074
 30
0.0
  0
SPLINE
  5
249
100
AcDbEntity
  8
Layer_1
 62
7
100
AcDbSpline
 70
8
 71
3
 72
8
 73
4
 74
0
 40
0
 40
0
 40
0
 40
0
 40
1
 40
1
 40
1
 40
1
 10
3.387736
 20
35.452315
 30
0.0
 10
3.396229
 20
35.434111
 30
0.0
 10
3.400674
 20
35.414289
 30
0.0
 10
3.400727
 20
35.394204
 30
0.0
  0
SPLINE
  5
24a
100
AcDbEntity
  8
Layer_1
 62
7
100
AcDbSpline
 70
8
 71
3
 72
8
 73
4
 74
0
 40
0
 40
0
 40
0
 40
0
 40
1
 40
1
 40
1
 40
1
 10
3.400727
 20
35.394204
 30
0.0
 10
3.400759
 20
35.317851
 30
0.0
 10
3.338852
 20
35.255943
 30
0.0
 10
3.262496
 20
35.255975
 30
0.0
  0
SPLINE
  5
24b
100
AcDbEntity
  8
Layer_1
 62
7
100
AcDbSpline
 70
8
 71
3
 72
8
 73
4
 74
0
 40
0
 40
0
 40
0
 40
0
 40
1
 40
1
 40
1
 40
1
 10
3.262496
 20
35.255975
 30
0.0
 10
3.186192
 20
35.256018
 30
0.0
 10
3.124370
 20
35.317904
 30
0.0
 10
3.124402
 20
35.394204
 30
0.0
  0
SPLINE
  5
24c
100
AcDbEntity
  8
Layer_1
 62
7
100
AcDbSpline
 70
8
 71
3
 72
8
 73
4
 74
0
 40
0
 40
0
 40
0
 40
0
 40
1
 40
1
 40
1
 40
1
 10
3.124402
 20
35.394204
 30
0.0
 10
3.124447
 20
35.470454
 30
0.0
 10
3.186248
 20
35.532256
 30
0.0
 10
3.262496
 20
35.532301
 30
0.0
  0
LWPOLYLINE
  5
24d
100
AcDbEntity
  8
Layer_1
 62
7
100
AcDbPolyline
 90
5
 70
0
 10
3.276302
 20
35.531613
 30
0.0
 10
3.754573
 20
35.531613
 30
0.0
 10
3.754573
 20
35.518490
 30
0.0
 10
3.754573
 20
35.452315
 30
0.0
 10
3.387736
 20
35.452315
 30
0.0
  0
LWPOLYLINE
  5
24e
100
AcDbEntity
  8
Layer_1
 62
7
100
AcDbPolyline
 90
2
 70
0
 10
3.262496
 20
35.532301
 30
0.0
 10
3.262490
 20
35.532407
 30
0.0
  0
ENDSEC
  0
SECTION
  2
OBJECTS
  0
DICTIONARY
  5
C
330
0
100
AcDbDictionary
  3
ACAD_GROUP
350
D
  3
ACAD_MLINESTYLE
350
17
  0
DICTIONARY
  5
D
330
C
100
AcDbDictionary
  0
DICTIONARY
  5
1A
330
C
100
AcDbDictionary
  0
DICTIONARY
  5
17
330
C
100
AcDbDictionary
  3
STANDARD
350
18
  0
DICTIONARY
  5
19
330
C
100
AcDbDictionary
  0
ENDSEC
  0
EOF
