  0
SECTION
  2
HEADER
  9
$ACADVER
  1
AC1014
  9
$HANDSEED
  5
FFFF
  9
$MEASUREMENT
 70
     1
  0
ENDSEC
  0
SECTION
  2
TABLES
  0
TABLE
  2
VPORT
  5
8
330
0
100
AcDbSymbolTable
 70
     4
  0
VPORT
  5
2E
330
8
100
AcDbSymbolTableRecord
100
AcDbViewportTableRecord
  2
*ACTIVE
 70
     0
 10
0.0
 20
0.0
 11
1.0
 21
1.0
 12
210.0
 22
148.5
 13
0.0
 23
0.0
 14
10.0
 24
10.0
 15
10.0
 25
10.0
 16
0.0
 26
0.0
 36
1.0
 17
0.0
 27
0.0
 37
0.0
 40
341.0
 41
1.24
 42
50.0
 43
0.0
 44
0.0
 50
0.0
 51
0.0
 71
     0
 72
   100
 73
     1
 74
     3
 75
     0
 76
     0
 77
     0
 78
     0
  0
ENDTAB
  0
TABLE
  2
LTYPE
  5
5
330
0
100
AcDbSymbolTable
 70
     1
  0
LTYPE
  5
14
330
5
100
AcDbSymbolTableRecord
100
AcDbLinetypeTableRecord
  2
BYBLOCK
 70
     0
  3

 72
    65
 73
     0
 40
0.0
  0
LTYPE
  5
15
330
5
100
AcDbSymbolTableRecord
100
AcDbLinetypeTableRecord
  2
BYLAYER
 70
     0
  3

 72
    65
 73
     0
 40
0.0
  0
LTYPE
  5
16
330
5
100
AcDbSymbolTableRecord
100
AcDbLinetypeTableRecord
  2
CONTINUOUS
 70
     0
  3
Solid line
 72
    65
 73
     0
 40
0.0
  0
ENDTAB
  0
TABLE
  2
LAYER
  5
2
100
AcDbSymbolTable
 70
2
  0
LAYER
  5
50
100
AcDbSymbolTableRecord
100
AcDbLayerTableRecord
  2
0
 70
0
  6
CONTINUOUS
  0
LAYER
  5
51
100
AcDbSymbolTableRecord
100
AcDbLayerTableRecord
  2
Layer_1
 70
0
  6
CONTINUOUS
  0
ENDTAB
  0
TABLE
  2
STYLE
  5
3
330
0
100
AcDbSymbolTable
 70
     1
  0
STYLE
  5
11
330
3
100
AcDbSymbolTableRecord
100
AcDbTextStyleTableRecord
  2
STANDARD
 70
     0
 40
0.0
 41
1.0
 50
0.0
 71
     0
 42
2.5
  3
txt
  4

  0
ENDTAB
  0
TABLE
  2
VIEW
  5
6
330
0
100
AcDbSymbolTable
 70
     0
  0
ENDTAB
  0
TABLE
  2
UCS
  5
7
330
0
100
AcDbSymbolTable
 70
     0
  0
ENDTAB
  0
TABLE
  2
APPID
  5
9
330
0
100
AcDbSymbolTable
 70
     2
  0
APPID
  5
12
330
9
100
AcDbSymbolTableRecord
100
AcDbRegAppTableRecord
  2
ACAD
 70
     0
  0
ENDTAB
  0
TABLE
  2
DIMSTYLE
  5
A
330
0
100
AcDbSymbolTable
 70
     1
  0
DIMSTYLE
105
27
330
A
100
AcDbSymbolTableRecord
100
AcDbDimStyleTableRecord
  2
ISO-25
 70
     0
  3

  4

  5

  6

  7

 40
1.0
 41
2.5
 42
0.625
 43
3.75
 44
1.25
 45
0.0
 46
0.0
 47
0.0
 48
0.0
140
2.5
141
2.5
142
0.0
143
0.03937007874016
144
1.0
145
0.0
146
1.0
147
0.625
 71
     0
 72
     0
 73
     0
 74
     0
 75
     0
 76
     0
 77
     1
 78
     8
170
     0
171
     3
172
     1
173
     0
174
     0
175
     0
176
     0
177
     0
178
     0
270
     2
271
     2
272
     2
273
     2
274
     3
340
11
275
     0
280
     0
281
     0
282
     0
283
     0
284
     8
285
     0
286
     0
287
     3
288
     0
  0
ENDTAB
  0
TABLE
  2
BLOCK_RECORD
  5
1
330
0
100
AcDbSymbolTable
 70
     1
  0
BLOCK_RECORD
  5
1F
330
1
100
AcDbSymbolTableRecord
100
AcDbBlockTableRecord
  2
*MODEL_SPACE
  0
BLOCK_RECORD
  5
1B
330
1
100
AcDbSymbolTableRecord
100
AcDbBlockTableRecord
  2
*PAPER_SPACE
  0
ENDTAB
  0
ENDSEC
  0
SECTION
  2
BLOCKS
  0
BLOCK
  5
20
330
1F
100
AcDbEntity
  8
0
100
AcDbBlockBegin
  2
*MODEL_SPACE
 70
     0
 10
0.0
 20
0.0
 30
0.0
  3
*MODEL_SPACE
  1

  0
ENDBLK
  5
21
330
1F
100
AcDbEntity
  8
0
100
AcDbBlockEnd
  0
BLOCK
  5
1C
330
1B
100
AcDbEntity
 67
     1
  8
0
100
AcDbBlockBegin
  2
*PAPER_SPACE
  1

  0
ENDBLK
  5
1D
330
1B
100
AcDbEntity
 67
     1
  8
0
100
AcDbBlockEnd
  0
ENDSEC
  0
SECTION
  2
ENTITIES
  0
LWPOLYLINE
  5
100
100
AcDbEntity
  8
Layer_1
 62
7
100
AcDbPolyline
 90
4
 70
1
 10
2.512911
 20
76.242942
 30
0.0
 10
3.397694
 20
77.223258
 30
0.0
 10
4.267132
 20
76.242942
 30
0.0
 10
3.397694
 20
75.262508
 30
0.0
  0
LWPOLYLINE
  5
101
100
AcDbEntity
  8
Layer_1
 62
7
100
AcDbPolyline
 90
4
 70
1
 10
2.623250
 20
76.242934
 30
0.0
 10
3.396716
 20
77.099912
 30
0.0
 10
4.156766
 20
76.242934
 30
0.0
 10
3.396716
 20
75.385853
 30
0.0
  0
LWPOLYLINE
  5
102
100
AcDbEntity
  8
Layer_1
 62
7
100
AcDbPolyline
 90
4
 70
1
 10
2.735446
 20
76.242926
 30
0.0
 10
3.395720
 20
76.974492
 30
0.0
 10
4.044542
 20
76.242926
 30
0.0
 10
3.395720
 20
75.511272
 30
0.0
  0
LWPOLYLINE
  5
103
100
AcDbEntity
  8
Layer_1
 62
7
100
AcDbPolyline
 90
4
 70
1
 10
2.846194
 20
76.242918
 30
0.0
 10
3.394737
 20
76.850688
 30
0.0
 10
3.933766
 20
76.242918
 30
0.0
 10
3.394737
 20
75.635075
 30
0.0
  0
LWPOLYLINE
  5
104
100
AcDbEntity
  8
Layer_1
 62
7
100
AcDbPolyline
 90
4
 70
1
 10
2.958536
 20
76.242910
 30
0.0
 10
3.393741
 20
76.725105
 30
0.0
 10
3.821397
 20
76.242910
 30
0.0
 10
3.393741
 20
75.760657
 30
0.0
  0
LWPOLYLINE
  5
105
100
AcDbEntity
  8
Layer_1
 62
7
100
AcDbPolyline
 90
4
 70
1
 10
3.069964
 20
76.242902
 30
0.0
 10
3.392742
 20
76.600530
 30
0.0
 10
3.709921
 20
76.242902
 30
0.0
 10
3.392742
 20
75.885231
 30
0.0
  0
LWPOLYLINE
  5
106
100
AcDbEntity
  8
Layer_1
 62
7
100
AcDbPolyline
 90
4
 70
1
 10
3.183163
 20
76.242893
 30
0.0
 10
3.391717
 20
76.473966
 30
0.0
 10
3.596653
 20
76.242893
 30
0.0
 10
3.391717
 20
76.011793
 30
0.0
  0
LWPOLYLINE
  5
107
100
AcDbEntity
  8
Layer_1
 62
7
100
AcDbPolyline
 90
4
 70
1
 10
3.293417
 20
76.242885
 30
0.0
 10
3.390700
 20
76.350671
 30
0.0
 10
3.486295
 20
76.242885
 30
0.0
 10
3.390700
 20
76.135085
 30
0.0
  0
LWPOLYLINE
  5
108
100
AcDbEntity
  8
Layer_1
 62
7
100
AcDbPolyline
 90
4
 70
1
 10
3.375351
 20
76.242365
 30
0.0
 10
3.389388
 20
76.257918
 30
0.0
 10
3.403180
 20
76.242365
 30
0.0
 10
3.389388
 20
76.226810
 30
0.0
  0
LWPOLYLINE
  5
109
100
AcDbEntity
  8
Layer_1
 62
7
100
AcDbPolyline
 90
4
 70
1
 10
7.326286
 20
76.243834
 30
0.0
 10
8.211070
 20
77.224150
 30
0.0
 10
9.080507
 20
76.243834
 30
0.0
 10
8.211070
 20
75.263400
 30
0.0
  0
LWPOLYLINE
  5
10a
100
AcDbEntity
  8
Layer_1
 62
7
100
AcDbPolyline
 90
4
 70
1
 10
7.436625
 20
76.243826
 30
0.0
 10
8.210091
 20
77.100804
 30
0.0
 10
8.970141
 20
76.243826
 30
0.0
 10
8.210091
 20
75.386745
 30
0.0
  0
LWPOLYLINE
  5
10b
100
AcDbEntity
  8
Layer_1
 62
7
100
AcDbPolyline
 90
4
 70
1
 10
7.548821
 20
76.243818
 30
0.0
 10
8.209095
 20
76.975384
 30
0.0
 10
8.857918
 20
76.243818
 30
0.0
 10
8.209095
 20
75.512164
 30
0.0
  0
LWPOLYLINE
  5
10c
100
AcDbEntity
  8
Layer_1
 62
7
100
AcDbPolyline
 90
4
 70
1
 10
7.659570
 20
76.243810
 30
0.0
 10
8.208112
 20
76.851580
 30
0.0
 10
8.747141
 20
76.243810
 30
0.0
 10
8.208112
 20
75.635967
 30
0.0
  0
LWPOLYLINE
  5
10d
100
AcDbEntity
  8
Layer_1
 62
7
100
AcDbPolyline
 90
4
 70
1
 10
7.771911
 20
76.243802
 30
0.0
 10
8.207115
 20
76.725997
 30
0.0
 10
8.634772
 20
76.243802
 30
0.0
 10
8.207115
 20
75.761549
 30
0.0
  0
LWPOLYLINE
  5
10e
100
AcDbEntity
  8
Layer_1
 62
7
100
AcDbPolyline
 90
4
 70
1
 10
7.883339
 20
76.243794
 30
0.0
 10
8.206118
 20
76.601422
 30
0.0
 10
8.523296
 20
76.243794
 30
0.0
 10
8.206118
 20
75.886122
 30
0.0
  0
LWPOLYLINE
  5
10f
100
AcDbEntity
  8
Layer_1
 62
7
100
AcDbPolyline
 90
4
 70
1
 10
7.996538
 20
76.243785
 30
0.0
 10
8.205092
 20
76.474858
 30
0.0
 10
8.410028
 20
76.243785
 30
0.0
 10
8.205092
 20
76.012685
 30
0.0
  0
LWPOLYLINE
  5
110
100
AcDbEntity
  8
Layer_1
 62
7
100
AcDbPolyline
 90
4
 70
1
 10
8.106793
 20
76.243777
 30
0.0
 10
8.204075
 20
76.351563
 30
0.0
 10
8.299670
 20
76.243777
 30
0.0
 10
8.204075
 20
76.135977
 30
0.0
  0
LWPOLYLINE
  5
111
100
AcDbEntity
  8
Layer_1
 62
7
100
AcDbPolyline
 90
4
 70
1
 10
8.188727
 20
76.243258
 30
0.0
 10
8.202763
 20
76.258810
 30
0.0
 10
8.216556
 20
76.243258
 30
0.0
 10
8.202763
 20
76.227703
 30
0.0
  0
LWPOLYLINE
  5
112
100
AcDbEntity
  8
Layer_1
 62
7
100
AcDbPolyline
 90
4
 70
1
 10
4.916283
 20
76.247868
 30
0.0
 10
5.801066
 20
77.228184
 30
0.0
 10
6.670504
 20
76.247868
 30
0.0
 10
5.801066
 20
75.267434
 30
0.0
  0
LWPOLYLINE
  5
113
100
AcDbEntity
  8
Layer_1
 62
7
100
AcDbPolyline
 90
4
 70
1
 10
5.026622
 20
76.247860
 30
0.0
 10
5.800087
 20
77.104839
 30
0.0
 10
6.560138
 20
76.247860
 30
0.0
 10
5.800087
 20
75.390779
 30
0.0
  0
LWPOLYLINE
  5
114
100
AcDbEntity
  8
Layer_1
 62
7
100
AcDbPolyline
 90
4
 70
1
 10
5.138817
 20
76.247852
 30
0.0
 10
5.799092
 20
76.979418
 30
0.0
 10
6.447914
 20
76.247852
 30
0.0
 10
5.799092
 20
75.516198
 30
0.0
  0
LWPOLYLINE
  5
115
100
AcDbEntity
  8
Layer_1
 62
7
100
AcDbPolyline
 90
4
 70
1
 10
5.249566
 20
76.247844
 30
0.0
 10
5.798109
 20
76.855615
 30
0.0
 10
6.337137
 20
76.247844
 30
0.0
 10
5.798109
 20
75.640001
 30
0.0
  0
LWPOLYLINE
  5
116
100
AcDbEntity
  8
Layer_1
 62
7
100
AcDbPolyline
 90
4
 70
1
 10
5.361908
 20
76.247836
 30
0.0
 10
5.797112
 20
76.730031
 30
0.0
 10
6.224769
 20
76.247836
 30
0.0
 10
5.797112
 20
75.765584
 30
0.0
  0
LWPOLYLINE
  5
117
100
AcDbEntity
  8
Layer_1
 62
7
100
AcDbPolyline
 90
4
 70
1
 10
5.473336
 20
76.247828
 30
0.0
 10
5.796114
 20
76.605457
 30
0.0
 10
6.113293
 20
76.247828
 30
0.0
 10
5.796114
 20
75.890157
 30
0.0
  0
LWPOLYLINE
  5
118
100
AcDbEntity
  8
Layer_1
 62
7
100
AcDbPolyline
 90
4
 70
1
 10
5.586535
 20
76.247820
 30
0.0
 10
5.795089
 20
76.478892
 30
0.0
 10
6.000025
 20
76.247820
 30
0.0
 10
5.795089
 20
76.016720
 30
0.0
  0
LWPOLYLINE
  5
119
100
AcDbEntity
  8
Layer_1
 62
7
100
AcDbPolyline
 90
4
 70
1
 10
5.696789
 20
76.247811
 30
0.0
 10
5.794072
 20
76.355597
 30
0.0
 10
5.889667
 20
76.247811
 30
0.0
 10
5.794072
 20
76.140011
 30
0.0
  0
LWPOLYLINE
  5
11a
100
AcDbEntity
  8
Layer_1
 62
7
100
AcDbPolyline
 90
4
 70
1
 10
5.778723
 20
76.247292
 30
0.0
 10
5.792759
 20
76.262844
 30
0.0
 10
5.806552
 20
76.247292
 30
0.0
 10
5.792759
 20
76.231737
 30
0.0
  0
LWPOLYLINE
  5
11b
100
AcDbEntity
  8
Layer_1
 62
7
100
AcDbPolyline
 90
4
 70
1
 10
2.514005
 20
73.629193
 30
0.0
 10
3.398788
 20
74.609509
 30
0.0
 10
4.268225
 20
73.629193
 30
0.0
 10
3.398788
 20
72.648759
 30
0.0
  0
LWPOLYLINE
  5
11c
100
AcDbEntity
  8
Layer_1
 62
7
100
AcDbPolyline
 90
4
 70
1
 10
2.624344
 20
73.629185
 30
0.0
 10
3.397810
 20
74.486164
 30
0.0
 10
4.157860
 20
73.629185
 30
0.0
 10
3.397810
 20
72.772104
 30
0.0
  0
LWPOLYLINE
  5
11d
100
AcDbEntity
  8
Layer_1
 62
7
100
AcDbPolyline
 90
4
 70
1
 10
2.736540
 20
73.629177
 30
0.0
 10
3.396813
 20
74.360743
 30
0.0
 10
4.045636
 20
73.629177
 30
0.0
 10
3.396813
 20
72.897523
 30
0.0
  0
LWPOLYLINE
  5
11e
100
AcDbEntity
  8
Layer_1
 62
7
100
AcDbPolyline
 90
4
 70
1
 10
2.847288
 20
73.629169
 30
0.0
 10
3.395831
 20
74.236940
 30
0.0
 10
3.934860
 20
73.629169
 30
0.0
 10
3.395831
 20
73.021326
 30
0.0
  0
LWPOLYLINE
  5
11f
100
AcDbEntity
  8
Layer_1
 62
7
100
AcDbPolyline
 90
4
 70
1
 10
2.959630
 20
73.629161
 30
0.0
 10
3.394835
 20
74.111356
 30
0.0
 10
3.822490
 20
73.629161
 30
0.0
 10
3.394835
 20
73.146909
 30
0.0
  0
LWPOLYLINE
  5
120
100
AcDbEntity
  8
Layer_1
 62
7
100
AcDbPolyline
 90
4
 70
1
 10
3.071058
 20
73.629153
 30
0.0
 10
3.393836
 20
73.986782
 30
0.0
 10
3.711014
 20
73.629153
 30
0.0
 10
3.393836
 20
73.271482
 30
0.0
  0
LWPOLYLINE
  5
121
100
AcDbEntity
  8
Layer_1
 62
7
100
AcDbPolyline
 90
4
 70
1
 10
3.184257
 20
73.629145
 30
0.0
 10
3.392811
 20
73.860217
 30
0.0
 10
3.597747
 20
73.629145
 30
0.0
 10
3.392811
 20
73.398045
 30
0.0
  0
LWPOLYLINE
  5
122
100
AcDbEntity
  8
Layer_1
 62
7
100
AcDbPolyline
 90
4
 70
1
 10
3.294510
 20
73.629136
 30
0.0
 10
3.391793
 20
73.736922
 30
0.0
 10
3.487389
 20
73.629136
 30
0.0
 10
3.391793
 20
73.521336
 30
0.0
  0
LWPOLYLINE
  5
123
100
AcDbEntity
  8
Layer_1
 62
7
100
AcDbPolyline
 90
4
 70
1
 10
3.376445
 20
73.628617
 30
0.0
 10
3.390481
 20
73.644169
 30
0.0
 10
3.404274
 20
73.628617
 30
0.0
 10
3.390481
 20
73.613062
 30
0.0
  0
LWPOLYLINE
  5
124
100
AcDbEntity
  8
Layer_1
 62
7
100
AcDbPolyline
 90
4
 70
1
 10
7.327380
 20
73.630085
 30
0.0
 10
8.212163
 20
74.610401
 30
0.0
 10
9.081601
 20
73.630085
 30
0.0
 10
8.212163
 20
72.649651
 30
0.0
  0
LWPOLYLINE
  5
125
100
AcDbEntity
  8
Layer_1
 62
7
100
AcDbPolyline
 90
4
 70
1
 10
7.437719
 20
73.630077
 30
0.0
 10
8.211185
 20
74.487055
 30
0.0
 10
8.971235
 20
73.630077
 30
0.0
 10
8.211185
 20
72.772996
 30
0.0
  0
LWPOLYLINE
  5
126
100
AcDbEntity
  8
Layer_1
 62
7
100
AcDbPolyline
 90
4
 70
1
 10
7.549915
 20
73.630069
 30
0.0
 10
8.210189
 20
74.361635
 30
0.0
 10
8.859012
 20
73.630069
 30
0.0
 10
8.210189
 20
72.898415
 30
0.0
  0
LWPOLYLINE
  5
127
100
AcDbEntity
  8
Layer_1
 62
7
100
AcDbPolyline
 90
4
 70
1
 10
7.660664
 20
73.630061
 30
0.0
 10
8.209206
 20
74.237831
 30
0.0
 10
8.748235
 20
73.630061
 30
0.0
 10
8.209206
 20
73.022218
 30
0.0
  0
LWPOLYLINE
  5
128
100
AcDbEntity
  8
Layer_1
 62
7
100
AcDbPolyline
 90
4
 70
1
 10
7.773005
 20
73.630053
 30
0.0
 10
8.208209
 20
74.112248
 30
0.0
 10
8.635866
 20
73.630053
 30
0.0
 10
8.208209
 20
73.147801
 30
0.0
  0
LWPOLYLINE
  5
129
100
AcDbEntity
  8
Layer_1
 62
7
100
AcDbPolyline
 90
4
 70
1
 10
7.884433
 20
73.630045
 30
0.0
 10
8.207212
 20
73.987673
 30
0.0
 10
8.524390
 20
73.630045
 30
0.0
 10
8.207212
 20
73.272374
 30
0.0
  0
LWPOLYLINE
  5
12a
100
AcDbEntity
  8
Layer_1
 62
7
100
AcDbPolyline
 90
4
 70
1
 10
7.997632
 20
73.630036
 30
0.0
 10
8.206186
 20
73.861109
 30
0.0
 10
8.411123
 20
73.630036
 30
0.0
 10
8.206186
 20
73.398936
 30
0.0
  0
LWPOLYLINE
  5
12b
100
AcDbEntity
  8
Layer_1
 62
7
100
AcDbPolyline
 90
4
 70
1
 10
8.107886
 20
73.630028
 30
0.0
 10
8.205169
 20
73.737814
 30
0.0
 10
8.300764
 20
73.630028
 30
0.0
 10
8.205169
 20
73.522228
 30
0.0
  0
LWPOLYLINE
  5
12c
100
AcDbEntity
  8
Layer_1
 62
7
100
AcDbPolyline
 90
4
 70
1
 10
8.189821
 20
73.629508
 30
0.0
 10
8.203857
 20
73.645061
 30
0.0
 10
8.217650
 20
73.629508
 30
0.0
 10
8.203857
 20
73.613954
 30
0.0
  0
LWPOLYLINE
  5
12d
100
AcDbEntity
  8
Layer_1
 62
7
100
AcDbPolyline
 90
4
 70
1
 10
4.917377
 20
73.634119
 30
0.0
 10
5.802160
 20
74.614435
 30
0.0
 10
6.671597
 20
73.634119
 30
0.0
 10
5.802160
 20
72.653685
 30
0.0
  0
LWPOLYLINE
  5
12e
100
AcDbEntity
  8
Layer_1
 62
7
100
AcDbPolyline
 90
4
 70
1
 10
5.027715
 20
73.634112
 30
0.0
 10
5.801181
 20
74.491090
 30
0.0
 10
6.561231
 20
73.634112
 30
0.0
 10
5.801181
 20
72.777030
 30
0.0
  0
LWPOLYLINE
  5
12f
100
AcDbEntity
  8
Layer_1
 62
7
100
AcDbPolyline
 90
4
 70
1
 10
5.139911
 20
73.634103
 30
0.0
 10
5.800186
 20
74.365670
 30
0.0
 10
6.449008
 20
73.634103
 30
0.0
 10
5.800186
 20
72.902449
 30
0.0
  0
LWPOLYLINE
  5
130
100
AcDbEntity
  8
Layer_1
 62
7
100
AcDbPolyline
 90
4
 70
1
 10
5.250660
 20
73.634095
 30
0.0
 10
5.799203
 20
74.241866
 30
0.0
 10
6.338231
 20
73.634095
 30
0.0
 10
5.799203
 20
73.026253
 30
0.0
  0
LWPOLYLINE
  5
131
100
AcDbEntity
  8
Layer_1
 62
7
100
AcDbPolyline
 90
4
 70
1
 10
5.363001
 20
73.634088
 30
0.0
 10
5.798206
 20
74.116283
 30
0.0
 10
6.225863
 20
73.634088
 30
0.0
 10
5.798206
 20
73.151835
 30
0.0
  0
LWPOLYLINE
  5
132
100
AcDbEntity
  8
Layer_1
 62
7
100
AcDbPolyline
 90
4
 70
1
 10
5.474429
 20
73.634080
 30
0.0
 10
5.797208
 20
73.991708
 30
0.0
 10
6.114387
 20
73.634080
 30
0.0
 10
5.797208
 20
73.276408
 30
0.0
  0
LWPOLYLINE
  5
133
100
AcDbEntity
  8
Layer_1
 62
7
100
AcDbPolyline
 90
4
 70
1
 10
5.587629
 20
73.634071
 30
0.0
 10
5.796183
 20
73.865143
 30
0.0
 10
6.001119
 20
73.634071
 30
0.0
 10
5.796183
 20
73.402971
 30
0.0
  0
LWPOLYLINE
  5
134
100
AcDbEntity
  8
Layer_1
 62
7
100
AcDbPolyline
 90
4
 70
1
 10
5.697883
 20
73.634062
 30
0.0
 10
5.795166
 20
73.741849
 30
0.0
 10
5.890761
 20
73.634062
 30
0.0
 10
5.795166
 20
73.526263
 30
0.0
  0
LWPOLYLINE
  5
135
100
AcDbEntity
  8
Layer_1
 62
7
100
AcDbPolyline
 90
4
 70
1
 10
5.779817
 20
73.633543
 30
0.0
 10
5.793854
 20
73.649095
 30
0.0
 10
5.807646
 20
73.633543
 30
0.0
 10
5.793854
 20
73.617988
 30
0.0
  0
LWPOLYLINE
  5
136
100
AcDbEntity
  8
Layer_1
 62
7
100
AcDbPolyline
 90
3
 70
0
 10
10.279550
 20
77.537524
 30
0.0
 10
9.410113
 20
76.557091
 30
0.0
 10
8.525329
 20
77.537524
 30
0.0
  0
LWPOLYLINE
  5
137
100
AcDbEntity
  8
Layer_1
 62
7
100
AcDbPolyline
 90
3
 70
0
 10
10.169184
 20
77.537516
 30
0.0
 10
9.409134
 20
76.680435
 30
0.0
 10
8.635668
 20
77.537516
 30
0.0
  0
LWPOLYLINE
  5
138
100
AcDbEntity
  8
Layer_1
 62
7
100
AcDbPolyline
 90
3
 70
0
 10
10.056961
 20
77.537508
 30
0.0
 10
9.408138
 20
76.805854
 30
0.0
 10
8.747864
 20
77.537508
 30
0.0
  0
LWPOLYLINE
  5
139
100
AcDbEntity
  8
Layer_1
 62
7
100
AcDbPolyline
 90
3
 70
0
 10
9.946184
 20
77.537500
 30
0.0
 10
9.407155
 20
76.929658
 30
0.0
 10
8.858613
 20
77.537500
 30
0.0
  0
LWPOLYLINE
  5
13a
100
AcDbEntity
  8
Layer_1
 62
7
100
AcDbPolyline
 90
3
 70
0
 10
9.833815
 20
77.537493
 30
0.0
 10
9.406159
 20
77.055240
 30
0.0
 10
8.970954
 20
77.537493
 30
0.0
  0
LWPOLYLINE
  5
13b
100
AcDbEntity
  8
Layer_1
 62
7
100
AcDbPolyline
 90
3
 70
0
 10
9.722339
 20
77.537485
 30
0.0
 10
9.405160
 20
77.179813
 30
0.0
 10
9.082382
 20
77.537485
 30
0.0
  0
LWPOLYLINE
  5
13c
100
AcDbEntity
  8
Layer_1
 62
7
100
AcDbPolyline
 90
3
 70
0
 10
9.609071
 20
77.537476
 30
0.0
 10
9.404135
 20
77.306376
 30
0.0
 10
9.195581
 20
77.537476
 30
0.0
  0
LWPOLYLINE
  5
13d
100
AcDbEntity
  8
Layer_1
 62
7
100
AcDbPolyline
 90
3
 70
0
 10
9.498713
 20
77.537467
 30
0.0
 10
9.403118
 20
77.429667
 30
0.0
 10
9.305835
 20
77.537467
 30
0.0
  0
LWPOLYLINE
  5
13e
100
AcDbEntity
  8
Layer_1
 62
7
100
AcDbPolyline
 90
3
 70
0
 10
9.415600
 20
77.536948
 30
0.0
 10
9.401807
 20
77.521393
 30
0.0
 10
9.387771
 20
77.536948
 30
0.0
  0
LWPOLYLINE
  5
13f
100
AcDbEntity
  8
Layer_1
 62
7
100
AcDbPolyline
 90
4
 70
1
 10
3.713047
 20
74.922883
 30
0.0
 10
4.597831
 20
75.903199
 30
0.0
 10
5.467268
 20
74.922883
 30
0.0
 10
4.597831
 20
73.942449
 30
0.0
  0
LWPOLYLINE
  5
140
100
AcDbEntity
  8
Layer_1
 62
7
100
AcDbPolyline
 90
4
 70
1
 10
3.823387
 20
74.922875
 30
0.0
 10
4.596852
 20
75.779854
 30
0.0
 10
5.356902
 20
74.922875
 30
0.0
 10
4.596852
 20
74.065794
 30
0.0
  0
LWPOLYLINE
  5
141
100
AcDbEntity
  8
Layer_1
 62
7
100
AcDbPolyline
 90
4
 70
1
 10
3.935582
 20
74.922867
 30
0.0
 10
4.595856
 20
75.654434
 30
0.0
 10
5.244678
 20
74.922867
 30
0.0
 10
4.595856
 20
74.191213
 30
0.0
  0
LWPOLYLINE
  5
142
100
AcDbEntity
  8
Layer_1
 62
7
100
AcDbPolyline
 90
4
 70
1
 10
4.046331
 20
74.922860
 30
0.0
 10
4.594873
 20
75.530630
 30
0.0
 10
5.133902
 20
74.922860
 30
0.0
 10
4.594873
 20
74.315017
 30
0.0
  0
LWPOLYLINE
  5
143
100
AcDbEntity
  8
Layer_1
 62
7
100
AcDbPolyline
 90
4
 70
1
 10
4.158672
 20
74.922851
 30
0.0
 10
4.593877
 20
75.405047
 30
0.0
 10
5.021533
 20
74.922851
 30
0.0
 10
4.593877
 20
74.440599
 30
0.0
  0
LWPOLYLINE
  5
144
100
AcDbEntity
  8
Layer_1
 62
7
100
AcDbPolyline
 90
4
 70
1
 10
4.270101
 20
74.922844
 30
0.0
 10
4.592878
 20
75.280472
 30
0.0
 10
4.910057
 20
74.922844
 30
0.0
 10
4.592878
 20
74.565172
 30
0.0
  0
LWPOLYLINE
  5
145
100
AcDbEntity
  8
Layer_1
 62
7
100
AcDbPolyline
 90
4
 70
1
 10
4.383299
 20
74.922835
 30
0.0
 10
4.591853
 20
75.153907
 30
0.0
 10
4.796789
 20
74.922835
 30
0.0
 10
4.591853
 20
74.691735
 30
0.0
  0
LWPOLYLINE
  5
146
100
AcDbEntity
  8
Layer_1
 62
7
100
AcDbPolyline
 90
4
 70
1
 10
4.493553
 20
74.922826
 30
0.0
 10
4.590836
 20
75.030613
 30
0.0
 10
4.686431
 20
74.922826
 30
0.0
 10
4.590836
 20
74.815026
 30
0.0
  0
LWPOLYLINE
  5
147
100
AcDbEntity
  8
Layer_1
 62
7
100
AcDbPolyline
 90
4
 70
1
 10
4.575487
 20
74.922307
 30
0.0
 10
4.589524
 20
74.937859
 30
0.0
 10
4.603316
 20
74.922307
 30
0.0
 10
4.589524
 20
74.906752
 30
0.0
  0
LWPOLYLINE
  5
148
100
AcDbEntity
  8
Layer_1
 62
7
100
AcDbPolyline
 90
4
 70
1
 10
8.526423
 20
74.923775
 30
0.0
 10
9.411207
 20
75.904091
 30
0.0
 10
10.280644
 20
74.923775
 30
0.0
 10
9.411207
 20
73.943341
 30
0.0
  0
LWPOLYLINE
  5
149
100
AcDbEntity
  8
Layer_1
 62
7
100
AcDbPolyline
 90
4
 70
1
 10
8.636762
 20
74.923767
 30
0.0
 10
9.410228
 20
75.780747
 30
0.0
 10
10.170278
 20
74.923767
 30
0.0
 10
9.410228
 20
74.066686
 30
0.0
  0
LWPOLYLINE
  5
14a
100
AcDbEntity
  8
Layer_1
 62
7
100
AcDbPolyline
 90
4
 70
1
 10
8.748958
 20
74.923759
 30
0.0
 10
9.409232
 20
75.655325
 30
0.0
 10
10.058054
 20
74.923759
 30
0.0
 10
9.409232
 20
74.192106
 30
0.0
  0
LWPOLYLINE
  5
14b
100
AcDbEntity
  8
Layer_1
 62
7
100
AcDbPolyline
 90
4
 70
1
 10
8.859707
 20
74.923752
 30
0.0
 10
9.408249
 20
75.531522
 30
0.0
 10
9.947278
 20
74.923752
 30
0.0
 10
9.408249
 20
74.315909
 30
0.0
  0
LWPOLYLINE
  5
14c
100
AcDbEntity
  8
Layer_1
 62
7
100
AcDbPolyline
 90
4
 70
1
 10
8.972048
 20
74.923743
 30
0.0
 10
9.407253
 20
75.405938
 30
0.0
 10
9.834909
 20
74.923743
 30
0.0
 10
9.407253
 20
74.441491
 30
0.0
  0
LWPOLYLINE
  5
14d
100
AcDbEntity
  8
Layer_1
 62
7
100
AcDbPolyline
 90
4
 70
1
 10
9.083477
 20
74.923735
 30
0.0
 10
9.406254
 20
75.281364
 30
0.0
 10
9.723433
 20
74.923735
 30
0.0
 10
9.406254
 20
74.566064
 30
0.0
  0
LWPOLYLINE
  5
14e
100
AcDbEntity
  8
Layer_1
 62
7
100
AcDbPolyline
 90
4
 70
1
 10
9.196675
 20
74.923727
 30
0.0
 10
9.405229
 20
75.154799
 30
0.0
 10
9.610165
 20
74.923727
 30
0.0
 10
9.405229
 20
74.692627
 30
0.0
  0
LWPOLYLINE
  5
14f
100
AcDbEntity
  8
Layer_1
 62
7
100
AcDbPolyline
 90
4
 70
1
 10
9.306929
 20
74.923718
 30
0.0
 10
9.404212
 20
75.031505
 30
0.0
 10
9.499807
 20
74.923718
 30
0.0
 10
9.404212
 20
74.815918
 30
0.0
  0
LWPOLYLINE
  5
150
100
AcDbEntity
  8
Layer_1
 62
7
100
AcDbPolyline
 90
4
 70
1
 10
9.388864
 20
74.923199
 30
0.0
 10
9.402900
 20
74.938751
 30
0.0
 10
9.416693
 20
74.923199
 30
0.0
 10
9.402900
 20
74.907644
 30
0.0
  0
LWPOLYLINE
  5
151
100
AcDbEntity
  8
Layer_1
 62
7
100
AcDbPolyline
 90
4
 70
1
 10
6.116419
 20
74.927809
 30
0.0
 10
7.001203
 20
75.908126
 30
0.0
 10
7.870641
 20
74.927809
 30
0.0
 10
7.001203
 20
73.947375
 30
0.0
  0
LWPOLYLINE
  5
152
100
AcDbEntity
  8
Layer_1
 62
7
100
AcDbPolyline
 90
4
 70
1
 10
6.226758
 20
74.927802
 30
0.0
 10
7.000224
 20
75.784781
 30
0.0
 10
7.760273
 20
74.927802
 30
0.0
 10
7.000224
 20
74.070721
 30
0.0
  0
LWPOLYLINE
  5
153
100
AcDbEntity
  8
Layer_1
 62
7
100
AcDbPolyline
 90
4
 70
1
 10
6.338954
 20
74.927794
 30
0.0
 10
6.999228
 20
75.659360
 30
0.0
 10
7.648051
 20
74.927794
 30
0.0
 10
6.999228
 20
74.196139
 30
0.0
  0
LWPOLYLINE
  5
154
100
AcDbEntity
  8
Layer_1
 62
7
100
AcDbPolyline
 90
4
 70
1
 10
6.449703
 20
74.927786
 30
0.0
 10
6.998246
 20
75.535556
 30
0.0
 10
7.537274
 20
74.927786
 30
0.0
 10
6.998246
 20
74.319943
 30
0.0
  0
LWPOLYLINE
  5
155
100
AcDbEntity
  8
Layer_1
 62
7
100
AcDbPolyline
 90
4
 70
1
 10
6.562044
 20
74.927778
 30
0.0
 10
6.997249
 20
75.409973
 30
0.0
 10
7.424906
 20
74.927778
 30
0.0
 10
6.997249
 20
74.445525
 30
0.0
  0
LWPOLYLINE
  5
156
100
AcDbEntity
  8
Layer_1
 62
7
100
AcDbPolyline
 90
4
 70
1
 10
6.673472
 20
74.927770
 30
0.0
 10
6.996251
 20
75.285398
 30
0.0
 10
7.313429
 20
74.927770
 30
0.0
 10
6.996251
 20
74.570098
 30
0.0
  0
LWPOLYLINE
  5
157
100
AcDbEntity
  8
Layer_1
 62
7
100
AcDbPolyline
 90
4
 70
1
 10
6.786672
 20
74.927761
 30
0.0
 10
6.995226
 20
75.158833
 30
0.0
 10
7.200162
 20
74.927761
 30
0.0
 10
6.995226
 20
74.696662
 30
0.0
  0
LWPOLYLINE
  5
158
100
AcDbEntity
  8
Layer_1
 62
7
100
AcDbPolyline
 90
4
 70
1
 10
6.896926
 20
74.927752
 30
0.0
 10
6.994208
 20
75.035539
 30
0.0
 10
7.089804
 20
74.927752
 30
0.0
 10
6.994208
 20
74.819953
 30
0.0
  0
LWPOLYLINE
  5
159
100
AcDbEntity
  8
Layer_1
 62
7
100
AcDbPolyline
 90
4
 70
1
 10
6.978860
 20
74.927234
 30
0.0
 10
6.992896
 20
74.942786
 30
0.0
 10
7.006689
 20
74.927234
 30
0.0
 10
6.992896
 20
74.911679
 30
0.0
  0
LWPOLYLINE
  5
15a
100
AcDbEntity
  8
Layer_1
 62
7
100
AcDbPolyline
 90
4
 70
1
 10
3.714483
 20
72.328092
 30
0.0
 10
4.599266
 20
73.308409
 30
0.0
 10
5.468704
 20
72.328092
 30
0.0
 10
4.599266
 20
71.347659
 30
0.0
  0
LWPOLYLINE
  5
15b
100
AcDbEntity
  8
Layer_1
 62
7
100
AcDbPolyline
 90
4
 70
1
 10
3.824822
 20
72.328084
 30
0.0
 10
4.598287
 20
73.185063
 30
0.0
 10
5.358337
 20
72.328084
 30
0.0
 10
4.598287
 20
71.471004
 30
0.0
  0
LWPOLYLINE
  5
15c
100
AcDbEntity
  8
Layer_1
 62
7
100
AcDbPolyline
 90
4
 70
1
 10
3.937017
 20
72.328077
 30
0.0
 10
4.597292
 20
73.059643
 30
0.0
 10
5.246114
 20
72.328077
 30
0.0
 10
4.597292
 20
71.596423
 30
0.0
  0
LWPOLYLINE
  5
15d
100
AcDbEntity
  8
Layer_1
 62
7
100
AcDbPolyline
 90
4
 70
1
 10
4.047766
 20
72.328069
 30
0.0
 10
4.596308
 20
72.935839
 30
0.0
 10
5.135337
 20
72.328069
 30
0.0
 10
4.596308
 20
71.720226
 30
0.0
  0
LWPOLYLINE
  5
15e
100
AcDbEntity
  8
Layer_1
 62
7
100
AcDbPolyline
 90
4
 70
1
 10
4.160108
 20
72.328061
 30
0.0
 10
4.595312
 20
72.810256
 30
0.0
 10
5.022968
 20
72.328061
 30
0.0
 10
4.595312
 20
71.845808
 30
0.0
  0
LWPOLYLINE
  5
15f
100
AcDbEntity
  8
Layer_1
 62
7
100
AcDbPolyline
 90
4
 70
1
 10
4.271536
 20
72.328053
 30
0.0
 10
4.594314
 20
72.685681
 30
0.0
 10
4.911492
 20
72.328053
 30
0.0
 10
4.594314
 20
71.970381
 30
0.0
  0
LWPOLYLINE
  5
160
100
AcDbEntity
  8
Layer_1
 62
7
100
AcDbPolyline
 90
4
 70
1
 10
4.384735
 20
72.328044
 30
0.0
 10
4.593288
 20
72.559116
 30
0.0
 10
4.798225
 20
72.328044
 30
0.0
 10
4.593288
 20
72.096944
 30
0.0
  0
LWPOLYLINE
  5
161
100
AcDbEntity
  8
Layer_1
 62
7
100
AcDbPolyline
 90
4
 70
1
 10
4.494989
 20
72.328035
 30
0.0
 10
4.592271
 20
72.435822
 30
0.0
 10
4.687867
 20
72.328035
 30
0.0
 10
4.592271
 20
72.220236
 30
0.0
  0
LWPOLYLINE
  5
162
100
AcDbEntity
  8
Layer_1
 62
7
100
AcDbPolyline
 90
4
 70
1
 10
4.576923
 20
72.327517
 30
0.0
 10
4.590959
 20
72.343069
 30
0.0
 10
4.604752
 20
72.327517
 30
0.0
 10
4.590959
 20
72.311962
 30
0.0
  0
LWPOLYLINE
  5
163
100
AcDbEntity
  8
Layer_1
 62
7
100
AcDbPolyline
 90
4
 70
1
 10
8.527858
 20
72.328984
 30
0.0
 10
9.412642
 20
73.309301
 30
0.0
 10
10.282079
 20
72.328984
 30
0.0
 10
9.412642
 20
71.348551
 30
0.0
  0
LWPOLYLINE
  5
164
100
AcDbEntity
  8
Layer_1
 62
7
100
AcDbPolyline
 90
4
 70
1
 10
8.638198
 20
72.328976
 30
0.0
 10
9.411663
 20
73.185955
 30
0.0
 10
10.171713
 20
72.328976
 30
0.0
 10
9.411663
 20
71.471895
 30
0.0
  0
LWPOLYLINE
  5
165
100
AcDbEntity
  8
Layer_1
 62
7
100
AcDbPolyline
 90
4
 70
1
 10
8.750393
 20
72.328969
 30
0.0
 10
9.410667
 20
73.060535
 30
0.0
 10
10.059490
 20
72.328969
 30
0.0
 10
9.410667
 20
71.597315
 30
0.0
  0
LWPOLYLINE
  5
166
100
AcDbEntity
  8
Layer_1
 62
7
100
AcDbPolyline
 90
4
 70
1
 10
8.861142
 20
72.328961
 30
0.0
 10
9.409684
 20
72.936731
 30
0.0
 10
9.948713
 20
72.328961
 30
0.0
 10
9.409684
 20
71.721118
 30
0.0
  0
LWPOLYLINE
  5
167
100
AcDbEntity
  8
Layer_1
 62
7
100
AcDbPolyline
 90
4
 70
1
 10
8.973483
 20
72.328953
 30
0.0
 10
9.408688
 20
72.811148
 30
0.0
 10
9.836344
 20
72.328953
 30
0.0
 10
9.408688
 20
71.846700
 30
0.0
  0
LWPOLYLINE
  5
168
100
AcDbEntity
  8
Layer_1
 62
7
100
AcDbPolyline
 90
4
 70
1
 10
9.084912
 20
72.328945
 30
0.0
 10
9.407690
 20
72.686574
 30
0.0
 10
9.724868
 20
72.328945
 30
0.0
 10
9.407690
 20
71.971273
 30
0.0
  0
LWPOLYLINE
  5
169
100
AcDbEntity
  8
Layer_1
 62
7
100
AcDbPolyline
 90
4
 70
1
 10
9.198110
 20
72.328937
 30
0.0
 10
9.406664
 20
72.560008
 30
0.0
 10
9.611601
 20
72.328937
 30
0.0
 10
9.406664
 20
72.097836
 30
0.0
  0
LWPOLYLINE
  5
16a
100
AcDbEntity
  8
Layer_1
 62
7
100
AcDbPolyline
 90
4
 70
1
 10
9.308364
 20
72.328928
 30
0.0
 10
9.405647
 20
72.436714
 30
0.0
 10
9.501243
 20
72.328928
 30
0.0
 10
9.405647
 20
72.221128
 30
0.0
  0
LWPOLYLINE
  5
16b
100
AcDbEntity
  8
Layer_1
 62
7
100
AcDbPolyline
 90
4
 70
1
 10
9.390299
 20
72.328408
 30
0.0
 10
9.404335
 20
72.343961
 30
0.0
 10
9.418128
 20
72.328408
 30
0.0
 10
9.404335
 20
72.312854
 30
0.0
  0
LWPOLYLINE
  5
16c
100
AcDbEntity
  8
Layer_1
 62
7
100
AcDbPolyline
 90
4
 70
1
 10
6.117855
 20
72.333019
 30
0.0
 10
7.002638
 20
73.313335
 30
0.0
 10
7.872076
 20
72.333019
 30
0.0
 10
7.002638
 20
71.352585
 30
0.0
  0
LWPOLYLINE
  5
16d
100
AcDbEntity
  8
Layer_1
 62
7
100
AcDbPolyline
 90
4
 70
1
 10
6.228194
 20
72.333011
 30
0.0
 10
7.001659
 20
73.189989
 30
0.0
 10
7.761709
 20
72.333011
 30
0.0
 10
7.001659
 20
71.475929
 30
0.0
  0
LWPOLYLINE
  5
16e
100
AcDbEntity
  8
Layer_1
 62
7
100
AcDbPolyline
 90
4
 70
1
 10
6.340389
 20
72.333003
 30
0.0
 10
7.000664
 20
73.064569
 30
0.0
 10
7.649486
 20
72.333003
 30
0.0
 10
7.000664
 20
71.601349
 30
0.0
  0
LWPOLYLINE
  5
16f
100
AcDbEntity
  8
Layer_1
 62
7
100
AcDbPolyline
 90
4
 70
1
 10
6.451138
 20
72.332995
 30
0.0
 10
6.999681
 20
72.940766
 30
0.0
 10
7.538709
 20
72.332995
 30
0.0
 10
6.999681
 20
71.725152
 30
0.0
  0
LWPOLYLINE
  5
170
100
AcDbEntity
  8
Layer_1
 62
7
100
AcDbPolyline
 90
4
 70
1
 10
6.563479
 20
72.332987
 30
0.0
 10
6.998684
 20
72.815183
 30
0.0
 10
7.426341
 20
72.332987
 30
0.0
 10
6.998684
 20
71.850734
 30
0.0
  0
LWPOLYLINE
  5
171
100
AcDbEntity
  8
Layer_1
 62
7
100
AcDbPolyline
 90
4
 70
1
 10
6.674908
 20
72.332979
 30
0.0
 10
6.997686
 20
72.690608
 30
0.0
 10
7.314865
 20
72.332979
 30
0.0
 10
6.997686
 20
71.975308
 30
0.0
  0
LWPOLYLINE
  5
172
100
AcDbEntity
  8
Layer_1
 62
7
100
AcDbPolyline
 90
4
 70
1
 10
6.788107
 20
72.332971
 30
0.0
 10
6.996661
 20
72.564043
 30
0.0
 10
7.201597
 20
72.332971
 30
0.0
 10
6.996661
 20
72.101871
 30
0.0
  0
LWPOLYLINE
  5
173
100
AcDbEntity
  8
Layer_1
 62
7
100
AcDbPolyline
 90
4
 70
1
 10
6.898361
 20
72.332962
 30
0.0
 10
6.995643
 20
72.440748
 30
0.0
 10
7.091239
 20
72.332962
 30
0.0
 10
6.995643
 20
72.225162
 30
0.0
  0
LWPOLYLINE
  5
174
100
AcDbEntity
  8
Layer_1
 62
7
100
AcDbPolyline
 90
4
 70
1
 10
6.980295
 20
72.332443
 30
0.0
 10
6.994331
 20
72.347995
 30
0.0
 10
7.008124
 20
72.332443
 30
0.0
 10
6.994331
 20
72.316888
 30
0.0
  0
LWPOLYLINE
  5
175
100
AcDbEntity
  8
Layer_1
 62
7
100
AcDbPolyline
 90
3
 70
0
 10
7.869666
 20
77.538926
 30
0.0
 10
7.000229
 20
76.558492
 30
0.0
 10
6.115445
 20
77.538926
 30
0.0
  0
LWPOLYLINE
  5
176
100
AcDbEntity
  8
Layer_1
 62
7
100
AcDbPolyline
 90
3
 70
0
 10
7.759300
 20
77.538918
 30
0.0
 10
6.999250
 20
76.681837
 30
0.0
 10
6.225784
 20
77.538918
 30
0.0
  0
LWPOLYLINE
  5
177
100
AcDbEntity
  8
Layer_1
 62
7
100
AcDbPolyline
 90
3
 70
0
 10
7.647077
 20
77.538910
 30
0.0
 10
6.998254
 20
76.807256
 30
0.0
 10
6.337980
 20
77.538910
 30
0.0
  0
LWPOLYLINE
  5
178
100
AcDbEntity
  8
Layer_1
 62
7
100
AcDbPolyline
 90
3
 70
0
 10
7.536299
 20
77.538902
 30
0.0
 10
6.997271
 20
76.931060
 30
0.0
 10
6.448729
 20
77.538902
 30
0.0
  0
LWPOLYLINE
  5
179
100
AcDbEntity
  8
Layer_1
 62
7
100
AcDbPolyline
 90
3
 70
0
 10
7.423931
 20
77.538894
 30
0.0
 10
6.996275
 20
77.056642
 30
0.0
 10
6.561070
 20
77.538894
 30
0.0
  0
LWPOLYLINE
  5
17a
100
AcDbEntity
  8
Layer_1
 62
7
100
AcDbPolyline
 90
3
 70
0
 10
7.312455
 20
77.538886
 30
0.0
 10
6.995277
 20
77.181215
 30
0.0
 10
6.672499
 20
77.538886
 30
0.0
  0
LWPOLYLINE
  5
17b
100
AcDbEntity
  8
Layer_1
 62
7
100
AcDbPolyline
 90
3
 70
0
 10
7.199188
 20
77.538878
 30
0.0
 10
6.994251
 20
77.307778
 30
0.0
 10
6.785697
 20
77.538878
 30
0.0
  0
LWPOLYLINE
  5
17c
100
AcDbEntity
  8
Layer_1
 62
7
100
AcDbPolyline
 90
3
 70
0
 10
7.088829
 20
77.538869
 30
0.0
 10
6.993234
 20
77.431069
 30
0.0
 10
6.895951
 20
77.538869
 30
0.0
  0
LWPOLYLINE
  5
17d
100
AcDbEntity
  8
Layer_1
 62
7
100
AcDbPolyline
 90
3
 70
0
 10
7.005716
 20
77.538350
 30
0.0
 10
6.991923
 20
77.522795
 30
0.0
 10
6.977887
 20
77.538350
 30
0.0
  0
LWPOLYLINE
  5
17e
100
AcDbEntity
  8
Layer_1
 62
7
100
AcDbPolyline
 90
3
 70
0
 10
5.477205
 20
77.537462
 30
0.0
 10
4.607767
 20
76.557029
 30
0.0
 10
3.722984
 20
77.537462
 30
0.0
  0
LWPOLYLINE
  5
17f
100
AcDbEntity
  8
Layer_1
 62
7
100
AcDbPolyline
 90
3
 70
0
 10
5.366839
 20
77.537454
 30
0.0
 10
4.606789
 20
76.680373
 30
0.0
 10
3.833323
 20
77.537454
 30
0.0
  0
LWPOLYLINE
  5
180
100
AcDbEntity
  8
Layer_1
 62
7
100
AcDbPolyline
 90
3
 70
0
 10
5.254615
 20
77.537446
 30
0.0
 10
4.605793
 20
76.805793
 30
0.0
 10
3.945519
 20
77.537446
 30
0.0
  0
LWPOLYLINE
  5
181
100
AcDbEntity
  8
Layer_1
 62
7
100
AcDbPolyline
 90
3
 70
0
 10
5.143839
 20
77.537439
 30
0.0
 10
4.604810
 20
76.929596
 30
0.0
 10
4.056267
 20
77.537439
 30
0.0
  0
LWPOLYLINE
  5
182
100
AcDbEntity
  8
Layer_1
 62
7
100
AcDbPolyline
 90
3
 70
0
 10
5.031470
 20
77.537431
 30
0.0
 10
4.603813
 20
77.055178
 30
0.0
 10
4.168609
 20
77.537431
 30
0.0
  0
LWPOLYLINE
  5
183
100
AcDbEntity
  8
Layer_1
 62
7
100
AcDbPolyline
 90
3
 70
0
 10
4.919994
 20
77.537423
 30
0.0
 10
4.602815
 20
77.179751
 30
0.0
 10
4.280037
 20
77.537423
 30
0.0
  0
LWPOLYLINE
  5
184
100
AcDbEntity
  8
Layer_1
 62
7
100
AcDbPolyline
 90
3
 70
0
 10
4.806726
 20
77.537414
 30
0.0
 10
4.601790
 20
77.306314
 30
0.0
 10
4.393236
 20
77.537414
 30
0.0
  0
LWPOLYLINE
  5
185
100
AcDbEntity
  8
Layer_1
 62
7
100
AcDbPolyline
 90
3
 70
0
 10
4.696368
 20
77.537405
 30
0.0
 10
4.600773
 20
77.429606
 30
0.0
 10
4.503490
 20
77.537405
 30
0.0
  0
LWPOLYLINE
  5
186
100
AcDbEntity
  8
Layer_1
 62
7
100
AcDbPolyline
 90
3
 70
0
 10
4.613254
 20
77.536886
 30
0.0
 10
4.599462
 20
77.521331
 30
0.0
 10
4.585425
 20
77.536886
 30
0.0
  0
LWPOLYLINE
  5
187
100
AcDbEntity
  8
Layer_1
 62
7
100
AcDbPolyline
 90
4
 70
1
 10
2.492820
 20
68.431820
 30
0.0
 10
3.377604
 20
69.412136
 30
0.0
 10
4.247041
 20
68.431820
 30
0.0
 10
3.377604
 20
67.451386
 30
0.0
  0
LWPOLYLINE
  5
188
100
AcDbEntity
  8
Layer_1
 62
7
100
AcDbPolyline
 90
4
 70
1
 10
2.603159
 20
68.431812
 30
0.0
 10
3.376625
 20
69.288790
 30
0.0
 10
4.136675
 20
68.431812
 30
0.0
 10
3.376625
 20
67.574730
 30
0.0
  0
LWPOLYLINE
  5
189
100
AcDbEntity
  8
Layer_1
 62
7
100
AcDbPolyline
 90
4
 70
1
 10
2.715355
 20
68.431803
 30
0.0
 10
3.375629
 20
69.163370
 30
0.0
 10
4.024451
 20
68.431803
 30
0.0
 10
3.375629
 20
67.700150
 30
0.0
  0
LWPOLYLINE
  5
18a
100
AcDbEntity
  8
Layer_1
 62
7
100
AcDbPolyline
 90
4
 70
1
 10
2.826104
 20
68.431796
 30
0.0
 10
3.374646
 20
69.039566
 30
0.0
 10
3.913675
 20
68.431796
 30
0.0
 10
3.374646
 20
67.823953
 30
0.0
  0
LWPOLYLINE
  5
18b
100
AcDbEntity
  8
Layer_1
 62
7
100
AcDbPolyline
 90
4
 70
1
 10
2.938445
 20
68.431788
 30
0.0
 10
3.373650
 20
68.913983
 30
0.0
 10
3.801306
 20
68.431788
 30
0.0
 10
3.373650
 20
67.949535
 30
0.0
  0
LWPOLYLINE
  5
18c
100
AcDbEntity
  8
Layer_1
 62
7
100
AcDbPolyline
 90
4
 70
1
 10
3.049874
 20
68.431780
 30
0.0
 10
3.372651
 20
68.789408
 30
0.0
 10
3.689830
 20
68.431780
 30
0.0
 10
3.372651
 20
68.074108
 30
0.0
  0
LWPOLYLINE
  5
18d
100
AcDbEntity
  8
Layer_1
 62
7
100
AcDbPolyline
 90
4
 70
1
 10
3.163072
 20
68.431771
 30
0.0
 10
3.371626
 20
68.662843
 30
0.0
 10
3.576562
 20
68.431771
 30
0.0
 10
3.371626
 20
68.200671
 30
0.0
  0
LWPOLYLINE
  5
18e
100
AcDbEntity
  8
Layer_1
 62
7
100
AcDbPolyline
 90
4
 70
1
 10
3.273326
 20
68.431763
 30
0.0
 10
3.370609
 20
68.539549
 30
0.0
 10
3.466204
 20
68.431763
 30
0.0
 10
3.370609
 20
68.323963
 30
0.0
  0
LWPOLYLINE
  5
18f
100
AcDbEntity
  8
Layer_1
 62
7
100
AcDbPolyline
 90
4
 70
1
 10
3.355260
 20
68.431244
 30
0.0
 10
3.369296
 20
68.446796
 30
0.0
 10
3.383089
 20
68.431244
 30
0.0
 10
3.369296
 20
68.415689
 30
0.0
  0
LWPOLYLINE
  5
190
100
AcDbEntity
  8
Layer_1
 62
7
100
AcDbPolyline
 90
4
 70
1
 10
7.306196
 20
68.432712
 30
0.0
 10
8.190979
 20
69.413028
 30
0.0
 10
9.060417
 20
68.432712
 30
0.0
 10
8.190979
 20
67.452278
 30
0.0
  0
LWPOLYLINE
  5
191
100
AcDbEntity
  8
Layer_1
 62
7
100
AcDbPolyline
 90
4
 70
1
 10
7.416535
 20
68.432704
 30
0.0
 10
8.190000
 20
69.289682
 30
0.0
 10
8.950050
 20
68.432704
 30
0.0
 10
8.190000
 20
67.575622
 30
0.0
  0
LWPOLYLINE
  5
192
100
AcDbEntity
  8
Layer_1
 62
7
100
AcDbPolyline
 90
4
 70
1
 10
7.528730
 20
68.432695
 30
0.0
 10
8.189005
 20
69.164262
 30
0.0
 10
8.837828
 20
68.432695
 30
0.0
 10
8.189005
 20
67.701042
 30
0.0
  0
LWPOLYLINE
  5
193
100
AcDbEntity
  8
Layer_1
 62
7
100
AcDbPolyline
 90
4
 70
1
 10
7.639480
 20
68.432688
 30
0.0
 10
8.188022
 20
69.040458
 30
0.0
 10
8.727051
 20
68.432688
 30
0.0
 10
8.188022
 20
67.824845
 30
0.0
  0
LWPOLYLINE
  5
194
100
AcDbEntity
  8
Layer_1
 62
7
100
AcDbPolyline
 90
4
 70
1
 10
7.751820
 20
68.432680
 30
0.0
 10
8.187025
 20
68.914875
 30
0.0
 10
8.614682
 20
68.432680
 30
0.0
 10
8.187025
 20
67.950427
 30
0.0
  0
LWPOLYLINE
  5
195
100
AcDbEntity
  8
Layer_1
 62
7
100
AcDbPolyline
 90
4
 70
1
 10
7.863249
 20
68.432672
 30
0.0
 10
8.186028
 20
68.790300
 30
0.0
 10
8.503206
 20
68.432672
 30
0.0
 10
8.186028
 20
68.075001
 30
0.0
  0
LWPOLYLINE
  5
196
100
AcDbEntity
  8
Layer_1
 62
7
100
AcDbPolyline
 90
4
 70
1
 10
7.976448
 20
68.432663
 30
0.0
 10
8.185002
 20
68.663736
 30
0.0
 10
8.389939
 20
68.432663
 30
0.0
 10
8.185002
 20
68.201563
 30
0.0
  0
LWPOLYLINE
  5
197
100
AcDbEntity
  8
Layer_1
 62
7
100
AcDbPolyline
 90
4
 70
1
 10
8.086702
 20
68.432655
 30
0.0
 10
8.183985
 20
68.540441
 30
0.0
 10
8.279580
 20
68.432655
 30
0.0
 10
8.183985
 20
68.324855
 30
0.0
  0
LWPOLYLINE
  5
198
100
AcDbEntity
  8
Layer_1
 62
7
100
AcDbPolyline
 90
4
 70
1
 10
8.168637
 20
68.432135
 30
0.0
 10
8.182673
 20
68.447687
 30
0.0
 10
8.196466
 20
68.432135
 30
0.0
 10
8.182673
 20
68.416580
 30
0.0
  0
LWPOLYLINE
  5
199
100
AcDbEntity
  8
Layer_1
 62
7
100
AcDbPolyline
 90
4
 70
1
 10
4.896192
 20
68.436746
 30
0.0
 10
5.780975
 20
69.417062
 30
0.0
 10
6.650413
 20
68.436746
 30
0.0
 10
5.780975
 20
67.456312
 30
0.0
  0
LWPOLYLINE
  5
19a
100
AcDbEntity
  8
Layer_1
 62
7
100
AcDbPolyline
 90
4
 70
1
 10
5.006531
 20
68.436738
 30
0.0
 10
5.779996
 20
69.293717
 30
0.0
 10
6.540047
 20
68.436738
 30
0.0
 10
5.779996
 20
67.579657
 30
0.0
  0
LWPOLYLINE
  5
19b
100
AcDbEntity
  8
Layer_1
 62
7
100
AcDbPolyline
 90
4
 70
1
 10
5.118726
 20
68.436730
 30
0.0
 10
5.779001
 20
69.168297
 30
0.0
 10
6.427823
 20
68.436730
 30
0.0
 10
5.779001
 20
67.705076
 30
0.0
  0
LWPOLYLINE
  5
19c
100
AcDbEntity
  8
Layer_1
 62
7
100
AcDbPolyline
 90
4
 70
1
 10
5.229476
 20
68.436722
 30
0.0
 10
5.778018
 20
69.044492
 30
0.0
 10
6.317047
 20
68.436722
 30
0.0
 10
5.778018
 20
67.828879
 30
0.0
  0
LWPOLYLINE
  5
19d
100
AcDbEntity
  8
Layer_1
 62
7
100
AcDbPolyline
 90
4
 70
1
 10
5.341816
 20
68.436714
 30
0.0
 10
5.777021
 20
68.918910
 30
0.0
 10
6.204678
 20
68.436714
 30
0.0
 10
5.777021
 20
67.954462
 30
0.0
  0
LWPOLYLINE
  5
19e
100
AcDbEntity
  8
Layer_1
 62
7
100
AcDbPolyline
 90
4
 70
1
 10
5.453245
 20
68.436706
 30
0.0
 10
5.776024
 20
68.794335
 30
0.0
 10
6.093202
 20
68.436706
 30
0.0
 10
5.776024
 20
68.079035
 30
0.0
  0
LWPOLYLINE
  5
19f
100
AcDbEntity
  8
Layer_1
 62
7
100
AcDbPolyline
 90
4
 70
1
 10
5.566444
 20
68.436698
 30
0.0
 10
5.774998
 20
68.667770
 30
0.0
 10
5.979934
 20
68.436698
 30
0.0
 10
5.774998
 20
68.205598
 30
0.0
  0
LWPOLYLINE
  5
1a0
100
AcDbEntity
  8
Layer_1
 62
7
100
AcDbPolyline
 90
4
 70
1
 10
5.676698
 20
68.436689
 30
0.0
 10
5.773981
 20
68.544475
 30
0.0
 10
5.869576
 20
68.436689
 30
0.0
 10
5.773981
 20
68.328890
 30
0.0
  0
LWPOLYLINE
  5
1a1
100
AcDbEntity
  8
Layer_1
 62
7
100
AcDbPolyline
 90
4
 70
1
 10
5.758633
 20
68.436170
 30
0.0
 10
5.772669
 20
68.451722
 30
0.0
 10
5.786462
 20
68.436170
 30
0.0
 10
5.772669
 20
68.420615
 30
0.0
  0
LWPOLYLINE
  5
1a2
100
AcDbEntity
  8
Layer_1
 62
7
100
AcDbPolyline
 90
3
 70
0
 10
10.254443
 20
67.143386
 30
0.0
 10
9.385005
 20
68.123820
 30
0.0
 10
8.500221
 20
67.143386
 30
0.0
  0
LWPOLYLINE
  5
1a3
100
AcDbEntity
  8
Layer_1
 62
7
100
AcDbPolyline
 90
3
 70
0
 10
10.144076
 20
67.143394
 30
0.0
 10
9.384026
 20
68.000475
 30
0.0
 10
8.610561
 20
67.143394
 30
0.0
  0
LWPOLYLINE
  5
1a4
100
AcDbEntity
  8
Layer_1
 62
7
100
AcDbPolyline
 90
3
 70
0
 10
10.031854
 20
67.143402
 30
0.0
 10
9.383030
 20
67.875056
 30
0.0
 10
8.722756
 20
67.143402
 30
0.0
  0
LWPOLYLINE
  5
1a5
100
AcDbEntity
  8
Layer_1
 62
7
100
AcDbPolyline
 90
3
 70
0
 10
9.921076
 20
67.143410
 30
0.0
 10
9.382047
 20
67.751253
 30
0.0
 10
8.833505
 20
67.143410
 30
0.0
  0
LWPOLYLINE
  5
1a6
100
AcDbEntity
  8
Layer_1
 62
7
100
AcDbPolyline
 90
3
 70
0
 10
9.808708
 20
67.143418
 30
0.0
 10
9.381051
 20
67.625670
 30
0.0
 10
8.945846
 20
67.143418
 30
0.0
  0
LWPOLYLINE
  5
1a7
100
AcDbEntity
  8
Layer_1
 62
7
100
AcDbPolyline
 90
3
 70
0
 10
9.697231
 20
67.143426
 30
0.0
 10
9.380053
 20
67.501097
 30
0.0
 10
9.057275
 20
67.143426
 30
0.0
  0
LWPOLYLINE
  5
1a8
100
AcDbEntity
  8
Layer_1
 62
7
100
AcDbPolyline
 90
3
 70
0
 10
9.583964
 20
67.143434
 30
0.0
 10
9.379028
 20
67.374534
 30
0.0
 10
9.170473
 20
67.143434
 30
0.0
  0
LWPOLYLINE
  5
1a9
100
AcDbEntity
  8
Layer_1
 62
7
100
AcDbPolyline
 90
3
 70
0
 10
9.473605
 20
67.143443
 30
0.0
 10
9.378011
 20
67.251243
 30
0.0
 10
9.280728
 20
67.143443
 30
0.0
  0
LWPOLYLINE
  5
1aa
100
AcDbEntity
  8
Layer_1
 62
7
100
AcDbPolyline
 90
3
 70
0
 10
9.390493
 20
67.143962
 30
0.0
 10
9.376700
 20
67.159517
 30
0.0
 10
9.362664
 20
67.143962
 30
0.0
  0
LWPOLYLINE
  5
1ab
100
AcDbEntity
  8
Layer_1
 62
7
100
AcDbPolyline
 90
3
 70
0
 10
7.844558
 20
67.141985
 30
0.0
 10
6.975121
 20
68.122418
 30
0.0
 10
6.090337
 20
67.141985
 30
0.0
  0
LWPOLYLINE
  5
1ac
100
AcDbEntity
  8
Layer_1
 62
7
100
AcDbPolyline
 90
3
 70
0
 10
7.734192
 20
67.141992
 30
0.0
 10
6.974143
 20
67.999073
 30
0.0
 10
6.200677
 20
67.141992
 30
0.0
  0
LWPOLYLINE
  5
1ad
100
AcDbEntity
  8
Layer_1
 62
7
100
AcDbPolyline
 90
3
 70
0
 10
7.621969
 20
67.142000
 30
0.0
 10
6.973146
 20
67.873654
 30
0.0
 10
6.312873
 20
67.142000
 30
0.0
  0
LWPOLYLINE
  5
1ae
100
AcDbEntity
  8
Layer_1
 62
7
100
AcDbPolyline
 90
3
 70
0
 10
7.511192
 20
67.142008
 30
0.0
 10
6.972163
 20
67.749851
 30
0.0
 10
6.423621
 20
67.142008
 30
0.0
  0
LWPOLYLINE
  5
1af
100
AcDbEntity
  8
Layer_1
 62
7
100
AcDbPolyline
 90
3
 70
0
 10
7.398823
 20
67.142016
 30
0.0
 10
6.971168
 20
67.624269
 30
0.0
 10
6.535963
 20
67.142016
 30
0.0
  0
LWPOLYLINE
  5
1b0
100
AcDbEntity
  8
Layer_1
 62
7
100
AcDbPolyline
 90
3
 70
0
 10
7.287347
 20
67.142024
 30
0.0
 10
6.970169
 20
67.499695
 30
0.0
 10
6.647391
 20
67.142024
 30
0.0
  0
LWPOLYLINE
  5
1b1
100
AcDbEntity
  8
Layer_1
 62
7
100
AcDbPolyline
 90
3
 70
0
 10
7.174080
 20
67.142033
 30
0.0
 10
6.969144
 20
67.373132
 30
0.0
 10
6.760589
 20
67.142033
 30
0.0
  0
LWPOLYLINE
  5
1b2
100
AcDbEntity
  8
Layer_1
 62
7
100
AcDbPolyline
 90
3
 70
0
 10
7.063721
 20
67.142041
 30
0.0
 10
6.968127
 20
67.249841
 30
0.0
 10
6.870844
 20
67.142041
 30
0.0
  0
LWPOLYLINE
  5
1b3
100
AcDbEntity
  8
Layer_1
 62
7
100
AcDbPolyline
 90
3
 70
0
 10
6.980608
 20
67.142561
 30
0.0
 10
6.966816
 20
67.158115
 30
0.0
 10
6.952780
 20
67.142561
 30
0.0
  0
LWPOLYLINE
  5
1b4
100
AcDbEntity
  8
Layer_1
 62
7
100
AcDbPolyline
 90
3
 70
0
 10
5.452097
 20
67.143448
 30
0.0
 10
4.582660
 20
68.123882
 30
0.0
 10
3.697876
 20
67.143448
 30
0.0
  0
LWPOLYLINE
  5
1b5
100
AcDbEntity
  8
Layer_1
 62
7
100
AcDbPolyline
 90
3
 70
0
 10
5.341731
 20
67.143456
 30
0.0
 10
4.581681
 20
68.000537
 30
0.0
 10
3.808216
 20
67.143456
 30
0.0
  0
LWPOLYLINE
  5
1b6
100
AcDbEntity
  8
Layer_1
 62
7
100
AcDbPolyline
 90
3
 70
0
 10
5.229508
 20
67.143464
 30
0.0
 10
4.580685
 20
67.875118
 30
0.0
 10
3.920411
 20
67.143464
 30
0.0
  0
LWPOLYLINE
  5
1b7
100
AcDbEntity
  8
Layer_1
 62
7
100
AcDbPolyline
 90
3
 70
0
 10
5.118731
 20
67.143472
 30
0.0
 10
4.579702
 20
67.751314
 30
0.0
 10
4.031160
 20
67.143472
 30
0.0
  0
LWPOLYLINE
  5
1b8
100
AcDbEntity
  8
Layer_1
 62
7
100
AcDbPolyline
 90
3
 70
0
 10
5.006362
 20
67.143480
 30
0.0
 10
4.578706
 20
67.625732
 30
0.0
 10
4.143501
 20
67.143480
 30
0.0
  0
LWPOLYLINE
  5
1b9
100
AcDbEntity
  8
Layer_1
 62
7
100
AcDbPolyline
 90
3
 70
0
 10
4.894886
 20
67.143488
 30
0.0
 10
4.577708
 20
67.501159
 30
0.0
 10
4.254930
 20
67.143488
 30
0.0
  0
LWPOLYLINE
  5
1ba
100
AcDbEntity
  8
Layer_1
 62
7
100
AcDbPolyline
 90
3
 70
0
 10
4.781618
 20
67.143496
 30
0.0
 10
4.576682
 20
67.374596
 30
0.0
 10
4.368128
 20
67.143496
 30
0.0
  0
LWPOLYLINE
  5
1bb
100
AcDbEntity
  8
Layer_1
 62
7
100
AcDbPolyline
 90
3
 70
0
 10
4.671260
 20
67.143505
 30
0.0
 10
4.575666
 20
67.251305
 30
0.0
 10
4.478382
 20
67.143505
 30
0.0
  0
LWPOLYLINE
  5
1bc
100
AcDbEntity
  8
Layer_1
 62
7
100
AcDbPolyline
 90
3
 70
0
 10
4.588147
 20
67.144024
 30
0.0
 10
4.574355
 20
67.159579
 30
0.0
 10
4.560318
 20
67.144024
 30
0.0
  0
LWPOLYLINE
  5
1bd
100
AcDbEntity
  8
Layer_1
 62
7
100
AcDbPolyline
 90
4
 70
1
 10
2.502847
 20
71.039051
 30
0.0
 10
3.387631
 20
72.019367
 30
0.0
 10
4.257068
 20
71.039051
 30
0.0
 10
3.387631
 20
70.058617
 30
0.0
  0
LWPOLYLINE
  5
1be
100
AcDbEntity
  8
Layer_1
 62
7
100
AcDbPolyline
 90
4
 70
1
 10
2.613186
 20
71.039043
 30
0.0
 10
3.386652
 20
71.896022
 30
0.0
 10
4.146702
 20
71.039043
 30
0.0
 10
3.386652
 20
70.181962
 30
0.0
  0
LWPOLYLINE
  5
1bf
100
AcDbEntity
  8
Layer_1
 62
7
100
AcDbPolyline
 90
4
 70
1
 10
2.725382
 20
71.039035
 30
0.0
 10
3.385656
 20
71.770601
 30
0.0
 10
4.034478
 20
71.039035
 30
0.0
 10
3.385656
 20
70.307381
 30
0.0
  0
LWPOLYLINE
  5
1c0
100
AcDbEntity
  8
Layer_1
 62
7
100
AcDbPolyline
 90
4
 70
1
 10
2.836131
 20
71.039027
 30
0.0
 10
3.384673
 20
71.646798
 30
0.0
 10
3.923702
 20
71.039027
 30
0.0
 10
3.384673
 20
70.431184
 30
0.0
  0
LWPOLYLINE
  5
1c1
100
AcDbEntity
  8
Layer_1
 62
7
100
AcDbPolyline
 90
4
 70
1
 10
2.948472
 20
71.039019
 30
0.0
 10
3.383677
 20
71.521215
 30
0.0
 10
3.811333
 20
71.039019
 30
0.0
 10
3.383677
 20
70.556767
 30
0.0
  0
LWPOLYLINE
  5
1c2
100
AcDbEntity
  8
Layer_1
 62
7
100
AcDbPolyline
 90
4
 70
1
 10
3.059900
 20
71.039011
 30
0.0
 10
3.382678
 20
71.396640
 30
0.0
 10
3.699857
 20
71.039011
 30
0.0
 10
3.382678
 20
70.681340
 30
0.0
  0
LWPOLYLINE
  5
1c3
100
AcDbEntity
  8
Layer_1
 62
7
100
AcDbPolyline
 90
4
 70
1
 10
3.173099
 20
71.039003
 30
0.0
 10
3.381653
 20
71.270075
 30
0.0
 10
3.586589
 20
71.039003
 30
0.0
 10
3.381653
 20
70.807903
 30
0.0
  0
LWPOLYLINE
  5
1c4
100
AcDbEntity
  8
Layer_1
 62
7
100
AcDbPolyline
 90
4
 70
1
 10
3.283353
 20
71.038994
 30
0.0
 10
3.380636
 20
71.146780
 30
0.0
 10
3.476231
 20
71.038994
 30
0.0
 10
3.380636
 20
70.931194
 30
0.0
  0
LWPOLYLINE
  5
1c5
100
AcDbEntity
  8
Layer_1
 62
7
100
AcDbPolyline
 90
4
 70
1
 10
3.365287
 20
71.038475
 30
0.0
 10
3.379323
 20
71.054027
 30
0.0
 10
3.393116
 20
71.038475
 30
0.0
 10
3.379323
 20
71.022920
 30
0.0
  0
LWPOLYLINE
  5
1c6
100
AcDbEntity
  8
Layer_1
 62
7
100
AcDbPolyline
 90
4
 70
1
 10
7.316222
 20
71.039943
 30
0.0
 10
8.201005
 20
72.020259
 30
0.0
 10
9.070443
 20
71.039943
 30
0.0
 10
8.201005
 20
70.059509
 30
0.0
  0
LWPOLYLINE
  5
1c7
100
AcDbEntity
  8
Layer_1
 62
7
100
AcDbPolyline
 90
4
 70
1
 10
7.426561
 20
71.039935
 30
0.0
 10
8.200027
 20
71.896914
 30
0.0
 10
8.960077
 20
71.039935
 30
0.0
 10
8.200027
 20
70.182854
 30
0.0
  0
LWPOLYLINE
  5
1c8
100
AcDbEntity
  8
Layer_1
 62
7
100
AcDbPolyline
 90
4
 70
1
 10
7.538757
 20
71.039927
 30
0.0
 10
8.199031
 20
71.771494
 30
0.0
 10
8.847854
 20
71.039927
 30
0.0
 10
8.199031
 20
70.308273
 30
0.0
  0
LWPOLYLINE
  5
1c9
100
AcDbEntity
  8
Layer_1
 62
7
100
AcDbPolyline
 90
4
 70
1
 10
7.649506
 20
71.039919
 30
0.0
 10
8.198048
 20
71.647689
 30
0.0
 10
8.737077
 20
71.039919
 30
0.0
 10
8.198048
 20
70.432076
 30
0.0
  0
LWPOLYLINE
  5
1ca
100
AcDbEntity
  8
Layer_1
 62
7
100
AcDbPolyline
 90
4
 70
1
 10
7.761847
 20
71.039911
 30
0.0
 10
8.197052
 20
71.522106
 30
0.0
 10
8.624708
 20
71.039911
 30
0.0
 10
8.197052
 20
70.557659
 30
0.0
  0
LWPOLYLINE
  5
1cb
100
AcDbEntity
  8
Layer_1
 62
7
100
AcDbPolyline
 90
4
 70
1
 10
7.873275
 20
71.039903
 30
0.0
 10
8.196054
 20
71.397532
 30
0.0
 10
8.513233
 20
71.039903
 30
0.0
 10
8.196054
 20
70.682232
 30
0.0
  0
LWPOLYLINE
  5
1cc
100
AcDbEntity
  8
Layer_1
 62
7
100
AcDbPolyline
 90
4
 70
1
 10
7.986474
 20
71.039894
 30
0.0
 10
8.195028
 20
71.270967
 30
0.0
 10
8.399965
 20
71.039894
 30
0.0
 10
8.195028
 20
70.808795
 30
0.0
  0
LWPOLYLINE
  5
1cd
100
AcDbEntity
  8
Layer_1
 62
7
100
AcDbPolyline
 90
4
 70
1
 10
8.096729
 20
71.039886
 30
0.0
 10
8.194011
 20
71.147673
 30
0.0
 10
8.289606
 20
71.039886
 30
0.0
 10
8.194011
 20
70.932086
 30
0.0
  0
LWPOLYLINE
  5
1ce
100
AcDbEntity
  8
Layer_1
 62
7
100
AcDbPolyline
 90
4
 70
1
 10
8.178663
 20
71.039366
 30
0.0
 10
8.192699
 20
71.054919
 30
0.0
 10
8.206492
 20
71.039366
 30
0.0
 10
8.192699
 20
71.023812
 30
0.0
  0
LWPOLYLINE
  5
1cf
100
AcDbEntity
  8
Layer_1
 62
7
100
AcDbPolyline
 90
4
 70
1
 10
4.906219
 20
71.043977
 30
0.0
 10
5.791002
 20
72.024294
 30
0.0
 10
6.660440
 20
71.043977
 30
0.0
 10
5.791002
 20
70.063543
 30
0.0
  0
LWPOLYLINE
  5
1d0
100
AcDbEntity
  8
Layer_1
 62
7
100
AcDbPolyline
 90
4
 70
1
 10
5.016558
 20
71.043970
 30
0.0
 10
5.790023
 20
71.900948
 30
0.0
 10
6.550074
 20
71.043970
 30
0.0
 10
5.790023
 20
70.186888
 30
0.0
  0
LWPOLYLINE
  5
1d1
100
AcDbEntity
  8
Layer_1
 62
7
100
AcDbPolyline
 90
4
 70
1
 10
5.128753
 20
71.043962
 30
0.0
 10
5.789028
 20
71.775528
 30
0.0
 10
6.437850
 20
71.043962
 30
0.0
 10
5.789028
 20
70.312307
 30
0.0
  0
LWPOLYLINE
  5
1d2
100
AcDbEntity
  8
Layer_1
 62
7
100
AcDbPolyline
 90
4
 70
1
 10
5.239502
 20
71.043954
 30
0.0
 10
5.788045
 20
71.651724
 30
0.0
 10
6.327074
 20
71.043954
 30
0.0
 10
5.788045
 20
70.436111
 30
0.0
  0
LWPOLYLINE
  5
1d3
100
AcDbEntity
  8
Layer_1
 62
7
100
AcDbPolyline
 90
4
 70
1
 10
5.351843
 20
71.043946
 30
0.0
 10
5.787048
 20
71.526141
 30
0.0
 10
6.214705
 20
71.043946
 30
0.0
 10
5.787048
 20
70.561693
 30
0.0
  0
LWPOLYLINE
  5
1d4
100
AcDbEntity
  8
Layer_1
 62
7
100
AcDbPolyline
 90
4
 70
1
 10
5.463271
 20
71.043938
 30
0.0
 10
5.786050
 20
71.401566
 30
0.0
 10
6.103229
 20
71.043938
 30
0.0
 10
5.786050
 20
70.686266
 30
0.0
  0
LWPOLYLINE
  5
1d5
100
AcDbEntity
  8
Layer_1
 62
7
100
AcDbPolyline
 90
4
 70
1
 10
5.576471
 20
71.043929
 30
0.0
 10
5.785025
 20
71.275002
 30
0.0
 10
5.989961
 20
71.043929
 30
0.0
 10
5.785025
 20
70.812830
 30
0.0
  0
LWPOLYLINE
  5
1d6
100
AcDbEntity
  8
Layer_1
 62
7
100
AcDbPolyline
 90
4
 70
1
 10
5.686725
 20
71.043920
 30
0.0
 10
5.784008
 20
71.151707
 30
0.0
 10
5.879603
 20
71.043920
 30
0.0
 10
5.784008
 20
70.936121
 30
0.0
  0
LWPOLYLINE
  5
1d7
100
AcDbEntity
  8
Layer_1
 62
7
100
AcDbPolyline
 90
4
 70
1
 10
5.768659
 20
71.043401
 30
0.0
 10
5.782695
 20
71.058953
 30
0.0
 10
5.796488
 20
71.043401
 30
0.0
 10
5.782695
 20
71.027846
 30
0.0
  0
LWPOLYLINE
  5
1d8
100
AcDbEntity
  8
Layer_1
 62
7
100
AcDbPolyline
 90
4
 70
1
 10
3.703325
 20
69.737951
 30
0.0
 10
4.588108
 20
70.718267
 30
0.0
 10
5.457546
 20
69.737951
 30
0.0
 10
4.588108
 20
68.757517
 30
0.0
  0
LWPOLYLINE
  5
1d9
100
AcDbEntity
  8
Layer_1
 62
7
100
AcDbPolyline
 90
4
 70
1
 10
3.813664
 20
69.737942
 30
0.0
 10
4.587130
 20
70.594921
 30
0.0
 10
5.347180
 20
69.737942
 30
0.0
 10
4.587130
 20
68.880861
 30
0.0
  0
LWPOLYLINE
  5
1da
100
AcDbEntity
  8
Layer_1
 62
7
100
AcDbPolyline
 90
4
 70
1
 10
3.925860
 20
69.737935
 30
0.0
 10
4.586134
 20
70.469501
 30
0.0
 10
5.234956
 20
69.737935
 30
0.0
 10
4.586134
 20
69.006281
 30
0.0
  0
LWPOLYLINE
  5
1db
100
AcDbEntity
  8
Layer_1
 62
7
100
AcDbPolyline
 90
4
 70
1
 10
4.036608
 20
69.737927
 30
0.0
 10
4.585151
 20
70.345697
 30
0.0
 10
5.124179
 20
69.737927
 30
0.0
 10
4.585151
 20
69.130084
 30
0.0
  0
LWPOLYLINE
  5
1dc
100
AcDbEntity
  8
Layer_1
 62
7
100
AcDbPolyline
 90
4
 70
1
 10
4.148950
 20
69.737919
 30
0.0
 10
4.584155
 20
70.220114
 30
0.0
 10
5.011811
 20
69.737919
 30
0.0
 10
4.584155
 20
69.255666
 30
0.0
  0
LWPOLYLINE
  5
1dd
100
AcDbEntity
  8
Layer_1
 62
7
100
AcDbPolyline
 90
4
 70
1
 10
4.260378
 20
69.737911
 30
0.0
 10
4.583156
 20
70.095539
 30
0.0
 10
4.900335
 20
69.737911
 30
0.0
 10
4.583156
 20
69.380239
 30
0.0
  0
LWPOLYLINE
  5
1de
100
AcDbEntity
  8
Layer_1
 62
7
100
AcDbPolyline
 90
4
 70
1
 10
4.373577
 20
69.737902
 30
0.0
 10
4.582131
 20
69.968974
 30
0.0
 10
4.787067
 20
69.737902
 30
0.0
 10
4.582131
 20
69.506802
 30
0.0
  0
LWPOLYLINE
  5
1df
100
AcDbEntity
  8
Layer_1
 62
7
100
AcDbPolyline
 90
4
 70
1
 10
4.483831
 20
69.737893
 30
0.0
 10
4.581113
 20
69.845680
 30
0.0
 10
4.676709
 20
69.737893
 30
0.0
 10
4.581113
 20
69.630094
 30
0.0
  0
LWPOLYLINE
  5
1e0
100
AcDbEntity
  8
Layer_1
 62
7
100
AcDbPolyline
 90
4
 70
1
 10
4.565765
 20
69.737375
 30
0.0
 10
4.579802
 20
69.752927
 30
0.0
 10
4.593594
 20
69.737375
 30
0.0
 10
4.579802
 20
69.721820
 30
0.0
  0
LWPOLYLINE
  5
1e1
100
AcDbEntity
  8
Layer_1
 62
7
100
AcDbPolyline
 90
4
 70
1
 10
8.516701
 20
69.738843
 30
0.0
 10
9.401484
 20
70.719159
 30
0.0
 10
10.270922
 20
69.738843
 30
0.0
 10
9.401484
 20
68.758409
 30
0.0
  0
LWPOLYLINE
  5
1e2
100
AcDbEntity
  8
Layer_1
 62
7
100
AcDbPolyline
 90
4
 70
1
 10
8.627040
 20
69.738835
 30
0.0
 10
9.400505
 20
70.595813
 30
0.0
 10
10.160556
 20
69.738835
 30
0.0
 10
9.400505
 20
68.881753
 30
0.0
  0
LWPOLYLINE
  5
1e3
100
AcDbEntity
  8
Layer_1
 62
7
100
AcDbPolyline
 90
4
 70
1
 10
8.739235
 20
69.738827
 30
0.0
 10
9.399510
 20
70.470393
 30
0.0
 10
10.048332
 20
69.738827
 30
0.0
 10
9.399510
 20
69.007173
 30
0.0
  0
LWPOLYLINE
  5
1e4
100
AcDbEntity
  8
Layer_1
 62
7
100
AcDbPolyline
 90
4
 70
1
 10
8.849984
 20
69.738819
 30
0.0
 10
9.398527
 20
70.346589
 30
0.0
 10
9.937556
 20
69.738819
 30
0.0
 10
9.398527
 20
69.130976
 30
0.0
  0
LWPOLYLINE
  5
1e5
100
AcDbEntity
  8
Layer_1
 62
7
100
AcDbPolyline
 90
4
 70
1
 10
8.962326
 20
69.738811
 30
0.0
 10
9.397530
 20
70.221006
 30
0.0
 10
9.825187
 20
69.738811
 30
0.0
 10
9.397530
 20
69.256558
 30
0.0
  0
LWPOLYLINE
  5
1e6
100
AcDbEntity
  8
Layer_1
 62
7
100
AcDbPolyline
 90
4
 70
1
 10
9.073754
 20
69.738803
 30
0.0
 10
9.396532
 20
70.096432
 30
0.0
 10
9.713710
 20
69.738803
 30
0.0
 10
9.396532
 20
69.381131
 30
0.0
  0
LWPOLYLINE
  5
1e7
100
AcDbEntity
  8
Layer_1
 62
7
100
AcDbPolyline
 90
4
 70
1
 10
9.186953
 20
69.738795
 30
0.0
 10
9.395507
 20
69.969866
 30
0.0
 10
9.600443
 20
69.738795
 30
0.0
 10
9.395507
 20
69.507694
 30
0.0
  0
LWPOLYLINE
  5
1e8
100
AcDbEntity
  8
Layer_1
 62
7
100
AcDbPolyline
 90
4
 70
1
 10
9.297206
 20
69.738786
 30
0.0
 10
9.394490
 20
69.846572
 30
0.0
 10
9.490085
 20
69.738786
 30
0.0
 10
9.394490
 20
69.630986
 30
0.0
  0
LWPOLYLINE
  5
1e9
100
AcDbEntity
  8
Layer_1
 62
7
100
AcDbPolyline
 90
4
 70
1
 10
9.379141
 20
69.738266
 30
0.0
 10
9.393177
 20
69.753819
 30
0.0
 10
9.406970
 20
69.738266
 30
0.0
 10
9.393177
 20
69.722712
 30
0.0
  0
LWPOLYLINE
  5
1ea
100
AcDbEntity
  8
Layer_1
 62
7
100
AcDbPolyline
 90
4
 70
1
 10
6.106697
 20
69.742877
 30
0.0
 10
6.991481
 20
70.723193
 30
0.0
 10
7.860918
 20
69.742877
 30
0.0
 10
6.991481
 20
68.762443
 30
0.0
  0
LWPOLYLINE
  5
1eb
100
AcDbEntity
  8
Layer_1
 62
7
100
AcDbPolyline
 90
4
 70
1
 10
6.217036
 20
69.742869
 30
0.0
 10
6.990501
 20
70.599847
 30
0.0
 10
7.750551
 20
69.742869
 30
0.0
 10
6.990501
 20
68.885787
 30
0.0
  0
LWPOLYLINE
  5
1ec
100
AcDbEntity
  8
Layer_1
 62
7
100
AcDbPolyline
 90
4
 70
1
 10
6.329231
 20
69.742861
 30
0.0
 10
6.989506
 20
70.474427
 30
0.0
 10
7.638329
 20
69.742861
 30
0.0
 10
6.989506
 20
69.011207
 30
0.0
  0
LWPOLYLINE
  5
1ed
100
AcDbEntity
  8
Layer_1
 62
7
100
AcDbPolyline
 90
4
 70
1
 10
6.439980
 20
69.742853
 30
0.0
 10
6.988523
 20
70.350623
 30
0.0
 10
7.527552
 20
69.742853
 30
0.0
 10
6.988523
 20
69.135010
 30
0.0
  0
LWPOLYLINE
  5
1ee
100
AcDbEntity
  8
Layer_1
 62
7
100
AcDbPolyline
 90
4
 70
1
 10
6.552322
 20
69.742845
 30
0.0
 10
6.987526
 20
70.225041
 30
0.0
 10
7.415183
 20
69.742845
 30
0.0
 10
6.987526
 20
69.260592
 30
0.0
  0
LWPOLYLINE
  5
1ef
100
AcDbEntity
  8
Layer_1
 62
7
100
AcDbPolyline
 90
4
 70
1
 10
6.663750
 20
69.742837
 30
0.0
 10
6.986528
 20
70.100466
 30
0.0
 10
7.303707
 20
69.742837
 30
0.0
 10
6.986528
 20
69.385166
 30
0.0
  0
LWPOLYLINE
  5
1f0
100
AcDbEntity
  8
Layer_1
 62
7
100
AcDbPolyline
 90
4
 70
1
 10
6.776949
 20
69.742829
 30
0.0
 10
6.985503
 20
69.973901
 30
0.0
 10
7.190439
 20
69.742829
 30
0.0
 10
6.985503
 20
69.511729
 30
0.0
  0
LWPOLYLINE
  5
1f1
100
AcDbEntity
  8
Layer_1
 62
7
100
AcDbPolyline
 90
4
 70
1
 10
6.887203
 20
69.742820
 30
0.0
 10
6.984485
 20
69.850606
 30
0.0
 10
7.080081
 20
69.742820
 30
0.0
 10
6.984485
 20
69.635020
 30
0.0
  0
LWPOLYLINE
  5
1f2
100
AcDbEntity
  8
Layer_1
 62
7
100
AcDbPolyline
 90
4
 70
1
 10
6.969137
 20
69.742301
 30
0.0
 10
6.983174
 20
69.757853
 30
0.0
 10
6.996966
 20
69.742301
 30
0.0
 10
6.983174
 20
69.726746
 30
0.0
  0
LWPOLYLINE
  5
1f3
100
AcDbEntity
  8
Layer_1
 62
7
100
AcDbPolyline
 90
3
 70
0
 10
10.620640
 20
72.660117
 30
0.0
 10
9.735856
 20
73.640551
 30
0.0
 10
10.620640
 20
74.620867
 30
0.0
  0
LWPOLYLINE
  5
1f4
100
AcDbEntity
  8
Layer_1
 62
7
100
AcDbPolyline
 90
3
 70
0
 10
10.619661
 20
72.783463
 30
0.0
 10
9.846195
 20
73.640544
 30
0.0
 10
10.619661
 20
74.497522
 30
0.0
  0
LWPOLYLINE
  5
1f5
100
AcDbEntity
  8
Layer_1
 62
7
100
AcDbPolyline
 90
3
 70
0
 10
10.618665
 20
72.908882
 30
0.0
 10
9.958391
 20
73.640536
 30
0.0
 10
10.618665
 20
74.372101
 30
0.0
  0
LWPOLYLINE
  5
1f6
100
AcDbEntity
  8
Layer_1
 62
7
100
AcDbPolyline
 90
3
 70
0
 10
10.617682
 20
73.032685
 30
0.0
 10
10.069140
 20
73.640528
 30
0.0
 10
10.617682
 20
74.248298
 30
0.0
  0
LWPOLYLINE
  5
1f7
100
AcDbEntity
  8
Layer_1
 62
7
100
AcDbPolyline
 90
3
 70
0
 10
10.616686
 20
73.158267
 30
0.0
 10
10.181481
 20
73.640520
 30
0.0
 10
10.616686
 20
74.122715
 30
0.0
  0
LWPOLYLINE
  5
1f8
100
AcDbEntity
  8
Layer_1
 62
7
100
AcDbPolyline
 90
3
 70
0
 10
10.615688
 20
73.282840
 30
0.0
 10
10.292910
 20
73.640512
 30
0.0
 10
10.615688
 20
73.998140
 30
0.0
  0
LWPOLYLINE
  5
1f9
100
AcDbEntity
  8
Layer_1
 62
7
100
AcDbPolyline
 90
3
 70
0
 10
10.614663
 20
73.409404
 30
0.0
 10
10.406108
 20
73.640503
 30
0.0
 10
10.614663
 20
73.871575
 30
0.0
  0
LWPOLYLINE
  5
1fa
100
AcDbEntity
  8
Layer_1
 62
7
100
AcDbPolyline
 90
3
 70
0
 10
10.613645
 20
73.532695
 30
0.0
 10
10.516363
 20
73.640494
 30
0.0
 10
10.613645
 20
73.748282
 30
0.0
  0
LWPOLYLINE
  5
1fb
100
AcDbEntity
  8
Layer_1
 62
7
100
AcDbPolyline
 90
4
 70
1
 10
10.598297
 20
73.639976
 30
0.0
 10
10.612333
 20
73.655528
 30
0.0
 10
10.626126
 20
73.639976
 30
0.0
 10
10.612333
 20
73.624421
 30
0.0
  0
LWPOLYLINE
  5
1fc
100
AcDbEntity
  8
Layer_1
 62
7
100
AcDbPolyline
 90
3
 70
0
 10
10.612638
 20
75.254180
 30
0.0
 10
9.727854
 20
76.234614
 30
0.0
 10
10.612638
 20
77.214931
 30
0.0
  0
LWPOLYLINE
  5
1fd
100
AcDbEntity
  8
Layer_1
 62
7
100
AcDbPolyline
 90
3
 70
0
 10
10.611659
 20
75.377526
 30
0.0
 10
9.838193
 20
76.234607
 30
0.0
 10
10.611659
 20
77.091586
 30
0.0
  0
LWPOLYLINE
  5
1fe
100
AcDbEntity
  8
Layer_1
 62
7
100
AcDbPolyline
 90
3
 70
0
 10
10.610664
 20
75.502945
 30
0.0
 10
9.950389
 20
76.234599
 30
0.0
 10
10.610664
 20
76.966165
 30
0.0
  0
LWPOLYLINE
  5
1ff
100
AcDbEntity
  8
Layer_1
 62
7
100
AcDbPolyline
 90
3
 70
0
 10
10.609680
 20
75.626749
 30
0.0
 10
10.061138
 20
76.234592
 30
0.0
 10
10.609680
 20
76.842361
 30
0.0
  0
LWPOLYLINE
  5
200
100
AcDbEntity
  8
Layer_1
 62
7
100
AcDbPolyline
 90
3
 70
0
 10
10.608684
 20
75.752331
 30
0.0
 10
10.173479
 20
76.234583
 30
0.0
 10
10.608684
 20
76.716778
 30
0.0
  0
LWPOLYLINE
  5
201
100
AcDbEntity
  8
Layer_1
 62
7
100
AcDbPolyline
 90
3
 70
0
 10
10.607686
 20
75.876904
 30
0.0
 10
10.284908
 20
76.234575
 30
0.0
 10
10.607686
 20
76.592204
 30
0.0
  0
LWPOLYLINE
  5
202
100
AcDbEntity
  8
Layer_1
 62
7
100
AcDbPolyline
 90
3
 70
0
 10
10.606660
 20
76.003467
 30
0.0
 10
10.398106
 20
76.234566
 30
0.0
 10
10.606660
 20
76.465639
 30
0.0
  0
LWPOLYLINE
  5
203
100
AcDbEntity
  8
Layer_1
 62
7
100
AcDbPolyline
 90
3
 70
0
 10
10.605643
 20
76.126758
 30
0.0
 10
10.508360
 20
76.234557
 30
0.0
 10
10.605643
 20
76.342345
 30
0.0
  0
LWPOLYLINE
  5
204
100
AcDbEntity
  8
Layer_1
 62
7
100
AcDbPolyline
 90
4
 70
1
 10
10.590295
 20
76.234039
 30
0.0
 10
10.604331
 20
76.249591
 30
0.0
 10
10.618124
 20
76.234039
 30
0.0
 10
10.604331
 20
76.218484
 30
0.0
  0
LWPOLYLINE
  5
205
100
AcDbEntity
  8
Layer_1
 62
7
100
AcDbPolyline
 90
3
 70
0
 10
10.609482
 20
70.069975
 30
0.0
 10
9.724699
 20
71.050408
 30
0.0
 10
10.609482
 20
72.030726
 30
0.0
  0
LWPOLYLINE
  5
206
100
AcDbEntity
  8
Layer_1
 62
7
100
AcDbPolyline
 90
3
 70
0
 10
10.608504
 20
70.193320
 30
0.0
 10
9.835038
 20
71.050402
 30
0.0
 10
10.608504
 20
71.907380
 30
0.0
  0
LWPOLYLINE
  5
207
100
AcDbEntity
  8
Layer_1
 62
7
100
AcDbPolyline
 90
3
 70
0
 10
10.607508
 20
70.318740
 30
0.0
 10
9.947233
 20
71.050393
 30
0.0
 10
10.607508
 20
71.781959
 30
0.0
  0
LWPOLYLINE
  5
208
100
AcDbEntity
  8
Layer_1
 62
7
100
AcDbPolyline
 90
3
 70
0
 10
10.606524
 20
70.442543
 30
0.0
 10
10.057982
 20
71.050386
 30
0.0
 10
10.606524
 20
71.658156
 30
0.0
  0
LWPOLYLINE
  5
209
100
AcDbEntity
  8
Layer_1
 62
7
100
AcDbPolyline
 90
3
 70
0
 10
10.605528
 20
70.568125
 30
0.0
 10
10.170323
 20
71.050378
 30
0.0
 10
10.605528
 20
71.532573
 30
0.0
  0
LWPOLYLINE
  5
20a
100
AcDbEntity
  8
Layer_1
 62
7
100
AcDbPolyline
 90
3
 70
0
 10
10.604530
 20
70.692698
 30
0.0
 10
10.281752
 20
71.050369
 30
0.0
 10
10.604530
 20
71.407999
 30
0.0
  0
LWPOLYLINE
  5
20b
100
AcDbEntity
  8
Layer_1
 62
7
100
AcDbPolyline
 90
3
 70
0
 10
10.603505
 20
70.819262
 30
0.0
 10
10.394951
 20
71.050361
 30
0.0
 10
10.603505
 20
71.281433
 30
0.0
  0
LWPOLYLINE
  5
20c
100
AcDbEntity
  8
Layer_1
 62
7
100
AcDbPolyline
 90
3
 70
0
 10
10.602488
 20
70.942553
 30
0.0
 10
10.505205
 20
71.050352
 30
0.0
 10
10.602488
 20
71.158140
 30
0.0
  0
LWPOLYLINE
  5
20d
100
AcDbEntity
  8
Layer_1
 62
7
100
AcDbPolyline
 90
4
 70
1
 10
10.587139
 20
71.049833
 30
0.0
 10
10.601175
 20
71.065386
 30
0.0
 10
10.614968
 20
71.049833
 30
0.0
 10
10.601175
 20
71.034278
 30
0.0
  0
LWPOLYLINE
  5
20e
100
AcDbEntity
  8
Layer_1
 62
7
100
AcDbPolyline
 90
3
 70
0
 10
10.600794
 20
67.449950
 30
0.0
 10
9.716010
 20
68.430384
 30
0.0
 10
10.600794
 20
69.410701
 30
0.0
  0
LWPOLYLINE
  5
20f
100
AcDbEntity
  8
Layer_1
 62
7
100
AcDbPolyline
 90
3
 70
0
 10
10.599815
 20
67.573296
 30
0.0
 10
9.826349
 20
68.430378
 30
0.0
 10
10.599815
 20
69.287356
 30
0.0
  0
LWPOLYLINE
  5
210
100
AcDbEntity
  8
Layer_1
 62
7
100
AcDbPolyline
 90
3
 70
0
 10
10.598819
 20
67.698715
 30
0.0
 10
9.938545
 20
68.430369
 30
0.0
 10
10.598819
 20
69.161935
 30
0.0
  0
LWPOLYLINE
  5
211
100
AcDbEntity
  8
Layer_1
 62
7
100
AcDbPolyline
 90
3
 70
0
 10
10.597836
 20
67.822519
 30
0.0
 10
10.049294
 20
68.430362
 30
0.0
 10
10.597836
 20
69.038132
 30
0.0
  0
LWPOLYLINE
  5
212
100
AcDbEntity
  8
Layer_1
 62
7
100
AcDbPolyline
 90
3
 70
0
 10
10.596840
 20
67.948101
 30
0.0
 10
10.161635
 20
68.430354
 30
0.0
 10
10.596840
 20
68.912549
 30
0.0
  0
LWPOLYLINE
  5
213
100
AcDbEntity
  8
Layer_1
 62
7
100
AcDbPolyline
 90
3
 70
0
 10
10.595842
 20
68.072674
 30
0.0
 10
10.273064
 20
68.430345
 30
0.0
 10
10.595842
 20
68.787974
 30
0.0
  0
LWPOLYLINE
  5
214
100
AcDbEntity
  8
Layer_1
 62
7
100
AcDbPolyline
 90
3
 70
0
 10
10.594817
 20
68.199238
 30
0.0
 10
10.386262
 20
68.430337
 30
0.0
 10
10.594817
 20
68.661409
 30
0.0
  0
LWPOLYLINE
  5
215
100
AcDbEntity
  8
Layer_1
 62
7
100
AcDbPolyline
 90
3
 70
0
 10
10.593799
 20
68.322528
 30
0.0
 10
10.496516
 20
68.430328
 30
0.0
 10
10.593799
 20
68.538115
 30
0.0
  0
LWPOLYLINE
  5
216
100
AcDbEntity
  8
Layer_1
 62
7
100
AcDbPolyline
 90
4
 70
1
 10
10.578450
 20
68.429809
 30
0.0
 10
10.592487
 20
68.445361
 30
0.0
 10
10.606279
 20
68.429809
 30
0.0
 10
10.592487
 20
68.414254
 30
0.0
  0
LWPOLYLINE
  5
217
100
AcDbEntity
  8
Layer_1
 62
7
100
AcDbPolyline
 90
3
 70
0
 10
1.348218
 20
77.544860
 30
0.0
 10
2.217655
 20
76.564426
 30
0.0
 10
3.102439
 20
77.544860
 30
0.0
  0
LWPOLYLINE
  5
218
100
AcDbEntity
  8
Layer_1
 62
7
100
AcDbPolyline
 90
3
 70
0
 10
1.458584
 20
77.544852
 30
0.0
 10
2.218634
 20
76.687771
 30
0.0
 10
2.992099
 20
77.544852
 30
0.0
  0
LWPOLYLINE
  5
219
100
AcDbEntity
  8
Layer_1
 62
7
100
AcDbPolyline
 90
3
 70
0
 10
1.570807
 20
77.544844
 30
0.0
 10
2.219630
 20
76.813190
 30
0.0
 10
2.879904
 20
77.544844
 30
0.0
  0
LWPOLYLINE
  5
21a
100
AcDbEntity
  8
Layer_1
 62
7
100
AcDbPolyline
 90
3
 70
0
 10
1.681584
 20
77.544836
 30
0.0
 10
2.220613
 20
76.936993
 30
0.0
 10
2.769155
 20
77.544836
 30
0.0
  0
LWPOLYLINE
  5
21b
100
AcDbEntity
  8
Layer_1
 62
7
100
AcDbPolyline
 90
3
 70
0
 10
1.793953
 20
77.544828
 30
0.0
 10
2.221609
 20
77.062576
 30
0.0
 10
2.656814
 20
77.544828
 30
0.0
  0
LWPOLYLINE
  5
21c
100
AcDbEntity
  8
Layer_1
 62
7
100
AcDbPolyline
 90
3
 70
0
 10
1.905429
 20
77.544820
 30
0.0
 10
2.222608
 20
77.187149
 30
0.0
 10
2.545385
 20
77.544820
 30
0.0
  0
LWPOLYLINE
  5
21d
100
AcDbEntity
  8
Layer_1
 62
7
100
AcDbPolyline
 90
3
 70
0
 10
2.018697
 20
77.544811
 30
0.0
 10
2.223633
 20
77.313712
 30
0.0
 10
2.432187
 20
77.544811
 30
0.0
  0
LWPOLYLINE
  5
21e
100
AcDbEntity
  8
Layer_1
 62
7
100
AcDbPolyline
 90
3
 70
0
 10
2.129054
 20
77.544803
 30
0.0
 10
2.224650
 20
77.437003
 30
0.0
 10
2.321933
 20
77.544803
 30
0.0
  0
LWPOLYLINE
  5
21f
100
AcDbEntity
  8
Layer_1
 62
7
100
AcDbPolyline
 90
3
 70
0
 10
2.212168
 20
77.544284
 30
0.0
 10
2.225961
 20
77.528729
 30
0.0
 10
2.239997
 20
77.544284
 30
0.0
  0
LWPOLYLINE
  5
220
100
AcDbEntity
  8
Layer_1
 62
7
100
AcDbPolyline
 90
3
 70
0
 10
1.373325
 20
67.150721
 30
0.0
 10
2.242763
 20
68.131155
 30
0.0
 10
3.127546
 20
67.150721
 30
0.0
  0
LWPOLYLINE
  5
221
100
AcDbEntity
  8
Layer_1
 62
7
100
AcDbPolyline
 90
3
 70
0
 10
1.483692
 20
67.150730
 30
0.0
 10
2.243742
 20
68.007810
 30
0.0
 10
3.017207
 20
67.150730
 30
0.0
  0
LWPOLYLINE
  5
222
100
AcDbEntity
  8
Layer_1
 62
7
100
AcDbPolyline
 90
3
 70
0
 10
1.595914
 20
67.150738
 30
0.0
 10
2.244737
 20
67.882392
 30
0.0
 10
2.905012
 20
67.150738
 30
0.0
  0
LWPOLYLINE
  5
223
100
AcDbEntity
  8
Layer_1
 62
7
100
AcDbPolyline
 90
3
 70
0
 10
1.706692
 20
67.150745
 30
0.0
 10
2.245721
 20
67.758588
 30
0.0
 10
2.794263
 20
67.150745
 30
0.0
  0
LWPOLYLINE
  5
224
100
AcDbEntity
  8
Layer_1
 62
7
100
AcDbPolyline
 90
3
 70
0
 10
1.819060
 20
67.150753
 30
0.0
 10
2.246717
 20
67.633006
 30
0.0
 10
2.681921
 20
67.150753
 30
0.0
  0
LWPOLYLINE
  5
225
100
AcDbEntity
  8
Layer_1
 62
7
100
AcDbPolyline
 90
3
 70
0
 10
1.930536
 20
67.150761
 30
0.0
 10
2.247715
 20
67.508432
 30
0.0
 10
2.570493
 20
67.150761
 30
0.0
  0
LWPOLYLINE
  5
226
100
AcDbEntity
  8
Layer_1
 62
7
100
AcDbPolyline
 90
3
 70
0
 10
2.043804
 20
67.150769
 30
0.0
 10
2.248740
 20
67.381869
 30
0.0
 10
2.457294
 20
67.150769
 30
0.0
  0
LWPOLYLINE
  5
227
100
AcDbEntity
  8
Layer_1
 62
7
100
AcDbPolyline
 90
3
 70
0
 10
2.154162
 20
67.150778
 30
0.0
 10
2.249757
 20
67.258578
 30
0.0
 10
2.347040
 20
67.150778
 30
0.0
  0
LWPOLYLINE
  5
228
100
AcDbEntity
  8
Layer_1
 62
7
100
AcDbPolyline
 90
3
 70
0
 10
2.237275
 20
67.151298
 30
0.0
 10
2.251068
 20
67.166852
 30
0.0
 10
2.265104
 20
67.151298
 30
0.0
  0
LWPOLYLINE
  5
229
100
AcDbEntity
  8
Layer_1
 62
7
100
AcDbPolyline
 90
3
 70
0
 10
1.007128
 20
72.667452
 30
0.0
 10
1.891912
 20
73.647886
 30
0.0
 10
1.007128
 20
74.628203
 30
0.0
  0
LWPOLYLINE
  5
22a
100
AcDbEntity
  8
Layer_1
 62
7
100
AcDbPolyline
 90
3
 70
0
 10
1.008106
 20
72.790798
 30
0.0
 10
1.781572
 20
73.647879
 30
0.0
 10
1.008106
 20
74.504858
 30
0.0
  0
LWPOLYLINE
  5
22b
100
AcDbEntity
  8
Layer_1
 62
7
100
AcDbPolyline
 90
3
 70
0
 10
1.009102
 20
72.916217
 30
0.0
 10
1.669377
 20
73.647871
 30
0.0
 10
1.009102
 20
74.379437
 30
0.0
  0
LWPOLYLINE
  5
22c
100
AcDbEntity
  8
Layer_1
 62
7
100
AcDbPolyline
 90
3
 70
0
 10
1.010086
 20
73.040021
 30
0.0
 10
1.558628
 20
73.647864
 30
0.0
 10
1.010086
 20
74.255633
 30
0.0
  0
LWPOLYLINE
  5
22d
100
AcDbEntity
  8
Layer_1
 62
7
100
AcDbPolyline
 90
3
 70
0
 10
1.011082
 20
73.165603
 30
0.0
 10
1.446287
 20
73.647856
 30
0.0
 10
1.011082
 20
74.130050
 30
0.0
  0
LWPOLYLINE
  5
22e
100
AcDbEntity
  8
Layer_1
 62
7
100
AcDbPolyline
 90
3
 70
0
 10
1.012080
 20
73.290176
 30
0.0
 10
1.334858
 20
73.647847
 30
0.0
 10
1.012080
 20
74.005476
 30
0.0
  0
LWPOLYLINE
  5
22f
100
AcDbEntity
  8
Layer_1
 62
7
100
AcDbPolyline
 90
3
 70
0
 10
1.013105
 20
73.416739
 30
0.0
 10
1.221660
 20
73.647838
 30
0.0
 10
1.013105
 20
73.878911
 30
0.0
  0
LWPOLYLINE
  5
230
100
AcDbEntity
  8
Layer_1
 62
7
100
AcDbPolyline
 90
3
 70
0
 10
1.014123
 20
73.540030
 30
0.0
 10
1.111405
 20
73.647829
 30
0.0
 10
1.014123
 20
73.755617
 30
0.0
  0
LWPOLYLINE
  5
231
100
AcDbEntity
  8
Layer_1
 62
7
100
AcDbPolyline
 90
4
 70
1
 10
1.029471
 20
73.647311
 30
0.0
 10
1.015435
 20
73.662863
 30
0.0
 10
1.001642
 20
73.647311
 30
0.0
 10
1.015435
 20
73.631756
 30
0.0
  0
LWPOLYLINE
  5
232
100
AcDbEntity
  8
Layer_1
 62
7
100
AcDbPolyline
 90
3
 70
0
 10
1.015130
 20
75.261516
 30
0.0
 10
1.899913
 20
76.241950
 30
0.0
 10
1.015130
 20
77.222266
 30
0.0
  0
LWPOLYLINE
  5
233
100
AcDbEntity
  8
Layer_1
 62
7
100
AcDbPolyline
 90
3
 70
0
 10
1.016108
 20
75.384862
 30
0.0
 10
1.789574
 20
76.241942
 30
0.0
 10
1.016108
 20
77.098921
 30
0.0
  0
LWPOLYLINE
  5
234
100
AcDbEntity
  8
Layer_1
 62
7
100
AcDbPolyline
 90
3
 70
0
 10
1.017104
 20
75.510280
 30
0.0
 10
1.677379
 20
76.241935
 30
0.0
 10
1.017104
 20
76.973501
 30
0.0
  0
LWPOLYLINE
  5
235
100
AcDbEntity
  8
Layer_1
 62
7
100
AcDbPolyline
 90
3
 70
0
 10
1.018088
 20
75.634084
 30
0.0
 10
1.566630
 20
76.241927
 30
0.0
 10
1.018088
 20
76.849697
 30
0.0
  0
LWPOLYLINE
  5
236
100
AcDbEntity
  8
Layer_1
 62
7
100
AcDbPolyline
 90
3
 70
0
 10
1.019083
 20
75.759666
 30
0.0
 10
1.454288
 20
76.241919
 30
0.0
 10
1.019083
 20
76.724114
 30
0.0
  0
LWPOLYLINE
  5
237
100
AcDbEntity
  8
Layer_1
 62
7
100
AcDbPolyline
 90
3
 70
0
 10
1.020082
 20
75.884239
 30
0.0
 10
1.342860
 20
76.241911
 30
0.0
 10
1.020082
 20
76.599539
 30
0.0
  0
LWPOLYLINE
  5
238
100
AcDbEntity
  8
Layer_1
 62
7
100
AcDbPolyline
 90
3
 70
0
 10
1.021107
 20
76.010803
 30
0.0
 10
1.229661
 20
76.241902
 30
0.0
 10
1.021107
 20
76.472974
 30
0.0
  0
LWPOLYLINE
  5
239
100
AcDbEntity
  8
Layer_1
 62
7
100
AcDbPolyline
 90
3
 70
0
 10
1.022124
 20
76.134094
 30
0.0
 10
1.119407
 20
76.241893
 30
0.0
 10
1.022124
 20
76.349680
 30
0.0
  0
LWPOLYLINE
  5
23a
100
AcDbEntity
  8
Layer_1
 62
7
100
AcDbPolyline
 90
4
 70
1
 10
1.037473
 20
76.241374
 30
0.0
 10
1.023437
 20
76.256927
 30
0.0
 10
1.009644
 20
76.241374
 30
0.0
 10
1.023437
 20
76.225820
 30
0.0
  0
LWPOLYLINE
  5
23b
100
AcDbEntity
  8
Layer_1
 62
7
100
AcDbPolyline
 90
3
 70
0
 10
1.018286
 20
70.077310
 30
0.0
 10
1.903069
 20
71.057744
 30
0.0
 10
1.018286
 20
72.038061
 30
0.0
  0
LWPOLYLINE
  5
23c
100
AcDbEntity
  8
Layer_1
 62
7
100
AcDbPolyline
 90
3
 70
0
 10
1.019264
 20
70.200655
 30
0.0
 10
1.792730
 20
71.057737
 30
0.0
 10
1.019264
 20
71.914716
 30
0.0
  0
LWPOLYLINE
  5
23d
100
AcDbEntity
  8
Layer_1
 62
7
100
AcDbPolyline
 90
3
 70
0
 10
1.020260
 20
70.326075
 30
0.0
 10
1.680534
 20
71.057729
 30
0.0
 10
1.020260
 20
71.789294
 30
0.0
  0
LWPOLYLINE
  5
23e
100
AcDbEntity
  8
Layer_1
 62
7
100
AcDbPolyline
 90
3
 70
0
 10
1.021243
 20
70.449878
 30
0.0
 10
1.569786
 20
71.057722
 30
0.0
 10
1.021243
 20
71.665491
 30
0.0
  0
LWPOLYLINE
  5
23f
100
AcDbEntity
  8
Layer_1
 62
7
100
AcDbPolyline
 90
3
 70
0
 10
1.022240
 20
70.575461
 30
0.0
 10
1.457445
 20
71.057713
 30
0.0
 10
1.022240
 20
71.539908
 30
0.0
  0
LWPOLYLINE
  5
240
100
AcDbEntity
  8
Layer_1
 62
7
100
AcDbPolyline
 90
3
 70
0
 10
1.023238
 20
70.700033
 30
0.0
 10
1.346016
 20
71.057705
 30
0.0
 10
1.023238
 20
71.415334
 30
0.0
  0
LWPOLYLINE
  5
241
100
AcDbEntity
  8
Layer_1
 62
7
100
AcDbPolyline
 90
3
 70
0
 10
1.024263
 20
70.826597
 30
0.0
 10
1.232817
 20
71.057697
 30
0.0
 10
1.024263
 20
71.288769
 30
0.0
  0
LWPOLYLINE
  5
242
100
AcDbEntity
  8
Layer_1
 62
7
100
AcDbPolyline
 90
3
 70
0
 10
1.025280
 20
70.949888
 30
0.0
 10
1.122563
 20
71.057688
 30
0.0
 10
1.025280
 20
71.165475
 30
0.0
  0
LWPOLYLINE
  5
243
100
AcDbEntity
  8
Layer_1
 62
7
100
AcDbPolyline
 90
4
 70
1
 10
1.040629
 20
71.057168
 30
0.0
 10
1.026593
 20
71.072721
 30
0.0
 10
1.012800
 20
71.057168
 30
0.0
 10
1.026593
 20
71.041613
 30
0.0
  0
LWPOLYLINE
  5
244
100
AcDbEntity
  8
Layer_1
 62
7
100
AcDbPolyline
 90
3
 70
0
 10
1.026974
 20
67.457286
 30
0.0
 10
1.911758
 20
68.437720
 30
0.0
 10
1.026974
 20
69.418037
 30
0.0
  0
LWPOLYLINE
  5
245
100
AcDbEntity
  8
Layer_1
 62
7
100
AcDbPolyline
 90
3
 70
0
 10
1.027953
 20
67.580631
 30
0.0
 10
1.801419
 20
68.437713
 30
0.0
 10
1.027953
 20
69.294691
 30
0.0
  0
LWPOLYLINE
  5
246
100
AcDbEntity
  8
Layer_1
 62
7
100
AcDbPolyline
 90
3
 70
0
 10
1.028948
 20
67.706050
 30
0.0
 10
1.689223
 20
68.437704
 30
0.0
 10
1.028948
 20
69.169270
 30
0.0
  0
LWPOLYLINE
  5
247
100
AcDbEntity
  8
Layer_1
 62
7
100
AcDbPolyline
 90
3
 70
0
 10
1.029932
 20
67.829854
 30
0.0
 10
1.578474
 20
68.437698
 30
0.0
 10
1.029932
 20
69.045467
 30
0.0
  0
LWPOLYLINE
  5
248
100
AcDbEntity
  8
Layer_1
 62
7
100
AcDbPolyline
 90
3
 70
0
 10
1.030928
 20
67.955436
 30
0.0
 10
1.466133
 20
68.437689
 30
0.0
 10
1.030928
 20
68.919884
 30
0.0
  0
LWPOLYLINE
  5
249
100
AcDbEntity
  8
Layer_1
 62
7
100
AcDbPolyline
 90
3
 70
0
 10
1.031926
 20
68.080009
 30
0.0
 10
1.354704
 20
68.437681
 30
0.0
 10
1.031926
 20
68.795310
 30
0.0
  0
LWPOLYLINE
  5
24a
100
AcDbEntity
  8
Layer_1
 62
7
100
AcDbPolyline
 90
3
 70
0
 10
1.032951
 20
68.206573
 30
0.0
 10
1.241505
 20
68.437672
 30
0.0
 10
1.032951
 20
68.668744
 30
0.0
  0
LWPOLYLINE
  5
24b
100
AcDbEntity
  8
Layer_1
 62
7
100
AcDbPolyline
 90
3
 70
0
 10
1.033968
 20
68.329863
 30
0.0
 10
1.131251
 20
68.437664
 30
0.0
 10
1.033968
 20
68.545450
 30
0.0
  0
LWPOLYLINE
  5
24c
100
AcDbEntity
  8
Layer_1
 62
7
100
AcDbPolyline
 90
4
 70
1
 10
1.049317
 20
68.437144
 30
0.0
 10
1.035281
 20
68.452696
 30
0.0
 10
1.021489
 20
68.437144
 30
0.0
 10
1.035281
 20
68.421589
 30
0.0
  0
LWPOLYLINE
  5
24d
100
AcDbEntity
  8
Layer_1
 62
7
100
AcDbPolyline
 90
4
 70
1
 10
1.328082
 20
74.926083
 30
0.0
 10
2.212866
 20
75.906399
 30
0.0
 10
3.082303
 20
74.926083
 30
0.0
 10
2.212866
 20
73.945649
 30
0.0
  0
LWPOLYLINE
  5
24e
100
AcDbEntity
  8
Layer_1
 62
7
100
AcDbPolyline
 90
4
 70
1
 10
1.438422
 20
74.926075
 30
0.0
 10
2.211887
 20
75.783054
 30
0.0
 10
2.971937
 20
74.926075
 30
0.0
 10
2.211887
 20
74.068994
 30
0.0
  0
LWPOLYLINE
  5
24f
100
AcDbEntity
  8
Layer_1
 62
7
100
AcDbPolyline
 90
4
 70
1
 10
1.550618
 20
74.926067
 30
0.0
 10
2.210891
 20
75.657633
 30
0.0
 10
2.859714
 20
74.926067
 30
0.0
 10
2.210891
 20
74.194413
 30
0.0
  0
LWPOLYLINE
  5
250
100
AcDbEntity
  8
Layer_1
 62
7
100
AcDbPolyline
 90
4
 70
1
 10
1.661366
 20
74.926060
 30
0.0
 10
2.209908
 20
75.533829
 30
0.0
 10
2.748937
 20
74.926060
 30
0.0
 10
2.209908
 20
74.318216
 30
0.0
  0
LWPOLYLINE
  5
251
100
AcDbEntity
  8
Layer_1
 62
7
100
AcDbPolyline
 90
4
 70
1
 10
1.773707
 20
74.926051
 30
0.0
 10
2.208912
 20
75.408247
 30
0.0
 10
2.636568
 20
74.926051
 30
0.0
 10
2.208912
 20
74.443799
 30
0.0
  0
LWPOLYLINE
  5
252
100
AcDbEntity
  8
Layer_1
 62
7
100
AcDbPolyline
 90
4
 70
1
 10
1.885136
 20
74.926043
 30
0.0
 10
2.207914
 20
75.283672
 30
0.0
 10
2.525093
 20
74.926043
 30
0.0
 10
2.207914
 20
74.568372
 30
0.0
  0
LWPOLYLINE
  5
253
100
AcDbEntity
  8
Layer_1
 62
7
100
AcDbPolyline
 90
4
 70
1
 10
1.998334
 20
74.926035
 30
0.0
 10
2.206889
 20
75.157107
 30
0.0
 10
2.411825
 20
74.926035
 30
0.0
 10
2.206889
 20
74.694935
 30
0.0
  0
LWPOLYLINE
  5
254
100
AcDbEntity
  8
Layer_1
 62
7
100
AcDbPolyline
 90
4
 70
1
 10
2.108589
 20
74.926026
 30
0.0
 10
2.205871
 20
75.033813
 30
0.0
 10
2.301467
 20
74.926026
 30
0.0
 10
2.205871
 20
74.818226
 30
0.0
  0
LWPOLYLINE
  5
255
100
AcDbEntity
  8
Layer_1
 62
7
100
AcDbPolyline
 90
4
 70
1
 10
2.190523
 20
74.925507
 30
0.0
 10
2.204559
 20
74.941059
 30
0.0
 10
2.218352
 20
74.925507
 30
0.0
 10
2.204559
 20
74.909952
 30
0.0
  0
LWPOLYLINE
  5
256
100
AcDbEntity
  8
Layer_1
 62
7
100
AcDbPolyline
 90
4
 70
1
 10
1.329176
 20
72.312334
 30
0.0
 10
2.213960
 20
73.292650
 30
0.0
 10
3.083397
 20
72.312334
 30
0.0
 10
2.213960
 20
71.331900
 30
0.0
  0
LWPOLYLINE
  5
257
100
AcDbEntity
  8
Layer_1
 62
7
100
AcDbPolyline
 90
4
 70
1
 10
1.439516
 20
72.312326
 30
0.0
 10
2.212981
 20
73.169305
 30
0.0
 10
2.973032
 20
72.312326
 30
0.0
 10
2.212981
 20
71.455245
 30
0.0
  0
LWPOLYLINE
  5
258
100
AcDbEntity
  8
Layer_1
 62
7
100
AcDbPolyline
 90
4
 70
1
 10
1.551711
 20
72.312318
 30
0.0
 10
2.211985
 20
73.043884
 30
0.0
 10
2.860808
 20
72.312318
 30
0.0
 10
2.211985
 20
71.580664
 30
0.0
  0
LWPOLYLINE
  5
259
100
AcDbEntity
  8
Layer_1
 62
7
100
AcDbPolyline
 90
4
 70
1
 10
1.662460
 20
72.312310
 30
0.0
 10
2.211002
 20
72.920081
 30
0.0
 10
2.750031
 20
72.312310
 30
0.0
 10
2.211002
 20
71.704467
 30
0.0
  0
LWPOLYLINE
  5
25a
100
AcDbEntity
  8
Layer_1
 62
7
100
AcDbPolyline
 90
4
 70
1
 10
1.774801
 20
72.312303
 30
0.0
 10
2.210006
 20
72.794498
 30
0.0
 10
2.637662
 20
72.312303
 30
0.0
 10
2.210006
 20
71.830050
 30
0.0
  0
LWPOLYLINE
  5
25b
100
AcDbEntity
  8
Layer_1
 62
7
100
AcDbPolyline
 90
4
 70
1
 10
1.886230
 20
72.312294
 30
0.0
 10
2.209008
 20
72.669923
 30
0.0
 10
2.526186
 20
72.312294
 30
0.0
 10
2.209008
 20
71.954623
 30
0.0
  0
LWPOLYLINE
  5
25c
100
AcDbEntity
  8
Layer_1
 62
7
100
AcDbPolyline
 90
4
 70
1
 10
1.999428
 20
72.312286
 30
0.0
 10
2.207982
 20
72.543358
 30
0.0
 10
2.412918
 20
72.312286
 30
0.0
 10
2.207982
 20
72.081186
 30
0.0
  0
LWPOLYLINE
  5
25d
100
AcDbEntity
  8
Layer_1
 62
7
100
AcDbPolyline
 90
4
 70
1
 10
2.109682
 20
72.312277
 30
0.0
 10
2.206965
 20
72.420064
 30
0.0
 10
2.302560
 20
72.312277
 30
0.0
 10
2.206965
 20
72.204477
 30
0.0
  0
LWPOLYLINE
  5
25e
100
AcDbEntity
  8
Layer_1
 62
7
100
AcDbPolyline
 90
4
 70
1
 10
2.191617
 20
72.311758
 30
0.0
 10
2.205653
 20
72.327310
 30
0.0
 10
2.219445
 20
72.311758
 30
0.0
 10
2.205653
 20
72.296203
 30
0.0
  0
LWPOLYLINE
  5
25f
100
AcDbEntity
  8
Layer_1
 62
7
100
AcDbPolyline
 90
4
 70
1
 10
1.318019
 20
69.722192
 30
0.0
 10
2.202802
 20
70.702509
 30
0.0
 10
3.072239
 20
69.722192
 30
0.0
 10
2.202802
 20
68.741758
 30
0.0
  0
LWPOLYLINE
  5
260
100
AcDbEntity
  8
Layer_1
 62
7
100
AcDbPolyline
 90
4
 70
1
 10
1.428358
 20
69.722185
 30
0.0
 10
2.201824
 20
70.579163
 30
0.0
 10
2.961874
 20
69.722185
 30
0.0
 10
2.201824
 20
68.865103
 30
0.0
  0
LWPOLYLINE
  5
261
100
AcDbEntity
  8
Layer_1
 62
7
100
AcDbPolyline
 90
4
 70
1
 10
1.540554
 20
69.722176
 30
0.0
 10
2.200827
 20
70.453743
 30
0.0
 10
2.849650
 20
69.722176
 30
0.0
 10
2.200827
 20
68.990522
 30
0.0
  0
LWPOLYLINE
  5
262
100
AcDbEntity
  8
Layer_1
 62
7
100
AcDbPolyline
 90
4
 70
1
 10
1.651302
 20
69.722168
 30
0.0
 10
2.199845
 20
70.329939
 30
0.0
 10
2.738874
 20
69.722168
 30
0.0
 10
2.199845
 20
69.114326
 30
0.0
  0
LWPOLYLINE
  5
263
100
AcDbEntity
  8
Layer_1
 62
7
100
AcDbPolyline
 90
4
 70
1
 10
1.763644
 20
69.722161
 30
0.0
 10
2.198849
 20
70.204356
 30
0.0
 10
2.626504
 20
69.722161
 30
0.0
 10
2.198849
 20
69.239908
 30
0.0
  0
LWPOLYLINE
  5
264
100
AcDbEntity
  8
Layer_1
 62
7
100
AcDbPolyline
 90
4
 70
1
 10
1.875072
 20
69.722153
 30
0.0
 10
2.197850
 20
70.079781
 30
0.0
 10
2.515028
 20
69.722153
 30
0.0
 10
2.197850
 20
69.364481
 30
0.0
  0
LWPOLYLINE
  5
265
100
AcDbEntity
  8
Layer_1
 62
7
100
AcDbPolyline
 90
4
 70
1
 10
1.988271
 20
69.722144
 30
0.0
 10
2.196825
 20
69.953216
 30
0.0
 10
2.401761
 20
69.722144
 30
0.0
 10
2.196825
 20
69.491044
 30
0.0
  0
LWPOLYLINE
  5
266
100
AcDbEntity
  8
Layer_1
 62
7
100
AcDbPolyline
 90
4
 70
1
 10
2.098524
 20
69.722135
 30
0.0
 10
2.195808
 20
69.829922
 30
0.0
 10
2.291403
 20
69.722135
 30
0.0
 10
2.195808
 20
69.614335
 30
0.0
  0
LWPOLYLINE
  5
267
100
AcDbEntity
  8
Layer_1
 62
7
100
AcDbPolyline
 90
4
 70
1
 10
2.180459
 20
69.721616
 30
0.0
 10
2.194495
 20
69.737168
 30
0.0
 10
2.208288
 20
69.721616
 30
0.0
 10
2.194495
 20
69.706061
 30
0.0
  0
ENDSEC
  0
SECTION
  2
OBJECTS
  0
DICTIONARY
  5
C
330
0
100
AcDbDictionary
  3
ACAD_GROUP
350
D
  3
ACAD_MLINESTYLE
350
17
  0
DICTIONARY
  5
D
330
C
100
AcDbDictionary
  0
DICTIONARY
  5
1A
330
C
100
AcDbDictionary
  0
DICTIONARY
  5
17
330
C
100
AcDbDictionary
  3
STANDARD
350
18
  0
DICTIONARY
  5
19
330
C
100
AcDbDictionary
  0
ENDSEC
  0
EOF
