  0
SECTION
  2
HEADER
  9
$ACADVER
  1
AC1014
  9
$HANDSEED
  5
FFFF
  9
$MEASUREMENT
 70
     1
  0
ENDSEC
  0
SECTION
  2
TABLES
  0
TABLE
  2
VPORT
  5
8
330
0
100
AcDbSymbolTable
 70
     4
  0
VPORT
  5
2E
330
8
100
AcDbSymbolTableRecord
100
AcDbViewportTableRecord
  2
*ACTIVE
 70
     0
 10
0.0
 20
0.0
 11
1.0
 21
1.0
 12
210.0
 22
148.5
 13
0.0
 23
0.0
 14
10.0
 24
10.0
 15
10.0
 25
10.0
 16
0.0
 26
0.0
 36
1.0
 17
0.0
 27
0.0
 37
0.0
 40
341.0
 41
1.24
 42
50.0
 43
0.0
 44
0.0
 50
0.0
 51
0.0
 71
     0
 72
   100
 73
     1
 74
     3
 75
     0
 76
     0
 77
     0
 78
     0
  0
ENDTAB
  0
TABLE
  2
LTYPE
  5
5
330
0
100
AcDbSymbolTable
 70
     1
  0
LTYPE
  5
14
330
5
100
AcDbSymbolTableRecord
100
AcDbLinetypeTableRecord
  2
BYBLOCK
 70
     0
  3

 72
    65
 73
     0
 40
0.0
  0
LTYPE
  5
15
330
5
100
AcDbSymbolTableRecord
100
AcDbLinetypeTableRecord
  2
BYLAYER
 70
     0
  3

 72
    65
 73
     0
 40
0.0
  0
LTYPE
  5
16
330
5
100
AcDbSymbolTableRecord
100
AcDbLinetypeTableRecord
  2
CONTINUOUS
 70
     0
  3
Solid line
 72
    65
 73
     0
 40
0.0
  0
ENDTAB
  0
TABLE
  2
LAYER
  5
2
100
AcDbSymbolTable
 70
2
  0
LAYER
  5
50
100
AcDbSymbolTableRecord
100
AcDbLayerTableRecord
  2
0
 70
0
  6
CONTINUOUS
  0
LAYER
  5
51
100
AcDbSymbolTableRecord
100
AcDbLayerTableRecord
  2
Layer_1
 70
0
  6
CONTINUOUS
  0
ENDTAB
  0
TABLE
  2
STYLE
  5
3
330
0
100
AcDbSymbolTable
 70
     1
  0
STYLE
  5
11
330
3
100
AcDbSymbolTableRecord
100
AcDbTextStyleTableRecord
  2
STANDARD
 70
     0
 40
0.0
 41
1.0
 50
0.0
 71
     0
 42
2.5
  3
txt
  4

  0
ENDTAB
  0
TABLE
  2
VIEW
  5
6
330
0
100
AcDbSymbolTable
 70
     0
  0
ENDTAB
  0
TABLE
  2
UCS
  5
7
330
0
100
AcDbSymbolTable
 70
     0
  0
ENDTAB
  0
TABLE
  2
APPID
  5
9
330
0
100
AcDbSymbolTable
 70
     2
  0
APPID
  5
12
330
9
100
AcDbSymbolTableRecord
100
AcDbRegAppTableRecord
  2
ACAD
 70
     0
  0
ENDTAB
  0
TABLE
  2
DIMSTYLE
  5
A
330
0
100
AcDbSymbolTable
 70
     1
  0
DIMSTYLE
105
27
330
A
100
AcDbSymbolTableRecord
100
AcDbDimStyleTableRecord
  2
ISO-25
 70
     0
  3

  4

  5

  6

  7

 40
1.0
 41
2.5
 42
0.625
 43
3.75
 44
1.25
 45
0.0
 46
0.0
 47
0.0
 48
0.0
140
2.5
141
2.5
142
0.0
143
0.03937007874016
144
1.0
145
0.0
146
1.0
147
0.625
 71
     0
 72
     0
 73
     0
 74
     0
 75
     0
 76
     0
 77
     1
 78
     8
170
     0
171
     3
172
     1
173
     0
174
     0
175
     0
176
     0
177
     0
178
     0
270
     2
271
     2
272
     2
273
     2
274
     3
340
11
275
     0
280
     0
281
     0
282
     0
283
     0
284
     8
285
     0
286
     0
287
     3
288
     0
  0
ENDTAB
  0
TABLE
  2
BLOCK_RECORD
  5
1
330
0
100
AcDbSymbolTable
 70
     1
  0
BLOCK_RECORD
  5
1F
330
1
100
AcDbSymbolTableRecord
100
AcDbBlockTableRecord
  2
*MODEL_SPACE
  0
BLOCK_RECORD
  5
1B
330
1
100
AcDbSymbolTableRecord
100
AcDbBlockTableRecord
  2
*PAPER_SPACE
  0
ENDTAB
  0
ENDSEC
  0
SECTION
  2
BLOCKS
  0
BLOCK
  5
20
330
1F
100
AcDbEntity
  8
0
100
AcDbBlockBegin
  2
*MODEL_SPACE
 70
     0
 10
0.0
 20
0.0
 30
0.0
  3
*MODEL_SPACE
  1

  0
ENDBLK
  5
21
330
1F
100
AcDbEntity
  8
0
100
AcDbBlockEnd
  0
BLOCK
  5
1C
330
1B
100
AcDbEntity
 67
     1
  8
0
100
AcDbBlockBegin
  2
*PAPER_SPACE
  1

  0
ENDBLK
  5
1D
330
1B
100
AcDbEntity
 67
     1
  8
0
100
AcDbBlockEnd
  0
ENDSEC
  0
SECTION
  2
ENTITIES
  0
LWPOLYLINE
  5
100
100
AcDbEntity
  8
Layer_1
 62
7
100
AcDbPolyline
 90
4
 70
1
 10
17.401040
 20
77.604783
 30
0.0
 10
17.401040
 20
32.601974
 30
0.0
 10
30.401884
 20
32.601974
 30
0.0
 10
30.401884
 20
77.604783
 30
0.0
  0
LWPOLYLINE
  5
101
100
AcDbEntity
  8
Layer_1
 62
7
100
AcDbPolyline
 90
11
 70
1
 10
22.006560
 20
77.334063
 30
0.0
 10
29.466535
 20
77.334063
 30
0.0
 10
29.466535
 20
39.252660
 30
0.0
 10
23.686664
 20
33.472789
 30
0.0
 10
21.071619
 20
33.472789
 30
0.0
 10
20.203948
 20
34.340461
 30
0.0
 10
19.565432
 20
34.340461
 30
0.0
 10
17.736295
 20
35.396540
 30
0.0
 10
17.736295
 20
35.886573
 30
0.0
 10
19.823163
 20
37.050395
 30
0.0
 10
19.823163
 20
45.591881
 30
0.0
  0
LWPOLYLINE
  5
102
100
AcDbEntity
  8
Layer_1
 62
7
100
AcDbPolyline
 90
120
 70
1
 10
22.690879
 20
77.285525
 30
0.0
 10
22.690879
 20
76.222471
 30
0.0
 10
22.691964
 20
76.220420
 30
0.0
 10
22.691964
 20
75.883388
 30
0.0
 10
22.690879
 20
75.881324
 30
0.0
 10
22.690879
 20
73.757266
 30
0.0
 10
22.691964
 20
73.755203
 30
0.0
 10
22.691964
 20
73.422819
 30
0.0
 10
22.690879
 20
73.420755
 30
0.0
 10
22.690879
 20
71.296835
 30
0.0
 10
22.691964
 20
71.294771
 30
0.0
 10
22.691964
 20
70.962113
 30
0.0
 10
22.690879
 20
70.960076
 30
0.0
 10
22.690879
 20
68.836018
 30
0.0
 10
22.691964
 20
68.833954
 30
0.0
 10
22.691964
 20
68.501433
 30
0.0
 10
22.690879
 20
68.499396
 30
0.0
 10
22.690879
 20
66.375338
 30
0.0
 10
22.691964
 20
66.373275
 30
0.0
 10
22.691964
 20
66.040891
 30
0.0
 10
22.690879
 20
66.038827
 30
0.0
 10
22.690879
 20
63.914769
 30
0.0
 10
22.691964
 20
63.912706
 30
0.0
 10
22.691964
 20
63.580185
 30
0.0
 10
22.690879
 20
63.577989
 30
0.0
 10
22.690879
 20
61.453932
 30
0.0
 10
22.691964
 20
61.451868
 30
0.0
 10
22.691964
 20
61.119484
 30
0.0
 10
22.690879
 20
61.117447
 30
0.0
 10
22.690879
 20
58.993389
 30
0.0
 10
22.691964
 20
58.991325
 30
0.0
 10
22.691964
 20
58.658804
 30
0.0
 10
22.690879
 20
58.656741
 30
0.0
 10
22.690879
 20
56.532683
 30
0.0
 10
22.691964
 20
56.530619
 30
0.0
 10
22.691964
 20
56.198509
 30
0.0
 10
22.690879
 20
56.196445
 30
0.0
 10
22.690879
 20
54.072388
 30
0.0
 10
22.691964
 20
54.070324
 30
0.0
 10
22.691964
 20
53.737667
 30
0.0
 10
22.690879
 20
53.735603
 30
0.0
 10
22.690879
 20
51.611546
 30
0.0
 10
22.691964
 20
51.609429
 30
0.0
 10
22.691964
 20
51.279645
 30
0.0
 10
22.690879
 20
51.277528
 30
0.0
 10
22.690879
 20
49.153471
 30
0.0
 10
22.691964
 20
49.151355
 30
0.0
 10
22.691964
 20
48.816374
 30
0.0
 10
22.690879
 20
48.814257
 30
0.0
 10
22.690879
 20
46.690198
 30
0.0
 10
22.691964
 20
46.688081
 30
0.0
 10
22.691964
 20
46.355558
 30
0.0
 10
22.690879
 20
46.353442
 30
0.0
 10
22.690879
 20
44.229382
 30
0.0
 10
22.691964
 20
44.227266
 30
0.0
 10
22.691964
 20
43.894883
 30
0.0
 10
22.690879
 20
43.892766
 30
0.0
 10
22.690879
 20
41.768707
 30
0.0
 10
22.691964
 20
41.766591
 30
0.0
 10
22.691964
 20
39.392595
 30
0.0
 10
22.691964
 20
39.391802
 30
0.0
 10
22.692652
 20
39.391802
 30
0.0
 10
22.979232
 20
39.105221
 30
0.0
 10
22.979232
 20
34.833317
 30
0.0
 10
22.713571
 20
34.567791
 30
0.0
 10
21.920690
 20
34.567791
 30
0.0
 10
21.656807
 20
34.831811
 30
0.0
 10
21.656807
 20
34.950355
 30
0.0
 10
21.577368
 20
34.950355
 30
0.0
 10
21.577368
 20
34.798863
 30
0.0
 10
21.887739
 20
34.488490
 30
0.0
 10
22.748710
 20
34.488490
 30
0.0
 10
22.748710
 20
34.490607
 30
0.0
 10
23.058534
 20
34.800432
 30
0.0
 10
23.058534
 20
39.138357
 30
0.0
 10
22.765938
 20
39.430952
 30
0.0
 10
22.765938
 20
41.752033
 30
0.0
 10
23.343337
 20
42.830811
 30
0.0
 10
22.765938
 20
43.909451
 30
0.0
 10
22.765938
 20
44.212576
 30
0.0
 10
23.343337
 20
45.291354
 30
0.0
 10
22.765938
 20
46.369997
 30
0.0
 10
22.765938
 20
46.673257
 30
0.0
 10
23.343337
 20
47.752034
 30
0.0
 10
22.765938
 20
48.830675
 30
0.0
 10
22.765938
 20
49.136398
 30
0.0
 10
23.343337
 20
50.215176
 30
0.0
 10
22.765938
 20
51.293816
 30
0.0
 10
22.765938
 20
51.594343
 30
0.0
 10
23.343337
 20
52.673120
 30
0.0
 10
22.765938
 20
53.751762
 30
0.0
 10
22.765938
 20
54.055159
 30
0.0
 10
23.343337
 20
55.133937
 30
0.0
 10
22.765938
 20
56.212578
 30
0.0
 10
22.765938
 20
56.515703
 30
0.0
 10
23.343337
 20
57.594481
 30
0.0
 10
22.765938
 20
58.673122
 30
0.0
 10
22.765938
 20
58.976383
 30
0.0
 10
23.343337
 20
60.055160
 30
0.0
 10
22.765938
 20
61.133801
 30
0.0
 10
22.765938
 20
61.437062
 30
0.0
 10
23.343337
 20
62.515840
 30
0.0
 10
22.765938
 20
63.594481
 30
0.0
 10
22.765938
 20
63.897742
 30
0.0
 10
23.343337
 20
64.976520
 30
0.0
 10
22.765938
 20
66.055161
 30
0.0
 10
22.765938
 20
66.358286
 30
0.0
 10
23.343337
 20
67.437063
 30
0.0
 10
22.765938
 20
68.515704
 30
0.0
 10
22.765938
 20
68.818965
 30
0.0
 10
23.343342
 20
69.897743
 30
0.0
 10
22.765943
 20
70.976384
 30
0.0
 10
22.765943
 20
71.279645
 30
0.0
 10
23.343342
 20
72.358423
 30
0.0
 10
22.765943
 20
73.437064
 30
0.0
 10
22.765943
 20
73.740188
 30
0.0
 10
23.343342
 20
74.818966
 30
0.0
 10
22.765943
 20
75.897607
 30
0.0
 10
22.765943
 20
76.216182
 30
0.0
 10
23.338283
 20
77.285525
 30
0.0
  0
SPLINE
  5
103
100
AcDbEntity
  8
Layer_1
 62
7
100
AcDbSpline
 70
8
 71
3
 72
8
 73
4
 74
0
 40
0
 40
0
 40
0
 40
0
 40
1
 40
1
 40
1
 40
1
 10
24.007143
 20
39.430542
 30
0.0
 10
23.711947
 20
39.135349
 30
0.0
 10
23.416648
 20
38.840264
 30
0.0
 10
23.121561
 20
38.544960
 30
0.0
  0
LWPOLYLINE
  5
104
100
AcDbEntity
  8
Layer_1
 62
7
100
AcDbPolyline
 90
46
 70
0
 10
23.432078
 20
77.285525
 30
0.0
 10
23.431522
 20
77.284843
 30
0.0
 10
24.007143
 20
76.209346
 30
0.0
 10
24.007143
 20
75.885166
 30
0.0
 10
23.434256
 20
74.814728
 30
0.0
 10
24.007143
 20
73.744291
 30
0.0
 10
24.007143
 20
73.424623
 30
0.0
 10
23.434256
 20
72.354185
 30
0.0
 10
24.007143
 20
71.283748
 30
0.0
 10
24.007143
 20
70.963943
 30
0.0
 10
23.434256
 20
69.893506
 30
0.0
 10
24.007143
 20
68.823068
 30
0.0
 10
24.007143
 20
68.503263
 30
0.0
 10
23.434256
 20
67.432826
 30
0.0
 10
24.007143
 20
66.362388
 30
0.0
 10
24.007143
 20
66.042720
 30
0.0
 10
23.434256
 20
64.972282
 30
0.0
 10
24.007143
 20
63.901845
 30
0.0
 10
24.007143
 20
63.582040
 30
0.0
 10
23.434256
 20
62.511603
 30
0.0
 10
24.007143
 20
61.441165
 30
0.0
 10
24.007143
 20
61.121497
 30
0.0
 10
23.434256
 20
60.051059
 30
0.0
 10
24.007143
 20
58.980622
 30
0.0
 10
24.007143
 20
58.660817
 30
0.0
 10
23.434256
 20
57.590379
 30
0.0
 10
24.007143
 20
56.519942
 30
0.0
 10
24.007143
 20
56.200137
 30
0.0
 10
23.434256
 20
55.129700
 30
0.0
 10
24.007143
 20
54.059263
 30
0.0
 10
24.007143
 20
53.739320
 30
0.0
 10
23.434256
 20
52.668883
 30
0.0
 10
24.007143
 20
51.598444
 30
0.0
 10
24.007143
 20
51.280145
 30
0.0
 10
23.434256
 20
50.209707
 30
0.0
 10
24.007143
 20
49.139269
 30
0.0
 10
24.007143
 20
48.818234
 30
0.0
 10
23.434256
 20
47.747796
 30
0.0
 10
24.007143
 20
46.677358
 30
0.0
 10
24.007143
 20
46.357691
 30
0.0
 10
23.434256
 20
45.287253
 30
0.0
 10
24.007143
 20
44.216815
 30
0.0
 10
24.007143
 20
43.897010
 30
0.0
 10
23.434256
 20
42.826572
 30
0.0
 10
24.007143
 20
41.756134
 30
0.0
 10
24.007143
 20
39.430542
 30
0.0
  0
SPLINE
  5
105
100
AcDbEntity
  8
Layer_1
 62
7
100
AcDbSpline
 70
8
 71
3
 72
8
 73
4
 74
0
 40
0
 40
0
 40
0
 40
0
 40
1
 40
1
 40
1
 40
1
 10
23.121561
 20
34.765956
 30
0.0
 10
23.006867
 20
34.651318
 30
0.0
 10
22.892214
 20
34.536854
 30
0.0
 10
22.778239
 20
34.422223
 30
0.0
  0
LWPOLYLINE
  5
106
100
AcDbEntity
  8
Layer_1
 62
7
100
AcDbPolyline
 90
2
 70
0
 10
23.121561
 20
38.544960
 30
0.0
 10
23.121561
 20
34.765956
 30
0.0
  0
SPLINE
  5
107
100
AcDbEntity
  8
Layer_1
 62
7
100
AcDbSpline
 70
8
 71
3
 72
8
 73
4
 74
0
 40
0
 40
0
 40
0
 40
0
 40
1
 40
1
 40
1
 40
1
 10
21.801460
 20
34.422223
 30
0.0
 10
21.664935
 20
34.558748
 30
0.0
 10
21.529186
 20
34.695360
 30
0.0
 10
21.392235
 20
34.831994
 30
0.0
  0
LWPOLYLINE
  5
108
100
AcDbEntity
  8
Layer_1
 62
7
100
AcDbPolyline
 90
2
 70
0
 10
22.778239
 20
34.422223
 30
0.0
 10
21.801460
 20
34.422223
 30
0.0
  0
SPLINE
  5
109
100
AcDbEntity
  8
Layer_1
 62
7
100
AcDbSpline
 70
8
 71
3
 72
8
 73
4
 74
0
 40
0
 40
0
 40
0
 40
0
 40
1
 40
1
 40
1
 40
1
 10
21.312797
 20
34.799045
 30
0.0
 10
21.464871
 20
34.646971
 30
0.0
 10
21.616028
 20
34.494790
 30
0.0
 10
21.768645
 20
34.342784
 30
0.0
  0
LWPOLYLINE
  5
10a
100
AcDbEntity
  8
Layer_1
 62
7
100
AcDbPolyline
 90
4
 70
0
 10
21.392235
 20
34.831994
 30
0.0
 10
21.392235
 20
34.950538
 30
0.0
 10
21.312797
 20
34.950538
 30
0.0
 10
21.312797
 20
34.799045
 30
0.0
  0
SPLINE
  5
10b
100
AcDbEntity
  8
Layer_1
 62
7
100
AcDbSpline
 70
8
 71
3
 72
8
 73
4
 74
0
 40
0
 40
0
 40
0
 40
0
 40
1
 40
1
 40
1
 40
1
 10
22.811054
 20
34.342784
 30
0.0
 10
22.926740
 20
34.458402
 30
0.0
 10
23.068413
 20
34.600203
 30
0.0
 10
23.200863
 20
34.733005
 30
0.0
  0
LWPOLYLINE
  5
10c
100
AcDbEntity
  8
Layer_1
 62
7
100
AcDbPolyline
 90
2
 70
0
 10
21.768645
 20
34.342784
 30
0.0
 10
22.811054
 20
34.342784
 30
0.0
  0
SPLINE
  5
10d
100
AcDbEntity
  8
Layer_1
 62
7
100
AcDbSpline
 70
8
 71
3
 72
8
 73
4
 74
0
 40
0
 40
0
 40
0
 40
0
 40
1
 40
1
 40
1
 40
1
 10
23.200863
 20
38.512009
 30
0.0
 10
23.494368
 20
38.805517
 30
0.0
 10
23.787932
 20
39.098974
 30
0.0
 10
24.081250
 20
39.392669
 30
0.0
  0
LWPOLYLINE
  5
10e
100
AcDbEntity
  8
Layer_1
 62
7
100
AcDbPolyline
 90
2
 70
0
 10
23.200863
 20
34.733005
 30
0.0
 10
23.200863
 20
38.512009
 30
0.0
  0
LWPOLYLINE
  5
10f
100
AcDbEntity
  8
Layer_1
 62
7
100
AcDbPolyline
 90
48
 70
0
 10
24.081250
 20
39.392669
 30
0.0
 10
24.081250
 20
39.392804
 30
0.0
 10
24.081250
 20
41.754631
 30
0.0
 10
24.654957
 20
42.826572
 30
0.0
 10
24.081250
 20
43.898513
 30
0.0
 10
24.081250
 20
44.215312
 30
0.0
 10
24.654957
 20
45.287253
 30
0.0
 10
24.081250
 20
46.359194
 30
0.0
 10
24.081250
 20
46.675855
 30
0.0
 10
24.654957
 20
47.747796
 30
0.0
 10
24.081250
 20
48.819737
 30
0.0
 10
24.081250
 20
49.137766
 30
0.0
 10
24.654957
 20
50.209707
 30
0.0
 10
24.081250
 20
51.281647
 30
0.0
 10
24.081250
 20
51.596941
 30
0.0
 10
24.654957
 20
52.668882
 30
0.0
 10
24.081250
 20
53.740824
 30
0.0
 10
24.081250
 20
54.057757
 30
0.0
 10
24.654957
 20
55.129699
 30
0.0
 10
24.081250
 20
56.201640
 30
0.0
 10
24.081250
 20
56.518437
 30
0.0
 10
24.654957
 20
57.590378
 30
0.0
 10
24.081250
 20
58.662320
 30
0.0
 10
24.081250
 20
58.979117
 30
0.0
 10
24.655093
 20
60.051058
 30
0.0
 10
24.081386
 20
61.123000
 30
0.0
 10
24.081386
 20
61.439660
 30
0.0
 10
24.655093
 20
62.511602
 30
0.0
 10
24.081386
 20
63.583543
 30
0.0
 10
24.081386
 20
63.900340
 30
0.0
 10
24.655093
 20
64.972281
 30
0.0
 10
24.081386
 20
66.044223
 30
0.0
 10
24.081386
 20
66.360883
 30
0.0
 10
24.655093
 20
67.432825
 30
0.0
 10
24.081386
 20
68.504766
 30
0.0
 10
24.081386
 20
68.821563
 30
0.0
 10
24.655093
 20
69.893505
 30
0.0
 10
24.081386
 20
70.965446
 30
0.0
 10
24.081386
 20
71.282243
 30
0.0
 10
24.655093
 20
72.354184
 30
0.0
 10
24.081386
 20
73.426126
 30
0.0
 10
24.081386
 20
73.742786
 30
0.0
 10
24.655093
 20
74.814727
 30
0.0
 10
24.081386
 20
75.886669
 30
0.0
 10
24.081386
 20
76.217959
 30
0.0
 10
24.652359
 20
77.284841
 30
0.0
 10
24.651804
 20
77.285524
 30
0.0
 10
23.432078
 20
77.285525
 30
0.0
  0
SPLINE
  5
110
100
AcDbEntity
  8
Layer_1
 62
7
100
AcDbSpline
 70
8
 71
3
 72
8
 73
4
 74
0
 40
0
 40
0
 40
0
 40
0
 40
1
 40
1
 40
1
 40
1
 10
25.316726
 20
39.430680
 30
0.0
 10
24.634813
 20
38.748766
 30
0.0
 10
23.952814
 20
38.066395
 30
0.0
 10
23.270876
 20
37.385376
 30
0.0
  0
LWPOLYLINE
  5
111
100
AcDbEntity
  8
Layer_1
 62
7
100
AcDbPolyline
 90
46
 70
0
 10
24.746983
 20
77.285525
 30
0.0
 10
24.744112
 20
77.279783
 30
0.0
 10
25.316726
 20
76.209892
 30
0.0
 10
25.316726
 20
75.874500
 30
0.0
 10
24.746847
 20
74.809669
 30
0.0
 10
25.316726
 20
73.744837
 30
0.0
 10
25.316726
 20
73.413957
 30
0.0
 10
24.746847
 20
72.349125
 30
0.0
 10
25.316726
 20
71.284294
 30
0.0
 10
25.316726
 20
70.953277
 30
0.0
 10
24.746847
 20
69.888445
 30
0.0
 10
25.316726
 20
68.823614
 30
0.0
 10
25.316726
 20
68.492597
 30
0.0
 10
24.746847
 20
67.427766
 30
0.0
 10
25.316726
 20
66.362934
 30
0.0
 10
25.316726
 20
66.032054
 30
0.0
 10
24.746847
 20
64.967222
 30
0.0
 10
25.316726
 20
63.902391
 30
0.0
 10
25.316726
 20
63.571374
 30
0.0
 10
24.746847
 20
62.506542
 30
0.0
 10
25.316726
 20
61.441711
 30
0.0
 10
25.316726
 20
61.110831
 30
0.0
 10
24.746847
 20
60.046000
 30
0.0
 10
25.316726
 20
58.981168
 30
0.0
 10
25.316726
 20
58.650151
 30
0.0
 10
24.746847
 20
57.585320
 30
0.0
 10
25.316726
 20
56.520488
 30
0.0
 10
25.316726
 20
56.189471
 30
0.0
 10
24.746847
 20
55.124639
 30
0.0
 10
25.316726
 20
54.059808
 30
0.0
 10
25.316726
 20
53.728791
 30
0.0
 10
24.746847
 20
52.663959
 30
0.0
 10
25.316726
 20
51.599129
 30
0.0
 10
25.316726
 20
51.269479
 30
0.0
 10
24.746847
 20
50.204648
 30
0.0
 10
25.316726
 20
49.139951
 30
0.0
 10
25.316726
 20
48.807568
 30
0.0
 10
24.746847
 20
47.742737
 30
0.0
 10
25.316726
 20
46.677905
 30
0.0
 10
25.316726
 20
46.347025
 30
0.0
 10
24.746847
 20
45.282194
 30
0.0
 10
25.316726
 20
44.217362
 30
0.0
 10
25.316726
 20
43.886345
 30
0.0
 10
24.746847
 20
42.821513
 30
0.0
 10
25.316726
 20
41.756682
 30
0.0
 10
25.316726
 20
39.430680
 30
0.0
  0
SPLINE
  5
112
100
AcDbEntity
  8
Layer_1
 62
7
100
AcDbSpline
 70
8
 71
3
 72
8
 73
4
 74
0
 40
0
 40
0
 40
0
 40
0
 40
1
 40
1
 40
1
 40
1
 10
23.272120
 20
34.698048
 30
0.0
 10
23.125130
 20
34.551059
 30
0.0
 10
22.978164
 20
34.405073
 30
0.0
 10
22.831174
 20
34.257649
 30
0.0
  0
LWPOLYLINE
  5
113
100
AcDbEntity
  8
Layer_1
 62
7
100
AcDbPolyline
 90
3
 70
0
 10
23.270876
 20
37.385376
 30
0.0
 10
23.272120
 20
37.384053
 30
0.0
 10
23.272120
 20
34.698048
 30
0.0
  0
SPLINE
  5
114
100
AcDbEntity
  8
Layer_1
 62
7
100
AcDbSpline
 70
8
 71
3
 72
8
 73
4
 74
0
 40
0
 40
0
 40
0
 40
0
 40
1
 40
1
 40
1
 40
1
 10
21.701944
 20
34.257649
 30
0.0
 10
21.510505
 20
34.449091
 30
0.0
 10
21.319058
 20
34.640528
 30
0.0
 10
21.127690
 20
34.832039
 30
0.0
  0
LWPOLYLINE
  5
115
100
AcDbEntity
  8
Layer_1
 62
7
100
AcDbPolyline
 90
2
 70
0
 10
22.831174
 20
34.257649
 30
0.0
 10
21.701944
 20
34.257649
 30
0.0
  0
SPLINE
  5
116
100
AcDbEntity
  8
Layer_1
 62
7
100
AcDbSpline
 70
8
 71
3
 72
8
 73
4
 74
0
 40
0
 40
0
 40
0
 40
0
 40
1
 40
1
 40
1
 40
1
 10
21.048252
 20
34.799090
 30
0.0
 10
21.255188
 20
34.592152
 30
0.0
 10
21.462120
 20
34.385210
 30
0.0
 10
21.669130
 20
34.178346
 30
0.0
  0
LWPOLYLINE
  5
117
100
AcDbEntity
  8
Layer_1
 62
7
100
AcDbPolyline
 90
4
 70
0
 10
21.127690
 20
34.832039
 30
0.0
 10
21.127690
 20
34.950583
 30
0.0
 10
21.048252
 20
34.950583
 30
0.0
 10
21.048252
 20
34.799090
 30
0.0
  0
SPLINE
  5
118
100
AcDbEntity
  8
Layer_1
 62
7
100
AcDbSpline
 70
8
 71
3
 72
8
 73
4
 74
0
 40
0
 40
0
 40
0
 40
0
 40
1
 40
1
 40
1
 40
1
 10
22.864809
 20
34.179002
 30
0.0
 10
23.027057
 20
34.341250
 30
0.0
 10
23.189348
 20
34.502839
 30
0.0
 10
23.351558
 20
34.665341
 30
0.0
  0
LWPOLYLINE
  5
119
100
AcDbEntity
  8
Layer_1
 62
7
100
AcDbPolyline
 90
4
 70
0
 10
21.669130
 20
34.178346
 30
0.0
 10
22.864673
 20
34.178346
 30
0.0
 10
22.864673
 20
34.179140
 30
0.0
 10
22.864809
 20
34.179002
 30
0.0
  0
SPLINE
  5
11a
100
AcDbEntity
  8
Layer_1
 62
7
100
AcDbSpline
 70
8
 71
3
 72
8
 73
4
 74
0
 40
0
 40
0
 40
0
 40
0
 40
1
 40
1
 40
1
 40
1
 10
23.351558
 20
37.353928
 30
0.0
 10
24.030527
 20
38.032896
 30
0.0
 10
24.711584
 20
38.712706
 30
0.0
 10
25.390708
 20
39.392669
 30
0.0
  0
LWPOLYLINE
  5
11b
100
AcDbEntity
  8
Layer_1
 62
7
100
AcDbPolyline
 90
4
 70
0
 10
23.351558
 20
34.665341
 30
0.0
 10
23.350606
 20
34.666399
 30
0.0
 10
23.351558
 20
34.666399
 30
0.0
 10
23.351558
 20
37.353928
 30
0.0
  0
LWPOLYLINE
  5
11c
100
AcDbEntity
  8
Layer_1
 62
7
100
AcDbPolyline
 90
47
 70
0
 10
25.390708
 20
39.392669
 30
0.0
 10
25.390708
 20
41.743966
 30
0.0
 10
25.967424
 20
42.821513
 30
0.0
 10
25.390708
 20
43.899061
 30
0.0
 10
25.390708
 20
44.204647
 30
0.0
 10
25.967424
 20
45.282194
 30
0.0
 10
25.390708
 20
46.359741
 30
0.0
 10
25.390708
 20
46.665190
 30
0.0
 10
25.967424
 20
47.742737
 30
0.0
 10
25.390708
 20
48.820284
 30
0.0
 10
25.390708
 20
49.127238
 30
0.0
 10
25.967424
 20
50.204648
 30
0.0
 10
25.390708
 20
51.282195
 30
0.0
 10
25.390708
 20
51.586413
 30
0.0
 10
25.967424
 20
52.663959
 30
0.0
 10
25.390708
 20
53.741507
 30
0.0
 10
25.390708
 20
54.047093
 30
0.0
 10
25.967424
 20
55.124639
 30
0.0
 10
25.390708
 20
56.202187
 30
0.0
 10
25.390708
 20
56.507773
 30
0.0
 10
25.967424
 20
57.585320
 30
0.0
 10
25.390708
 20
58.662867
 30
0.0
 10
25.390708
 20
58.968452
 30
0.0
 10
25.967424
 20
60.046000
 30
0.0
 10
25.390708
 20
61.123546
 30
0.0
 10
25.390708
 20
61.428996
 30
0.0
 10
25.967424
 20
62.506542
 30
0.0
 10
25.390708
 20
63.584090
 30
0.0
 10
25.390708
 20
63.889675
 30
0.0
 10
25.967424
 20
64.967222
 30
0.0
 10
25.390708
 20
66.044770
 30
0.0
 10
25.390708
 20
66.350218
 30
0.0
 10
25.967424
 20
67.427766
 30
0.0
 10
25.390708
 20
68.505313
 30
0.0
 10
25.390708
 20
68.810898
 30
0.0
 10
25.967424
 20
69.888445
 30
0.0
 10
25.390708
 20
70.965993
 30
0.0
 10
25.390708
 20
71.271578
 30
0.0
 10
25.967424
 20
72.349125
 30
0.0
 10
25.390708
 20
73.426673
 30
0.0
 10
25.390708
 20
73.732121
 30
0.0
 10
25.967424
 20
74.809669
 30
0.0
 10
25.390708
 20
75.887216
 30
0.0
 10
25.390708
 20
76.207294
 30
0.0
 10
25.964689
 20
77.279783
 30
0.0
 10
25.961681
 20
77.285525
 30
0.0
 10
24.746983
 20
77.285525
 30
0.0
  0
SPLINE
  5
11d
100
AcDbEntity
  8
Layer_1
 62
7
100
AcDbSpline
 70
8
 71
3
 72
8
 73
4
 74
0
 40
0
 40
0
 40
0
 40
0
 40
1
 40
1
 40
1
 40
1
 10
26.627119
 20
39.430680
 30
0.0
 10
25.561753
 20
38.365314
 30
0.0
 10
24.496229
 20
37.298715
 30
0.0
 10
23.430574
 20
36.235365
 30
0.0
  0
LWPOLYLINE
  5
11e
100
AcDbEntity
  8
Layer_1
 62
7
100
AcDbPolyline
 90
45
 70
0
 10
26.050814
 20
77.285525
 30
0.0
 10
26.627119
 20
76.208935
 30
0.0
 10
26.627119
 20
75.887899
 30
0.0
 10
26.053412
 20
74.815821
 30
0.0
 10
26.627119
 20
73.743880
 30
0.0
 10
26.627119
 20
73.427356
 30
0.0
 10
26.053412
 20
72.355278
 30
0.0
 10
26.627119
 20
71.283337
 30
0.0
 10
26.627119
 20
70.966677
 30
0.0
 10
26.053412
 20
69.894598
 30
0.0
 10
26.627119
 20
68.822657
 30
0.0
 10
26.627119
 20
68.505997
 30
0.0
 10
26.053412
 20
67.433918
 30
0.0
 10
26.627119
 20
66.361977
 30
0.0
 10
26.627119
 20
66.045454
 30
0.0
 10
26.053412
 20
64.973375
 30
0.0
 10
26.627119
 20
63.901434
 30
0.0
 10
26.627119
 20
63.584774
 30
0.0
 10
26.053412
 20
62.512695
 30
0.0
 10
26.627119
 20
61.440753
 30
0.0
 10
26.627119
 20
61.124230
 30
0.0
 10
26.053412
 20
60.052152
 30
0.0
 10
26.627119
 20
58.980211
 30
0.0
 10
26.627119
 20
58.663551
 30
0.0
 10
26.053412
 20
57.591473
 30
0.0
 10
26.627119
 20
56.519531
 30
0.0
 10
26.627119
 20
56.202871
 30
0.0
 10
26.053412
 20
55.130793
 30
0.0
 10
26.627119
 20
54.058851
 30
0.0
 10
26.627119
 20
53.742191
 30
0.0
 10
26.053412
 20
52.670112
 30
0.0
 10
26.627119
 20
51.598171
 30
0.0
 10
26.627119
 20
51.284381
 30
0.0
 10
26.053412
 20
50.212305
 30
0.0
 10
26.627119
 20
49.140361
 30
0.0
 10
26.627119
 20
48.821105
 30
0.0
 10
26.053412
 20
47.749026
 30
0.0
 10
26.627119
 20
46.677085
 30
0.0
 10
26.627119
 20
46.360424
 30
0.0
 10
26.053412
 20
45.288346
 30
0.0
 10
26.627119
 20
44.216405
 30
0.0
 10
26.627119
 20
43.899881
 30
0.0
 10
26.053412
 20
42.827803
 30
0.0
 10
26.627119
 20
41.755862
 30
0.0
 10
26.627119
 20
39.430680
 30
0.0
  0
SPLINE
  5
11f
100
AcDbEntity
  8
Layer_1
 62
7
100
AcDbSpline
 70
8
 71
3
 72
8
 73
4
 74
0
 40
0
 40
0
 40
0
 40
0
 40
1
 40
1
 40
1
 40
1
 10
23.423055
 20
34.629093
 30
0.0
 10
23.242027
 20
34.448065
 30
0.0
 10
23.063941
 20
34.268632
 30
0.0
 10
22.882982
 20
34.087790
 30
0.0
  0
LWPOLYLINE
  5
120
100
AcDbEntity
  8
Layer_1
 62
7
100
AcDbPolyline
 90
3
 70
0
 10
23.430574
 20
36.235365
 30
0.0
 10
23.423055
 20
36.235365
 30
0.0
 10
23.423055
 20
34.629093
 30
0.0
  0
SPLINE
  5
121
100
AcDbEntity
  8
Layer_1
 62
7
100
AcDbSpline
 70
8
 71
3
 72
8
 73
4
 74
0
 40
0
 40
0
 40
0
 40
0
 40
1
 40
1
 40
1
 40
1
 10
21.608821
 20
34.087790
 30
0.0
 10
21.387590
 20
34.309018
 30
0.0
 10
21.114589
 20
34.581219
 30
0.0
 10
20.863248
 20
34.831994
 30
0.0
  0
LWPOLYLINE
  5
122
100
AcDbEntity
  8
Layer_1
 62
7
100
AcDbPolyline
 90
2
 70
0
 10
22.882982
 20
34.087790
 30
0.0
 10
21.608821
 20
34.087790
 30
0.0
  0
SPLINE
  5
123
100
AcDbEntity
  8
Layer_1
 62
7
100
AcDbSpline
 70
8
 71
3
 72
8
 73
4
 74
0
 40
0
 40
0
 40
0
 40
0
 40
1
 40
1
 40
1
 40
1
 10
20.783809
 20
34.798908
 30
0.0
 10
21.047929
 20
34.534785
 30
0.0
 10
21.311750
 20
34.273294
 30
0.0
 10
21.575870
 20
34.008213
 30
0.0
  0
LWPOLYLINE
  5
124
100
AcDbEntity
  8
Layer_1
 62
7
100
AcDbPolyline
 90
4
 70
0
 10
20.863248
 20
34.831994
 30
0.0
 10
20.863248
 20
34.950538
 30
0.0
 10
20.783809
 20
34.950538
 30
0.0
 10
20.783809
 20
34.798908
 30
0.0
  0
SPLINE
  5
125
100
AcDbEntity
  8
Layer_1
 62
7
100
AcDbSpline
 70
8
 71
3
 72
8
 73
4
 74
0
 40
0
 40
0
 40
0
 40
0
 40
1
 40
1
 40
1
 40
1
 10
22.913622
 20
34.006097
 30
0.0
 10
23.110872
 20
34.203344
 30
0.0
 10
23.305162
 20
34.399008
 30
0.0
 10
23.502370
 20
34.596075
 30
0.0
  0
LWPOLYLINE
  5
126
100
AcDbEntity
  8
Layer_1
 62
7
100
AcDbPolyline
 90
3
 70
0
 10
21.575870
 20
34.008213
 30
0.0
 10
22.911558
 20
34.008213
 30
0.0
 10
22.913622
 20
34.006097
 30
0.0
  0
SPLINE
  5
127
100
AcDbEntity
  8
Layer_1
 62
7
100
AcDbSpline
 70
8
 71
3
 72
8
 73
4
 74
0
 40
0
 40
0
 40
0
 40
0
 40
1
 40
1
 40
1
 40
1
 10
23.502370
 20
36.194825
 30
0.0
 10
24.575314
 20
37.267769
 30
0.0
 10
25.510645
 20
38.200333
 30
0.0
 10
26.701102
 20
39.392603
 30
0.0
  0
LWPOLYLINE
  5
128
100
AcDbEntity
  8
Layer_1
 62
7
100
AcDbPolyline
 90
3
 70
0
 10
23.502370
 20
34.596075
 30
0.0
 10
23.502370
 20
34.596210
 30
0.0
 10
23.502370
 20
36.194825
 30
0.0
  0
LWPOLYLINE
  5
129
100
AcDbEntity
  8
Layer_1
 62
7
100
AcDbPolyline
 90
46
 70
0
 10
26.701102
 20
39.392603
 30
0.0
 10
26.701102
 20
41.757301
 30
0.0
 10
27.274126
 20
42.827736
 30
0.0
 10
26.701102
 20
43.898312
 30
0.0
 10
26.701102
 20
44.217841
 30
0.0
 10
27.274126
 20
45.288279
 30
0.0
 10
26.701102
 20
46.358855
 30
0.0
 10
26.701102
 20
46.678522
 30
0.0
 10
27.274126
 20
47.748960
 30
0.0
 10
26.701102
 20
48.819536
 30
0.0
 10
26.701102
 20
49.141801
 30
0.0
 10
27.274126
 20
50.212239
 30
0.0
 10
26.701102
 20
51.282812
 30
0.0
 10
26.701102
 20
51.599608
 30
0.0
 10
27.274126
 20
52.670046
 30
0.0
 10
26.701102
 20
53.740620
 30
0.0
 10
26.701102
 20
54.060289
 30
0.0
 10
27.274126
 20
55.130727
 30
0.0
 10
26.701102
 20
56.201300
 30
0.0
 10
26.701102
 20
56.520969
 30
0.0
 10
27.274126
 20
57.591406
 30
0.0
 10
26.701102
 20
58.661981
 30
0.0
 10
26.701102
 20
58.981649
 30
0.0
 10
27.274126
 20
60.052086
 30
0.0
 10
26.701102
 20
61.122661
 30
0.0
 10
26.701102
 20
61.442192
 30
0.0
 10
27.274126
 20
62.512629
 30
0.0
 10
26.701102
 20
63.583203
 30
0.0
 10
26.701102
 20
63.902872
 30
0.0
 10
27.274126
 20
64.973309
 30
0.0
 10
26.701102
 20
66.043883
 30
0.0
 10
26.701102
 20
66.363415
 30
0.0
 10
27.274126
 20
67.433852
 30
0.0
 10
26.701102
 20
68.504426
 30
0.0
 10
26.701102
 20
68.824095
 30
0.0
 10
27.274126
 20
69.894532
 30
0.0
 10
26.701102
 20
70.965106
 30
0.0
 10
26.701102
 20
71.284841
 30
0.0
 10
27.274126
 20
72.355278
 30
0.0
 10
26.701102
 20
73.425852
 30
0.0
 10
26.701102
 20
73.745384
 30
0.0
 10
27.274126
 20
74.815821
 30
0.0
 10
26.701102
 20
75.886395
 30
0.0
 10
26.701102
 20
76.220694
 30
0.0
 10
27.270983
 20
77.285525
 30
0.0
 10
26.050814
 20
77.285525
 30
0.0
  0
SPLINE
  5
12a
100
AcDbEntity
  8
Layer_1
 62
7
100
AcDbSpline
 70
8
 71
3
 72
8
 73
4
 74
0
 40
0
 40
0
 40
0
 40
0
 40
1
 40
1
 40
1
 40
1
 10
27.940524
 20
39.430814
 30
0.0
 10
26.646836
 20
38.137134
 30
0.0
 10
25.069844
 20
36.557379
 30
0.0
 10
23.582891
 20
35.074275
 30
0.0
  0
LWPOLYLINE
  5
12b
100
AcDbEntity
  8
Layer_1
 62
7
100
AcDbPolyline
 90
46
 70
0
 10
27.368865
 20
77.285525
 30
0.0
 10
27.364764
 20
77.278415
 30
0.0
 10
27.940524
 20
76.202645
 30
0.0
 10
27.940524
 20
75.878875
 30
0.0
 10
27.367500
 20
74.808164
 30
0.0
 10
27.940524
 20
73.737454
 30
0.0
 10
27.940524
 20
73.418332
 30
0.0
 10
27.367500
 20
72.347621
 30
0.0
 10
27.940524
 20
71.276911
 30
0.0
 10
27.940524
 20
70.957652
 30
0.0
 10
27.367500
 20
69.886942
 30
0.0
 10
27.940524
 20
68.816231
 30
0.0
 10
27.940524
 20
68.496973
 30
0.0
 10
27.367500
 20
67.426262
 30
0.0
 10
27.940524
 20
66.355551
 30
0.0
 10
27.940524
 20
66.036429
 30
0.0
 10
27.367500
 20
64.965718
 30
0.0
 10
27.940524
 20
63.895008
 30
0.0
 10
27.940524
 20
63.575886
 30
0.0
 10
27.367500
 20
62.505175
 30
0.0
 10
27.940524
 20
61.434464
 30
0.0
 10
27.940524
 20
61.115343
 30
0.0
 10
27.367500
 20
60.044633
 30
0.0
 10
27.940524
 20
58.973921
 30
0.0
 10
27.940524
 20
58.654663
 30
0.0
 10
27.367500
 20
57.583952
 30
0.0
 10
27.940524
 20
56.513241
 30
0.0
 10
27.940524
 20
56.193984
 30
0.0
 10
27.367500
 20
55.123272
 30
0.0
 10
27.940524
 20
54.052562
 30
0.0
 10
27.940524
 20
53.733167
 30
0.0
 10
27.367500
 20
52.662456
 30
0.0
 10
27.940524
 20
51.591744
 30
0.0
 10
27.940524
 20
51.272623
 30
0.0
 10
27.367500
 20
50.201912
 30
0.0
 10
27.940524
 20
49.131201
 30
0.0
 10
27.940524
 20
48.812080
 30
0.0
 10
27.367500
 20
47.741369
 30
0.0
 10
27.940524
 20
46.670658
 30
0.0
 10
27.940524
 20
46.351402
 30
0.0
 10
27.367500
 20
45.280688
 30
0.0
 10
27.940524
 20
44.209978
 30
0.0
 10
27.940524
 20
43.890859
 30
0.0
 10
27.367500
 20
42.820145
 30
0.0
 10
27.940524
 20
41.749435
 30
0.0
 10
27.940524
 20
39.430814
 30
0.0
  0
SPLINE
  5
12c
100
AcDbEntity
  8
Layer_1
 62
7
100
AcDbSpline
 70
8
 71
3
 72
8
 73
4
 74
0
 40
0
 40
0
 40
0
 40
0
 40
1
 40
1
 40
1
 40
1
 10
23.583711
 20
34.569540
 30
0.0
 10
23.365376
 20
34.351304
 30
0.0
 10
23.146285
 20
34.132888
 30
0.0
 10
22.927967
 20
33.914207
 30
0.0
  0
LWPOLYLINE
  5
12d
100
AcDbEntity
  8
Layer_1
 62
7
100
AcDbPolyline
 90
4
 70
0
 10
23.582891
 20
35.074275
 30
0.0
 10
23.584796
 20
35.072423
 30
0.0
 10
23.583711
 20
35.072423
 30
0.0
 10
23.583711
 20
34.569540
 30
0.0
  0
SPLINE
  5
12e
100
AcDbEntity
  8
Layer_1
 62
7
100
AcDbSpline
 70
8
 71
3
 72
8
 73
4
 74
0
 40
0
 40
0
 40
0
 40
0
 40
1
 40
1
 40
1
 40
1
 10
21.516395
 20
33.914207
 30
0.0
 10
21.210349
 20
34.220108
 30
0.0
 10
20.904275
 20
34.525974
 30
0.0
 10
20.598408
 20
34.832055
 30
0.0
  0
LWPOLYLINE
  5
12f
100
AcDbEntity
  8
Layer_1
 62
7
100
AcDbPolyline
 90
2
 70
0
 10
22.927967
 20
33.914207
 30
0.0
 10
21.516395
 20
33.914207
 30
0.0
  0
SPLINE
  5
130
100
AcDbEntity
  8
Layer_1
 62
7
100
AcDbSpline
 70
8
 71
3
 72
8
 73
4
 74
0
 40
0
 40
0
 40
0
 40
0
 40
1
 40
1
 40
1
 40
1
 10
20.518970
 20
34.799106
 30
0.0
 10
20.840531
 20
34.477547
 30
0.0
 10
21.162182
 20
34.156078
 30
0.0
 10
21.483717
 20
33.834493
 30
0.0
  0
LWPOLYLINE
  5
131
100
AcDbEntity
  8
Layer_1
 62
7
100
AcDbPolyline
 90
4
 70
0
 10
20.598408
 20
34.832055
 30
0.0
 10
20.598408
 20
34.950598
 30
0.0
 10
20.518970
 20
34.950598
 30
0.0
 10
20.518970
 20
34.799106
 30
0.0
  0
SPLINE
  5
132
100
AcDbEntity
  8
Layer_1
 62
7
100
AcDbSpline
 70
8
 71
3
 72
8
 73
4
 74
0
 40
0
 40
0
 40
0
 40
0
 40
1
 40
1
 40
1
 40
1
 10
22.962003
 20
33.835816
 30
0.0
 10
23.195860
 20
34.069774
 30
0.0
 10
23.429274
 20
34.303171
 30
0.0
 10
23.663276
 20
34.536817
 30
0.0
  0
LWPOLYLINE
  5
133
100
AcDbEntity
  8
Layer_1
 62
7
100
AcDbPolyline
 90
5
 70
0
 10
21.483717
 20
33.834493
 30
0.0
 10
21.485622
 20
33.836345
 30
0.0
 10
21.485622
 20
33.834758
 30
0.0
 10
22.962003
 20
33.834758
 30
0.0
 10
22.962003
 20
33.835816
 30
0.0
  0
SPLINE
  5
134
100
AcDbEntity
  8
Layer_1
 62
7
100
AcDbSpline
 70
8
 71
3
 72
8
 73
4
 74
0
 40
0
 40
0
 40
0
 40
0
 40
1
 40
1
 40
1
 40
1
 10
23.714690
 20
35.092092
 30
0.0
 10
25.224591
 20
36.602786
 30
0.0
 10
26.408989
 20
37.786223
 30
0.0
 10
28.014898
 20
39.392712
 30
0.0
  0
LWPOLYLINE
  5
135
100
AcDbEntity
  8
Layer_1
 62
7
100
AcDbPolyline
 90
4
 70
0
 10
23.663276
 20
34.536817
 30
0.0
 10
23.663276
 20
35.042160
 30
0.0
 10
23.714002
 20
35.092886
 30
0.0
 10
23.714690
 20
35.092092
 30
0.0
  0
LWPOLYLINE
  5
136
100
AcDbEntity
  8
Layer_1
 62
7
100
AcDbPolyline
 90
47
 70
0
 10
28.014898
 20
39.392712
 30
0.0
 10
28.014898
 20
41.748385
 30
0.0
 10
28.588470
 20
42.820053
 30
0.0
 10
28.014898
 20
43.891721
 30
0.0
 10
28.014898
 20
44.208928
 30
0.0
 10
28.588470
 20
45.280596
 30
0.0
 10
28.014898
 20
46.352264
 30
0.0
 10
28.014898
 20
46.669608
 30
0.0
 10
28.588470
 20
47.741274
 30
0.0
 10
28.014898
 20
48.812945
 30
0.0
 10
28.014898
 20
49.130151
 30
0.0
 10
28.588470
 20
50.201819
 30
0.0
 10
28.014898
 20
51.273485
 30
0.0
 10
28.014898
 20
51.590694
 30
0.0
 10
28.588470
 20
52.662362
 30
0.0
 10
28.014898
 20
53.734029
 30
0.0
 10
28.014898
 20
54.051510
 30
0.0
 10
28.588470
 20
55.123178
 30
0.0
 10
28.014898
 20
56.194846
 30
0.0
 10
28.014898
 20
56.512148
 30
0.0
 10
28.588470
 20
57.583816
 30
0.0
 10
28.014898
 20
58.655483
 30
0.0
 10
28.014898
 20
58.972828
 30
0.0
 10
28.588470
 20
60.044495
 30
0.0
 10
28.014898
 20
61.116164
 30
0.0
 10
28.014898
 20
61.433371
 30
0.0
 10
28.588470
 20
62.505039
 30
0.0
 10
28.014898
 20
63.576706
 30
0.0
 10
28.014898
 20
63.894051
 30
0.0
 10
28.588470
 20
64.965718
 30
0.0
 10
28.014898
 20
66.037386
 30
0.0
 10
28.014898
 20
66.354593
 30
0.0
 10
28.588470
 20
67.426262
 30
0.0
 10
28.014898
 20
68.497929
 30
0.0
 10
28.014898
 20
68.815273
 30
0.0
 10
28.588470
 20
69.886942
 30
0.0
 10
28.014898
 20
70.958609
 30
0.0
 10
28.014898
 20
71.275953
 30
0.0
 10
28.588470
 20
72.347621
 30
0.0
 10
28.014898
 20
73.419289
 30
0.0
 10
28.014898
 20
73.736497
 30
0.0
 10
28.588470
 20
74.808164
 30
0.0
 10
28.014898
 20
75.879832
 30
0.0
 10
28.014898
 20
76.211806
 30
0.0
 10
28.585734
 20
77.278415
 30
0.0
 10
28.581898
 20
77.285525
 30
0.0
 10
27.368865
 20
77.285525
 30
0.0
  0
SPLINE
  5
137
100
AcDbEntity
  8
Layer_1
 62
7
100
AcDbSpline
 70
8
 71
3
 72
8
 73
4
 74
0
 40
0
 40
0
 40
0
 40
0
 40
1
 40
1
 40
1
 40
1
 10
28.960093
 20
39.138357
 30
0.0
 10
27.360211
 20
37.538467
 30
0.0
 10
25.429524
 20
35.605945
 30
0.0
 10
23.567298
 20
33.747747
 30
0.0
  0
LWPOLYLINE
  5
138
100
AcDbEntity
  8
Layer_1
 62
7
100
AcDbPolyline
 90
47
 70
0
 10
28.678439
 20
77.285525
 30
0.0
 10
28.675290
 20
77.279646
 30
0.0
 10
29.247222
 20
76.210986
 30
0.0
 10
29.247222
 20
75.872996
 30
0.0
 10
28.678026
 20
74.809395
 30
0.0
 10
29.247222
 20
73.745794
 30
0.0
 10
29.247222
 20
73.412453
 30
0.0
 10
28.678026
 20
72.348852
 30
0.0
 10
29.247222
 20
71.285251
 30
0.0
 10
29.247222
 20
70.951773
 30
0.0
 10
28.678026
 20
69.888172
 30
0.0
 10
29.247222
 20
68.824571
 30
0.0
 10
29.247222
 20
68.491093
 30
0.0
 10
28.678026
 20
67.427492
 30
0.0
 10
29.247222
 20
66.363891
 30
0.0
 10
29.247222
 20
66.030550
 30
0.0
 10
28.678026
 20
64.966949
 30
0.0
 10
29.247222
 20
63.903348
 30
0.0
 10
29.247222
 20
63.569870
 30
0.0
 10
28.678026
 20
62.506269
 30
0.0
 10
29.247222
 20
61.442668
 30
0.0
 10
29.247222
 20
61.109327
 30
0.0
 10
28.678026
 20
60.045726
 30
0.0
 10
29.247222
 20
58.982125
 30
0.0
 10
29.247222
 20
58.648647
 30
0.0
 10
28.678026
 20
57.585046
 30
0.0
 10
29.247222
 20
56.521445
 30
0.0
 10
29.247222
 20
56.187968
 30
0.0
 10
28.678026
 20
55.124366
 30
0.0
 10
29.247222
 20
54.060765
 30
0.0
 10
29.247222
 20
53.727288
 30
0.0
 10
28.678026
 20
52.663687
 30
0.0
 10
29.247222
 20
51.600084
 30
0.0
 10
29.247222
 20
51.267974
 30
0.0
 10
28.678026
 20
50.204510
 30
0.0
 10
29.247222
 20
49.140909
 30
0.0
 10
29.247222
 20
48.806066
 30
0.0
 10
28.678026
 20
47.742464
 30
0.0
 10
29.247222
 20
46.678863
 30
0.0
 10
29.247222
 20
46.345520
 30
0.0
 10
28.678026
 20
45.281919
 30
0.0
 10
29.247222
 20
44.218318
 30
0.0
 10
29.247222
 20
43.884842
 30
0.0
 10
28.678026
 20
42.821241
 30
0.0
 10
29.247222
 20
41.757640
 30
0.0
 10
29.247222
 20
39.425483
 30
0.0
 10
28.960093
 20
39.138357
 30
0.0
  0
SPLINE
  5
139
100
AcDbEntity
  8
Layer_1
 62
7
100
AcDbSpline
 70
8
 71
3
 72
8
 73
4
 74
0
 40
0
 40
0
 40
0
 40
0
 40
1
 40
1
 40
1
 40
1
 10
21.416579
 20
33.747747
 30
0.0
 10
21.056248
 20
34.108358
 30
0.0
 10
20.695971
 20
34.471224
 30
0.0
 10
20.333973
 20
34.831994
 30
0.0
  0
LWPOLYLINE
  5
13a
100
AcDbEntity
  8
Layer_1
 62
7
100
AcDbPolyline
 90
2
 70
0
 10
23.567298
 20
33.747747
 30
0.0
 10
21.416579
 20
33.747747
 30
0.0
  0
SPLINE
  5
13b
100
AcDbEntity
  8
Layer_1
 62
7
100
AcDbSpline
 70
8
 71
3
 72
8
 73
4
 74
0
 40
0
 40
0
 40
0
 40
0
 40
1
 40
1
 40
1
 40
1
 10
20.254534
 20
34.799045
 30
0.0
 10
20.631669
 20
34.421908
 30
0.0
 10
21.008083
 20
34.045522
 30
0.0
 10
21.383764
 20
33.668446
 30
0.0
  0
LWPOLYLINE
  5
13c
100
AcDbEntity
  8
Layer_1
 62
7
100
AcDbPolyline
 90
4
 70
0
 10
20.333973
 20
34.831994
 30
0.0
 10
20.333973
 20
34.950538
 30
0.0
 10
20.254534
 20
34.950538
 30
0.0
 10
20.254534
 20
34.799045
 30
0.0
  0
SPLINE
  5
13d
100
AcDbEntity
  8
Layer_1
 62
7
100
AcDbSpline
 70
8
 71
3
 72
8
 73
4
 74
0
 40
0
 40
0
 40
0
 40
0
 40
1
 40
1
 40
1
 40
1
 10
23.600113
 20
33.668446
 30
0.0
 10
25.313206
 20
35.381539
 30
0.0
 10
27.063435
 20
37.126450
 30
0.0
 10
29.016153
 20
39.082160
 30
0.0
  0
LWPOLYLINE
  5
13e
100
AcDbEntity
  8
Layer_1
 62
7
100
AcDbPolyline
 90
2
 70
0
 10
21.383764
 20
33.668446
 30
0.0
 10
23.600113
 20
33.668446
 30
0.0
  0
LWPOLYLINE
  5
13f
100
AcDbEntity
  8
Layer_1
 62
7
100
AcDbPolyline
 90
34
 70
0
 10
29.016153
 20
39.082160
 30
0.0
 10
29.326522
 20
39.392669
 30
0.0
 10
29.326522
 20
39.753627
 30
0.0
 10
29.326522
 20
41.752033
 30
0.0
 10
29.326522
 20
43.890449
 30
0.0
 10
29.326522
 20
44.212714
 30
0.0
 10
29.326522
 20
46.351126
 30
0.0
 10
29.326522
 20
46.673257
 30
0.0
 10
29.326522
 20
48.811669
 30
0.0
 10
29.326522
 20
49.135303
 30
0.0
 10
29.326522
 20
51.273580
 30
0.0
 10
29.326522
 20
51.594480
 30
0.0
 10
29.326522
 20
53.732894
 30
0.0
 10
29.326522
 20
54.055159
 30
0.0
 10
29.326522
 20
56.193573
 30
0.0
 10
29.326522
 20
56.515839
 30
0.0
 10
29.326522
 20
58.654253
 30
0.0
 10
29.326522
 20
58.976519
 30
0.0
 10
29.326522
 20
61.114933
 30
0.0
 10
29.326522
 20
61.437062
 30
0.0
 10
29.326522
 20
63.575476
 30
0.0
 10
29.326522
 20
63.897742
 30
0.0
 10
29.326522
 20
66.036156
 30
0.0
 10
29.326522
 20
66.358286
 30
0.0
 10
29.326522
 20
68.496699
 30
0.0
 10
29.326522
 20
68.818965
 30
0.0
 10
29.326522
 20
70.957379
 30
0.0
 10
29.326522
 20
71.279645
 30
0.0
 10
29.326522
 20
73.418059
 30
0.0
 10
29.326522
 20
73.740188
 30
0.0
 10
29.326522
 20
75.878602
 30
0.0
 10
29.326522
 20
76.215635
 30
0.0
 10
29.326522
 20
77.285525
 30
0.0
 10
28.678439
 20
77.285525
 30
0.0
  0
LWPOLYLINE
  5
140
100
AcDbEntity
  8
Layer_1
 62
7
100
AcDbPolyline
 90
8
 70
1
 10
22.506434
 20
77.232612
 30
0.0
 10
22.506434
 20
38.349028
 30
0.0
 10
22.813797
 20
38.041667
 30
0.0
 10
22.813797
 20
35.725645
 30
0.0
 10
22.919624
 20
35.725645
 30
0.0
 10
22.919624
 20
38.085556
 30
0.0
 10
22.612261
 20
38.393055
 30
0.0
 10
22.612261
 20
77.232612
 30
0.0
  0
LWPOLYLINE
  5
141
100
AcDbEntity
  8
Layer_1
 62
7
100
AcDbPolyline
 90
4
 70
1
 10
26.008976
 20
77.211282
 30
0.0
 10
25.417767
 20
76.070841
 30
0.0
 10
26.008976
 20
74.930399
 30
0.0
 10
26.589929
 20
76.070841
 30
0.0
  0
LWPOLYLINE
  5
142
100
AcDbEntity
  8
Layer_1
 62
7
100
AcDbPolyline
 90
4
 70
1
 10
23.389966
 20
77.210052
 30
0.0
 10
22.788092
 20
76.069610
 30
0.0
 10
23.389966
 20
74.929168
 30
0.0
 10
23.970920
 20
76.069610
 30
0.0
  0
LWPOLYLINE
  5
143
100
AcDbEntity
  8
Layer_1
 62
7
100
AcDbPolyline
 90
4
 70
1
 10
24.702410
 20
77.205130
 30
0.0
 10
24.111202
 20
76.064688
 30
0.0
 10
24.702410
 20
74.924110
 30
0.0
 10
25.283364
 20
76.064688
 30
0.0
  0
LWPOLYLINE
  5
144
100
AcDbEntity
  8
Layer_1
 62
7
100
AcDbPolyline
 90
4
 70
1
 10
28.633730
 20
77.204857
 30
0.0
 10
28.042383
 20
76.064416
 30
0.0
 10
28.633730
 20
74.923974
 30
0.0
 10
29.214683
 20
76.064416
 30
0.0
  0
SPLINE
  5
145
100
AcDbEntity
  8
Layer_1
 62
7
100
AcDbSpline
 70
8
 71
3
 72
8
 73
4
 74
0
 40
0
 40
0
 40
0
 40
0
 40
1
 40
1
 40
1
 40
1
 10
22.281518
 20
76.206339
 30
0.0
 10
22.205218
 20
76.206370
 30
0.0
 10
22.143329
 20
76.144547
 30
0.0
 10
22.143287
 20
76.068244
 30
0.0
  0
SPLINE
  5
146
100
AcDbEntity
  8
Layer_1
 62
7
100
AcDbSpline
 70
8
 71
3
 72
8
 73
4
 74
0
 40
0
 40
0
 40
0
 40
0
 40
1
 40
1
 40
1
 40
1
 10
22.143287
 20
76.068244
 30
0.0
 10
22.143313
 20
76.046005
 30
0.0
 10
22.148719
 20
76.024102
 30
0.0
 10
22.159011
 20
76.004393
 30
0.0
  0
LWPOLYLINE
  5
147
100
AcDbEntity
  8
Layer_1
 62
7
100
AcDbPolyline
 90
4
 70
1
 10
27.323336
 20
77.203627
 30
0.0
 10
26.732127
 20
76.063185
 30
0.0
 10
27.323336
 20
74.922744
 30
0.0
 10
27.904289
 20
76.063185
 30
0.0
  0
SPLINE
  5
148
100
AcDbEntity
  8
Layer_1
 62
7
100
AcDbSpline
 70
8
 71
3
 72
8
 73
4
 74
0
 40
0
 40
0
 40
0
 40
0
 40
1
 40
1
 40
1
 40
1
 10
22.214376
 20
75.947530
 30
0.0
 10
22.234903
 20
75.936082
 30
0.0
 10
22.258014
 20
75.930059
 30
0.0
 10
22.281509
 20
75.930029
 30
0.0
  0
SPLINE
  5
149
100
AcDbEntity
  8
Layer_1
 62
7
100
AcDbSpline
 70
8
 71
3
 72
8
 73
4
 74
0
 40
0
 40
0
 40
0
 40
0
 40
1
 40
1
 40
1
 40
1
 10
22.281509
 20
75.930029
 30
0.0
 10
22.357865
 20
75.929998
 30
0.0
 10
22.419772
 20
75.991904
 30
0.0
 10
22.419740
 20
76.068260
 30
0.0
  0
SPLINE
  5
14a
100
AcDbEntity
  8
Layer_1
 62
7
100
AcDbSpline
 70
8
 71
3
 72
8
 73
4
 74
0
 40
0
 40
0
 40
0
 40
0
 40
1
 40
1
 40
1
 40
1
 10
22.419740
 20
76.068260
 30
0.0
 10
22.419695
 20
76.144563
 30
0.0
 10
22.357812
 20
76.206386
 30
0.0
 10
22.281509
 20
76.206354
 30
0.0
  0
LWPOLYLINE
  5
14b
100
AcDbEntity
  8
Layer_1
 62
7
100
AcDbPolyline
 90
73
 70
0
 10
22.159011
 20
76.004393
 30
0.0
 10
22.059610
 20
75.904992
 30
0.0
 10
22.059610
 20
73.889359
 30
0.0
 10
21.918234
 20
73.748120
 30
0.0
 10
21.918234
 20
71.732487
 30
0.0
 10
21.776995
 20
71.591111
 30
0.0
 10
21.776995
 20
69.575615
 30
0.0
 10
21.635619
 20
69.434239
 30
0.0
 10
21.635619
 20
67.418743
 30
0.0
 10
21.494380
 20
67.277367
 30
0.0
 10
21.494380
 20
65.261871
 30
0.0
 10
21.353004
 20
65.120495
 30
0.0
 10
21.353004
 20
63.104999
 30
0.0
 10
21.211765
 20
62.963623
 30
0.0
 10
21.211765
 20
60.947991
 30
0.0
 10
21.070389
 20
60.806751
 30
0.0
 10
21.070389
 20
58.791118
 30
0.0
 10
20.929150
 20
58.649880
 30
0.0
 10
20.929150
 20
56.634247
 30
0.0
 10
20.787774
 20
56.493007
 30
0.0
 10
20.787774
 20
54.477374
 30
0.0
 10
20.646534
 20
54.336135
 30
0.0
 10
20.646398
 20
54.336135
 30
0.0
 10
20.646398
 20
52.320366
 30
0.0
 10
20.505159
 20
52.179264
 30
0.0
 10
20.505159
 20
50.163632
 30
0.0
 10
20.363919
 20
50.022257
 30
0.0
 10
20.363919
 20
48.006759
 30
0.0
 10
20.222543
 20
47.865385
 30
0.0
 10
20.222543
 20
45.849887
 30
0.0
 10
20.081167
 20
45.708512
 30
0.0
 10
20.081167
 20
37.048620
 30
0.0
 10
19.794040
 20
36.761629
 30
0.0
 10
19.794040
 20
36.619569
 30
0.0
 10
19.798962
 20
36.619569
 30
0.0
 10
19.798406
 20
36.619040
 30
0.0
 10
19.922828
 20
36.494617
 30
0.0
 10
20.155537
 20
36.494617
 30
0.0
 10
20.155537
 20
36.574055
 30
0.0
 10
19.954138
 20
36.574055
 30
0.0
 10
19.873469
 20
36.654724
 30
0.0
 10
19.873469
 20
36.728831
 30
0.0
 10
20.160596
 20
37.015957
 30
0.0
 10
20.160596
 20
45.675714
 30
0.0
 10
20.301972
 20
45.816951
 30
0.0
 10
20.301972
 20
47.832722
 30
0.0
 10
20.443212
 20
47.973824
 30
0.0
 10
20.443212
 20
49.989457
 30
0.0
 10
20.584588
 20
50.130697
 30
0.0
 10
20.584588
 20
52.146465
 30
0.0
 10
20.725827
 20
52.287704
 30
0.0
 10
20.725827
 20
54.303200
 30
0.0
 10
20.867203
 20
54.444576
 30
0.0
 10
20.867203
 20
56.460072
 30
0.0
 10
21.008442
 20
56.601448
 30
0.0
 10
21.008442
 20
58.616944
 30
0.0
 10
21.149818
 20
58.758320
 30
0.0
 10
21.149818
 20
60.773816
 30
0.0
 10
21.291057
 20
60.915192
 30
0.0
 10
21.291057
 20
62.930825
 30
0.0
 10
21.432433
 20
63.072064
 30
0.0
 10
21.432433
 20
65.087697
 30
0.0
 10
21.573672
 20
65.228936
 30
0.0
 10
21.573672
 20
67.244568
 30
0.0
 10
21.715048
 20
67.385808
 30
0.0
 10
21.715048
 20
69.401440
 30
0.0
 10
21.856288
 20
69.542680
 30
0.0
 10
21.856288
 20
71.558312
 30
0.0
 10
21.997663
 20
71.699552
 30
0.0
 10
21.997663
 20
73.715185
 30
0.0
 10
22.138903
 20
73.856561
 30
0.0
 10
22.138903
 20
75.872057
 30
0.0
 10
22.214376
 20
75.947530
 30
0.0
  0
LWPOLYLINE
  5
14c
100
AcDbEntity
  8
Layer_1
 62
7
100
AcDbPolyline
 90
1
 70
1
 10
22.281509
 20
76.206354
 30
0.0
  0
LWPOLYLINE
  5
14d
100
AcDbEntity
  8
Layer_1
 62
7
100
AcDbPolyline
 90
4
 70
1
 10
26.011164
 20
74.734744
 30
0.0
 10
25.419955
 20
73.594302
 30
0.0
 10
26.011164
 20
72.453860
 30
0.0
 10
26.592255
 20
73.594302
 30
0.0
  0
LWPOLYLINE
  5
14e
100
AcDbEntity
  8
Layer_1
 62
7
100
AcDbPolyline
 90
4
 70
1
 10
23.392290
 20
74.733368
 30
0.0
 10
22.790280
 20
73.592926
 30
0.0
 10
23.392290
 20
72.452484
 30
0.0
 10
23.973244
 20
73.592926
 30
0.0
  0
LWPOLYLINE
  5
14f
100
AcDbEntity
  8
Layer_1
 62
7
100
AcDbPolyline
 90
4
 70
1
 10
24.704598
 20
74.728309
 30
0.0
 10
24.113389
 20
73.587867
 30
0.0
 10
24.704598
 20
72.447425
 30
0.0
 10
25.285552
 20
73.587867
 30
0.0
  0
LWPOLYLINE
  5
150
100
AcDbEntity
  8
Layer_1
 62
7
100
AcDbPolyline
 90
4
 70
1
 10
28.635915
 20
74.728172
 30
0.0
 10
28.044706
 20
73.587730
 30
0.0
 10
28.635915
 20
72.447152
 30
0.0
 10
29.216871
 20
73.587730
 30
0.0
  0
SPLINE
  5
151
100
AcDbEntity
  8
Layer_1
 62
7
100
AcDbSpline
 70
8
 71
3
 72
8
 73
4
 74
0
 40
0
 40
0
 40
0
 40
0
 40
1
 40
1
 40
1
 40
1
 10
22.295601
 20
73.733883
 30
0.0
 10
22.219351
 20
73.733839
 30
0.0
 10
22.157549
 20
73.672038
 30
0.0
 10
22.157507
 20
73.595789
 30
0.0
  0
SPLINE
  5
152
100
AcDbEntity
  8
Layer_1
 62
7
100
AcDbSpline
 70
8
 71
3
 72
8
 73
4
 74
0
 40
0
 40
0
 40
0
 40
0
 40
1
 40
1
 40
1
 40
1
 10
22.157507
 20
73.595789
 30
0.0
 10
22.157586
 20
73.575294
 30
0.0
 10
22.162206
 20
73.555072
 30
0.0
 10
22.171043
 20
73.536586
 30
0.0
  0
LWPOLYLINE
  5
153
100
AcDbEntity
  8
Layer_1
 62
7
100
AcDbPolyline
 90
4
 70
1
 10
27.325659
 20
74.726796
 30
0.0
 10
26.734450
 20
73.586355
 30
0.0
 10
27.325659
 20
72.445913
 30
0.0
 10
27.906612
 20
73.586355
 30
0.0
  0
SPLINE
  5
154
100
AcDbEntity
  8
Layer_1
 62
7
100
AcDbSpline
 70
8
 71
3
 72
8
 73
4
 74
0
 40
0
 40
0
 40
0
 40
0
 40
1
 40
1
 40
1
 40
1
 10
22.224366
 20
73.477672
 30
0.0
 10
22.245842
 20
73.464620
 30
0.0
 10
22.270466
 20
73.457672
 30
0.0
 10
22.295601
 20
73.457574
 30
0.0
  0
SPLINE
  5
155
100
AcDbEntity
  8
Layer_1
 62
7
100
AcDbSpline
 70
8
 71
3
 72
8
 73
4
 74
0
 40
0
 40
0
 40
0
 40
0
 40
1
 40
1
 40
1
 40
1
 10
22.295601
 20
73.457574
 30
0.0
 10
22.371957
 20
73.457543
 30
0.0
 10
22.433864
 20
73.519449
 30
0.0
 10
22.433832
 20
73.595805
 30
0.0
  0
SPLINE
  5
156
100
AcDbEntity
  8
Layer_1
 62
7
100
AcDbSpline
 70
8
 71
3
 72
8
 73
4
 74
0
 40
0
 40
0
 40
0
 40
0
 40
1
 40
1
 40
1
 40
1
 10
22.433832
 20
73.595805
 30
0.0
 10
22.433787
 20
73.672108
 30
0.0
 10
22.371904
 20
73.733931
 30
0.0
 10
22.295601
 20
73.733900
 30
0.0
  0
LWPOLYLINE
  5
157
100
AcDbEntity
  8
Layer_1
 62
7
100
AcDbPolyline
 90
59
 70
0
 10
22.171043
 20
73.536586
 30
0.0
 10
22.081486
 20
73.447029
 30
0.0
 10
22.081486
 20
71.431533
 30
0.0
 10
21.940110
 20
71.290158
 30
0.0
 10
21.940110
 20
69.274661
 30
0.0
 10
21.798871
 20
69.133285
 30
0.0
 10
21.798871
 20
67.117789
 30
0.0
 10
21.657495
 20
66.976429
 30
0.0
 10
21.657495
 20
64.960797
 30
0.0
 10
21.516256
 20
64.819557
 30
0.0
 10
21.516256
 20
62.803924
 30
0.0
 10
21.374880
 20
62.662685
 30
0.0
 10
21.374880
 20
60.647052
 30
0.0
 10
21.233641
 20
60.505813
 30
0.0
 10
21.233641
 20
58.490181
 30
0.0
 10
21.092265
 20
58.348941
 30
0.0
 10
21.092265
 20
56.333309
 30
0.0
 10
20.951025
 20
56.191933
 30
0.0
 10
20.951025
 20
54.176436
 30
0.0
 10
20.809650
 20
54.035060
 30
0.0
 10
20.809650
 20
52.019565
 30
0.0
 10
20.668410
 20
51.878188
 30
0.0
 10
20.668274
 20
51.878188
 30
0.0
 10
20.668274
 20
49.862555
 30
0.0
 10
20.527034
 20
49.721318
 30
0.0
 10
20.527034
 20
47.705820
 30
0.0
 10
20.385795
 20
47.564445
 30
0.0
 10
20.385795
 20
45.548950
 30
0.0
 10
20.244419
 20
45.407572
 30
0.0
 10
20.244419
 20
36.671250
 30
0.0
 10
20.323858
 20
36.671250
 30
0.0
 10
20.323858
 20
45.374621
 30
0.0
 10
20.465097
 20
45.515998
 30
0.0
 10
20.465097
 20
47.531631
 30
0.0
 10
20.606473
 20
47.672868
 30
0.0
 10
20.606473
 20
49.688501
 30
0.0
 10
20.747712
 20
49.829741
 30
0.0
 10
20.747712
 20
51.845374
 30
0.0
 10
20.889088
 20
51.986614
 30
0.0
 10
20.889088
 20
54.002246
 30
0.0
 10
21.030327
 20
54.143485
 30
0.0
 10
21.030327
 20
56.159118
 30
0.0
 10
21.171703
 20
56.300494
 30
0.0
 10
21.171703
 20
58.315990
 30
0.0
 10
21.312942
 20
58.457366
 30
0.0
 10
21.312942
 20
60.472862
 30
0.0
 10
21.454318
 20
60.614237
 30
0.0
 10
21.454318
 20
62.629734
 30
0.0
 10
21.595558
 20
62.771110
 30
0.0
 10
21.595558
 20
64.786606
 30
0.0
 10
21.736933
 20
64.927982
 30
0.0
 10
21.736933
 20
66.943477
 30
0.0
 10
21.878173
 20
67.084853
 30
0.0
 10
21.878173
 20
69.100486
 30
0.0
 10
22.019549
 20
69.241726
 30
0.0
 10
22.019549
 20
71.257358
 30
0.0
 10
22.160788
 20
71.398598
 30
0.0
 10
22.160788
 20
73.414230
 30
0.0
 10
22.224366
 20
73.477672
 30
0.0
  0
LWPOLYLINE
  5
158
100
AcDbEntity
  8
Layer_1
 62
7
100
AcDbPolyline
 90
1
 70
1
 10
22.295601
 20
73.733900
 30
0.0
  0
LWPOLYLINE
  5
159
100
AcDbEntity
  8
Layer_1
 62
7
100
AcDbPolyline
 90
4
 70
1
 10
26.011164
 20
72.274183
 30
0.0
 10
25.419955
 20
71.133741
 30
0.0
 10
26.011164
 20
69.993300
 30
0.0
 10
26.592255
 20
71.133741
 30
0.0
  0
LWPOLYLINE
  5
15a
100
AcDbEntity
  8
Layer_1
 62
7
100
AcDbPolyline
 90
4
 70
1
 10
23.392290
 20
72.272675
 30
0.0
 10
22.790280
 20
71.132234
 30
0.0
 10
23.392290
 20
69.991791
 30
0.0
 10
23.973244
 20
71.132234
 30
0.0
  0
LWPOLYLINE
  5
15b
100
AcDbEntity
  8
Layer_1
 62
7
100
AcDbPolyline
 90
4
 70
1
 10
24.704598
 20
72.267616
 30
0.0
 10
24.113389
 20
71.127175
 30
0.0
 10
24.704598
 20
69.986733
 30
0.0
 10
25.285552
 20
71.127175
 30
0.0
  0
LWPOLYLINE
  5
15c
100
AcDbEntity
  8
Layer_1
 62
7
100
AcDbPolyline
 90
4
 70
1
 10
28.635915
 20
72.267480
 30
0.0
 10
28.044706
 20
71.127038
 30
0.0
 10
28.635915
 20
69.986459
 30
0.0
 10
29.216871
 20
71.127038
 30
0.0
  0
SPLINE
  5
15d
100
AcDbEntity
  8
Layer_1
 62
7
100
AcDbSpline
 70
8
 71
3
 72
8
 73
4
 74
0
 40
0
 40
0
 40
0
 40
0
 40
1
 40
1
 40
1
 40
1
 10
22.295464
 20
71.272234
 30
0.0
 10
22.219161
 20
71.272190
 30
0.0
 10
22.157338
 20
71.210305
 30
0.0
 10
22.157370
 20
71.134003
 30
0.0
  0
SPLINE
  5
15e
100
AcDbEntity
  8
Layer_1
 62
7
100
AcDbSpline
 70
8
 71
3
 72
8
 73
4
 74
0
 40
0
 40
0
 40
0
 40
0
 40
1
 40
1
 40
1
 40
1
 10
22.157370
 20
71.134003
 30
0.0
 10
22.157370
 20
71.118741
 30
0.0
 10
22.159910
 20
71.103586
 30
0.0
 10
22.164889
 20
71.089156
 30
0.0
  0
LWPOLYLINE
  5
15f
100
AcDbEntity
  8
Layer_1
 62
7
100
AcDbPolyline
 90
4
 70
1
 10
27.325659
 20
72.266104
 30
0.0
 10
26.734450
 20
71.125662
 30
0.0
 10
27.325659
 20
69.985221
 30
0.0
 10
27.906612
 20
71.125662
 30
0.0
  0
SPLINE
  5
160
100
AcDbEntity
  8
Layer_1
 62
7
100
AcDbSpline
 70
8
 71
3
 72
8
 73
4
 74
0
 40
0
 40
0
 40
0
 40
0
 40
1
 40
1
 40
1
 40
1
 10
22.212197
 20
71.024074
 30
0.0
 10
22.236184
 20
71.005842
 30
0.0
 10
22.265472
 20
70.995952
 30
0.0
 10
22.295600
 20
70.995908
 30
0.0
  0
SPLINE
  5
161
100
AcDbEntity
  8
Layer_1
 62
7
100
AcDbSpline
 70
8
 71
3
 72
8
 73
4
 74
0
 40
0
 40
0
 40
0
 40
0
 40
1
 40
1
 40
1
 40
1
 10
22.295600
 20
70.995908
 30
0.0
 10
22.371904
 20
70.995877
 30
0.0
 10
22.433787
 20
71.057700
 30
0.0
 10
22.433832
 20
71.134003
 30
0.0
  0
SPLINE
  5
162
100
AcDbEntity
  8
Layer_1
 62
7
100
AcDbSpline
 70
8
 71
3
 72
8
 73
4
 74
0
 40
0
 40
0
 40
0
 40
0
 40
1
 40
1
 40
1
 40
1
 10
22.433832
 20
71.134003
 30
0.0
 10
22.433863
 20
71.210358
 30
0.0
 10
22.371957
 20
71.272266
 30
0.0
 10
22.295600
 20
71.272234
 30
0.0
  0
LWPOLYLINE
  5
163
100
AcDbEntity
  8
Layer_1
 62
7
100
AcDbPolyline
 90
62
 70
0
 10
22.164889
 20
71.089156
 30
0.0
 10
22.088459
 20
71.012725
 30
0.0
 10
22.088459
 20
68.996956
 30
0.0
 10
21.947220
 20
68.855853
 30
0.0
 10
21.947220
 20
66.840220
 30
0.0
 10
21.805980
 20
66.698845
 30
0.0
 10
21.805980
 20
64.683349
 30
0.0
 10
21.664604
 20
64.541973
 30
0.0
 10
21.664604
 20
62.526477
 30
0.0
 10
21.523365
 20
62.385101
 30
0.0
 10
21.523365
 20
60.369605
 30
0.0
 10
21.381989
 20
60.228229
 30
0.0
 10
21.381989
 20
58.212733
 30
0.0
 10
21.240750
 20
58.071357
 30
0.0
 10
21.240750
 20
56.055861
 30
0.0
 10
21.099374
 20
55.914485
 30
0.0
 10
21.099374
 20
53.898852
 30
0.0
 10
20.958135
 20
53.757613
 30
0.0
 10
20.958135
 20
51.741980
 30
0.0
 10
20.816759
 20
51.600740
 30
0.0
 10
20.816759
 20
49.585107
 30
0.0
 10
20.675520
 20
49.443868
 30
0.0
 10
20.675520
 20
47.428235
 30
0.0
 10
20.534144
 20
47.286995
 30
0.0
 10
20.534144
 20
45.271362
 30
0.0
 10
20.392904
 20
45.129987
 30
0.0
 10
20.392904
 20
37.641710
 30
0.0
 10
20.391952
 20
37.641847
 30
0.0
 10
20.373219
 20
37.378920
 30
0.0
 10
20.373219
 20
36.671769
 30
0.0
 10
20.452658
 20
36.671769
 30
0.0
 10
20.452658
 20
36.737944
 30
0.0
 10
20.452658
 20
37.366205
 30
0.0
 10
20.453610
 20
37.366070
 30
0.0
 10
20.472343
 20
37.628994
 30
0.0
 10
20.472343
 20
45.097173
 30
0.0
 10
20.613719
 20
45.238411
 30
0.0
 10
20.613719
 20
45.238548
 30
0.0
 10
20.613719
 20
47.254044
 30
0.0
 10
20.754958
 20
47.395421
 30
0.0
 10
20.754958
 20
49.410916
 30
0.0
 10
20.896334
 20
49.552294
 30
0.0
 10
20.896334
 20
51.567789
 30
0.0
 10
21.037573
 20
51.709164
 30
0.0
 10
21.037573
 20
53.724662
 30
0.0
 10
21.178949
 20
53.866038
 30
0.0
 10
21.178949
 20
55.881533
 30
0.0
 10
21.320189
 20
56.022910
 30
0.0
 10
21.320189
 20
58.038542
 30
0.0
 10
21.461564
 20
58.179781
 30
0.0
 10
21.461564
 20
60.195414
 30
0.0
 10
21.602804
 20
60.336654
 30
0.0
 10
21.602804
 20
62.352286
 30
0.0
 10
21.744180
 20
62.493526
 30
0.0
 10
21.744180
 20
64.509159
 30
0.0
 10
21.885419
 20
64.650397
 30
0.0
 10
21.885419
 20
66.666030
 30
0.0
 10
22.026795
 20
66.807269
 30
0.0
 10
22.026795
 20
68.822902
 30
0.0
 10
22.168034
 20
68.964278
 30
0.0
 10
22.168034
 20
70.979911
 30
0.0
 10
22.212197
 20
71.024074
 30
0.0
  0
LWPOLYLINE
  5
164
100
AcDbEntity
  8
Layer_1
 62
7
100
AcDbPolyline
 90
2
 70
0
 10
22.295600
 20
71.272234
 30
0.0
 10
22.295464
 20
71.272234
 30
0.0
  0
LWPOLYLINE
  5
165
100
AcDbEntity
  8
Layer_1
 62
7
100
AcDbPolyline
 90
4
 70
1
 10
26.011164
 20
69.813491
 30
0.0
 10
25.419955
 20
68.673049
 30
0.0
 10
26.011164
 20
67.532607
 30
0.0
 10
26.592255
 20
68.673049
 30
0.0
  0
LWPOLYLINE
  5
166
100
AcDbEntity
  8
Layer_1
 62
7
100
AcDbPolyline
 90
4
 70
1
 10
23.392290
 20
69.812115
 30
0.0
 10
22.790280
 20
68.671673
 30
0.0
 10
23.392290
 20
67.531232
 30
0.0
 10
23.973244
 20
68.671673
 30
0.0
  0
LWPOLYLINE
  5
167
100
AcDbEntity
  8
Layer_1
 62
7
100
AcDbPolyline
 90
4
 70
1
 10
24.704598
 20
69.806919
 30
0.0
 10
24.113389
 20
68.666477
 30
0.0
 10
24.704598
 20
67.526035
 30
0.0
 10
25.285552
 20
68.666477
 30
0.0
  0
LWPOLYLINE
  5
168
100
AcDbEntity
  8
Layer_1
 62
7
100
AcDbPolyline
 90
4
 70
1
 10
28.635915
 20
69.806782
 30
0.0
 10
28.044706
 20
68.666340
 30
0.0
 10
28.635915
 20
67.525762
 30
0.0
 10
29.216871
 20
68.666340
 30
0.0
  0
SPLINE
  5
169
100
AcDbEntity
  8
Layer_1
 62
7
100
AcDbSpline
 70
8
 71
3
 72
8
 73
4
 74
0
 40
0
 40
0
 40
0
 40
0
 40
1
 40
1
 40
1
 40
1
 10
22.299156
 20
68.813997
 30
0.0
 10
22.222855
 20
68.813953
 30
0.0
 10
22.161030
 20
68.752069
 30
0.0
 10
22.161061
 20
68.675766
 30
0.0
  0
SPLINE
  5
16a
100
AcDbEntity
  8
Layer_1
 62
7
100
AcDbSpline
 70
8
 71
3
 72
8
 73
4
 74
0
 40
0
 40
0
 40
0
 40
0
 40
1
 40
1
 40
1
 40
1
 10
22.161061
 20
68.675766
 30
0.0
 10
22.161061
 20
68.660505
 30
0.0
 10
22.163601
 20
68.645350
 30
0.0
 10
22.168581
 20
68.630919
 30
0.0
  0
LWPOLYLINE
  5
16b
100
AcDbEntity
  8
Layer_1
 62
7
100
AcDbPolyline
 90
4
 70
1
 10
27.325659
 20
69.805406
 30
0.0
 10
26.734450
 20
68.664964
 30
0.0
 10
27.325659
 20
67.524522
 30
0.0
 10
27.906612
 20
68.664964
 30
0.0
  0
SPLINE
  5
16c
100
AcDbEntity
  8
Layer_1
 62
7
100
AcDbSpline
 70
8
 71
3
 72
8
 73
4
 74
0
 40
0
 40
0
 40
0
 40
0
 40
1
 40
1
 40
1
 40
1
 10
22.215752
 20
68.565883
 30
0.0
 10
22.239739
 20
68.547653
 30
0.0
 10
22.269027
 20
68.537762
 30
0.0
 10
22.299155
 20
68.537717
 30
0.0
  0
SPLINE
  5
16d
100
AcDbEntity
  8
Layer_1
 62
7
100
AcDbSpline
 70
8
 71
3
 72
8
 73
4
 74
0
 40
0
 40
0
 40
0
 40
0
 40
1
 40
1
 40
1
 40
1
 10
22.299155
 20
68.537717
 30
0.0
 10
22.375458
 20
68.537686
 30
0.0
 10
22.437344
 20
68.599509
 30
0.0
 10
22.437387
 20
68.675812
 30
0.0
  0
SPLINE
  5
16e
100
AcDbEntity
  8
Layer_1
 62
7
100
AcDbSpline
 70
8
 71
3
 72
8
 73
4
 74
0
 40
0
 40
0
 40
0
 40
0
 40
1
 40
1
 40
1
 40
1
 10
22.437387
 20
68.675812
 30
0.0
 10
22.437418
 20
68.752168
 30
0.0
 10
22.375511
 20
68.814075
 30
0.0
 10
22.299155
 20
68.814043
 30
0.0
  0
LWPOLYLINE
  5
16f
100
AcDbEntity
  8
Layer_1
 62
7
100
AcDbPolyline
 90
55
 70
0
 10
22.168581
 20
68.630919
 30
0.0
 10
22.092150
 20
68.554489
 30
0.0
 10
22.092150
 20
66.538993
 30
0.0
 10
21.950911
 20
66.397617
 30
0.0
 10
21.950911
 20
64.382121
 30
0.0
 10
21.809535
 20
64.240745
 30
0.0
 10
21.809535
 20
62.225249
 30
0.0
 10
21.668296
 20
62.083872
 30
0.0
 10
21.668296
 20
60.068377
 30
0.0
 10
21.526920
 20
59.927001
 30
0.0
 10
21.526920
 20
57.911505
 30
0.0
 10
21.385681
 20
57.770129
 30
0.0
 10
21.385681
 20
55.754496
 30
0.0
 10
21.244305
 20
55.613257
 30
0.0
 10
21.244305
 20
53.597624
 30
0.0
 10
21.103066
 20
53.456385
 30
0.0
 10
21.103066
 20
51.440752
 30
0.0
 10
20.961690
 20
51.299515
 30
0.0
 10
20.961690
 20
49.283882
 30
0.0
 10
20.820450
 20
49.142642
 30
0.0
 10
20.820450
 20
47.127009
 30
0.0
 10
20.679075
 20
46.985632
 30
0.0
 10
20.679075
 20
44.970136
 30
0.0
 10
20.537835
 20
44.828762
 30
0.0
 10
20.537835
 20
37.622006
 30
0.0
 10
20.505431
 20
37.355388
 30
0.0
 10
20.505431
 20
36.671753
 30
0.0
 10
20.584869
 20
36.671753
 30
0.0
 10
20.584869
 20
36.737928
 30
0.0
 10
20.584869
 20
37.346774
 30
0.0
 10
20.617137
 20
37.612024
 30
0.0
 10
20.617137
 20
44.795948
 30
0.0
 10
20.758513
 20
44.937185
 30
0.0
 10
20.758513
 20
46.952818
 30
0.0
 10
20.899752
 20
47.094058
 30
0.0
 10
20.899752
 20
49.109691
 30
0.0
 10
21.041128
 20
49.251066
 30
0.0
 10
21.041128
 20
51.266564
 30
0.0
 10
21.182367
 20
51.407938
 30
0.0
 10
21.182367
 20
53.423433
 30
0.0
 10
21.323743
 20
53.564810
 30
0.0
 10
21.323743
 20
55.580351
 30
0.0
 10
21.464983
 20
55.721727
 30
0.0
 10
21.464983
 20
57.737224
 30
0.0
 10
21.606359
 20
57.878600
 30
0.0
 10
21.606359
 20
59.894232
 30
0.0
 10
21.747598
 20
60.035472
 30
0.0
 10
21.747598
 20
62.051104
 30
0.0
 10
21.888974
 20
62.192343
 30
0.0
 10
21.888974
 20
64.207976
 30
0.0
 10
22.030213
 20
64.349215
 30
0.0
 10
22.030213
 20
66.364848
 30
0.0
 10
22.171589
 20
66.506088
 30
0.0
 10
22.171589
 20
68.521720
 30
0.0
 10
22.215752
 20
68.565883
 30
0.0
  0
LWPOLYLINE
  5
170
100
AcDbEntity
  8
Layer_1
 62
7
100
AcDbPolyline
 90
1
 70
1
 10
22.299155
 20
68.814043
 30
0.0
  0
LWPOLYLINE
  5
171
100
AcDbEntity
  8
Layer_1
 62
7
100
AcDbPolyline
 90
4
 70
1
 10
26.011164
 20
67.352657
 30
0.0
 10
25.419955
 20
66.212215
 30
0.0
 10
26.011164
 20
65.071773
 30
0.0
 10
26.592255
 20
66.212215
 30
0.0
  0
LWPOLYLINE
  5
172
100
AcDbEntity
  8
Layer_1
 62
7
100
AcDbPolyline
 90
4
 70
1
 10
23.392290
 20
67.351281
 30
0.0
 10
22.790280
 20
66.210839
 30
0.0
 10
23.392290
 20
65.070397
 30
0.0
 10
23.973244
 20
66.210839
 30
0.0
  0
LWPOLYLINE
  5
173
100
AcDbEntity
  8
Layer_1
 62
7
100
AcDbPolyline
 90
4
 70
1
 10
24.704598
 20
67.346222
 30
0.0
 10
24.113389
 20
66.205780
 30
0.0
 10
24.704598
 20
65.065338
 30
0.0
 10
25.285552
 20
66.205780
 30
0.0
  0
LWPOLYLINE
  5
174
100
AcDbEntity
  8
Layer_1
 62
7
100
AcDbPolyline
 90
4
 70
1
 10
28.635915
 20
67.346085
 30
0.0
 10
28.044706
 20
66.205643
 30
0.0
 10
28.635915
 20
65.065065
 30
0.0
 10
29.216871
 20
66.205643
 30
0.0
  0
SPLINE
  5
175
100
AcDbEntity
  8
Layer_1
 62
7
100
AcDbSpline
 70
8
 71
3
 72
8
 73
4
 74
0
 40
0
 40
0
 40
0
 40
0
 40
1
 40
1
 40
1
 40
1
 10
22.302164
 20
66.349398
 30
0.0
 10
22.225863
 20
66.349354
 30
0.0
 10
22.164038
 20
66.287469
 30
0.0
 10
22.164069
 20
66.211167
 30
0.0
  0
SPLINE
  5
176
100
AcDbEntity
  8
Layer_1
 62
7
100
AcDbSpline
 70
8
 71
3
 72
8
 73
4
 74
0
 40
0
 40
0
 40
0
 40
0
 40
1
 40
1
 40
1
 40
1
 10
22.164069
 20
66.211167
 30
0.0
 10
22.164069
 20
66.195906
 30
0.0
 10
22.166609
 20
66.180751
 30
0.0
 10
22.171589
 20
66.166320
 30
0.0
  0
LWPOLYLINE
  5
177
100
AcDbEntity
  8
Layer_1
 62
7
100
AcDbPolyline
 90
4
 70
1
 10
27.325659
 20
67.344577
 30
0.0
 10
26.734450
 20
66.204136
 30
0.0
 10
27.325659
 20
65.063694
 30
0.0
 10
27.906612
 20
66.204136
 30
0.0
  0
SPLINE
  5
178
100
AcDbEntity
  8
Layer_1
 62
7
100
AcDbSpline
 70
8
 71
3
 72
8
 73
4
 74
0
 40
0
 40
0
 40
0
 40
0
 40
1
 40
1
 40
1
 40
1
 10
22.218760
 20
66.101099
 30
0.0
 10
22.242747
 20
66.082869
 30
0.0
 10
22.272036
 20
66.072977
 30
0.0
 10
22.302164
 20
66.072933
 30
0.0
  0
SPLINE
  5
179
100
AcDbEntity
  8
Layer_1
 62
7
100
AcDbSpline
 70
8
 71
3
 72
8
 73
4
 74
0
 40
0
 40
0
 40
0
 40
0
 40
1
 40
1
 40
1
 40
1
 10
22.302164
 20
66.072933
 30
0.0
 10
22.378467
 20
66.072902
 30
0.0
 10
22.440350
 20
66.134725
 30
0.0
 10
22.440395
 20
66.211027
 30
0.0
  0
SPLINE
  5
17a
100
AcDbEntity
  8
Layer_1
 62
7
100
AcDbSpline
 70
8
 71
3
 72
8
 73
4
 74
0
 40
0
 40
0
 40
0
 40
0
 40
1
 40
1
 40
1
 40
1
 10
22.440395
 20
66.211027
 30
0.0
 10
22.440427
 20
66.287383
 30
0.0
 10
22.378520
 20
66.349290
 30
0.0
 10
22.302164
 20
66.349258
 30
0.0
  0
LWPOLYLINE
  5
17b
100
AcDbEntity
  8
Layer_1
 62
7
100
AcDbPolyline
 90
53
 70
0
 10
22.171589
 20
66.166320
 30
0.0
 10
22.095158
 20
66.089890
 30
0.0
 10
22.095158
 20
64.074257
 30
0.0
 10
21.953919
 20
63.932881
 30
0.0
 10
21.953919
 20
61.917249
 30
0.0
 10
21.812544
 20
61.776009
 30
0.0
 10
21.812544
 20
59.760377
 30
0.0
 10
21.671305
 20
59.619137
 30
0.0
 10
21.671305
 20
57.603504
 30
0.0
 10
21.529928
 20
57.462265
 30
0.0
 10
21.529928
 20
55.446632
 30
0.0
 10
21.388689
 20
55.305393
 30
0.0
 10
21.388689
 20
53.289761
 30
0.0
 10
21.247314
 20
53.148521
 30
0.0
 10
21.247314
 20
51.132888
 30
0.0
 10
21.106074
 20
50.991513
 30
0.0
 10
21.106074
 20
48.976015
 30
0.0
 10
20.964698
 20
48.834641
 30
0.0
 10
20.964698
 20
46.819145
 30
0.0
 10
20.823459
 20
46.677768
 30
0.0
 10
20.823459
 20
44.662273
 30
0.0
 10
20.682083
 20
44.520898
 30
0.0
 10
20.682083
 20
37.565171
 30
0.0
 10
20.680840
 20
37.565436
 30
0.0
 10
20.637770
 20
37.313719
 30
0.0
 10
20.637770
 20
36.671650
 30
0.0
 10
20.717209
 20
36.671650
 30
0.0
 10
20.717209
 20
36.737824
 30
0.0
 10
20.717209
 20
37.293621
 30
0.0
 10
20.718452
 20
37.293357
 30
0.0
 10
20.761522
 20
37.545071
 30
0.0
 10
20.761522
 20
44.488079
 30
0.0
 10
20.902761
 20
44.629319
 30
0.0
 10
20.902761
 20
46.644952
 30
0.0
 10
21.044137
 20
46.786191
 30
0.0
 10
21.044137
 20
48.801824
 30
0.0
 10
21.185376
 20
48.943062
 30
0.0
 10
21.185376
 20
50.958694
 30
0.0
 10
21.326752
 20
51.099934
 30
0.0
 10
21.326752
 20
53.115567
 30
0.0
 10
21.467991
 20
53.256943
 30
0.0
 10
21.467991
 20
55.272439
 30
0.0
 10
21.609367
 20
55.413815
 30
0.0
 10
21.609367
 20
57.429311
 30
0.0
 10
21.750606
 20
57.570687
 30
0.0
 10
21.750606
 20
59.586183
 30
0.0
 10
21.891982
 20
59.727559
 30
0.0
 10
21.891982
 20
61.743055
 30
0.0
 10
22.033222
 20
61.884431
 30
0.0
 10
22.033222
 20
63.900063
 30
0.0
 10
22.174597
 20
64.041303
 30
0.0
 10
22.174597
 20
66.056936
 30
0.0
 10
22.218760
 20
66.101099
 30
0.0
  0
LWPOLYLINE
  5
17c
100
AcDbEntity
  8
Layer_1
 62
7
100
AcDbPolyline
 90
2
 70
0
 10
22.302164
 20
66.349258
 30
0.0
 10
22.302164
 20
66.349398
 30
0.0
  0
LWPOLYLINE
  5
17d
100
AcDbEntity
  8
Layer_1
 62
7
100
AcDbPolyline
 90
4
 70
1
 10
26.011164
 20
64.892023
 30
0.0
 10
25.419955
 20
63.751581
 30
0.0
 10
26.011164
 20
62.611139
 30
0.0
 10
26.592255
 20
63.751581
 30
0.0
  0
LWPOLYLINE
  5
17e
100
AcDbEntity
  8
Layer_1
 62
7
100
AcDbPolyline
 90
4
 70
1
 10
23.392290
 20
64.890647
 30
0.0
 10
22.790280
 20
63.750206
 30
0.0
 10
23.392290
 20
62.609764
 30
0.0
 10
23.973244
 20
63.750206
 30
0.0
  0
LWPOLYLINE
  5
17f
100
AcDbEntity
  8
Layer_1
 62
7
100
AcDbPolyline
 90
4
 70
1
 10
24.704598
 20
64.885588
 30
0.0
 10
24.113389
 20
63.745146
 30
0.0
 10
24.704598
 20
62.604705
 30
0.0
 10
25.285552
 20
63.745146
 30
0.0
  0
LWPOLYLINE
  5
180
100
AcDbEntity
  8
Layer_1
 62
7
100
AcDbPolyline
 90
4
 70
1
 10
28.635915
 20
64.885452
 30
0.0
 10
28.044706
 20
63.745010
 30
0.0
 10
28.635915
 20
62.604431
 30
0.0
 10
29.216871
 20
63.745010
 30
0.0
  0
SPLINE
  5
181
100
AcDbEntity
  8
Layer_1
 62
7
100
AcDbSpline
 70
8
 71
3
 72
8
 73
4
 74
0
 40
0
 40
0
 40
0
 40
0
 40
1
 40
1
 40
1
 40
1
 10
22.303258
 20
63.879420
 30
0.0
 10
22.226954
 20
63.879376
 30
0.0
 10
22.165131
 20
63.817492
 30
0.0
 10
22.165163
 20
63.741189
 30
0.0
  0
SPLINE
  5
182
100
AcDbEntity
  8
Layer_1
 62
7
100
AcDbSpline
 70
8
 71
3
 72
8
 73
4
 74
0
 40
0
 40
0
 40
0
 40
0
 40
1
 40
1
 40
1
 40
1
 10
22.165163
 20
63.741189
 30
0.0
 10
22.165163
 20
63.725928
 30
0.0
 10
22.167703
 20
63.710773
 30
0.0
 10
22.172683
 20
63.696343
 30
0.0
  0
LWPOLYLINE
  5
183
100
AcDbEntity
  8
Layer_1
 62
7
100
AcDbPolyline
 90
4
 70
1
 10
27.325659
 20
64.884076
 30
0.0
 10
26.734450
 20
63.743634
 30
0.0
 10
27.325659
 20
62.603192
 30
0.0
 10
27.906612
 20
63.743634
 30
0.0
  0
SPLINE
  5
184
100
AcDbEntity
  8
Layer_1
 62
7
100
AcDbSpline
 70
8
 71
3
 72
8
 73
4
 74
0
 40
0
 40
0
 40
0
 40
0
 40
1
 40
1
 40
1
 40
1
 10
22.219854
 20
63.631124
 30
0.0
 10
22.243841
 20
63.612895
 30
0.0
 10
22.273129
 20
63.603003
 30
0.0
 10
22.303257
 20
63.602958
 30
0.0
  0
SPLINE
  5
185
100
AcDbEntity
  8
Layer_1
 62
7
100
AcDbSpline
 70
8
 71
3
 72
8
 73
4
 74
0
 40
0
 40
0
 40
0
 40
0
 40
1
 40
1
 40
1
 40
1
 10
22.303257
 20
63.602958
 30
0.0
 10
22.379558
 20
63.602927
 30
0.0
 10
22.441443
 20
63.664750
 30
0.0
 10
22.441488
 20
63.741053
 30
0.0
  0
SPLINE
  5
186
100
AcDbEntity
  8
Layer_1
 62
7
100
AcDbSpline
 70
8
 71
3
 72
8
 73
4
 74
0
 40
0
 40
0
 40
0
 40
0
 40
1
 40
1
 40
1
 40
1
 10
22.441488
 20
63.741053
 30
0.0
 10
22.441518
 20
63.817409
 30
0.0
 10
22.379613
 20
63.879316
 30
0.0
 10
22.303257
 20
63.879284
 30
0.0
  0
LWPOLYLINE
  5
187
100
AcDbEntity
  8
Layer_1
 62
7
100
AcDbPolyline
 90
47
 70
0
 10
22.172683
 20
63.696343
 30
0.0
 10
22.096252
 20
63.619912
 30
0.0
 10
22.096252
 20
61.604279
 30
0.0
 10
21.955013
 20
61.463040
 30
0.0
 10
21.955013
 20
59.447545
 30
0.0
 10
21.813637
 20
59.306169
 30
0.0
 10
21.813637
 20
57.290399
 30
0.0
 10
21.672398
 20
57.149296
 30
0.0
 10
21.672398
 20
55.133664
 30
0.0
 10
21.531022
 20
54.992424
 30
0.0
 10
21.531022
 20
52.976791
 30
0.0
 10
21.389783
 20
52.835553
 30
0.0
 10
21.389783
 20
50.819920
 30
0.0
 10
21.248407
 20
50.678681
 30
0.0
 10
21.248407
 20
48.663048
 30
0.0
 10
21.107167
 20
48.521808
 30
0.0
 10
21.107167
 20
46.506175
 30
0.0
 10
20.965792
 20
46.364800
 30
0.0
 10
20.965792
 20
44.349305
 30
0.0
 10
20.824552
 20
44.207927
 30
0.0
 10
20.824552
 20
37.503507
 30
0.0
 10
20.769998
 20
37.254392
 30
0.0
 10
20.769998
 20
36.671660
 30
0.0
 10
20.849437
 20
36.671660
 30
0.0
 10
20.849437
 20
36.737835
 30
0.0
 10
20.849437
 20
37.238395
 30
0.0
 10
20.903854
 20
37.487511
 30
0.0
 10
20.903854
 20
44.174976
 30
0.0
 10
21.045230
 20
44.316216
 30
0.0
 10
21.045230
 20
46.331849
 30
0.0
 10
21.186469
 20
46.473089
 30
0.0
 10
21.186469
 20
48.488722
 30
0.0
 10
21.327845
 20
48.630097
 30
0.0
 10
21.327845
 20
50.645592
 30
0.0
 10
21.469084
 20
50.786969
 30
0.0
 10
21.469084
 20
52.802465
 30
0.0
 10
21.610460
 20
52.943840
 30
0.0
 10
21.610460
 20
54.959337
 30
0.0
 10
21.751700
 20
55.100713
 30
0.0
 10
21.751700
 20
57.116208
 30
0.0
 10
21.893075
 20
57.257585
 30
0.0
 10
21.893075
 20
59.273080
 30
0.0
 10
22.034315
 20
59.414456
 30
0.0
 10
22.034315
 20
61.430089
 30
0.0
 10
22.175691
 20
61.571329
 30
0.0
 10
22.175691
 20
63.586961
 30
0.0
 10
22.219854
 20
63.631124
 30
0.0
  0
LWPOLYLINE
  5
188
100
AcDbEntity
  8
Layer_1
 62
7
100
AcDbPolyline
 90
2
 70
0
 10
22.303257
 20
63.879284
 30
0.0
 10
22.303258
 20
63.879420
 30
0.0
  0
LWPOLYLINE
  5
189
100
AcDbEntity
  8
Layer_1
 62
7
100
AcDbPolyline
 90
4
 70
1
 10
26.011164
 20
62.431342
 30
0.0
 10
25.419955
 20
61.290901
 30
0.0
 10
26.011164
 20
60.150459
 30
0.0
 10
26.592255
 20
61.290901
 30
0.0
  0
LWPOLYLINE
  5
18a
100
AcDbEntity
  8
Layer_1
 62
7
100
AcDbPolyline
 90
4
 70
1
 10
23.392290
 20
62.429967
 30
0.0
 10
22.790280
 20
61.289525
 30
0.0
 10
23.392290
 20
60.149083
 30
0.0
 10
23.973244
 20
61.289525
 30
0.0
  0
LWPOLYLINE
  5
18b
100
AcDbEntity
  8
Layer_1
 62
7
100
AcDbPolyline
 90
4
 70
1
 10
24.704598
 20
62.424908
 30
0.0
 10
24.113389
 20
61.284465
 30
0.0
 10
24.704598
 20
60.144024
 30
0.0
 10
25.285552
 20
61.284465
 30
0.0
  0
LWPOLYLINE
  5
18c
100
AcDbEntity
  8
Layer_1
 62
7
100
AcDbPolyline
 90
4
 70
1
 10
28.635915
 20
62.424771
 30
0.0
 10
28.044706
 20
61.284329
 30
0.0
 10
28.635915
 20
60.143750
 30
0.0
 10
29.216871
 20
61.284329
 30
0.0
  0
SPLINE
  5
18d
100
AcDbEntity
  8
Layer_1
 62
7
100
AcDbSpline
 70
8
 71
3
 72
8
 73
4
 74
0
 40
0
 40
0
 40
0
 40
0
 40
1
 40
1
 40
1
 40
1
 10
22.300933
 20
61.440891
 30
0.0
 10
22.224630
 20
61.440847
 30
0.0
 10
22.162807
 20
61.378962
 30
0.0
 10
22.162839
 20
61.302659
 30
0.0
  0
SPLINE
  5
18e
100
AcDbEntity
  8
Layer_1
 62
7
100
AcDbSpline
 70
8
 71
3
 72
8
 73
4
 74
0
 40
0
 40
0
 40
0
 40
0
 40
1
 40
1
 40
1
 40
1
 10
22.162839
 20
61.302659
 30
0.0
 10
22.162839
 20
61.287398
 30
0.0
 10
22.165379
 20
61.272243
 30
0.0
 10
22.170358
 20
61.257813
 30
0.0
  0
LWPOLYLINE
  5
18f
100
AcDbEntity
  8
Layer_1
 62
7
100
AcDbPolyline
 90
4
 70
1
 10
27.325659
 20
62.423395
 30
0.0
 10
26.734450
 20
61.282954
 30
0.0
 10
27.325659
 20
60.142512
 30
0.0
 10
27.906612
 20
61.282954
 30
0.0
  0
SPLINE
  5
190
100
AcDbEntity
  8
Layer_1
 62
7
100
AcDbSpline
 70
8
 71
3
 72
8
 73
4
 74
0
 40
0
 40
0
 40
0
 40
0
 40
1
 40
1
 40
1
 40
1
 10
22.217530
 20
61.192731
 30
0.0
 10
22.241514
 20
61.174499
 30
0.0
 10
22.270805
 20
61.164610
 30
0.0
 10
22.300933
 20
61.164565
 30
0.0
  0
SPLINE
  5
191
100
AcDbEntity
  8
Layer_1
 62
7
100
AcDbSpline
 70
8
 71
3
 72
8
 73
4
 74
0
 40
0
 40
0
 40
0
 40
0
 40
1
 40
1
 40
1
 40
1
 10
22.300933
 20
61.164565
 30
0.0
 10
22.377236
 20
61.164533
 30
0.0
 10
22.439120
 20
61.226357
 30
0.0
 10
22.439165
 20
61.302659
 30
0.0
  0
SPLINE
  5
192
100
AcDbEntity
  8
Layer_1
 62
7
100
AcDbSpline
 70
8
 71
3
 72
8
 73
4
 74
0
 40
0
 40
0
 40
0
 40
0
 40
1
 40
1
 40
1
 40
1
 10
22.439165
 20
61.302659
 30
0.0
 10
22.439196
 20
61.379015
 30
0.0
 10
22.377289
 20
61.440922
 30
0.0
 10
22.300933
 20
61.440891
 30
0.0
  0
LWPOLYLINE
  5
193
100
AcDbEntity
  8
Layer_1
 62
7
100
AcDbPolyline
 90
44
 70
0
 10
22.170358
 20
61.257813
 30
0.0
 10
22.093928
 20
61.181383
 30
0.0
 10
22.093928
 20
59.165750
 30
0.0
 10
21.952689
 20
59.024510
 30
0.0
 10
21.952689
 20
57.008878
 30
0.0
 10
21.811449
 20
56.867638
 30
0.0
 10
21.811449
 20
54.852005
 30
0.0
 10
21.670073
 20
54.710767
 30
0.0
 10
21.670073
 20
52.695134
 30
0.0
 10
21.528834
 20
52.553895
 30
0.0
 10
21.528834
 20
50.538261
 30
0.0
 10
21.387458
 20
50.397021
 30
0.0
 10
21.387458
 20
48.381388
 30
0.0
 10
21.246219
 20
48.240151
 30
0.0
 10
21.246219
 20
48.240013
 30
0.0
 10
21.246219
 20
46.224518
 30
0.0
 10
21.104843
 20
46.083143
 30
0.0
 10
21.104843
 20
44.067645
 30
0.0
 10
20.963604
 20
43.926271
 30
0.0
 10
20.963604
 20
37.468371
 30
0.0
 10
20.902350
 20
37.188762
 30
0.0
 10
20.902350
 20
36.671660
 30
0.0
 10
20.981789
 20
36.671660
 30
0.0
 10
20.981789
 20
36.737835
 30
0.0
 10
20.981789
 20
37.176731
 30
0.0
 10
21.042906
 20
37.455790
 30
0.0
 10
21.042906
 20
43.893454
 30
0.0
 10
21.184282
 20
44.034694
 30
0.0
 10
21.184282
 20
46.050327
 30
0.0
 10
21.325521
 20
46.191567
 30
0.0
 10
21.325521
 20
48.207200
 30
0.0
 10
21.466897
 20
48.348575
 30
0.0
 10
21.466897
 20
50.364072
 30
0.0
 10
21.608136
 20
50.505447
 30
0.0
 10
21.608136
 20
52.520943
 30
0.0
 10
21.749512
 20
52.662319
 30
0.0
 10
21.749512
 20
54.677815
 30
0.0
 10
21.890751
 20
54.819191
 30
0.0
 10
21.890751
 20
56.834687
 30
0.0
 10
22.032128
 20
56.976063
 30
0.0
 10
22.032128
 20
58.991559
 30
0.0
 10
22.173367
 20
59.132935
 30
0.0
 10
22.173367
 20
61.148568
 30
0.0
 10
22.217530
 20
61.192731
 30
0.0
  0
LWPOLYLINE
  5
194
100
AcDbEntity
  8
Layer_1
 62
7
100
AcDbPolyline
 90
1
 70
1
 10
22.300933
 20
61.440891
 30
0.0
  0
LWPOLYLINE
  5
195
100
AcDbEntity
  8
Layer_1
 62
7
100
AcDbPolyline
 90
4
 70
1
 10
26.011164
 20
59.970800
 30
0.0
 10
25.419955
 20
58.830358
 30
0.0
 10
26.011164
 20
57.689916
 30
0.0
 10
26.592255
 20
58.830358
 30
0.0
  0
LWPOLYLINE
  5
196
100
AcDbEntity
  8
Layer_1
 62
7
100
AcDbPolyline
 90
4
 70
1
 10
23.392290
 20
59.969292
 30
0.0
 10
22.790280
 20
58.828850
 30
0.0
 10
23.392290
 20
57.688408
 30
0.0
 10
23.973244
 20
58.828850
 30
0.0
  0
LWPOLYLINE
  5
197
100
AcDbEntity
  8
Layer_1
 62
7
100
AcDbPolyline
 90
4
 70
1
 10
24.704598
 20
59.964233
 30
0.0
 10
24.113389
 20
58.823791
 30
0.0
 10
24.704598
 20
57.683349
 30
0.0
 10
25.285552
 20
58.823791
 30
0.0
  0
LWPOLYLINE
  5
198
100
AcDbEntity
  8
Layer_1
 62
7
100
AcDbPolyline
 90
4
 70
1
 10
28.635915
 20
59.964096
 30
0.0
 10
28.044706
 20
58.823654
 30
0.0
 10
28.635915
 20
57.683076
 30
0.0
 10
29.216871
 20
58.823654
 30
0.0
  0
SPLINE
  5
199
100
AcDbEntity
  8
Layer_1
 62
7
100
AcDbSpline
 70
8
 71
3
 72
8
 73
4
 74
0
 40
0
 40
0
 40
0
 40
0
 40
1
 40
1
 40
1
 40
1
 10
22.301344
 20
58.958185
 30
0.0
 10
22.225043
 20
58.958141
 30
0.0
 10
22.163217
 20
58.896256
 30
0.0
 10
22.163249
 20
58.819953
 30
0.0
  0
SPLINE
  5
19a
100
AcDbEntity
  8
Layer_1
 62
7
100
AcDbSpline
 70
8
 71
3
 72
8
 73
4
 74
0
 40
0
 40
0
 40
0
 40
0
 40
1
 40
1
 40
1
 40
1
 10
22.163249
 20
58.819953
 30
0.0
 10
22.163249
 20
58.804692
 30
0.0
 10
22.165789
 20
58.789537
 30
0.0
 10
22.170769
 20
58.775107
 30
0.0
  0
LWPOLYLINE
  5
19b
100
AcDbEntity
  8
Layer_1
 62
7
100
AcDbPolyline
 90
4
 70
1
 10
27.325659
 20
59.962720
 30
0.0
 10
26.734450
 20
58.822278
 30
0.0
 10
27.325659
 20
57.681836
 30
0.0
 10
27.906612
 20
58.822278
 30
0.0
  0
SPLINE
  5
19c
100
AcDbEntity
  8
Layer_1
 62
7
100
AcDbSpline
 70
8
 71
3
 72
8
 73
4
 74
0
 40
0
 40
0
 40
0
 40
0
 40
1
 40
1
 40
1
 40
1
 10
22.217940
 20
58.709901
 30
0.0
 10
22.241927
 20
58.691671
 30
0.0
 10
22.271215
 20
58.681780
 30
0.0
 10
22.301344
 20
58.681735
 30
0.0
  0
SPLINE
  5
19d
100
AcDbEntity
  8
Layer_1
 62
7
100
AcDbSpline
 70
8
 71
3
 72
8
 73
4
 74
0
 40
0
 40
0
 40
0
 40
0
 40
1
 40
1
 40
1
 40
1
 10
22.301344
 20
58.681735
 30
0.0
 10
22.377647
 20
58.681704
 30
0.0
 10
22.439530
 20
58.743527
 30
0.0
 10
22.439575
 20
58.819830
 30
0.0
  0
SPLINE
  5
19e
100
AcDbEntity
  8
Layer_1
 62
7
100
AcDbSpline
 70
8
 71
3
 72
8
 73
4
 74
0
 40
0
 40
0
 40
0
 40
0
 40
1
 40
1
 40
1
 40
1
 10
22.439575
 20
58.819830
 30
0.0
 10
22.439606
 20
58.896185
 30
0.0
 10
22.377700
 20
58.958092
 30
0.0
 10
22.301344
 20
58.958061
 30
0.0
  0
LWPOLYLINE
  5
19f
100
AcDbEntity
  8
Layer_1
 62
7
100
AcDbPolyline
 90
40
 70
0
 10
22.170769
 20
58.775107
 30
0.0
 10
22.094338
 20
58.698677
 30
0.0
 10
22.094338
 20
56.683044
 30
0.0
 10
21.953099
 20
56.541805
 30
0.0
 10
21.953099
 20
54.526172
 30
0.0
 10
21.811723
 20
54.384945
 30
0.0
 10
21.811723
 20
52.369313
 30
0.0
 10
21.670484
 20
52.228073
 30
0.0
 10
21.670484
 20
50.212440
 30
0.0
 10
21.529108
 20
50.071200
 30
0.0
 10
21.529108
 20
48.055570
 30
0.0
 10
21.387869
 20
47.914330
 30
0.0
 10
21.387869
 20
47.914192
 30
0.0
 10
21.387869
 20
45.898697
 30
0.0
 10
21.246493
 20
45.757322
 30
0.0
 10
21.246493
 20
43.741824
 30
0.0
 10
21.105254
 20
43.600449
 30
0.0
 10
21.105254
 20
37.436237
 30
0.0
 10
21.034566
 20
37.176321
 30
0.0
 10
21.034566
 20
36.671660
 30
0.0
 10
21.114004
 20
36.671660
 30
0.0
 10
21.114004
 20
36.737835
 30
0.0
 10
21.114004
 20
37.148429
 30
0.0
 10
21.184556
 20
37.408347
 30
0.0
 10
21.184556
 20
43.567498
 30
0.0
 10
21.325932
 20
43.708738
 30
0.0
 10
21.325932
 20
45.724371
 30
0.0
 10
21.467171
 20
45.865608
 30
0.0
 10
21.467171
 20
47.881241
 30
0.0
 10
21.608547
 20
48.022618
 30
0.0
 10
21.608547
 20
50.038114
 30
0.0
 10
21.749786
 20
50.179489
 30
0.0
 10
21.749786
 20
52.194986
 30
0.0
 10
21.891162
 20
52.336362
 30
0.0
 10
21.891162
 20
54.351857
 30
0.0
 10
22.032401
 20
54.493233
 30
0.0
 10
22.032401
 20
56.508729
 30
0.0
 10
22.173777
 20
56.650105
 30
0.0
 10
22.173777
 20
58.665738
 30
0.0
 10
22.217940
 20
58.709901
 30
0.0
  0
LWPOLYLINE
  5
1a0
100
AcDbEntity
  8
Layer_1
 62
7
100
AcDbPolyline
 90
2
 70
0
 10
22.301344
 20
58.958061
 30
0.0
 10
22.301344
 20
58.958185
 30
0.0
  0
LWPOLYLINE
  5
1a1
100
AcDbEntity
  8
Layer_1
 62
7
100
AcDbPolyline
 90
4
 70
1
 10
26.011164
 20
57.510107
 30
0.0
 10
25.419955
 20
56.369665
 30
0.0
 10
26.011164
 20
55.229224
 30
0.0
 10
26.592255
 20
56.369665
 30
0.0
  0
LWPOLYLINE
  5
1a2
100
AcDbEntity
  8
Layer_1
 62
7
100
AcDbPolyline
 90
4
 70
1
 10
23.392290
 20
57.508731
 30
0.0
 10
22.790280
 20
56.368289
 30
0.0
 10
23.392290
 20
55.227847
 30
0.0
 10
23.973244
 20
56.368289
 30
0.0
  0
LWPOLYLINE
  5
1a3
100
AcDbEntity
  8
Layer_1
 62
7
100
AcDbPolyline
 90
4
 70
1
 10
24.704598
 20
57.503673
 30
0.0
 10
24.113389
 20
56.363231
 30
0.0
 10
24.704598
 20
55.222789
 30
0.0
 10
25.285552
 20
56.363231
 30
0.0
  0
LWPOLYLINE
  5
1a4
100
AcDbEntity
  8
Layer_1
 62
7
100
AcDbPolyline
 90
4
 70
1
 10
28.635915
 20
57.503536
 30
0.0
 10
28.044706
 20
56.363094
 30
0.0
 10
28.635915
 20
55.222515
 30
0.0
 10
29.216871
 20
56.363094
 30
0.0
  0
SPLINE
  5
1a5
100
AcDbEntity
  8
Layer_1
 62
7
100
AcDbSpline
 70
8
 71
3
 72
8
 73
4
 74
0
 40
0
 40
0
 40
0
 40
0
 40
1
 40
1
 40
1
 40
1
 10
22.299019
 20
56.501727
 30
0.0
 10
22.222716
 20
56.501682
 30
0.0
 10
22.160893
 20
56.439798
 30
0.0
 10
22.160925
 20
56.363495
 30
0.0
  0
SPLINE
  5
1a6
100
AcDbEntity
  8
Layer_1
 62
7
100
AcDbSpline
 70
8
 71
3
 72
8
 73
4
 74
0
 40
0
 40
0
 40
0
 40
0
 40
1
 40
1
 40
1
 40
1
 10
22.160925
 20
56.363495
 30
0.0
 10
22.160925
 20
56.348234
 30
0.0
 10
22.163465
 20
56.333079
 30
0.0
 10
22.168444
 20
56.318649
 30
0.0
  0
LWPOLYLINE
  5
1a7
100
AcDbEntity
  8
Layer_1
 62
7
100
AcDbPolyline
 90
4
 70
1
 10
27.325659
 20
57.502160
 30
0.0
 10
26.734450
 20
56.361718
 30
0.0
 10
27.325659
 20
55.221276
 30
0.0
 10
27.906612
 20
56.361718
 30
0.0
  0
SPLINE
  5
1a8
100
AcDbEntity
  8
Layer_1
 62
7
100
AcDbSpline
 70
8
 71
3
 72
8
 73
4
 74
0
 40
0
 40
0
 40
0
 40
0
 40
1
 40
1
 40
1
 40
1
 10
22.215615
 20
56.253567
 30
0.0
 10
22.239602
 20
56.235337
 30
0.0
 10
22.268891
 20
56.225446
 30
0.0
 10
22.299019
 20
56.225401
 30
0.0
  0
SPLINE
  5
1a9
100
AcDbEntity
  8
Layer_1
 62
7
100
AcDbSpline
 70
8
 71
3
 72
8
 73
4
 74
0
 40
0
 40
0
 40
0
 40
0
 40
1
 40
1
 40
1
 40
1
 10
22.299019
 20
56.225401
 30
0.0
 10
22.375319
 20
56.225369
 30
0.0
 10
22.437205
 20
56.287193
 30
0.0
 10
22.437250
 20
56.363495
 30
0.0
  0
SPLINE
  5
1aa
100
AcDbEntity
  8
Layer_1
 62
7
100
AcDbSpline
 70
8
 71
3
 72
8
 73
4
 74
0
 40
0
 40
0
 40
0
 40
0
 40
1
 40
1
 40
1
 40
1
 10
22.437250
 20
56.363495
 30
0.0
 10
22.437279
 20
56.439851
 30
0.0
 10
22.375375
 20
56.501758
 30
0.0
 10
22.299019
 20
56.501727
 30
0.0
  0
LWPOLYLINE
  5
1ab
100
AcDbEntity
  8
Layer_1
 62
7
100
AcDbPolyline
 90
35
 70
0
 10
22.168444
 20
56.318649
 30
0.0
 10
22.092014
 20
56.242219
 30
0.0
 10
22.092014
 20
54.226722
 30
0.0
 10
21.950774
 20
54.085346
 30
0.0
 10
21.950774
 20
52.069852
 30
0.0
 10
21.809398
 20
51.928474
 30
0.0
 10
21.809398
 20
49.912979
 30
0.0
 10
21.668159
 20
49.771604
 30
0.0
 10
21.668159
 20
47.755971
 30
0.0
 10
21.526783
 20
47.614732
 30
0.0
 10
21.526783
 20
45.599099
 30
0.0
 10
21.385544
 20
45.457859
 30
0.0
 10
21.385544
 20
43.442226
 30
0.0
 10
21.244168
 20
43.300986
 30
0.0
 10
21.244168
 20
37.388628
 30
0.0
 10
21.166917
 20
37.182716
 30
0.0
 10
21.166917
 20
36.671631
 30
0.0
 10
21.246356
 20
36.671631
 30
0.0
 10
21.246356
 20
36.737806
 30
0.0
 10
21.246356
 20
37.159885
 30
0.0
 10
21.323607
 20
37.365657
 30
0.0
 10
21.323607
 20
43.268035
 30
0.0
 10
21.464846
 20
43.409412
 30
0.0
 10
21.464846
 20
45.424908
 30
0.0
 10
21.606222
 20
45.566282
 30
0.0
 10
21.606222
 20
47.581780
 30
0.0
 10
21.747461
 20
47.723155
 30
0.0
 10
21.747461
 20
49.738788
 30
0.0
 10
21.888837
 20
49.880028
 30
0.0
 10
21.888837
 20
51.895661
 30
0.0
 10
22.030076
 20
52.036901
 30
0.0
 10
22.030076
 20
54.052532
 30
0.0
 10
22.171452
 20
54.193771
 30
0.0
 10
22.171452
 20
56.209404
 30
0.0
 10
22.215615
 20
56.253567
 30
0.0
  0
LWPOLYLINE
  5
1ac
100
AcDbEntity
  8
Layer_1
 62
7
100
AcDbPolyline
 90
1
 70
1
 10
22.299019
 20
56.501727
 30
0.0
  0
LWPOLYLINE
  5
1ad
100
AcDbEntity
  8
Layer_1
 62
7
100
AcDbPolyline
 90
4
 70
1
 10
26.011164
 20
55.049410
 30
0.0
 10
25.419955
 20
53.908968
 30
0.0
 10
26.011164
 20
52.768527
 30
0.0
 10
26.592255
 20
53.908968
 30
0.0
  0
LWPOLYLINE
  5
1ae
100
AcDbEntity
  8
Layer_1
 62
7
100
AcDbPolyline
 90
4
 70
1
 10
23.392290
 20
55.048035
 30
0.0
 10
22.790280
 20
53.907593
 30
0.0
 10
23.392290
 20
52.767151
 30
0.0
 10
23.973244
 20
53.907593
 30
0.0
  0
LWPOLYLINE
  5
1af
100
AcDbEntity
  8
Layer_1
 62
7
100
AcDbPolyline
 90
4
 70
1
 10
24.704598
 20
55.042976
 30
0.0
 10
24.113389
 20
53.902534
 30
0.0
 10
24.704598
 20
52.762092
 30
0.0
 10
25.285552
 20
53.902534
 30
0.0
  0
LWPOLYLINE
  5
1b0
100
AcDbEntity
  8
Layer_1
 62
7
100
AcDbPolyline
 90
4
 70
1
 10
28.635915
 20
55.042711
 30
0.0
 10
28.044706
 20
53.902270
 30
0.0
 10
28.635915
 20
52.761691
 30
0.0
 10
29.216871
 20
53.902270
 30
0.0
  0
SPLINE
  5
1b1
100
AcDbEntity
  8
Layer_1
 62
7
100
AcDbSpline
 70
8
 71
3
 72
8
 73
4
 74
0
 40
0
 40
0
 40
0
 40
0
 40
1
 40
1
 40
1
 40
1
 10
22.302027
 20
54.045588
 30
0.0
 10
22.225724
 20
54.045543
 30
0.0
 10
22.163901
 20
53.983660
 30
0.0
 10
22.163933
 20
53.907357
 30
0.0
  0
SPLINE
  5
1b2
100
AcDbEntity
  8
Layer_1
 62
7
100
AcDbSpline
 70
8
 71
3
 72
8
 73
4
 74
0
 40
0
 40
0
 40
0
 40
0
 40
1
 40
1
 40
1
 40
1
 10
22.163933
 20
53.907357
 30
0.0
 10
22.163933
 20
53.892096
 30
0.0
 10
22.166473
 20
53.876941
 30
0.0
 10
22.171452
 20
53.862511
 30
0.0
  0
LWPOLYLINE
  5
1b3
100
AcDbEntity
  8
Layer_1
 62
7
100
AcDbPolyline
 90
4
 70
1
 10
27.325659
 20
55.041335
 30
0.0
 10
26.734450
 20
53.900894
 30
0.0
 10
27.325659
 20
52.760452
 30
0.0
 10
27.906612
 20
53.900894
 30
0.0
  0
SPLINE
  5
1b4
100
AcDbEntity
  8
Layer_1
 62
7
100
AcDbSpline
 70
8
 71
3
 72
8
 73
4
 74
0
 40
0
 40
0
 40
0
 40
0
 40
1
 40
1
 40
1
 40
1
 10
22.218624
 20
53.797429
 30
0.0
 10
22.242611
 20
53.779199
 30
0.0
 10
22.271896
 20
53.769308
 30
0.0
 10
22.302027
 20
53.769263
 30
0.0
  0
SPLINE
  5
1b5
100
AcDbEntity
  8
Layer_1
 62
7
100
AcDbSpline
 70
8
 71
3
 72
8
 73
4
 74
0
 40
0
 40
0
 40
0
 40
0
 40
1
 40
1
 40
1
 40
1
 10
22.302027
 20
53.769263
 30
0.0
 10
22.378328
 20
53.769231
 30
0.0
 10
22.440216
 20
53.831054
 30
0.0
 10
22.440258
 20
53.907357
 30
0.0
  0
SPLINE
  5
1b6
100
AcDbEntity
  8
Layer_1
 62
7
100
AcDbSpline
 70
8
 71
3
 72
8
 73
4
 74
0
 40
0
 40
0
 40
0
 40
0
 40
1
 40
1
 40
1
 40
1
 10
22.440258
 20
53.907357
 30
0.0
 10
22.440290
 20
53.983713
 30
0.0
 10
22.378381
 20
54.045620
 30
0.0
 10
22.302027
 20
54.045588
 30
0.0
  0
LWPOLYLINE
  5
1b7
100
AcDbEntity
  8
Layer_1
 62
7
100
AcDbPolyline
 90
32
 70
0
 10
22.171452
 20
53.862511
 30
0.0
 10
22.095022
 20
53.786080
 30
0.0
 10
22.095022
 20
51.770584
 30
0.0
 10
21.953783
 20
51.629207
 30
0.0
 10
21.953783
 20
49.613712
 30
0.0
 10
21.812406
 20
49.472337
 30
0.0
 10
21.812406
 20
47.456839
 30
0.0
 10
21.671167
 20
47.315464
 30
0.0
 10
21.671167
 20
45.299969
 30
0.0
 10
21.529791
 20
45.158591
 30
0.0
 10
21.529791
 20
43.142961
 30
0.0
 10
21.388552
 20
43.001721
 30
0.0
 10
21.388552
 20
37.347094
 30
0.0
 10
21.299543
 20
37.185071
 30
0.0
 10
21.299278
 20
37.185071
 30
0.0
 10
21.299278
 20
36.671660
 30
0.0
 10
21.378717
 20
36.671660
 30
0.0
 10
21.378717
 20
36.737835
 30
0.0
 10
21.378717
 20
37.181380
 30
0.0
 10
21.467863
 20
37.343538
 30
0.0
 10
21.467863
 20
42.968770
 30
0.0
 10
21.609239
 20
43.110145
 30
0.0
 10
21.609239
 20
45.125640
 30
0.0
 10
21.750478
 20
45.267017
 30
0.0
 10
21.750478
 20
47.282650
 30
0.0
 10
21.891854
 20
47.423890
 30
0.0
 10
21.891854
 20
49.439523
 30
0.0
 10
22.033093
 20
49.580760
 30
0.0
 10
22.033093
 20
51.596393
 30
0.0
 10
22.174469
 20
51.737633
 30
0.0
 10
22.174469
 20
53.753266
 30
0.0
 10
22.218624
 20
53.797429
 30
0.0
  0
LWPOLYLINE
  5
1b8
100
AcDbEntity
  8
Layer_1
 62
7
100
AcDbPolyline
 90
1
 70
1
 10
22.302027
 20
54.045588
 30
0.0
  0
LWPOLYLINE
  5
1b9
100
AcDbEntity
  8
Layer_1
 62
7
100
AcDbPolyline
 90
4
 70
1
 10
26.011164
 20
52.588486
 30
0.0
 10
25.419955
 20
51.448044
 30
0.0
 10
26.011164
 20
50.307602
 30
0.0
 10
26.592255
 20
51.448044
 30
0.0
  0
LWPOLYLINE
  5
1ba
100
AcDbEntity
  8
Layer_1
 62
7
100
AcDbPolyline
 90
4
 70
1
 10
23.392290
 20
52.587111
 30
0.0
 10
22.790280
 20
51.446668
 30
0.0
 10
23.392290
 20
50.306227
 30
0.0
 10
23.973244
 20
51.446668
 30
0.0
  0
LWPOLYLINE
  5
1bb
100
AcDbEntity
  8
Layer_1
 62
7
100
AcDbPolyline
 90
4
 70
1
 10
24.704598
 20
52.582052
 30
0.0
 10
24.113389
 20
51.441612
 30
0.0
 10
24.704598
 20
50.301168
 30
0.0
 10
25.285552
 20
51.441612
 30
0.0
  0
LWPOLYLINE
  5
1bc
100
AcDbEntity
  8
Layer_1
 62
7
100
AcDbPolyline
 90
4
 70
1
 10
28.635915
 20
52.581915
 30
0.0
 10
28.044706
 20
51.441474
 30
0.0
 10
28.635915
 20
50.300895
 30
0.0
 10
29.216871
 20
51.441474
 30
0.0
  0
SPLINE
  5
1bd
100
AcDbEntity
  8
Layer_1
 62
7
100
AcDbSpline
 70
8
 71
3
 72
8
 73
4
 74
0
 40
0
 40
0
 40
0
 40
0
 40
1
 40
1
 40
1
 40
1
 10
22.298746
 20
51.589268
 30
0.0
 10
22.222445
 20
51.589223
 30
0.0
 10
22.160619
 20
51.527340
 30
0.0
 10
22.160651
 20
51.451036
 30
0.0
  0
SPLINE
  5
1be
100
AcDbEntity
  8
Layer_1
 62
7
100
AcDbSpline
 70
8
 71
3
 72
8
 73
4
 74
0
 40
0
 40
0
 40
0
 40
0
 40
1
 40
1
 40
1
 40
1
 10
22.160651
 20
51.451036
 30
0.0
 10
22.160651
 20
51.435770
 30
0.0
 10
22.163191
 20
51.420609
 30
0.0
 10
22.168171
 20
51.406190
 30
0.0
  0
LWPOLYLINE
  5
1bf
100
AcDbEntity
  8
Layer_1
 62
7
100
AcDbPolyline
 90
4
 70
1
 10
27.325659
 20
52.580539
 30
0.0
 10
26.734450
 20
51.440099
 30
0.0
 10
27.325659
 20
50.299657
 30
0.0
 10
27.906612
 20
51.440099
 30
0.0
  0
SPLINE
  5
1c0
100
AcDbEntity
  8
Layer_1
 62
7
100
AcDbSpline
 70
8
 71
3
 72
8
 73
4
 74
0
 40
0
 40
0
 40
0
 40
0
 40
1
 40
1
 40
1
 40
1
 10
22.215342
 20
51.341107
 30
0.0
 10
22.239329
 20
51.322851
 30
0.0
 10
22.268617
 20
51.312987
 30
0.0
 10
22.298745
 20
51.312942
 30
0.0
  0
SPLINE
  5
1c1
100
AcDbEntity
  8
Layer_1
 62
7
100
AcDbSpline
 70
8
 71
3
 72
8
 73
4
 74
0
 40
0
 40
0
 40
0
 40
0
 40
1
 40
1
 40
1
 40
1
 10
22.298745
 20
51.312942
 30
0.0
 10
22.375048
 20
51.312911
 30
0.0
 10
22.436934
 20
51.374736
 30
0.0
 10
22.436976
 20
51.451036
 30
0.0
  0
SPLINE
  5
1c2
100
AcDbEntity
  8
Layer_1
 62
7
100
AcDbSpline
 70
8
 71
3
 72
8
 73
4
 74
0
 40
0
 40
0
 40
0
 40
0
 40
1
 40
1
 40
1
 40
1
 10
22.436976
 20
51.451036
 30
0.0
 10
22.437008
 20
51.527393
 30
0.0
 10
22.375101
 20
51.589300
 30
0.0
 10
22.298745
 20
51.589268
 30
0.0
  0
LWPOLYLINE
  5
1c3
100
AcDbEntity
  8
Layer_1
 62
7
100
AcDbPolyline
 90
28
 70
0
 10
22.168171
 20
51.406190
 30
0.0
 10
22.091740
 20
51.329759
 30
0.0
 10
22.091740
 20
49.314126
 30
0.0
 10
21.950501
 20
49.172887
 30
0.0
 10
21.950501
 20
47.157391
 30
0.0
 10
21.809262
 20
47.016016
 30
0.0
 10
21.809262
 20
45.000519
 30
0.0
 10
21.667886
 20
44.859144
 30
0.0
 10
21.667886
 20
42.843648
 30
0.0
 10
21.526647
 20
42.702271
 30
0.0
 10
21.526647
 20
37.357468
 30
0.0
 10
21.431484
 20
37.188608
 30
0.0
 10
21.431484
 20
36.671507
 30
0.0
 10
21.510923
 20
36.671507
 30
0.0
 10
21.510923
 20
36.737684
 30
0.0
 10
21.510923
 20
37.176988
 30
0.0
 10
21.605948
 20
37.345845
 30
0.0
 10
21.605948
 20
42.669457
 30
0.0
 10
21.747324
 20
42.810697
 30
0.0
 10
21.747324
 20
44.826330
 30
0.0
 10
21.888564
 20
44.967567
 30
0.0
 10
21.888564
 20
46.983200
 30
0.0
 10
22.029939
 20
47.124440
 30
0.0
 10
22.029939
 20
49.140073
 30
0.0
 10
22.171179
 20
49.281313
 30
0.0
 10
22.171179
 20
49.281450
 30
0.0
 10
22.171179
 20
51.296946
 30
0.0
 10
22.215342
 20
51.341107
 30
0.0
  0
LWPOLYLINE
  5
1c4
100
AcDbEntity
  8
Layer_1
 62
7
100
AcDbPolyline
 90
1
 70
1
 10
22.298745
 20
51.589268
 30
0.0
  0
LWPOLYLINE
  5
1c5
100
AcDbEntity
  8
Layer_1
 62
7
100
AcDbPolyline
 90
4
 70
1
 10
23.392290
 20
50.127792
 30
0.0
 10
22.790280
 20
48.987348
 30
0.0
 10
23.392290
 20
47.846906
 30
0.0
 10
23.973244
 20
48.987348
 30
0.0
  0
LWPOLYLINE
  5
1c6
100
AcDbEntity
  8
Layer_1
 62
7
100
AcDbPolyline
 90
4
 70
1
 10
26.011164
 20
50.127792
 30
0.0
 10
25.419955
 20
48.987348
 30
0.0
 10
26.011164
 20
47.846906
 30
0.0
 10
26.592255
 20
48.987348
 30
0.0
  0
LWPOLYLINE
  5
1c7
100
AcDbEntity
  8
Layer_1
 62
7
100
AcDbPolyline
 90
4
 70
1
 10
24.704598
 20
50.122738
 30
0.0
 10
24.113389
 20
48.982297
 30
0.0
 10
24.704598
 20
47.841853
 30
0.0
 10
25.285552
 20
48.982297
 30
0.0
  0
LWPOLYLINE
  5
1c8
100
AcDbEntity
  8
Layer_1
 62
7
100
AcDbPolyline
 90
4
 70
1
 10
28.635915
 20
50.122601
 30
0.0
 10
28.044706
 20
48.982159
 30
0.0
 10
28.635915
 20
47.841580
 30
0.0
 10
29.216871
 20
48.982159
 30
0.0
  0
SPLINE
  5
1c9
100
AcDbEntity
  8
Layer_1
 62
7
100
AcDbSpline
 70
8
 71
3
 72
8
 73
4
 74
0
 40
0
 40
0
 40
0
 40
0
 40
1
 40
1
 40
1
 40
1
 10
22.301480
 20
49.120068
 30
0.0
 10
22.225241
 20
49.119949
 30
0.0
 10
22.163491
 20
49.058094
 30
0.0
 10
22.163522
 20
48.981839
 30
0.0
  0
SPLINE
  5
1ca
100
AcDbEntity
  8
Layer_1
 62
7
100
AcDbSpline
 70
8
 71
3
 72
8
 73
4
 74
0
 40
0
 40
0
 40
0
 40
0
 40
1
 40
1
 40
1
 40
1
 10
22.163522
 20
48.981839
 30
0.0
 10
22.163522
 20
48.966572
 30
0.0
 10
22.166062
 20
48.951412
 30
0.0
 10
22.171042
 20
48.936992
 30
0.0
  0
LWPOLYLINE
  5
1cb
100
AcDbEntity
  8
Layer_1
 62
7
100
AcDbPolyline
 90
4
 70
1
 10
27.325659
 20
50.119955
 30
0.0
 10
26.734450
 20
48.979513
 30
0.0
 10
27.325659
 20
47.839072
 30
0.0
 10
27.906612
 20
48.979513
 30
0.0
  0
SPLINE
  5
1cc
100
AcDbEntity
  8
Layer_1
 62
7
100
AcDbSpline
 70
8
 71
3
 72
8
 73
4
 74
0
 40
0
 40
0
 40
0
 40
0
 40
1
 40
1
 40
1
 40
1
 10
22.218080
 20
48.871841
 30
0.0
 10
22.242067
 20
48.853585
 30
0.0
 10
22.271356
 20
48.843716
 30
0.0
 10
22.301484
 20
48.843673
 30
0.0
  0
SPLINE
  5
1cd
100
AcDbEntity
  8
Layer_1
 62
7
100
AcDbSpline
 70
8
 71
3
 72
8
 73
4
 74
0
 40
0
 40
0
 40
0
 40
0
 40
1
 40
1
 40
1
 40
1
 10
22.301484
 20
48.843673
 30
0.0
 10
22.377787
 20
48.843642
 30
0.0
 10
22.439670
 20
48.905464
 30
0.0
 10
22.439715
 20
48.981770
 30
0.0
  0
SPLINE
  5
1ce
100
AcDbEntity
  8
Layer_1
 62
7
100
AcDbSpline
 70
8
 71
3
 72
8
 73
4
 74
0
 40
0
 40
0
 40
0
 40
0
 40
1
 40
1
 40
1
 40
1
 10
22.439715
 20
48.981770
 30
0.0
 10
22.439747
 20
49.058076
 30
0.0
 10
22.377913
 20
49.119957
 30
0.0
 10
22.301621
 20
49.119999
 30
0.0
  0
LWPOLYLINE
  5
1cf
100
AcDbEntity
  8
Layer_1
 62
7
100
AcDbPolyline
 90
32
 70
0
 10
22.171042
 20
48.936992
 30
0.0
 10
22.094611
 20
48.860562
 30
0.0
 10
22.094611
 20
46.845064
 30
0.0
 10
21.953372
 20
46.703689
 30
0.0
 10
21.953372
 20
44.688191
 30
0.0
 10
21.811996
 20
44.546816
 30
0.0
 10
21.811996
 20
42.531321
 30
0.0
 10
21.670757
 20
42.389944
 30
0.0
 10
21.670757
 20
37.848686
 30
0.0
 10
21.981128
 20
37.538316
 30
0.0
 10
21.981265
 20
37.538451
 30
0.0
 10
22.118539
 20
37.401177
 30
0.0
 10
22.118539
 20
36.706469
 30
0.0
 10
21.994801
 20
36.582591
 30
0.0
 10
21.874617
 20
36.582591
 30
0.0
 10
21.874617
 20
36.503155
 30
0.0
 10
22.025974
 20
36.503155
 30
0.0
 10
22.197977
 20
36.675158
 30
0.0
 10
22.197977
 20
37.429755
 30
0.0
 10
22.197422
 20
37.429755
 30
0.0
 10
22.199750
 20
37.432136
 30
0.0
 10
21.889379
 20
37.742508
 30
0.0
 10
21.889115
 20
37.742244
 30
0.0
 10
21.749926
 20
37.881433
 30
0.0
 10
21.749926
 20
42.356924
 30
0.0
 10
21.891302
 20
42.498301
 30
0.0
 10
21.891302
 20
44.513934
 30
0.0
 10
22.032542
 20
44.655171
 30
0.0
 10
22.032542
 20
46.670804
 30
0.0
 10
22.173917
 20
46.812044
 30
0.0
 10
22.173917
 20
48.827677
 30
0.0
 10
22.218080
 20
48.871841
 30
0.0
  0
LWPOLYLINE
  5
1d0
100
AcDbEntity
  8
Layer_1
 62
7
100
AcDbPolyline
 90
2
 70
0
 10
22.301621
 20
49.119999
 30
0.0
 10
22.301480
 20
49.120068
 30
0.0
  0
LWPOLYLINE
  5
1d1
100
AcDbEntity
  8
Layer_1
 62
7
100
AcDbPolyline
 90
4
 70
1
 10
26.011164
 20
47.667206
 30
0.0
 10
25.419955
 20
46.526765
 30
0.0
 10
26.011164
 20
45.386321
 30
0.0
 10
26.592255
 20
46.526765
 30
0.0
  0
LWPOLYLINE
  5
1d2
100
AcDbEntity
  8
Layer_1
 62
7
100
AcDbPolyline
 90
4
 70
1
 10
23.392290
 20
47.665883
 30
0.0
 10
22.790280
 20
46.525442
 30
0.0
 10
23.392290
 20
45.385000
 30
0.0
 10
23.973244
 20
46.525442
 30
0.0
  0
LWPOLYLINE
  5
1d3
100
AcDbEntity
  8
Layer_1
 62
7
100
AcDbPolyline
 90
4
 70
1
 10
24.704598
 20
47.660830
 30
0.0
 10
24.113389
 20
46.520388
 30
0.0
 10
24.704598
 20
45.379944
 30
0.0
 10
25.285552
 20
46.520388
 30
0.0
  0
LWPOLYLINE
  5
1d4
100
AcDbEntity
  8
Layer_1
 62
7
100
AcDbPolyline
 90
4
 70
1
 10
28.635915
 20
47.660692
 30
0.0
 10
28.044706
 20
46.520251
 30
0.0
 10
28.635915
 20
45.379672
 30
0.0
 10
29.216871
 20
46.520251
 30
0.0
  0
SPLINE
  5
1d5
100
AcDbEntity
  8
Layer_1
 62
7
100
AcDbSpline
 70
8
 71
3
 72
8
 73
4
 74
0
 40
0
 40
0
 40
0
 40
0
 40
1
 40
1
 40
1
 40
1
 10
22.298199
 20
46.661123
 30
0.0
 10
22.221896
 20
46.661078
 30
0.0
 10
22.160075
 20
46.599197
 30
0.0
 10
22.160104
 20
46.522894
 30
0.0
  0
SPLINE
  5
1d6
100
AcDbEntity
  8
Layer_1
 62
7
100
AcDbSpline
 70
8
 71
3
 72
8
 73
4
 74
0
 40
0
 40
0
 40
0
 40
0
 40
1
 40
1
 40
1
 40
1
 10
22.160104
 20
46.522894
 30
0.0
 10
22.160104
 20
46.507575
 30
0.0
 10
22.162644
 20
46.492382
 30
0.0
 10
22.167624
 20
46.477910
 30
0.0
  0
LWPOLYLINE
  5
1d7
100
AcDbEntity
  8
Layer_1
 62
7
100
AcDbPolyline
 90
4
 70
1
 10
27.325659
 20
47.659369
 30
0.0
 10
26.734450
 20
46.518928
 30
0.0
 10
27.325659
 20
45.378486
 30
0.0
 10
27.906612
 20
46.518928
 30
0.0
  0
SPLINE
  5
1d8
100
AcDbEntity
  8
Layer_1
 62
7
100
AcDbSpline
 70
8
 71
3
 72
8
 73
4
 74
0
 40
0
 40
0
 40
0
 40
0
 40
1
 40
1
 40
1
 40
1
 10
22.214786
 20
46.412790
 30
0.0
 10
22.238792
 20
46.394613
 30
0.0
 10
22.268075
 20
46.384768
 30
0.0
 10
22.298190
 20
46.384763
 30
0.0
  0
SPLINE
  5
1d9
100
AcDbEntity
  8
Layer_1
 62
7
100
AcDbSpline
 70
8
 71
3
 72
8
 73
4
 74
0
 40
0
 40
0
 40
0
 40
0
 40
1
 40
1
 40
1
 40
1
 10
22.298190
 20
46.384763
 30
0.0
 10
22.374493
 20
46.384734
 30
0.0
 10
22.436376
 20
46.446551
 30
0.0
 10
22.436421
 20
46.522857
 30
0.0
  0
SPLINE
  5
1da
100
AcDbEntity
  8
Layer_1
 62
7
100
AcDbSpline
 70
8
 71
3
 72
8
 73
4
 74
0
 40
0
 40
0
 40
0
 40
0
 40
1
 40
1
 40
1
 40
1
 10
22.436421
 20
46.522857
 30
0.0
 10
22.436453
 20
46.599210
 30
0.0
 10
22.374546
 20
46.661123
 30
0.0
 10
22.298190
 20
46.661089
 30
0.0
  0
LWPOLYLINE
  5
1db
100
AcDbEntity
  8
Layer_1
 62
7
100
AcDbPolyline
 90
35
 70
0
 10
22.167624
 20
46.477910
 30
0.0
 10
22.091193
 20
46.401617
 30
0.0
 10
22.091193
 20
44.385846
 30
0.0
 10
21.949954
 20
44.244607
 30
0.0
 10
21.949954
 20
42.229111
 30
0.0
 10
21.808715
 20
42.087734
 30
0.0
 10
21.808715
 20
37.942438
 30
0.0
 10
21.807895
 20
37.941644
 30
0.0
 10
21.991109
 20
37.758568
 30
0.0
 10
21.990972
 20
37.758431
 30
0.0
 10
22.277279
 20
37.471988
 30
0.0
 10
22.277279
 20
36.661193
 30
0.0
 10
22.129340
 20
36.513392
 30
0.0
 10
22.129896
 20
36.512862
 30
0.0
 10
22.067412
 20
36.450378
 30
0.0
 10
21.874626
 20
36.450378
 30
0.0
 10
21.874626
 20
36.370940
 30
0.0
 10
22.098722
 20
36.370940
 30
0.0
 10
22.270725
 20
36.542805
 30
0.0
 10
22.270169
 20
36.543335
 30
0.0
 10
22.356718
 20
36.629882
 30
0.0
 10
22.356718
 20
37.503158
 30
0.0
 10
22.357538
 20
37.503952
 30
0.0
 10
22.356718
 20
37.504746
 30
0.0
 10
22.356718
 20
37.506069
 30
0.0
 10
22.355342
 20
37.506069
 30
0.0
 10
22.174315
 20
37.686959
 30
0.0
 10
22.174452
 20
37.687094
 30
0.0
 10
21.888008
 20
37.973675
 30
0.0
 10
21.888008
 20
42.054886
 30
0.0
 10
22.029384
 20
42.196123
 30
0.0
 10
22.029384
 20
44.211756
 30
0.0
 10
22.170623
 20
44.353131
 30
0.0
 10
22.170623
 20
46.368764
 30
0.0
 10
22.214786
 20
46.412790
 30
0.0
  0
LWPOLYLINE
  5
1dc
100
AcDbEntity
  8
Layer_1
 62
7
100
AcDbPolyline
 90
1
 70
1
 10
22.298190
 20
46.661089
 30
0.0
  0
LWPOLYLINE
  5
1dd
100
AcDbEntity
  8
Layer_1
 62
7
100
AcDbPolyline
 90
4
 70
1
 10
26.011164
 20
45.206618
 30
0.0
 10
25.419955
 20
44.066177
 30
0.0
 10
26.011164
 20
42.925735
 30
0.0
 10
26.592255
 20
44.066177
 30
0.0
  0
LWPOLYLINE
  5
1de
100
AcDbEntity
  8
Layer_1
 62
7
100
AcDbPolyline
 90
4
 70
1
 10
23.392290
 20
45.205295
 30
0.0
 10
22.790280
 20
44.064854
 30
0.0
 10
23.392290
 20
42.924410
 30
0.0
 10
23.973244
 20
44.064854
 30
0.0
  0
LWPOLYLINE
  5
1df
100
AcDbEntity
  8
Layer_1
 62
7
100
AcDbPolyline
 90
4
 70
1
 10
24.704598
 20
45.200374
 30
0.0
 10
24.113389
 20
44.059933
 30
0.0
 10
24.704598
 20
42.919491
 30
0.0
 10
25.285552
 20
44.059933
 30
0.0
  0
LWPOLYLINE
  5
1e0
100
AcDbEntity
  8
Layer_1
 62
7
100
AcDbPolyline
 90
4
 70
1
 10
28.635915
 20
45.200239
 30
0.0
 10
28.044706
 20
44.059660
 30
0.0
 10
28.635915
 20
42.919081
 30
0.0
 10
29.216871
 20
44.059660
 30
0.0
  0
SPLINE
  5
1e1
100
AcDbEntity
  8
Layer_1
 62
7
100
AcDbSpline
 70
8
 71
3
 72
8
 73
4
 74
0
 40
0
 40
0
 40
0
 40
0
 40
1
 40
1
 40
1
 40
1
 10
22.295874
 20
44.200945
 30
0.0
 10
22.219635
 20
44.200823
 30
0.0
 10
22.157885
 20
44.138969
 30
0.0
 10
22.157917
 20
44.062714
 30
0.0
  0
SPLINE
  5
1e2
100
AcDbEntity
  8
Layer_1
 62
7
100
AcDbSpline
 70
8
 71
3
 72
8
 73
4
 74
0
 40
0
 40
0
 40
0
 40
0
 40
1
 40
1
 40
1
 40
1
 10
22.157917
 20
44.062714
 30
0.0
 10
22.157917
 20
44.047447
 30
0.0
 10
22.160457
 20
44.032286
 30
0.0
 10
22.165436
 20
44.017867
 30
0.0
  0
LWPOLYLINE
  5
1e3
100
AcDbEntity
  8
Layer_1
 62
7
100
AcDbPolyline
 90
4
 70
1
 10
27.325659
 20
45.198916
 30
0.0
 10
26.734450
 20
44.058475
 30
0.0
 10
27.325659
 20
42.918033
 30
0.0
 10
27.906612
 20
44.058475
 30
0.0
  0
SPLINE
  5
1e4
100
AcDbEntity
  8
Layer_1
 62
7
100
AcDbSpline
 70
8
 71
3
 72
8
 73
4
 74
0
 40
0
 40
0
 40
0
 40
0
 40
1
 40
1
 40
1
 40
1
 10
22.212471
 20
43.952784
 30
0.0
 10
22.236458
 20
43.934528
 30
0.0
 10
22.265746
 20
43.924664
 30
0.0
 10
22.295874
 20
43.924620
 30
0.0
  0
SPLINE
  5
1e5
100
AcDbEntity
  8
Layer_1
 62
7
100
AcDbSpline
 70
8
 71
3
 72
8
 73
4
 74
0
 40
0
 40
0
 40
0
 40
0
 40
1
 40
1
 40
1
 40
1
 10
22.295874
 20
43.924620
 30
0.0
 10
22.372178
 20
43.924588
 30
0.0
 10
22.434061
 20
43.986410
 30
0.0
 10
22.434106
 20
44.062714
 30
0.0
  0
SPLINE
  5
1e6
100
AcDbEntity
  8
Layer_1
 62
7
100
AcDbSpline
 70
8
 71
3
 72
8
 73
4
 74
0
 40
0
 40
0
 40
0
 40
0
 40
1
 40
1
 40
1
 40
1
 10
22.434106
 20
44.062714
 30
0.0
 10
22.434138
 20
44.139022
 30
0.0
 10
22.372303
 20
44.200903
 30
0.0
 10
22.296011
 20
44.200945
 30
0.0
  0
LWPOLYLINE
  5
1e7
100
AcDbEntity
  8
Layer_1
 62
7
100
AcDbPolyline
 90
27
 70
0
 10
22.165436
 20
44.017867
 30
0.0
 10
22.089006
 20
43.941436
 30
0.0
 10
22.089006
 20
41.925804
 30
0.0
 10
21.947766
 20
41.784426
 30
0.0
 10
21.947766
 20
38.014037
 30
0.0
 10
22.149302
 20
37.812639
 30
0.0
 10
22.258274
 20
37.703667
 30
0.0
 10
22.438617
 20
37.523322
 30
0.0
 10
22.438617
 20
36.613814
 30
0.0
 10
22.290815
 20
36.465875
 30
0.0
 10
22.142876
 20
36.318074
 30
0.0
 10
21.874617
 20
36.318074
 30
0.0
 10
21.874617
 20
36.238635
 30
0.0
 10
22.174187
 20
36.238635
 30
0.0
 10
22.346189
 20
36.410500
 30
0.0
 10
22.518056
 20
36.582503
 30
0.0
 10
22.518056
 20
37.558189
 30
0.0
 10
22.515595
 20
37.558189
 30
0.0
 10
22.515732
 20
37.558324
 30
0.0
 10
22.205361
 20
37.868834
 30
0.0
 10
22.205224
 20
37.868696
 30
0.0
 10
22.026932
 20
38.046851
 30
0.0
 10
22.026932
 20
41.751612
 30
0.0
 10
22.168308
 20
41.892852
 30
0.0
 10
22.168308
 20
41.892990
 30
0.0
 10
22.168308
 20
43.908485
 30
0.0
 10
22.212471
 20
43.952784
 30
0.0
  0
LWPOLYLINE
  5
1e8
100
AcDbEntity
  8
Layer_1
 62
7
100
AcDbPolyline
 90
2
 70
0
 10
22.296011
 20
44.200945
 30
0.0
 10
22.295874
 20
44.200945
 30
0.0
  0
LWPOLYLINE
  5
1e9
100
AcDbEntity
  8
Layer_1
 62
7
100
AcDbPolyline
 90
4
 70
1
 10
26.011164
 20
42.746168
 30
0.0
 10
25.419955
 20
41.605724
 30
0.0
 10
26.011164
 20
40.465282
 30
0.0
 10
26.592255
 20
41.605724
 30
0.0
  0
LWPOLYLINE
  5
1ea
100
AcDbEntity
  8
Layer_1
 62
7
100
AcDbPolyline
 90
4
 70
1
 10
23.392290
 20
42.744845
 30
0.0
 10
22.790280
 20
41.604404
 30
0.0
 10
23.392290
 20
40.463962
 30
0.0
 10
23.973244
 20
41.604404
 30
0.0
  0
LWPOLYLINE
  5
1eb
100
AcDbEntity
  8
Layer_1
 62
7
100
AcDbPolyline
 90
4
 70
1
 10
24.704598
 20
42.739792
 30
0.0
 10
24.113389
 20
41.599350
 30
0.0
 10
24.704598
 20
40.458909
 30
0.0
 10
25.285552
 20
41.599350
 30
0.0
  0
LWPOLYLINE
  5
1ec
100
AcDbEntity
  8
Layer_1
 62
7
100
AcDbPolyline
 90
4
 70
1
 10
28.635915
 20
42.739657
 30
0.0
 10
28.044706
 20
41.599212
 30
0.0
 10
28.635915
 20
40.458636
 30
0.0
 10
29.216871
 20
41.599212
 30
0.0
  0
LWPOLYLINE
  5
1ed
100
AcDbEntity
  8
Layer_1
 62
7
100
AcDbPolyline
 90
4
 70
1
 10
27.325659
 20
42.738334
 30
0.0
 10
26.734450
 20
41.597892
 30
0.0
 10
27.325659
 20
40.457451
 30
0.0
 10
27.906612
 20
41.597892
 30
0.0
  0
SPLINE
  5
1ee
100
AcDbEntity
  8
Layer_1
 62
7
100
AcDbSpline
 70
8
 71
3
 72
8
 73
4
 74
0
 40
0
 40
0
 40
0
 40
0
 40
1
 40
1
 40
1
 40
1
 10
22.303668
 20
41.750205
 30
0.0
 10
22.227365
 20
41.750160
 30
0.0
 10
22.165542
 20
41.688277
 30
0.0
 10
22.165574
 20
41.611973
 30
0.0
  0
SPLINE
  5
1ef
100
AcDbEntity
  8
Layer_1
 62
7
100
AcDbSpline
 70
8
 71
3
 72
8
 73
4
 74
0
 40
0
 40
0
 40
0
 40
0
 40
1
 40
1
 40
1
 40
1
 10
22.165574
 20
41.611973
 30
0.0
 10
22.165574
 20
41.596707
 30
0.0
 10
22.168114
 20
41.581411
 30
0.0
 10
22.173093
 20
41.566992
 30
0.0
  0
LWPOLYLINE
  5
1f0
100
AcDbEntity
  8
Layer_1
 62
7
100
AcDbPolyline
 90
2
 70
0
 10
22.303531
 20
41.750342
 30
0.0
 10
22.303668
 20
41.750205
 30
0.0
  0
SPLINE
  5
1f1
100
AcDbEntity
  8
Layer_1
 62
7
100
AcDbSpline
 70
8
 71
3
 72
8
 73
4
 74
0
 40
0
 40
0
 40
0
 40
0
 40
1
 40
1
 40
1
 40
1
 10
22.220140
 20
41.502129
 30
0.0
 10
22.244127
 20
41.483873
 30
0.0
 10
22.273415
 20
41.474009
 30
0.0
 10
22.303543
 20
41.473964
 30
0.0
  0
SPLINE
  5
1f2
100
AcDbEntity
  8
Layer_1
 62
7
100
AcDbSpline
 70
8
 71
3
 72
8
 73
4
 74
0
 40
0
 40
0
 40
0
 40
0
 40
1
 40
1
 40
1
 40
1
 10
22.303543
 20
41.473964
 30
0.0
 10
22.379847
 20
41.473932
 30
0.0
 10
22.441730
 20
41.535757
 30
0.0
 10
22.441775
 20
41.612058
 30
0.0
  0
SPLINE
  5
1f3
100
AcDbEntity
  8
Layer_1
 62
7
100
AcDbSpline
 70
8
 71
3
 72
8
 73
4
 74
0
 40
0
 40
0
 40
0
 40
0
 40
1
 40
1
 40
1
 40
1
 10
22.441775
 20
41.612058
 30
0.0
 10
22.441806
 20
41.688414
 30
0.0
 10
22.379900
 20
41.750321
 30
0.0
 10
22.303543
 20
41.750290
 30
0.0
  0
LWPOLYLINE
  5
1f4
100
AcDbEntity
  8
Layer_1
 62
7
100
AcDbPolyline
 90
31
 70
0
 10
22.173093
 20
41.566992
 30
0.0
 10
22.096662
 20
41.490696
 30
0.0
 10
22.096662
 20
39.442250
 30
0.0
 10
22.096662
 20
38.085096
 30
0.0
 10
22.097906
 20
38.085096
 30
0.0
 10
22.097641
 20
38.084831
 30
0.0
 10
22.408012
 20
37.774322
 30
0.0
 10
22.598473
 20
37.583861
 30
0.0
 10
22.598473
 20
36.564424
 30
0.0
 10
22.511514
 20
36.477464
 30
0.0
 10
22.511378
 20
36.477601
 30
0.0
 10
22.339512
 20
36.305736
 30
0.0
 10
22.219192
 20
36.185417
 30
0.0
 10
21.874502
 20
36.185417
 30
0.0
 10
21.874502
 20
36.105978
 30
0.0
 10
22.248861
 20
36.105978
 30
0.0
 10
22.249682
 20
36.105185
 30
0.0
 10
22.394886
 20
36.250388
 30
0.0
 10
22.505772
 20
36.361275
 30
0.0
 10
22.505908
 20
36.361140
 30
0.0
 10
22.677775
 20
36.533140
 30
0.0
 10
22.677775
 20
37.615064
 30
0.0
 10
22.678859
 20
37.616122
 30
0.0
 10
22.677775
 20
37.617180
 30
0.0
 10
22.677775
 20
37.617710
 30
0.0
 10
22.677219
 20
37.617710
 30
0.0
 10
22.464061
 20
37.830731
 30
0.0
 10
22.175977
 20
38.118815
 30
0.0
 10
22.175977
 20
39.442334
 30
0.0
 10
22.175977
 20
41.457967
 30
0.0
 10
22.220140
 20
41.502129
 30
0.0
  0
SPLINE
  5
1f5
100
AcDbEntity
  8
Layer_1
 62
7
100
AcDbSpline
 70
8
 71
3
 72
8
 73
4
 74
0
 40
0
 40
0
 40
0
 40
0
 40
1
 40
1
 40
1
 40
1
 10
21.826353
 20
37.480624
 30
0.0
 10
21.749997
 20
37.480655
 30
0.0
 10
21.688093
 20
37.418748
 30
0.0
 10
21.688122
 20
37.342395
 30
0.0
  0
SPLINE
  5
1f6
100
AcDbEntity
  8
Layer_1
 62
7
100
AcDbSpline
 70
8
 71
3
 72
8
 73
4
 74
0
 40
0
 40
0
 40
0
 40
0
 40
1
 40
1
 40
1
 40
1
 10
21.688122
 20
37.342395
 30
0.0
 10
21.688170
 20
37.312497
 30
0.0
 10
21.697912
 20
37.283430
 30
0.0
 10
21.715878
 20
37.259538
 30
0.0
  0
LWPOLYLINE
  5
1f7
100
AcDbEntity
  8
Layer_1
 62
7
100
AcDbPolyline
 90
1
 70
1
 10
22.303543
 20
41.750290
 30
0.0
  0
SPLINE
  5
1f8
100
AcDbEntity
  8
Layer_1
 62
7
100
AcDbSpline
 70
8
 71
3
 72
8
 73
4
 74
0
 40
0
 40
0
 40
0
 40
0
 40
1
 40
1
 40
1
 40
1
 10
21.779592
 20
37.212503
 30
0.0
 10
21.794581
 20
37.207052
 30
0.0
 10
21.810399
 20
37.204221
 30
0.0
 10
21.826353
 20
37.204168
 30
0.0
  0
SPLINE
  5
1f9
100
AcDbEntity
  8
Layer_1
 62
7
100
AcDbSpline
 70
8
 71
3
 72
8
 73
4
 74
0
 40
0
 40
0
 40
0
 40
0
 40
1
 40
1
 40
1
 40
1
 10
21.826353
 20
37.204168
 30
0.0
 10
21.902656
 20
37.204213
 30
0.0
 10
21.964477
 20
37.266094
 30
0.0
 10
21.964448
 20
37.342400
 30
0.0
  0
SPLINE
  5
1fa
100
AcDbEntity
  8
Layer_1
 62
7
100
AcDbSpline
 70
8
 71
3
 72
8
 73
4
 74
0
 40
0
 40
0
 40
0
 40
0
 40
1
 40
1
 40
1
 40
1
 10
21.964448
 20
37.342400
 30
0.0
 10
21.964477
 20
37.418703
 30
0.0
 10
21.902656
 20
37.480584
 30
0.0
 10
21.826353
 20
37.480629
 30
0.0
  0
LWPOLYLINE
  5
1fb
100
AcDbEntity
  8
Layer_1
 62
7
100
AcDbPolyline
 90
7
 70
0
 10
21.715878
 20
37.259538
 30
0.0
 10
21.563837
 20
37.107495
 30
0.0
 10
21.563837
 20
36.671472
 30
0.0
 10
21.643275
 20
36.671472
 30
0.0
 10
21.643275
 20
36.737650
 30
0.0
 10
21.643275
 20
37.076187
 30
0.0
 10
21.779592
 20
37.212503
 30
0.0
  0
SPLINE
  5
1fc
100
AcDbEntity
  8
Layer_1
 62
7
100
AcDbSpline
 70
8
 71
3
 72
8
 73
4
 74
0
 40
0
 40
0
 40
0
 40
0
 40
1
 40
1
 40
1
 40
1
 10
21.829772
 20
37.111734
 30
0.0
 10
21.768431
 20
37.111752
 30
0.0
 10
21.714423
 20
37.071326
 30
0.0
 10
21.697146
 20
37.012470
 30
0.0
  0
LWPOLYLINE
  5
1fd
100
AcDbEntity
  8
Layer_1
 62
7
100
AcDbPolyline
 90
1
 70
1
 10
21.826353
 20
37.480629
 30
0.0
  0
SPLINE
  5
1fe
100
AcDbEntity
  8
Layer_1
 62
7
100
AcDbSpline
 70
8
 71
3
 72
8
 73
4
 74
0
 40
0
 40
0
 40
0
 40
0
 40
1
 40
1
 40
1
 40
1
 10
21.696061
 20
37.007972
 30
0.0
 10
21.693151
 20
36.996727
 30
0.0
 10
21.691598
 20
36.985138
 30
0.0
 10
21.691550
 20
36.973518
 30
0.0
  0
SPLINE
  5
1ff
100
AcDbEntity
  8
Layer_1
 62
7
100
AcDbSpline
 70
8
 71
3
 72
8
 73
4
 74
0
 40
0
 40
0
 40
0
 40
0
 40
1
 40
1
 40
1
 40
1
 10
21.691550
 20
36.973518
 30
0.0
 10
21.691577
 20
36.961903
 30
0.0
 10
21.693138
 20
36.950314
 30
0.0
 10
21.696061
 20
36.939061
 30
0.0
  0
LWPOLYLINE
  5
200
100
AcDbEntity
  8
Layer_1
 62
7
100
AcDbPolyline
 90
3
 70
0
 10
21.697146
 20
37.012470
 30
0.0
 10
21.696061
 20
37.012470
 30
0.0
 10
21.696061
 20
37.007972
 30
0.0
  0
SPLINE
  5
201
100
AcDbEntity
  8
Layer_1
 62
7
100
AcDbSpline
 70
8
 71
3
 72
8
 73
4
 74
0
 40
0
 40
0
 40
0
 40
0
 40
1
 40
1
 40
1
 40
1
 10
21.775500
 20
36.846359
 30
0.0
 10
21.792669
 20
36.839110
 30
0.0
 10
21.811127
 20
36.835353
 30
0.0
 10
21.829780
 20
36.835432
 30
0.0
  0
SPLINE
  5
202
100
AcDbEntity
  8
Layer_1
 62
7
100
AcDbSpline
 70
8
 71
3
 72
8
 73
4
 74
0
 40
0
 40
0
 40
0
 40
0
 40
1
 40
1
 40
1
 40
1
 10
21.829780
 20
36.835432
 30
0.0
 10
21.906031
 20
36.835474
 30
0.0
 10
21.967830
 20
36.897278
 30
0.0
 10
21.967875
 20
36.973529
 30
0.0
  0
SPLINE
  5
203
100
AcDbEntity
  8
Layer_1
 62
7
100
AcDbSpline
 70
8
 71
3
 72
8
 73
4
 74
0
 40
0
 40
0
 40
0
 40
0
 40
1
 40
1
 40
1
 40
1
 10
21.967875
 20
36.973529
 30
0.0
 10
21.967907
 20
37.049829
 30
0.0
 10
21.906084
 20
37.111712
 30
0.0
 10
21.829780
 20
37.111757
 30
0.0
  0
LWPOLYLINE
  5
204
100
AcDbEntity
  8
Layer_1
 62
7
100
AcDbPolyline
 90
5
 70
0
 10
21.696061
 20
36.939061
 30
0.0
 10
21.696061
 20
36.671485
 30
0.0
 10
21.775500
 20
36.671485
 30
0.0
 10
21.775500
 20
36.737663
 30
0.0
 10
21.775500
 20
36.846359
 30
0.0
  0
SPLINE
  5
205
100
AcDbEntity
  8
Layer_1
 62
7
100
AcDbSpline
 70
8
 71
3
 72
8
 73
4
 74
0
 40
0
 40
0
 40
0
 40
0
 40
1
 40
1
 40
1
 40
1
 10
19.608775
 20
36.648366
 30
0.0
 10
19.532524
 20
36.648324
 30
0.0
 10
19.470725
 20
36.586522
 30
0.0
 10
19.470680
 20
36.510272
 30
0.0
  0
SPLINE
  5
206
100
AcDbEntity
  8
Layer_1
 62
7
100
AcDbSpline
 70
8
 71
3
 72
8
 73
4
 74
0
 40
0
 40
0
 40
0
 40
0
 40
1
 40
1
 40
1
 40
1
 10
19.470680
 20
36.510272
 30
0.0
 10
19.470648
 20
36.433972
 30
0.0
 10
19.532471
 20
36.372086
 30
0.0
 10
19.608775
 20
36.372041
 30
0.0
  0
SPLINE
  5
207
100
AcDbEntity
  8
Layer_1
 62
7
100
AcDbSpline
 70
8
 71
3
 72
8
 73
4
 74
0
 40
0
 40
0
 40
0
 40
0
 40
1
 40
1
 40
1
 40
1
 10
19.608775
 20
36.372041
 30
0.0
 10
19.618556
 20
36.372094
 30
0.0
 10
19.628319
 20
36.373099
 30
0.0
 10
19.637898
 20
36.375321
 30
0.0
  0
LWPOLYLINE
  5
208
100
AcDbEntity
  8
Layer_1
 62
7
100
AcDbPolyline
 90
1
 70
1
 10
21.829780
 20
37.111757
 30
0.0
  0
SPLINE
  5
209
100
AcDbEntity
  8
Layer_1
 62
7
100
AcDbSpline
 70
8
 71
3
 72
8
 73
4
 74
0
 40
0
 40
0
 40
0
 40
0
 40
1
 40
1
 40
1
 40
1
 10
19.735247
 20
36.454622
 30
0.0
 10
19.742973
 20
36.472164
 30
0.0
 10
19.746989
 20
36.491116
 30
0.0
 10
19.747005
 20
36.510272
 30
0.0
  0
SPLINE
  5
20a
100
AcDbEntity
  8
Layer_1
 62
7
100
AcDbSpline
 70
8
 71
3
 72
8
 73
4
 74
0
 40
0
 40
0
 40
0
 40
0
 40
1
 40
1
 40
1
 40
1
 10
19.747005
 20
36.510272
 30
0.0
 10
19.746963
 20
36.586575
 30
0.0
 10
19.685074
 20
36.648398
 30
0.0
 10
19.608774
 20
36.648366
 30
0.0
  0
LWPOLYLINE
  5
20b
100
AcDbEntity
  8
Layer_1
 62
7
100
AcDbPolyline
 90
5
 70
0
 10
19.637898
 20
36.375321
 30
0.0
 10
20.155547
 20
36.375321
 30
0.0
 10
20.155547
 20
36.441499
 30
0.0
 10
20.155547
 20
36.454622
 30
0.0
 10
19.735247
 20
36.454622
 30
0.0
  0
SPLINE
  5
20c
100
AcDbEntity
  8
Layer_1
 62
7
100
AcDbSpline
 70
8
 71
3
 72
8
 73
4
 74
0
 40
0
 40
0
 40
0
 40
0
 40
1
 40
1
 40
1
 40
1
 10
19.302506
 20
36.519295
 30
0.0
 10
19.226258
 20
36.519250
 30
0.0
 10
19.164456
 20
36.457448
 30
0.0
 10
19.164411
 20
36.381201
 30
0.0
  0
SPLINE
  5
20d
100
AcDbEntity
  8
Layer_1
 62
7
100
AcDbSpline
 70
8
 71
3
 72
8
 73
4
 74
0
 40
0
 40
0
 40
0
 40
0
 40
1
 40
1
 40
1
 40
1
 10
19.164411
 20
36.381201
 30
0.0
 10
19.164379
 20
36.304897
 30
0.0
 10
19.226205
 20
36.243011
 30
0.0
 10
19.302506
 20
36.242969
 30
0.0
  0
SPLINE
  5
20e
100
AcDbEntity
  8
Layer_1
 62
7
100
AcDbSpline
 70
8
 71
3
 72
8
 73
4
 74
0
 40
0
 40
0
 40
0
 40
0
 40
1
 40
1
 40
1
 40
1
 10
19.302506
 20
36.242969
 30
0.0
 10
19.307639
 20
36.243234
 30
0.0
 10
19.312740
 20
36.243498
 30
0.0
 10
19.317820
 20
36.244027
 30
0.0
  0
LWPOLYLINE
  5
20f
100
AcDbEntity
  8
Layer_1
 62
7
100
AcDbPolyline
 90
1
 70
1
 10
19.608774
 20
36.648366
 30
0.0
  0
SPLINE
  5
210
100
AcDbEntity
  8
Layer_1
 62
7
100
AcDbSpline
 70
8
 71
3
 72
8
 73
4
 74
0
 40
0
 40
0
 40
0
 40
0
 40
1
 40
1
 40
1
 40
1
 10
19.427338
 20
36.322270
 30
0.0
 10
19.436096
 20
36.340685
 30
0.0
 10
19.440673
 20
36.360799
 30
0.0
 10
19.440737
 20
36.381198
 30
0.0
  0
SPLINE
  5
211
100
AcDbEntity
  8
Layer_1
 62
7
100
AcDbSpline
 70
8
 71
3
 72
8
 73
4
 74
0
 40
0
 40
0
 40
0
 40
0
 40
1
 40
1
 40
1
 40
1
 10
19.440737
 20
36.381198
 30
0.0
 10
19.440691
 20
36.457498
 30
0.0
 10
19.378809
 20
36.519321
 30
0.0
 10
19.302505
 20
36.519292
 30
0.0
  0
LWPOLYLINE
  5
212
100
AcDbEntity
  8
Layer_1
 62
7
100
AcDbPolyline
 90
6
 70
0
 10
19.317820
 20
36.244027
 30
0.0
 10
19.317820
 20
36.242969
 30
0.0
 10
20.155547
 20
36.242969
 30
0.0
 10
20.155547
 20
36.309147
 30
0.0
 10
20.155547
 20
36.322270
 30
0.0
 10
19.427338
 20
36.322270
 30
0.0
  0
SPLINE
  5
213
100
AcDbEntity
  8
Layer_1
 62
7
100
AcDbSpline
 70
8
 71
3
 72
8
 73
4
 74
0
 40
0
 40
0
 40
0
 40
0
 40
1
 40
1
 40
1
 40
1
 10
19.001296
 20
36.384071
 30
0.0
 10
18.924992
 20
36.384103
 30
0.0
 10
18.863109
 20
36.322280
 30
0.0
 10
18.863064
 20
36.245977
 30
0.0
  0
SPLINE
  5
214
100
AcDbEntity
  8
Layer_1
 62
7
100
AcDbSpline
 70
8
 71
3
 72
8
 73
4
 74
0
 40
0
 40
0
 40
0
 40
0
 40
1
 40
1
 40
1
 40
1
 10
18.863064
 20
36.245977
 30
0.0
 10
18.863032
 20
36.169621
 30
0.0
 10
18.924939
 20
36.107714
 30
0.0
 10
19.001296
 20
36.107746
 30
0.0
  0
SPLINE
  5
215
100
AcDbEntity
  8
Layer_1
 62
7
100
AcDbSpline
 70
8
 71
3
 72
8
 73
4
 74
0
 40
0
 40
0
 40
0
 40
0
 40
1
 40
1
 40
1
 40
1
 10
19.001296
 20
36.107746
 30
0.0
 10
19.010580
 20
36.107825
 30
0.0
 10
19.019840
 20
36.108804
 30
0.0
 10
19.028914
 20
36.110762
 30
0.0
  0
LWPOLYLINE
  5
216
100
AcDbEntity
  8
Layer_1
 62
7
100
AcDbPolyline
 90
1
 70
1
 10
19.302505
 20
36.519292
 30
0.0
  0
SPLINE
  5
217
100
AcDbEntity
  8
Layer_1
 62
7
100
AcDbSpline
 70
8
 71
3
 72
8
 73
4
 74
0
 40
0
 40
0
 40
0
 40
0
 40
1
 40
1
 40
1
 40
1
 10
19.127495
 20
36.190063
 30
0.0
 10
19.135327
 20
36.207684
 30
0.0
 10
19.139369
 20
36.226724
 30
0.0
 10
19.139391
 20
36.245985
 30
0.0
  0
SPLINE
  5
218
100
AcDbEntity
  8
Layer_1
 62
7
100
AcDbSpline
 70
8
 71
3
 72
8
 73
4
 74
0
 40
0
 40
0
 40
0
 40
0
 40
1
 40
1
 40
1
 40
1
 10
19.139391
 20
36.245985
 30
0.0
 10
19.139346
 20
36.322233
 30
0.0
 10
19.077544
 20
36.384034
 30
0.0
 10
19.001296
 20
36.384079
 30
0.0
  0
LWPOLYLINE
  5
219
100
AcDbEntity
  8
Layer_1
 62
7
100
AcDbPolyline
 90
5
 70
0
 10
19.028914
 20
36.110762
 30
0.0
 10
20.155547
 20
36.110762
 30
0.0
 10
20.155547
 20
36.176940
 30
0.0
 10
20.155547
 20
36.190063
 30
0.0
 10
19.127495
 20
36.190063
 30
0.0
  0
SPLINE
  5
21a
100
AcDbEntity
  8
Layer_1
 62
7
100
AcDbSpline
 70
8
 71
3
 72
8
 73
4
 74
0
 40
0
 40
0
 40
0
 40
0
 40
1
 40
1
 40
1
 40
1
 10
18.694890
 20
36.254182
 30
0.0
 10
18.618642
 20
36.254137
 30
0.0
 10
18.556840
 20
36.192336
 30
0.0
 10
18.556795
 20
36.116088
 30
0.0
  0
SPLINE
  5
21b
100
AcDbEntity
  8
Layer_1
 62
7
100
AcDbSpline
 70
8
 71
3
 72
8
 73
4
 74
0
 40
0
 40
0
 40
0
 40
0
 40
1
 40
1
 40
1
 40
1
 10
18.556795
 20
36.116088
 30
0.0
 10
18.556763
 20
36.039782
 30
0.0
 10
18.618587
 20
35.977901
 30
0.0
 10
18.694890
 20
35.977856
 30
0.0
  0
SPLINE
  5
21c
100
AcDbEntity
  8
Layer_1
 62
7
100
AcDbSpline
 70
8
 71
3
 72
8
 73
4
 74
0
 40
0
 40
0
 40
0
 40
0
 40
1
 40
1
 40
1
 40
1
 10
18.694890
 20
35.977856
 30
0.0
 10
18.698858
 20
35.977856
 30
0.0
 10
18.702843
 20
35.978121
 30
0.0
 10
18.706785
 20
35.978386
 30
0.0
  0
LWPOLYLINE
  5
21d
100
AcDbEntity
  8
Layer_1
 62
7
100
AcDbPolyline
 90
1
 70
1
 10
19.001296
 20
36.384079
 30
0.0
  0
SPLINE
  5
21e
100
AcDbEntity
  8
Layer_1
 62
7
100
AcDbSpline
 70
8
 71
3
 72
8
 73
4
 74
0
 40
0
 40
0
 40
0
 40
0
 40
1
 40
1
 40
1
 40
1
 10
18.819995
 20
36.057687
 30
0.0
 10
18.828594
 20
36.075969
 30
0.0
 10
18.833063
 20
36.095879
 30
0.0
 10
18.833121
 20
36.116070
 30
0.0
  0
SPLINE
  5
21f
100
AcDbEntity
  8
Layer_1
 62
7
100
AcDbSpline
 70
8
 71
3
 72
8
 73
4
 74
0
 40
0
 40
0
 40
0
 40
0
 40
1
 40
1
 40
1
 40
1
 10
18.833121
 20
36.116070
 30
0.0
 10
18.833076
 20
36.192373
 30
0.0
 10
18.771193
 20
36.254195
 30
0.0
 10
18.694890
 20
36.254163
 30
0.0
  0
LWPOLYLINE
  5
220
100
AcDbEntity
  8
Layer_1
 62
7
100
AcDbPolyline
 90
5
 70
0
 10
18.706785
 20
35.978386
 30
0.0
 10
20.155547
 20
35.978386
 30
0.0
 10
20.155547
 20
36.044563
 30
0.0
 10
20.155547
 20
36.057687
 30
0.0
 10
18.819995
 20
36.057687
 30
0.0
  0
SPLINE
  5
221
100
AcDbEntity
  8
Layer_1
 62
7
100
AcDbSpline
 70
8
 71
3
 72
8
 73
4
 74
0
 40
0
 40
0
 40
0
 40
0
 40
1
 40
1
 40
1
 40
1
 10
18.388621
 20
36.124290
 30
0.0
 10
18.312318
 20
36.124245
 30
0.0
 10
18.250495
 20
36.062359
 30
0.0
 10
18.250526
 20
35.986059
 30
0.0
  0
SPLINE
  5
222
100
AcDbEntity
  8
Layer_1
 62
7
100
AcDbSpline
 70
8
 71
3
 72
8
 73
4
 74
0
 40
0
 40
0
 40
0
 40
0
 40
1
 40
1
 40
1
 40
1
 10
18.250526
 20
35.986059
 30
0.0
 10
18.250632
 20
35.910711
 30
0.0
 10
18.311093
 20
35.849425
 30
0.0
 10
18.386433
 20
35.848102
 30
0.0
  0
LWPOLYLINE
  5
223
100
AcDbEntity
  8
Layer_1
 62
7
100
AcDbPolyline
 90
1
 70
1
 10
18.694890
 20
36.254163
 30
0.0
  0
SPLINE
  5
224
100
AcDbEntity
  8
Layer_1
 62
7
100
AcDbSpline
 70
8
 71
3
 72
8
 73
4
 74
0
 40
0
 40
0
 40
0
 40
0
 40
1
 40
1
 40
1
 40
1
 10
18.512632
 20
35.925546
 30
0.0
 10
18.521919
 20
35.944384
 30
0.0
 10
18.526782
 20
35.965106
 30
0.0
 10
18.526851
 20
35.986114
 30
0.0
  0
SPLINE
  5
225
100
AcDbEntity
  8
Layer_1
 62
7
100
AcDbSpline
 70
8
 71
3
 72
8
 73
4
 74
0
 40
0
 40
0
 40
0
 40
0
 40
1
 40
1
 40
1
 40
1
 10
18.526851
 20
35.986114
 30
0.0
 10
18.526883
 20
36.062470
 30
0.0
 10
18.464976
 20
36.124375
 30
0.0
 10
18.388620
 20
36.124346
 30
0.0
  0
LWPOLYLINE
  5
226
100
AcDbEntity
  8
Layer_1
 62
7
100
AcDbPolyline
 90
6
 70
0
 10
18.386433
 20
35.848102
 30
0.0
 10
18.386433
 20
35.846250
 30
0.0
 10
20.155547
 20
35.846250
 30
0.0
 10
20.155547
 20
35.912290
 30
0.0
 10
20.155547
 20
35.925546
 30
0.0
 10
18.512632
 20
35.925546
 30
0.0
  0
SPLINE
  5
227
100
AcDbEntity
  8
Layer_1
 62
7
100
AcDbSpline
 70
8
 71
3
 72
8
 73
4
 74
0
 40
0
 40
0
 40
0
 40
0
 40
1
 40
1
 40
1
 40
1
 10
18.094931
 20
35.895820
 30
0.0
 10
18.018627
 20
35.895775
 30
0.0
 10
17.956804
 20
35.833891
 30
0.0
 10
17.956836
 20
35.757588
 30
0.0
  0
SPLINE
  5
228
100
AcDbEntity
  8
Layer_1
 62
7
100
AcDbSpline
 70
8
 71
3
 72
8
 73
4
 74
0
 40
0
 40
0
 40
0
 40
0
 40
1
 40
1
 40
1
 40
1
 10
17.956836
 20
35.757588
 30
0.0
 10
17.956881
 20
35.681341
 30
0.0
 10
18.018683
 20
35.619539
 30
0.0
 10
18.094931
 20
35.619494
 30
0.0
  0
SPLINE
  5
229
100
AcDbEntity
  8
Layer_1
 62
7
100
AcDbSpline
 70
8
 71
3
 72
8
 73
4
 74
0
 40
0
 40
0
 40
0
 40
0
 40
1
 40
1
 40
1
 40
1
 10
18.094931
 20
35.619494
 30
0.0
 10
18.154332
 20
35.619518
 30
0.0
 10
18.207077
 20
35.657502
 30
0.0
 10
18.225916
 20
35.713837
 30
0.0
  0
LWPOLYLINE
  5
22a
100
AcDbEntity
  8
Layer_1
 62
7
100
AcDbPolyline
 90
1
 70
1
 10
18.388620
 20
36.124346
 30
0.0
  0
SPLINE
  5
22b
100
AcDbEntity
  8
Layer_1
 62
7
100
AcDbSpline
 70
8
 71
3
 72
8
 73
4
 74
0
 40
0
 40
0
 40
0
 40
0
 40
1
 40
1
 40
1
 40
1
 10
18.228376
 20
35.793135
 30
0.0
 10
18.212295
 20
35.853643
 30
0.0
 10
18.157539
 20
35.895775
 30
0.0
 10
18.094930
 20
35.895817
 30
0.0
  0
LWPOLYLINE
  5
22c
100
AcDbEntity
  8
Layer_1
 62
7
100
AcDbPolyline
 90
5
 70
0
 10
18.225916
 20
35.713837
 30
0.0
 10
20.155547
 20
35.713837
 30
0.0
 10
20.155547
 20
35.780012
 30
0.0
 10
20.155547
 20
35.793135
 30
0.0
 10
18.228376
 20
35.793135
 30
0.0
  0
SPLINE
  5
22d
100
AcDbEntity
  8
Layer_1
 62
7
100
AcDbSpline
 70
8
 71
3
 72
8
 73
4
 74
0
 40
0
 40
0
 40
0
 40
0
 40
1
 40
1
 40
1
 40
1
 10
18.398192
 20
35.665161
 30
0.0
 10
18.321891
 20
35.665193
 30
0.0
 10
18.260003
 20
35.603371
 30
0.0
 10
18.259961
 20
35.527067
 30
0.0
  0
SPLINE
  5
22e
100
AcDbEntity
  8
Layer_1
 62
7
100
AcDbSpline
 70
8
 71
3
 72
8
 73
4
 74
0
 40
0
 40
0
 40
0
 40
0
 40
1
 40
1
 40
1
 40
1
 10
18.259961
 20
35.527067
 30
0.0
 10
18.259929
 20
35.450711
 30
0.0
 10
18.321838
 20
35.388804
 30
0.0
 10
18.398192
 20
35.388836
 30
0.0
  0
SPLINE
  5
22f
100
AcDbEntity
  8
Layer_1
 62
7
100
AcDbSpline
 70
8
 71
3
 72
8
 73
4
 74
0
 40
0
 40
0
 40
0
 40
0
 40
1
 40
1
 40
1
 40
1
 10
18.398192
 20
35.388836
 30
0.0
 10
18.474495
 20
35.388881
 30
0.0
 10
18.536318
 20
35.450767
 30
0.0
 10
18.536286
 20
35.527067
 30
0.0
  0
SPLINE
  5
230
100
AcDbEntity
  8
Layer_1
 62
7
100
AcDbSpline
 70
8
 71
3
 72
8
 73
4
 74
0
 40
0
 40
0
 40
0
 40
0
 40
1
 40
1
 40
1
 40
1
 10
18.536286
 20
35.527067
 30
0.0
 10
18.536233
 20
35.545826
 30
0.0
 10
18.532373
 20
35.564395
 30
0.0
 10
18.524938
 20
35.581622
 30
0.0
  0
LWPOLYLINE
  5
231
100
AcDbEntity
  8
Layer_1
 62
7
100
AcDbPolyline
 90
1
 70
1
 10
18.094930
 20
35.895817
 30
0.0
  0
SPLINE
  5
232
100
AcDbEntity
  8
Layer_1
 62
7
100
AcDbSpline
 70
8
 71
3
 72
8
 73
4
 74
0
 40
0
 40
0
 40
0
 40
0
 40
1
 40
1
 40
1
 40
1
 10
18.431417
 20
35.660915
 30
0.0
 10
18.420548
 20
35.663561
 30
0.0
 10
18.409411
 20
35.665095
 30
0.0
 10
18.398192
 20
35.665148
 30
0.0
  0
LWPOLYLINE
  5
233
100
AcDbEntity
  8
Layer_1
 62
7
100
AcDbPolyline
 90
5
 70
0
 10
18.524938
 20
35.581622
 30
0.0
 10
20.155547
 20
35.581622
 30
0.0
 10
20.155547
 20
35.647659
 30
0.0
 10
20.155547
 20
35.660915
 30
0.0
 10
18.431417
 20
35.660915
 30
0.0
  0
SPLINE
  5
234
100
AcDbEntity
  8
Layer_1
 62
7
100
AcDbSpline
 70
8
 71
3
 72
8
 73
4
 74
0
 40
0
 40
0
 40
0
 40
0
 40
1
 40
1
 40
1
 40
1
 10
18.707332
 20
35.533356
 30
0.0
 10
18.630979
 20
35.533388
 30
0.0
 10
18.569069
 20
35.471481
 30
0.0
 10
18.569101
 20
35.395125
 30
0.0
  0
SPLINE
  5
235
100
AcDbEntity
  8
Layer_1
 62
7
100
AcDbSpline
 70
8
 71
3
 72
8
 73
4
 74
0
 40
0
 40
0
 40
0
 40
0
 40
1
 40
1
 40
1
 40
1
 10
18.569101
 20
35.395125
 30
0.0
 10
18.569143
 20
35.318822
 30
0.0
 10
18.631031
 20
35.256997
 30
0.0
 10
18.707332
 20
35.257031
 30
0.0
  0
SPLINE
  5
236
100
AcDbEntity
  8
Layer_1
 62
7
100
AcDbSpline
 70
8
 71
3
 72
8
 73
4
 74
0
 40
0
 40
0
 40
0
 40
0
 40
1
 40
1
 40
1
 40
1
 10
18.707332
 20
35.257031
 30
0.0
 10
18.783582
 20
35.257073
 30
0.0
 10
18.845382
 20
35.318875
 30
0.0
 10
18.845427
 20
35.395125
 30
0.0
  0
SPLINE
  5
237
100
AcDbEntity
  8
Layer_1
 62
7
100
AcDbSpline
 70
8
 71
3
 72
8
 73
4
 74
0
 40
0
 40
0
 40
0
 40
0
 40
1
 40
1
 40
1
 40
1
 10
18.845427
 20
35.395125
 30
0.0
 10
18.845400
 20
35.413725
 30
0.0
 10
18.841654
 20
35.432151
 30
0.0
 10
18.834351
 20
35.449269
 30
0.0
  0
LWPOLYLINE
  5
238
100
AcDbEntity
  8
Layer_1
 62
7
100
AcDbPolyline
 90
1
 70
1
 10
18.398192
 20
35.665148
 30
0.0
  0
SPLINE
  5
239
100
AcDbEntity
  8
Layer_1
 62
7
100
AcDbSpline
 70
8
 71
3
 72
8
 73
4
 74
0
 40
0
 40
0
 40
0
 40
0
 40
1
 40
1
 40
1
 40
1
 10
18.742880
 20
35.528568
 30
0.0
 10
18.731302
 20
35.531769
 30
0.0
 10
18.719343
 20
35.533304
 30
0.0
 10
18.707332
 20
35.533356
 30
0.0
  0
LWPOLYLINE
  5
23a
100
AcDbEntity
  8
Layer_1
 62
7
100
AcDbPolyline
 90
5
 70
0
 10
18.834351
 20
35.449269
 30
0.0
 10
20.155546
 20
35.449269
 30
0.0
 10
20.155546
 20
35.515444
 30
0.0
 10
20.155546
 20
35.528568
 30
0.0
 10
18.742880
 20
35.528568
 30
0.0
  0
SPLINE
  5
23b
100
AcDbEntity
  8
Layer_1
 62
7
100
AcDbSpline
 70
8
 71
3
 72
8
 73
4
 74
0
 40
0
 40
0
 40
0
 40
0
 40
1
 40
1
 40
1
 40
1
 10
19.026864
 20
35.401414
 30
0.0
 10
18.950616
 20
35.401369
 30
0.0
 10
18.888814
 20
35.339565
 30
0.0
 10
18.888769
 20
35.263320
 30
0.0
  0
SPLINE
  5
23c
100
AcDbEntity
  8
Layer_1
 62
7
100
AcDbSpline
 70
8
 71
3
 72
8
 73
4
 74
0
 40
0
 40
0
 40
0
 40
0
 40
1
 40
1
 40
1
 40
1
 10
18.888769
 20
35.263320
 30
0.0
 10
18.888737
 20
35.187014
 30
0.0
 10
18.950563
 20
35.125123
 30
0.0
 10
19.026864
 20
35.125089
 30
0.0
  0
SPLINE
  5
23d
100
AcDbEntity
  8
Layer_1
 62
7
100
AcDbSpline
 70
8
 71
3
 72
8
 73
4
 74
0
 40
0
 40
0
 40
0
 40
0
 40
1
 40
1
 40
1
 40
1
 10
19.026864
 20
35.125089
 30
0.0
 10
19.103220
 20
35.125057
 30
0.0
 10
19.165127
 20
35.186961
 30
0.0
 10
19.165095
 20
35.263320
 30
0.0
  0
SPLINE
  5
23e
100
AcDbEntity
  8
Layer_1
 62
7
100
AcDbSpline
 70
8
 71
3
 72
8
 73
4
 74
0
 40
0
 40
0
 40
0
 40
0
 40
1
 40
1
 40
1
 40
1
 10
19.165095
 20
35.263320
 30
0.0
 10
19.165015
 20
35.281735
 30
0.0
 10
19.161242
 20
35.299957
 30
0.0
 10
19.154019
 20
35.316917
 30
0.0
  0
LWPOLYLINE
  5
23f
100
AcDbEntity
  8
Layer_1
 62
7
100
AcDbPolyline
 90
1
 70
1
 10
18.707332
 20
35.533356
 30
0.0
  0
SPLINE
  5
240
100
AcDbEntity
  8
Layer_1
 62
7
100
AcDbSpline
 70
8
 71
3
 72
8
 73
4
 74
0
 40
0
 40
0
 40
0
 40
0
 40
1
 40
1
 40
1
 40
1
 10
19.064053
 20
35.396215
 30
0.0
 10
19.051945
 20
35.399549
 30
0.0
 10
19.039431
 20
35.401374
 30
0.0
 10
19.026863
 20
35.401401
 30
0.0
  0
LWPOLYLINE
  5
241
100
AcDbEntity
  8
Layer_1
 62
7
100
AcDbPolyline
 90
5
 70
0
 10
19.154019
 20
35.316917
 30
0.0
 10
20.155546
 20
35.316917
 30
0.0
 10
20.155546
 20
35.383092
 30
0.0
 10
20.155546
 20
35.396215
 30
0.0
 10
19.064053
 20
35.396215
 30
0.0
  0
LWPOLYLINE
  5
242
100
AcDbEntity
  8
Layer_1
 62
7
100
AcDbPolyline
 90
1
 70
1
 10
19.026863
 20
35.401401
 30
0.0
  0
SPLINE
  5
243
100
AcDbEntity
  8
Layer_1
 62
7
100
AcDbSpline
 70
8
 71
3
 72
8
 73
4
 74
0
 40
0
 40
0
 40
0
 40
0
 40
1
 40
1
 40
1
 40
1
 10
19.357197
 20
35.262944
 30
0.0
 10
19.353572
 20
35.263209
 30
0.0
 10
19.349910
 20
35.263474
 30
0.0
 10
19.346259
 20
35.263474
 30
0.0
  0
SPLINE
  5
244
100
AcDbEntity
  8
Layer_1
 62
7
100
AcDbSpline
 70
8
 71
3
 72
8
 73
4
 74
0
 40
0
 40
0
 40
0
 40
0
 40
1
 40
1
 40
1
 40
1
 10
19.346259
 20
35.263474
 30
0.0
 10
19.270008
 20
35.263431
 30
0.0
 10
19.208206
 20
35.201630
 30
0.0
 10
19.208164
 20
35.125380
 30
0.0
  0
SPLINE
  5
245
100
AcDbEntity
  8
Layer_1
 62
7
100
AcDbSpline
 70
8
 71
3
 72
8
 73
4
 74
0
 40
0
 40
0
 40
0
 40
0
 40
1
 40
1
 40
1
 40
1
 10
19.208164
 20
35.125380
 30
0.0
 10
19.208132
 20
35.049076
 30
0.0
 10
19.269956
 20
34.987193
 30
0.0
 10
19.346259
 20
34.987148
 30
0.0
  0
SPLINE
  5
246
100
AcDbEntity
  8
Layer_1
 62
7
100
AcDbSpline
 70
8
 71
3
 72
8
 73
4
 74
0
 40
0
 40
0
 40
0
 40
0
 40
1
 40
1
 40
1
 40
1
 10
19.346259
 20
34.987148
 30
0.0
 10
19.422615
 20
34.987116
 30
0.0
 10
19.484522
 20
35.049023
 30
0.0
 10
19.484490
 20
35.125380
 30
0.0
  0
SPLINE
  5
247
100
AcDbEntity
  8
Layer_1
 62
7
100
AcDbSpline
 70
8
 71
3
 72
8
 73
4
 74
0
 40
0
 40
0
 40
0
 40
0
 40
1
 40
1
 40
1
 40
1
 10
19.484490
 20
35.125380
 30
0.0
 10
19.484410
 20
35.145885
 30
0.0
 10
19.479791
 20
35.166088
 30
0.0
 10
19.470954
 20
35.184583
 30
0.0
  0
LWPOLYLINE
  5
248
100
AcDbEntity
  8
Layer_1
 62
7
100
AcDbPolyline
 90
2
 70
0
 10
19.357197
 20
35.264003
 30
0.0
 10
19.357197
 20
35.262944
 30
0.0
  0
LWPOLYLINE
  5
249
100
AcDbEntity
  8
Layer_1
 62
7
100
AcDbPolyline
 90
5
 70
0
 10
19.470954
 20
35.184583
 30
0.0
 10
20.155547
 20
35.184583
 30
0.0
 10
20.155547
 20
35.250758
 30
0.0
 10
20.155547
 20
35.263881
 30
0.0
 10
19.357197
 20
35.264003
 30
0.0
  0
SPLINE
  5
24a
100
AcDbEntity
  8
Layer_1
 62
7
100
AcDbSpline
 70
8
 71
3
 72
8
 73
4
 74
0
 40
0
 40
0
 40
0
 40
0
 40
1
 40
1
 40
1
 40
1
 10
19.663466
 20
35.132198
 30
0.0
 10
19.587218
 20
35.132153
 30
0.0
 10
19.525416
 20
35.070354
 30
0.0
 10
19.525371
 20
34.994104
 30
0.0
  0
SPLINE
  5
24b
100
AcDbEntity
  8
Layer_1
 62
7
100
AcDbSpline
 70
8
 71
3
 72
8
 73
4
 74
0
 40
0
 40
0
 40
0
 40
0
 40
1
 40
1
 40
1
 40
1
 10
19.525371
 20
34.994104
 30
0.0
 10
19.525339
 20
34.917803
 30
0.0
 10
19.587162
 20
34.855915
 30
0.0
 10
19.663466
 20
34.855872
 30
0.0
  0
SPLINE
  5
24c
100
AcDbEntity
  8
Layer_1
 62
7
100
AcDbSpline
 70
8
 71
3
 72
8
 73
4
 74
0
 40
0
 40
0
 40
0
 40
0
 40
1
 40
1
 40
1
 40
1
 10
19.663466
 20
34.855872
 30
0.0
 10
19.739821
 20
34.855841
 30
0.0
 10
19.801728
 20
34.917750
 30
0.0
 10
19.801697
 20
34.994104
 30
0.0
  0
SPLINE
  5
24d
100
AcDbEntity
  8
Layer_1
 62
7
100
AcDbSpline
 70
8
 71
3
 72
8
 73
4
 74
0
 40
0
 40
0
 40
0
 40
0
 40
1
 40
1
 40
1
 40
1
 10
19.801697
 20
34.994104
 30
0.0
 10
19.801644
 20
35.014186
 30
0.0
 10
19.797201
 20
35.034008
 30
0.0
 10
19.788708
 20
35.052212
 30
0.0
  0
LWPOLYLINE
  5
24e
100
AcDbEntity
  8
Layer_1
 62
7
100
AcDbPolyline
 90
2
 70
0
 10
19.663466
 20
35.132335
 30
0.0
 10
19.663466
 20
35.132198
 30
0.0
  0
SPLINE
  5
24f
100
AcDbEntity
  8
Layer_1
 62
7
100
AcDbSpline
 70
8
 71
3
 72
8
 73
4
 74
0
 40
0
 40
0
 40
0
 40
0
 40
1
 40
1
 40
1
 40
1
 10
19.677275
 20
35.131513
 30
0.0
 10
19.672698
 20
35.132042
 30
0.0
 10
19.668071
 20
35.132306
 30
0.0
 10
19.663467
 20
35.132306
 30
0.0
  0
LWPOLYLINE
  5
250
100
AcDbEntity
  8
Layer_1
 62
7
100
AcDbPolyline
 90
5
 70
0
 10
19.788708
 20
35.052212
 30
0.0
 10
20.155547
 20
35.052212
 30
0.0
 10
20.155547
 20
35.118389
 30
0.0
 10
20.155547
 20
35.131513
 30
0.0
 10
19.677275
 20
35.131513
 30
0.0
  0
LWPOLYLINE
  5
251
100
AcDbEntity
  8
Layer_1
 62
7
100
AcDbPolyline
 90
1
 70
1
 10
19.663467
 20
35.132306
 30
0.0
  0
LWPOLYLINE
  5
252
100
AcDbEntity
  8
Layer_1
 62
7
100
AcDbPolyline
 90
35
 70
0
 10
5.875980
 20
76.469501
 30
0.0
 10
5.695877
 20
76.289399
 30
0.0
 10
5.695877
 20
74.266285
 30
0.0
 10
5.556104
 20
74.126512
 30
0.0
 10
5.556104
 20
72.120525
 30
0.0
 10
5.407769
 20
71.972189
 30
0.0
 10
5.407769
 20
69.952775
 30
0.0
 10
5.276700
 20
69.821707
 30
0.0
 10
5.276700
 20
67.815143
 30
0.0
 10
5.133036
 20
67.671478
 30
0.0
 10
5.133036
 20
65.646258
 30
0.0
 10
4.991668
 20
65.504890
 30
0.0
 10
4.991668
 20
63.485187
 30
0.0
 10
4.849105
 20
63.342623
 30
0.0
 10
4.849105
 20
61.331147
 30
0.0
 10
4.707116
 20
61.189158
 30
0.0
 10
4.707116
 20
59.173982
 30
0.0
 10
4.564632
 20
59.031499
 30
0.0
 10
4.564632
 20
57.020724
 30
0.0
 10
4.425808
 20
56.881899
 30
0.0
 10
4.425808
 20
54.864392
 30
0.0
 10
4.284911
 20
54.723495
 30
0.0
 10
4.284911
 20
52.704049
 30
0.0
 10
4.144409
 20
52.563547
 30
0.0
 10
4.144409
 20
50.548447
 30
0.0
 10
4.000449
 20
50.404488
 30
0.0
 10
4.000449
 20
48.389720
 30
0.0
 10
3.861103
 20
48.250374
 30
0.0
 10
3.861103
 20
46.233286
 30
0.0
 10
3.720527
 20
46.092711
 30
0.0
 10
3.720527
 20
37.435134
 30
0.0
 10
3.433017
 20
37.147624
 30
0.0
 10
3.433017
 20
37.041434
 30
0.0
 10
3.537974
 20
36.936479
 30
0.0
 10
3.751213
 20
36.936479
 30
0.0
  0
SPLINE
  5
253
100
AcDbEntity
  8
Layer_1
 62
7
100
AcDbSpline
 70
8
 71
3
 72
8
 73
4
 74
0
 40
0
 40
0
 40
0
 40
0
 40
1
 40
1
 40
1
 40
1
 10
7.122333
 20
76.465081
 30
0.0
 10
7.122333
 20
76.465081
 30
0.0
 10
6.994161
 20
76.120345
 30
0.0
 10
6.987532
 20
76.129185
 30
0.0
  0
SPLINE
  5
254
100
AcDbEntity
  8
Layer_1
 62
7
100
AcDbSpline
 70
8
 71
3
 72
8
 73
4
 74
0
 40
0
 40
0
 40
0
 40
0
 40
1
 40
1
 40
1
 40
1
 10
6.987532
 20
76.129185
 30
0.0
 10
6.980902
 20
76.138024
 30
0.0
 10
6.848312
 20
76.456242
 30
0.0
 10
6.848312
 20
76.456242
 30
0.0
  0
LWPOLYLINE
  5
255
100
AcDbEntity
  8
Layer_1
 62
7
100
AcDbPolyline
 90
42
 70
0
 10
6.987933
 20
77.553246
 30
0.0
 10
7.520105
 20
76.473921
 30
0.0
 10
6.989742
 20
75.410985
 30
0.0
 10
6.432861
 20
76.469501
 30
0.0
 10
6.976995
 20
77.503243
 30
0.0
 10
7.478589
 20
76.476617
 30
0.0
 10
6.989496
 20
75.478117
 30
0.0
 10
6.478163
 20
76.469501
 30
0.0
 10
6.976483
 20
77.417525
 30
0.0
 10
7.431710
 20
76.479742
 30
0.0
 10
6.989496
 20
75.545309
 30
0.0
 10
6.521254
 20
76.470606
 30
0.0
 10
6.973168
 20
77.342390
 30
0.0
 10
7.389724
 20
76.479445
 30
0.0
 10
6.988714
 20
75.616407
 30
0.0
 10
6.568766
 20
76.469501
 30
0.0
 10
6.973870
 20
77.259478
 30
0.0
 10
7.346632
 20
76.478340
 30
0.0
 10
6.991952
 20
75.693845
 30
0.0
 10
6.614068
 20
76.469501
 30
0.0
 10
6.974273
 20
77.183281
 30
0.0
 10
7.303540
 20
76.473921
 30
0.0
 10
6.991952
 20
75.766770
 30
0.0
 10
6.653845
 20
76.469501
 30
0.0
 10
6.969853
 20
77.101517
 30
0.0
 10
7.259343
 20
76.473921
 30
0.0
 10
6.989742
 20
75.844115
 30
0.0
 10
6.693623
 20
76.469501
 30
0.0
 10
6.969182
 20
77.043840
 30
0.0
 10
7.217635
 20
76.471929
 30
0.0
 10
6.989742
 20
75.908200
 30
0.0
 10
6.728980
 20
76.469501
 30
0.0
 10
6.969853
 20
76.977765
 30
0.0
 10
7.179789
 20
76.471711
 30
0.0
 10
6.991952
 20
75.974496
 30
0.0
 10
6.770967
 20
76.465081
 30
0.0
 10
6.967643
 20
76.900421
 30
0.0
 10
7.151061
 20
76.467291
 30
0.0
 10
6.987532
 20
76.043001
 30
0.0
 10
6.810744
 20
76.465081
 30
0.0
 10
6.967643
 20
76.836335
 30
0.0
 10
7.122333
 20
76.465081
 30
0.0
  0
SPLINE
  5
256
100
AcDbEntity
  8
Layer_1
 62
7
100
AcDbSpline
 70
8
 71
3
 72
8
 73
4
 74
0
 40
0
 40
0
 40
0
 40
0
 40
1
 40
1
 40
1
 40
1
 10
7.005211
 20
76.447403
 30
0.0
 10
7.005211
 20
76.447403
 30
0.0
 10
6.978693
 20
76.372268
 30
0.0
 10
6.978693
 20
76.381107
 30
0.0
  0
SPLINE
  5
257
100
AcDbEntity
  8
Layer_1
 62
7
100
AcDbSpline
 70
8
 71
3
 72
8
 73
4
 74
0
 40
0
 40
0
 40
0
 40
0
 40
1
 40
1
 40
1
 40
1
 10
6.978693
 20
76.381107
 30
0.0
 10
6.978693
 20
76.389947
 30
0.0
 10
6.947755
 20
76.447403
 30
0.0
 10
6.947755
 20
76.447403
 30
0.0
  0
LWPOLYLINE
  5
258
100
AcDbEntity
  8
Layer_1
 62
7
100
AcDbPolyline
 90
15
 70
0
 10
6.848312
 20
76.456242
 30
0.0
 10
6.965434
 20
76.763410
 30
0.0
 10
7.091395
 20
76.462871
 30
0.0
 10
6.983112
 20
76.195480
 30
0.0
 10
6.874830
 20
76.454032
 30
0.0
 10
6.969853
 20
76.699325
 30
0.0
 10
7.056037
 20
76.462871
 30
0.0
 10
6.989742
 20
76.275035
 30
0.0
 10
6.899138
 20
76.451822
 30
0.0
 10
6.969853
 20
76.630820
 30
0.0
 10
7.029519
 20
76.456242
 30
0.0
 10
6.985322
 20
76.332491
 30
0.0
 10
6.925656
 20
76.454032
 30
0.0
 10
6.967643
 20
76.564524
 30
0.0
 10
7.005211
 20
76.447403
 30
0.0
  0
LWPOLYLINE
  5
259
100
AcDbEntity
  8
Layer_1
 62
7
100
AcDbPolyline
 90
5
 70
0
 10
6.947755
 20
76.447403
 30
0.0
 10
6.969853
 20
76.500439
 30
0.0
 10
6.983111
 20
76.445193
 30
0.0
 10
6.978693
 20
76.423094
 30
0.0
 10
6.963222
 20
76.447402
 30
0.0
  0
LWPOLYLINE
  5
25a
100
AcDbEntity
  8
Layer_1
 62
7
100
AcDbPolyline
 90
4
 70
1
 10
7.751596
 20
76.464707
 30
0.0
 10
8.301026
 20
77.524559
 30
0.0
 10
8.840926
 20
76.464707
 30
0.0
 10
8.301026
 20
75.404729
 30
0.0
  0
LWPOLYLINE
  5
25b
100
AcDbEntity
  8
Layer_1
 62
7
100
AcDbPolyline
 90
4
 70
1
 10
7.818944
 20
76.464699
 30
0.0
 10
8.300428
 20
77.393484
 30
0.0
 10
8.773562
 20
76.464699
 30
0.0
 10
8.300428
 20
75.535803
 30
0.0
  0
LWPOLYLINE
  5
25c
100
AcDbEntity
  8
Layer_1
 62
7
100
AcDbPolyline
 90
4
 70
1
 10
7.878988
 20
76.464692
 30
0.0
 10
8.299896
 20
77.276622
 30
0.0
 10
8.713502
 20
76.464692
 30
0.0
 10
8.299896
 20
75.652664
 30
0.0
  0
LWPOLYLINE
  5
25d
100
AcDbEntity
  8
Layer_1
 62
7
100
AcDbPolyline
 90
4
 70
1
 10
7.940043
 20
76.464684
 30
0.0
 10
8.299354
 20
77.157795
 30
0.0
 10
8.652432
 20
76.464684
 30
0.0
 10
8.299354
 20
75.771491
 30
0.0
  0
LWPOLYLINE
  5
25e
100
AcDbEntity
  8
Layer_1
 62
7
100
AcDbPolyline
 90
4
 70
1
 10
8.000311
 20
76.464677
 30
0.0
 10
8.298819
 20
77.040499
 30
0.0
 10
8.592149
 20
76.464677
 30
0.0
 10
8.298819
 20
75.888786
 30
0.0
  0
LWPOLYLINE
  5
25f
100
AcDbEntity
  8
Layer_1
 62
7
100
AcDbPolyline
 90
4
 70
1
 10
8.061445
 20
76.464669
 30
0.0
 10
8.298277
 20
76.921517
 30
0.0
 10
8.531000
 20
76.464669
 30
0.0
 10
8.298277
 20
76.007767
 30
0.0
  0
LWPOLYLINE
  5
260
100
AcDbEntity
  8
Layer_1
 62
7
100
AcDbPolyline
 90
4
 70
1
 10
8.122083
 20
76.464662
 30
0.0
 10
8.297733
 20
76.803491
 30
0.0
 10
8.470337
 20
76.464662
 30
0.0
 10
8.297733
 20
76.125792
 30
0.0
  0
LWPOLYLINE
  5
261
100
AcDbEntity
  8
Layer_1
 62
7
100
AcDbPolyline
 90
4
 70
1
 10
8.183684
 20
76.464654
 30
0.0
 10
8.297175
 20
76.683579
 30
0.0
 10
8.408698
 20
76.464654
 30
0.0
 10
8.297175
 20
76.245702
 30
0.0
  0
LWPOLYLINE
  5
262
100
AcDbEntity
  8
Layer_1
 62
7
100
AcDbPolyline
 90
4
 70
1
 10
8.243682
 20
76.464645
 30
0.0
 10
8.296622
 20
76.566766
 30
0.0
 10
8.348643
 20
76.464645
 30
0.0
 10
8.296622
 20
76.362512
 30
0.0
  0
LWPOLYLINE
  5
263
100
AcDbEntity
  8
Layer_1
 62
7
100
AcDbPolyline
 90
4
 70
1
 10
8.288270
 20
76.464153
 30
0.0
 10
8.295908
 20
76.478888
 30
0.0
 10
8.303414
 20
76.464153
 30
0.0
 10
8.295908
 20
76.449417
 30
0.0
  0
ENDSEC
  0
SECTION
  2
OBJECTS
  0
DICTIONARY
  5
C
330
0
100
AcDbDictionary
  3
ACAD_GROUP
350
D
  3
ACAD_MLINESTYLE
350
17
  0
DICTIONARY
  5
D
330
C
100
AcDbDictionary
  0
DICTIONARY
  5
1A
330
C
100
AcDbDictionary
  0
DICTIONARY
  5
17
330
C
100
AcDbDictionary
  3
STANDARD
350
18
  0
DICTIONARY
  5
19
330
C
100
AcDbDictionary
  0
ENDSEC
  0
EOF
