<?xml version="1.0" encoding="UTF-8" standalone="no"?>
<svg
   xmlns:dc="http://purl.org/dc/elements/1.1/"
   xmlns:cc="http://creativecommons.org/ns#"
   xmlns:rdf="http://www.w3.org/1999/02/22-rdf-syntax-ns#"
   xmlns:svg="http://www.w3.org/2000/svg"
   xmlns="http://www.w3.org/2000/svg"
   id="svg8"
   version="1.1"
   viewBox="0 0 210 297"
   height="297mm"
   width="210mm">
  <defs
     id="defs2" />
  <metadata
     id="metadata5">
    <rdf:RDF>
      <cc:Work
         rdf:about="">
        <dc:format>image/svg+xml</dc:format>
        <dc:type
           rdf:resource="http://purl.org/dc/dcmitype/StillImage" />
        <dc:title></dc:title>
      </cc:Work>
    </rdf:RDF>
  </metadata>
  <g
     id="layer1">
    <path
       id="rect4485-5-6-7"
       transform="scale(0.26458333)"
       d="M 10,6.8046875 V 649.66211 H 201.42773 V 6.8046875 Z M 80.074219,12.101562 H 186.63867 V 556.08789 l -82.56445,82.56445 H 66.71875 L 54.324219,626.25781 H 45.203125 L 19.074219,611.17188 v -7 l 29.810547,-16.625 V 465.5332 Z m 9.77539,0.69336 0.01563,541.292968 v 0.01 h 0.0098 l 4.09375,4.09375 v 61.02343 l -3.794922,3.79297 H 78.847656 l -3.769531,-3.77148 v -1.69336 h -1.134766 v 2.16406 l 4.433594,4.43359 h 12.298828 v -0.0293 l 4.425781,-4.42578 V 557.7207 l -4.179687,-4.17968 v -33.15625 l 8.248047,-15.41016 -8.248047,-15.4082 v -4.33008 l 8.248047,-15.41016 -8.248047,-15.4082 v -4.33203 l 8.248047,-15.41016 -8.248047,-15.4082 v -4.36719 l 8.248047,-15.41016 -8.248047,-15.4082 v -4.29297 l 8.248047,-15.41015 -8.248047,-15.40821 v -4.33398 l 8.248047,-15.41016 -8.248047,-15.4082 v -4.33008 l 8.248047,-15.41016 -8.248047,-15.4082 v -4.33203 l 8.248047,-15.41016 -8.248047,-15.4082 v -4.33203 l 8.248047,-15.41016 -8.248047,-15.4082 v -4.33203 l 8.248047,-15.41016 -8.248047,-15.4082 v -4.33008 l 8.248047,-15.41015 -8.248047,-15.40821 v -4.33203 l 8.248047,-15.41016 -8.248047,-15.4082 V 98.587891 L 99.169922,83.177734 90.921875,67.769531 V 63.439453 L 99.169922,48.029297 90.921875,32.621094 v -4.550782 l 8.175781,-15.27539 z m 10.587891,0 -0.008,0.0098 8.22265,15.363281 v 4.630859 l -8.18359,15.291016 8.18359,15.291015 V 67.9473 l -8.18359,15.291015 8.18359,15.291016 v 4.568359 l -8.18359,15.29101 8.18359,15.29102 v 4.56836 l -8.18359,15.29101 8.18359,15.29102 v 4.5664 l -8.18359,15.29102 8.18359,15.29102 v 4.56836 l -8.18359,15.29101 8.18359,15.29102 v 4.5664 l -8.18359,15.29102 8.18359,15.29101 v 4.56836 l -8.18359,15.29102 8.18359,15.29101 v 4.56836 l -8.18359,15.29102 8.18359,15.29101 v 4.57032 l -8.18359,15.29101 8.18359,15.29102 v 4.54687 l -8.18359,15.29102 8.18359,15.29102 v 4.58593 l -8.18359,15.29102 8.18359,15.29101 v 4.56641 l -8.18359,15.29102 8.18359,15.29101 v 4.56836 l -8.18359,15.29102 8.18359,15.29101 v 33.22071 L 96.001763,566.1973 v 53.98242 l -4.904297,4.91015 H 77.144531 l -5.845703,-5.85351 V 617.543 h -1.134766 v 2.16406 l 6.511719,6.51758 h 14.890625 l 5.56836,-5.57422 V 566.668 l 12.576174,-12.58008 v -0.002 -33.73828 l 8.19531,-15.3125 -8.19531,-15.3125 v -4.52539 l 8.19531,-15.3125 -8.19531,-15.3125 v -4.52344 l 8.19531,-15.3125 -8.19531,-15.3125 v -4.54297 l 8.19531,-15.3125 -8.19531,-15.3125 v -4.50391 l 8.19531,-15.3125 -8.19531,-15.3125 v -4.52734 l 8.19531,-15.3125 -8.19531,-15.3125 v -4.52539 l 8.19531,-15.3125 -8.19531,-15.3125 v -4.52539 l 8.19726,-15.3125 -8.19531,-15.3125 v -4.52344 l 8.19531,-15.3125 -8.19531,-15.3125 V 204 l 8.19531,-15.3125 -8.19531,-15.3125 v -4.52344 l 8.19531,-15.3125 -8.19531,-15.3125 v -4.52539 l 8.19531,-15.3125 -8.19531,-15.3125 v -4.525389 l 8.19531,-15.3125 -8.19531,-15.3125 v -4.523437 l 8.19531,-15.3125 -8.19531,-15.3125 v -4.732422 l 8.15625,-15.240234 -0.008,-0.0098 z m 18.7832,0 -0.041,0.08203 8.17969,15.283203 v 4.791016 l -8.14063,15.210937 8.14063,15.210938 v 4.726562 l -8.14063,15.210938 8.14063,15.210937 V 103.25 l -8.14063,15.21094 8.14063,15.21094 v 4.72851 l -8.14063,15.21094 8.14063,15.21094 v 4.72656 l -8.14063,15.21094 8.14063,15.21093 v 4.72852 l -8.14063,15.21094 8.14063,15.21093 v 4.72657 l -8.14063,15.21093 8.14063,15.21094 v 4.72852 l -8.14063,15.21093 8.14063,15.21094 v 4.72852 l -8.14063,15.21094 8.14063,15.21093 v 4.72852 l -8.14063,15.21094 8.14063,15.21093 v 4.70899 l -8.14063,15.21093 8.14063,15.20899 v 4.74805 l -8.14063,15.21093 8.14063,15.21094 v 4.72656 l -8.14063,15.21094 8.14063,15.21094 v 4.72851 l -8.14063,15.21094 8.14063,15.21094 v 33.22656 l -29.224614,29.2168 0.01758,0.0195 v 38.36914 l -6.298828,6.29102 h -16.13086 l -8.203125,-8.20508 v -1.69336 h -1.134765 v 2.16406 l 8.86914,8.86719 h 17.078125 v -0.01 l 0.002,0.002 6.953125,-6.94727 -0.01367,-0.0156 h 0.01367 V 583.21094 L 128.41602,554.08789 V 520.5 l 8.23828,-15.39258 -8.23828,-15.39258 v -4.36523 l 8.23828,-15.39258 -8.23828,-15.39258 v -4.36328 l 8.23828,-15.39258 -8.23828,-15.39257 v -4.38477 l 8.23828,-15.39063 -8.23828,-15.39257 v -4.34571 l 8.23828,-15.39257 -8.23828,-15.39258 v -4.36524 l 8.23828,-15.39257 -8.23828,-15.39258 v -4.36524 l 8.23828,-15.39258 -8.23828,-15.39257 v -4.36524 l 8.23828,-15.39258 -8.23828,-15.39257 v -4.36329 l 8.23828,-15.39257 -8.23828,-15.39258 v -4.36524 l 8.23828,-15.39257 -8.23828,-15.39258 v -4.36328 l 8.23828,-15.39258 -8.23828,-15.39258 v -4.36523 l 8.23828,-15.39258 -8.23828,-15.39258 v -4.365235 l 8.23828,-15.392578 -8.23828,-15.392578 v -4.363281 l 8.23828,-15.392579 -8.23828,-15.392578 v -4.572265 l 8.19921,-15.320313 -0.043,-0.08203 z m 18.625,0 8.23242,15.378906 v 4.585938 l -8.19531,15.314453 8.19531,15.3125 v 4.521484 l -8.19531,15.314453 8.19531,15.3125 v 4.523434 l -8.19531,15.31446 8.19531,15.3125 v 4.52343 l -8.19531,15.31446 8.19531,15.3125 v 4.52148 l -8.19531,15.31446 8.19531,15.3125 v 4.52343 l -8.19531,15.31446 8.19531,15.3125 v 4.52148 l -8.19531,15.31445 8.19531,15.3125 v 4.52344 l -8.19531,15.31445 8.19531,15.3125 v 4.52344 l -8.19531,15.31445 8.19531,15.3125 v 4.52344 l -8.19531,15.31446 8.19531,15.3125 v 4.48242 l -8.19531,15.31445 8.19531,15.3125 v 4.56055 l -8.19531,15.31445 8.19531,15.3125 v 4.52344 l -8.19531,15.31445 8.19531,15.3125 v 4.52148 l -8.19531,15.31446 8.19531,15.3125 v 33.21484 l -45.6621,45.64453 h -0.10743 v 22.94532 l -7.71484,7.73242 H 74.392578 l -10.65039,-10.63086 v -1.69336 h -1.134766 v 2.16601 l 11.314453,11.29493 h 19.080078 l 0.0293,0.0293 8.410157,-8.42773 v -0.002 -22.83594 l 45.69336,-45.67969 v -33.7793 l 8.18554,-15.29101 -8.18554,-15.29297 v -4.56445 l 8.18554,-15.29102 -8.18554,-15.29297 v -4.5664 l 8.18554,-15.29102 -8.18554,-15.29297 v -4.60351 l 8.18554,-15.29102 -8.18554,-15.29297 v -4.52539 l 8.18554,-15.29101 -8.18554,-15.29297 v -4.56641 l 8.18554,-15.29102 -8.18554,-15.29296 v -4.56641 l 8.18554,-15.29102 -8.18554,-15.29297 v -4.5664 l 8.18554,-15.29102 -8.18554,-15.29297 v -4.56445 l 8.18554,-15.29101 -8.18554,-15.29297 v -4.56641 l 8.18554,-15.29101 -8.18554,-15.29297 v -4.56446 l 8.18554,-15.29101 -8.18554,-15.29297 v -4.56641 l 8.18554,-15.29101 -8.18554,-15.29297 v -4.566408 l 8.18554,-15.291016 -8.18554,-15.292968 v -4.564454 l 8.18554,-15.291015 -8.18554,-15.292969 v -4.775391 l 8.14062,-15.210937 z m 18.82813,0 -0.0586,0.101562 8.22461,15.367188 v 4.625 l -8.18554,15.294922 8.18554,15.294922 v 4.558593 l -8.18554,15.294922 8.18554,15.294922 v 4.560547 l -8.18554,15.29492 8.18554,15.29492 v 4.56055 l -8.18554,15.29492 8.18554,15.29492 v 4.5586 l -8.18554,15.29492 8.18554,15.29492 v 4.5586 l -8.18554,15.29492 8.18554,15.29492 v 4.55859 l -8.18554,15.29492 8.18554,15.29493 v 4.56054 l -8.18554,15.29493 8.18554,15.29492 v 4.56054 l -8.18554,15.29493 8.18554,15.29492 v 4.5625 l -8.18554,15.29492 8.18554,15.29492 v 4.5586 l -8.18554,15.29492 8.18554,15.29492 v 4.55859 l -8.18554,15.29492 8.18554,15.29493 v 4.56054 l -8.18554,15.29493 8.18554,15.29492 v 4.55859 l -8.18554,15.29492 8.18554,15.29493 v 33.12109 l -62.24804,62.23242 0.0273,0.0273 h -0.0156 v 7.1836 l -9.367192,9.36133 H 73.072266 L 59.958984,619.23633 v -1.69336 h -1.134765 v 2.16406 l 13.78125,13.7793 0.02734,-0.0273 v 0.0234 h 21.089844 v -0.0156 l 10.017577,-10.01368 v -7.21874 l 0.73438,-0.7129 61.42773,-61.43359 V 520.4375 l 8.19336,-15.30859 -8.19336,-15.3086 v -4.53125 l 8.19336,-15.30859 -8.19336,-15.30859 v -4.53321 l 8.19336,-15.30859 -8.19336,-15.3086 v -4.53125 l 8.19336,-15.30859 -8.19336,-15.30859 v -4.53125 l 8.19336,-15.3086 -8.19336,-15.30859 v -4.53516 l 8.19336,-15.30859 -8.19336,-15.30859 v -4.53321 l 8.19336,-15.30859 -8.19336,-15.30859 v -4.53321 l 8.19336,-15.30859 -8.19336,-15.3086 v -4.53125 l 8.19336,-15.30859 -8.19336,-15.30859 v -4.53321 l 8.19336,-15.30859 -8.19336,-15.30859 v -4.53125 l 8.19336,-15.3086 -8.19336,-15.30859 v -4.5332 l 8.19336,-15.3086 -8.19336,-15.30859 v -4.533205 l 8.19336,-15.308594 -8.19336,-15.308593 v -4.53125 L 174.0957,48.183594 165.90234,32.875 v -4.742188 l 8.1543,-15.236328 -0.0547,-0.101562 z m 18.70703,0 -0.0449,0.08398 8.16992,15.265625 v 4.828125 l -8.13086,15.19336 8.13086,15.193359 v 4.761719 l -8.13086,15.193359 8.13086,15.193359 v 4.763672 l -8.13086,15.19336 8.13086,15.19336 v 4.76368 l -8.13086,15.19335 8.13086,15.19336 v 4.76172 l -8.13086,15.19336 8.13086,15.19336 v 4.76367 l -8.13086,15.19336 8.13086,15.19336 v 4.76172 l -8.13086,15.19336 8.13086,15.19336 v 4.76367 l -8.13086,15.19336 8.13086,15.19336 v 4.76367 l -8.13086,15.19336 8.13086,15.19336 v 4.76367 l -8.13086,15.19336 8.13086,15.19336 v 4.74414 l -8.13086,15.19141 8.13086,15.19336 v 4.7832 l -8.13086,15.19336 8.13086,15.19336 v 4.76172 l -8.13086,15.19336 8.13086,15.19336 v 4.76367 l -8.13086,15.19336 8.13086,15.19336 v 33.31445 l -81.13672,81.10547 H 71.646484 L 56.181641,619.23633 v -1.69336 h -1.134766 v 2.16406 l 16.130859,16.15039 h 31.660156 l 81.80078,-81.76953 V 548.93164 520.38477 12.794922 Z M 87.214844,13.550781 V 568.99609 l 4.390625,4.39063 v 33.08398 h 1.511719 v -33.71093 l -4.390626,-4.39258 V 13.550781 Z m 50.033206,0.304688 -8.44532,16.291015 8.44532,16.291016 8.29883,-16.291016 z m -37.412112,0.01758 -8.597657,16.291015 8.597657,16.291016 8.298832,-16.291016 z m 18.748042,0.07031 -8.44531,16.291016 8.44531,16.292969 8.29883,-16.292969 z m 56.15821,0.0039 -8.44727,16.291015 8.44727,16.291016 8.29883,-16.291016 z m -18.71875,0.01758 -8.44532,16.291015 8.44532,16.291016 8.29883,-16.291016 z m -72.021487,14.246094 -1.974609,1.972656 0.224609,0.912109 -1.419922,1.419922 V 61.308594 L 78.8125,63.326172 v 28.792969 l -2.017578,2.019531 v 28.791018 l -2.019531,2.01953 v 28.79101 l -2.017579,2.01954 v 28.79101 l -2.019531,2.01953 v 28.79102 l -2.017578,2.01953 v 28.79297 l -2.019531,2.01758 v 28.79297 l -2.017578,2.01757 v 28.79297 l -2.019532,2.01758 v 28.79297 l -2.017578,2.01758 h -0.002 v 28.79492 l -2.017578,2.01562 v 28.79297 l -2.017578,2.01953 v 28.79102 l -2.019531,2.01953 v 28.79102 l -2.019532,2.01953 v 123.70508 l -4.101562,4.09961 v 2.02929 h 0.07031 l -0.0078,0.008 1.777344,1.77735 h 3.324218 v -1.13477 h -2.876953 l -1.152343,-1.15234 v -1.0586 l 4.101562,-4.10156 V 464.33594 l 2.019531,-2.01758 v -28.79492 l 2.017579,-2.01563 v -28.79297 l 2.019531,-2.01757 v -28.79493 l 2.017578,-2.01757 v -28.79102 l 2.019531,-2.01953 V 310.2832 l 2.017578,-2.01953 v -28.79101 l 2.019532,-2.01954 v -28.79101 l 2.017578,-2.01953 v -28.79297 l 2.019531,-2.01758 v -28.79297 l 2.017578,-2.01758 v -28.79296 l 2.019531,-2.01758 v -28.79297 l 2.017578,-2.01758 V 94.607422 l 2.019532,-2.017578 V 63.796875 l 2.017578,-2.019531 V 32.986328 l 1.078125,-1.078125 0.958984,0.25 1.974609,-1.974609 z m 53.277347,21.021484 -8.44532,16.291016 8.44532,16.291015 8.30078,-16.291015 z m -37.410159,0.01953 -8.59961,16.291016 8.59961,16.291015 8.298829,-16.291015 z m 18.746089,0.07227 -8.44531,16.291015 8.44531,16.291016 8.29883,-16.291016 z m 56.15821,0.002 -8.44532,16.291016 8.44532,16.292968 8.29883,-16.292968 z m -18.7168,0.01953 -8.44531,16.291016 8.44531,16.291015 8.29883,-16.291015 z m -71.853515,14.183594 -1.972656,1.972656 0.193359,0.845703 -1.279297,1.279297 V 96.417969 L 79.125,98.4375 v 28.79102 l -2.017578,2.01953 v 28.79101 l -2.019531,2.01953 v 28.79297 l -2.017579,2.01758 v 28.79297 l -2.019531,2.01758 v 28.79297 l -2.017578,2.01757 v 28.79297 l -2.019531,2.01758 v 28.79297 l -2.017578,2.01953 v 28.79102 l -2.019532,2.01953 v 28.79101 l -2.017578,2.01954 h -0.002 v 28.79296 l -2.017578,2.01758 v 28.79102 l -2.017578,2.01953 v 28.79101 l -2.019531,2.01954 v 124.79687 h 1.134765 V 468.63672 l 2.017579,-2.01953 v -28.79297 l 2.019531,-2.01758 v -28.79297 l 2.017578,-2.01758 v -28.79297 l 2.019531,-2.01757 v -28.79297 l 2.017578,-2.01758 v -28.79297 l 2.019532,-2.01953 v -28.79102 l 2.017578,-2.01953 v -28.79101 l 2.019531,-2.01953 v -28.79102 l 2.017578,-2.01953 v -28.79102 l 2.019531,-2.01953 V 160.5293 l 2.017578,-2.01953 V 129.7168 l 2.019532,-2.01758 V 98.90625 l 2.017578,-2.017578 V 68.095703 l 0.908203,-0.90625 1.017578,0.287109 1.974609,-1.974609 z m 53.076175,20.851562 -8.44532,16.291017 8.44532,16.29101 8.30078,-16.29101 z m -37.410159,0.02148 -8.59961,16.291017 8.59961,16.29102 8.298829,-16.29102 z m 18.746089,0.07227 -8.44531,16.291007 8.44531,16.29102 8.29883,-16.29102 z m 56.15821,0.002 -8.44532,16.291017 8.44532,16.29297 8.29883,-16.29297 z m -18.7168,0.01953 -8.44531,16.291017 8.44531,16.29101 8.29883,-16.29101 z m -71.855468,14.197265 -1.972656,1.974612 0.107422,0.64062 -1.091797,1.0918 v 28.79492 l -2.017579,2.01563 V 162.004 l -2.017578,2.01953 v 28.79101 l -2.019531,2.01953 V 223.625 l -2.017578,2.01953 v 28.79102 l -2.019531,2.01953 v 28.79101 l -2.017578,2.01953 v 28.79102 l -2.019532,2.01953 v 28.79297 l -2.017578,2.01758 v 28.79297 l -2.019531,2.01758 v 28.79296 l -2.017578,2.01758 v 28.79297 l -2.019531,2.01758 v 28.79297 l -2.017578,2.01953 v 106.96875 l -0.01367,-0.002 -0.267578,3.75586 v 10.10156 h 1.134765 v -0.94531 -8.97461 l 0.01367,0.002 0.267578,-3.75586 V 472.59961 l 2.019531,-2.01758 v -0.002 -28.79102 l 2.017578,-2.01953 v -28.79101 l 2.019532,-2.01954 v -28.79101 l 2.017578,-2.01953 v -28.79102 l 2.019531,-2.01953 v -28.79101 l 2.017578,-2.01954 v -28.79296 l 2.019531,-2.01758 v -28.79297 l 2.017579,-2.01758 v -28.79297 l 2.019531,-2.01758 v -28.79297 l 2.017578,-2.01757 v -28.79297 l 2.019531,-2.01758 v -28.79297 l 2.017578,-2.01953 v -28.79297 l 0.63086,-0.63086 1.191406,0.40234 1.974609,-1.97265 -1.974609,-1.974611 z m 53.078128,20.837892 -8.44532,16.29102 8.44532,16.29101 8.30078,-16.29101 z m -37.410159,0.0195 -8.59961,16.29102 8.59961,16.29101 8.298829,-16.29101 z m 18.746089,0.0742 -8.44531,16.29102 8.44531,16.29101 8.29883,-16.29101 z m 56.15821,0.002 -8.44532,16.29102 8.44532,16.29297 8.29883,-16.29297 z m -18.7168,0.0195 -8.44531,16.29102 8.44531,16.29102 8.29883,-16.29102 z m -71.802734,14.16211 -1.972656,1.97461 0.107422,0.64063 -1.091797,1.09179 v 28.79102 l -2.017578,2.01953 v 28.79102 l -2.019531,2.01953 v 28.79101 l -2.017578,2.01954 v 28.79101 l -2.019532,2.01953 v 28.79102 l -2.017578,2.01953 v 28.79297 l -2.019531,2.01758 v 28.79297 l -2.017578,2.01757 v 28.79297 L 65.148438,384 v 28.79297 l -2.017579,2.01758 v 28.79297 l -2.019531,2.01953 v 28.79101 l -2.017578,2.01953 v 102.94727 l -0.462891,3.80859 v 9.76563 h 1.134766 v -0.94531 -8.69727 l 0.460937,-3.78906 v -102.6211 l 2.019532,-2.01757 V 446.0918 l 2.017578,-2.01758 v -28.79297 l 2.019531,-2.01953 V 384.4707 l 2.017578,-2.01953 v -28.79101 l 2.019531,-2.01954 v -28.79101 l 2.017579,-2.01953 v -28.79102 l 2.019531,-2.01953 V 261.22656 L 76.375,259.20898 v -28.79296 l 2.019531,-2.01758 v -28.79297 l 2.017578,-2.01758 v -28.79297 l 2.019532,-2.01758 v -28.79296 l 0.630859,-0.63086 1.191406,0.40234 1.97461,-1.97266 z m 53.025394,20.875 -8.44532,16.29102 8.44532,16.29101 8.30078,-16.29101 z m -37.410159,0.0195 -8.59961,16.29102 8.59961,16.29102 8.298829,-16.29102 z m 18.746089,0.0723 -8.44531,16.29102 8.44531,16.29101 8.29883,-16.29101 z m 56.15821,0.002 -8.44532,16.29102 8.44532,16.29297 8.29883,-16.29297 z m -18.7168,0.0215 -8.44531,16.29101 8.44531,16.29102 8.29883,-16.29102 z m -71.759765,14.21679 -1.972656,1.97461 0.107422,0.64063 -1.091797,1.0918 v 28.79296 l -2.017578,2.01954 v 28.79296 l -2.019532,2.01758 v 28.79297 l -2.017578,2.01758 v 28.79297 l -2.019531,2.01758 v 28.79297 l -2.017578,2.01757 v 28.79297 l -2.019531,2.01758 v 28.79297 l -2.017578,2.01953 v 28.79102 l -2.019532,2.01953 v 28.79101 l -2.017578,2.01953 v 28.79102 l -2.019531,2.01953 v 99.36133 l -0.01758,-0.004 -0.615235,3.59571 v 9.17187 h 1.134766 v -0.94531 -7.93945 l 0.01758,0.004 0.615234,-3.5957 v -99.17969 l 2.017579,-2.01758 v -28.79297 l 2.019531,-2.01757 v -28.79297 l 2.017578,-2.01758 v -28.79297 l 2.019531,-2.01758 v -28.79297 l 2.017578,-2.01953 v -28.79101 l 2.019532,-2.01953 V 296.4375 l 2.017578,-2.01953 v -28.79102 l 2.019531,-2.01953 v -28.79101 l 2.017578,-2.01953 v -28.79297 l 2.019531,-2.01758 v -28.79297 l 0.63086,-0.63086 1.191406,0.40234 1.974609,-1.97265 -1.974609,-1.97461 z m 52.982425,20.81836 -8.44532,16.29102 8.44532,16.29102 8.30078,-16.29102 z m -37.410159,0.0195 -8.59961,16.29101 8.59961,16.29102 8.298829,-16.29102 z m 18.746089,0.0723 -8.44531,16.29102 8.44531,16.29101 8.29883,-16.29101 z m 56.15821,0.002 -8.44532,16.29102 8.44532,16.29297 8.29883,-16.29297 z m -18.7168,0.0195 -8.44531,16.29101 8.44531,16.29102 8.29883,-16.29102 z m -71.74414,14.35156 -1.972656,1.97461 0.107422,0.64062 -1.091797,1.0918 v 28.79297 l -2.017578,2.01758 v 28.79101 l -2.019532,2.01953 v 28.79493 l -2.017578,2.01562 v 28.79297 l -2.019531,2.01758 v 28.79297 l -2.017578,2.01757 v 28.79297 l -2.019531,2.01758 v 28.79297 l -2.017579,2.01758 v 28.79297 l -2.019531,2.01953 v 28.79101 l -2.017578,2.01953 v 95.77149 l -0.779297,3.55859 v 8.32422 h 1.134766 v -0.94531 -7.15039 l 0.777344,-3.5586 v -95.52929 l 2.019531,-2.01758 v -28.79297 l 2.017578,-2.01758 v -28.79297 l 2.019531,-2.01953 V 393.3418 l 2.017578,-2.01953 v -28.79102 l 2.019532,-2.01953 V 331.7207 l 2.017578,-2.01953 v -28.79101 l 2.019531,-2.01954 v -28.79101 l 2.017578,-2.01953 v -28.79297 l 2.019531,-2.01758 v -28.79297 l 0.63086,-0.63086 1.191406,0.40235 1.974609,-1.97266 -1.974609,-1.97461 z m 52.9668,20.68555 -8.44532,16.29101 8.44532,16.29102 8.30078,-16.29102 z m -37.410159,0.0195 -8.59961,16.29101 8.59961,16.29102 8.298829,-16.29102 z m 18.746089,0.0723 -8.44531,16.29102 8.44531,16.29101 8.29883,-16.29101 z m 56.15821,0.002 -8.44532,16.29102 8.44532,16.29297 8.29883,-16.29297 z m -18.7168,0.0195 -8.44531,16.29101 8.44531,16.29102 8.29883,-16.29102 z m -71.777343,14.03515 -1.972656,1.97461 0.107421,0.64063 -1.091796,1.09179 v 28.79297 l -2.017578,2.01758 v 28.79297 l -2.017579,2.01758 v 28.79297 l -2.019531,2.01757 V 364.0646 L 73.25,366.08203 V 394.875 l -2.019531,2.01758 v 28.79297 l -2.017578,2.01757 v 0.002 28.79101 l -2.019532,2.01953 v 28.79102 l -2.017578,2.01953 v 92.25 l -0.875,3.99414 v 7.38672 h 1.134766 v -0.94531 -6.26953 l 0.873047,-3.98633 v -91.96094 l 2.019531,-2.01758 v -28.79296 l 2.017578,-2.01758 v -28.79297 l 2.019531,-2.01953 v -28.79102 l 2.017578,-2.01953 v -28.79102 l 2.019532,-2.01953 v -28.79101 l 2.017578,-2.01953 v -28.79102 l 2.019531,-2.01953 v -28.79102 l 2.017578,-2.01953 v -28.79297 l 0.63086,-0.63086 1.191406,0.40235 1.974609,-1.97266 z m 53.000003,21 -8.44532,16.29102 8.44532,16.29101 8.30078,-16.29101 z m -37.410159,0.0215 -8.59961,16.29101 8.59961,16.29102 8.298829,-16.29102 z m 18.746089,0.0723 -8.44531,16.29102 8.44531,16.29101 8.29883,-16.29101 z m 56.15821,0.002 -8.44532,16.29101 8.44532,16.29297 8.29883,-16.29297 z m -18.7168,0.0195 -8.44531,16.29101 8.44531,16.29102 8.29883,-16.29102 z m -71.771484,14.34961 -1.972656,1.97461 0.107422,0.64062 -1.091797,1.0918 v 28.79297 l -2.017578,2.01757 v 28.79297 l -2.019531,2.01758 v 28.79297 l -2.017578,2.01758 v 28.79297 l -2.019532,2.01758 v 28.79296 l -2.017578,2.01758 v 0.002 28.79101 l -2.019531,2.01953 v 28.79102 l -2.017578,2.01953 v 88.05469 l -1.009766,3.71289 v 7.20898 h 1.134766 v -0.94531 -5.86524 l 1.007812,-3.71289 v -87.98242 l 2.019531,-2.01758 v -28.79297 l 2.017579,-2.01757 v -28.79297 l 2.019531,-2.01953 V 402.01953 L 76.40625,400 v -28.79102 l 2.019531,-2.01953 v -28.79101 l 2.017578,-2.01953 v -28.79102 l 2.019532,-2.01953 v -28.79297 l 0.630859,-0.63086 1.191406,0.40235 1.97461,-1.97266 -1.97461,-1.97461 z m 52.994144,20.68554 -8.44532,16.29102 8.44532,16.29101 8.30078,-16.29101 z m -37.410159,0.0195 -8.59961,16.29102 8.59961,16.29102 8.298829,-16.29102 z m 18.746089,0.0723 -8.44531,16.29102 8.44531,16.29101 8.29883,-16.29101 z m 56.15821,0.002 -8.44532,16.29102 8.44532,16.29297 8.29883,-16.29297 z m -18.7168,0.0195 -8.44531,16.29102 8.44531,16.29102 8.29883,-16.29102 z m -71.804687,14.29102 -1.972656,1.97461 0.107422,0.64062 -1.091797,1.0918 v 28.79102 l -1.89899,1.80703 -0.118588,29.00351 -2.019532,2.01953 v 28.79102 l -2.017578,2.01953 v 28.79297 l -2.019531,2.01758 v 28.79297 l -2.017578,2.01758 v 28.79296 l -2.019531,2.01758 v 84.45703 l -1.103516,2.94141 v 7.30078 h 1.134766 v -0.94531 -6.0293 l 1.103515,-2.93945 v -84.31445 l 2.017579,-2.01954 V 467.9182 l 2.019531,-2.01953 v -28.79102 l 2.017578,-2.01953 v -28.79297 l 2.019531,-2.01758 v -28.79296 l 2.017578,-2.01758 v -28.79297 l 2.019532,-2.01758 v -28.79297 l 0.630859,-0.63086 1.191406,0.40235 1.974609,-1.97266 z m 53.027347,20.74609 -8.44532,16.29102 8.44532,16.29101 8.30078,-16.29101 z m -37.410159,0.0195 -8.59961,16.29102 8.59961,16.29102 8.298829,-16.29102 z m 18.746089,0.0723 -8.44531,16.29102 8.44531,16.29101 8.29883,-16.29101 z m 56.15821,0.004 -8.44532,16.29101 8.44532,16.29297 8.29883,-16.29297 z m -18.7168,0.0195 -8.44531,16.29101 8.44531,16.29102 8.29883,-16.29102 z m -71.761718,14.22461 -1.972656,1.97461 0.107422,0.64062 -1.091797,1.0918 v 28.79101 l -2.017579,2.01954 v 28.79101 l -2.019531,2.01953 v 28.79102 l -2.017578,2.01953 v 28.79101 l -2.019531,2.01954 v 28.79296 l -2.017578,2.01758 v 80.77539 l -1.271485,2.31446 h -0.0039 v 7.33398 h 1.134766 v -0.94531 -6.33594 l 1.273437,-2.3164 V 503.0042 l 2.019532,-2.01953 v -28.79102 l 2.017578,-2.01953 v -28.79297 l 2.019531,-2.01758 V 410.5706 l 2.017578,-2.01758 v -28.79296 l 2.019531,-2.01758 v -28.79297 l 0.63086,-0.63086 1.191406,0.40234 1.974609,-1.97265 z m 52.984378,20.81445 -8.44532,16.29102 8.44532,16.29101 8.30078,-16.29101 z m -37.410159,0.0195 -8.59961,16.29102 8.59961,16.29101 8.298829,-16.29101 z m 18.746089,0.0723 -8.44531,16.29101 8.44531,16.29102 8.29883,-16.29102 z m 56.15821,0.002 -8.44532,16.29102 8.44532,16.29296 8.29883,-16.29296 z m -18.7168,0.0195 -8.44531,16.29102 8.44531,16.29101 8.29883,-16.29101 z m -71.808593,14.16016 -1.972656,1.97461 0.107421,0.64062 -1.091796,1.0918 v 28.79297 l -2.017578,2.01758 v 28.79101 l -2.017579,2.01953 v 28.79102 L 75.236328,476 v 28.79102 l -2.017578,2.01953 v 76.34961 l -1.359375,2.41211 v 7.38671 h 1.134766 v -0.94531 -6.27539 l 1.357421,-2.41211 V 507.2793 l 2.019532,-2.01758 v -28.79297 l 2.017578,-2.01758 V 445.6582 l 2.019531,-2.01758 v -28.79296 l 2.017578,-2.01758 v -0.002 -28.79101 l 0.63086,-0.63086 1.191406,0.40234 1.974609,-1.97265 z m 15.621094,20.87695 -8.59961,16.29102 8.59961,16.29101 8.298829,-16.29101 z m 37.410159,0 -8.44532,16.29102 8.44532,16.29101 8.30078,-16.29101 z m -18.66407,0.0723 -8.44531,16.29101 8.44531,16.29102 8.29883,-16.29102 z m 56.15821,0.002 -8.44532,16.29102 8.44532,16.29296 8.29883,-16.29296 z m -18.7168,0.0371 -8.44531,16.29101 8.44531,16.29102 8.29883,-16.29102 z m -71.769531,14.2832 -1.970703,1.97461 0.107422,0.64063 -1.091797,1.09179 v 28.79102 l -2.017578,2.01953 v 28.79102 l -2.019531,2.01953 v 28.79101 l -2.017578,2.01953 v 64.8711 l 6.396484,6.39258 v 9.92382 l -1.767578,1.76954 h -1.716797 v 1.13476 h 2.162109 l 2.457032,-2.45703 v -10.7793 h -0.0078 l 0.0332,-0.0351 -6.425781,-6.41797 v -63.93164 l 2.019531,-2.01953 v -28.79297 l 2.017578,-2.01758 v -28.79297 l 2.019532,-2.01758 v -28.79297 l 0.630859,-0.63086 1.191406,0.40235 1.97461,-1.97266 -1.972657,-1.97461 z m 52.992191,20.75391 -8.44532,16.29101 8.44532,16.29102 8.30078,-16.29102 z m -37.410159,0.0195 -8.59961,16.29102 8.59961,16.29101 8.298829,-16.29101 z m 18.746089,0.0723 -8.44531,16.29101 8.44531,16.29102 8.29883,-16.29102 z m 56.15821,0.002 -8.44532,16.29101 8.44532,16.29297 8.29883,-16.29297 z m -18.7168,0.0176 -8.44531,16.29101 8.44531,16.29102 8.29883,-16.29102 z m -71.816406,14.25976 -1.972656,1.97461 0.107422,0.64258 -1.091797,1.08984 v 28.79493 l -2.017578,2.01757 v 28.79102 l -2.017578,2.01953 v 59.21484 l -0.01172,0.0117 6.705078,6.70899 v 11.58203 l -2.113281,2.11133 0.0078,0.006 -0.892579,0.89257 h -2.753892 v 1.1342 h 3.201172 l 2.457031,-2.45508 -0.0078,-0.006 1.236328,-1.23633 v -12.47461 l 0.01172,-0.0117 -0.01172,-0.0117 v -0.0195 h -0.01953 l -6.675782,-6.67969 v -58.29688 l 2.019532,-2.01757 v -28.79297 l 2.017578,-2.01953 v -28.79297 l 0.630859,-0.62891 1.191406,0.40039 1.97461,-1.97265 -1.97461,-1.97461 z m 53.039066,20.77735 -8.44532,16.29101 8.44532,16.29102 8.30078,-16.29102 z m -37.410159,0.0195 -8.59961,16.29101 8.59961,16.29102 8.298829,-16.29102 z m 18.746089,0.0703 -8.44531,16.29102 8.44531,16.29101 8.29883,-16.29101 z m 56.15821,0.002 -8.44532,16.29297 8.44532,16.29297 8.29883,-16.29297 z m -18.7168,0.0195 -8.44531,16.29102 8.44531,16.29102 8.29883,-16.29102 z m -71.849609,14.25586 -1.970703,1.97461 0.107422,0.64063 -1.091797,1.0918 v 28.79296 l -2.017578,2.01954 v 53.85937 l 7.011719,7.00977 v 12.99218 l -2.111328,2.11328 -2.113282,2.11133 h -3.832031 v 1.13477 h 4.279297 l 2.457031,-2.45508 2.455078,-2.45703 v -13.9375 h -0.03516 l 0.002,-0.002 -6.982422,-6.97852 V 520.391 l 2.019532,-2.01757 v -0.002 -28.79101 l 0.630859,-0.63281 1.191406,0.40234 1.97461,-1.97266 -1.972657,-1.97461 z m 53.072269,20.78125 -8.44532,16.29102 8.44532,16.29101 8.30078,-16.29101 z m -37.410159,0.0176 -8.59961,16.29102 8.59961,16.29101 8.298829,-16.29101 z m 18.746089,0.0723 -8.44531,16.29101 8.44531,16.29102 8.29883,-16.29102 z m 56.15821,0.002 -8.44532,16.29102 8.44532,16.29297 8.29883,-16.29297 z m -18.7168,0.0195 -8.44531,16.29102 8.44531,16.29101 8.29883,-16.29101 z m -71.740234,14.11328 0.002,0.002 -1.972656,1.97461 0.107422,0.64257 -1.091797,1.08985 v 29.26172 19.38671 h 0.01758 l -0.0039,0.004 7.154297,7.15625 v 14.5625 l -1.242188,1.24219 -0.002,-0.002 -2.455078,2.45507 -1.71875,1.71875 H 78.1875 v 1.13477 h 5.347656 l 0.01172,0.01 2.074219,-2.07422 1.583984,-1.58399 0.002,0.002 2.455078,-2.45703 v -15.45507 l 0.01563,-0.0137 -0.01563,-0.0156 v -0.008 h -0.0078 l -7.160156,-7.15821 v -18.90625 -28.79297 l 0.630859,-0.63086 1.191406,0.40235 1.97461,-1.97266 z M 77.5,581.40039 75.525391,583.375 75.921875,584.55859 73.75,586.73047 v 6.22851 h 1.134766 v -0.94531 -4.83594 l 1.947265,-1.94726 0.667969,0.11914 1.972656,-1.97461 z m 0.04883,5.26953 -1.894531,1.41797 h -0.01563 v 0.0644 l -0.06445,0.49219 0.06445,0.49219 v 3.82226 h 1.134766 v -0.94531 -1.55273 l 0.77539,0.15625 1.972656,-1.97266 z m -31.726562,6.61914 -1.972657,1.97266 1.972657,1.97461 0.416015,-0.0469 h 7.394531 v -1.13281 h -6.003906 l 0.167969,-0.79492 z m -4.375,1.84375 -1.972657,1.97266 1.972657,1.97461 0.21875,-0.0156 v 0.0156 h 11.966796 v -1.13281 H 43.230469 l 0.191406,-0.8418 z m -4.302735,1.93164 -1.974609,1.97266 1.974609,1.97461 0.394531,-0.043 h 16.09375 v -1.13281 H 38.947266 l 0.169922,-0.79883 z m -4.376953,1.85547 -1.972656,1.97266 1.972656,1.97461 0.169922,-0.008 h 20.695312 v -1.13282 H 34.554688 l 0.1875,-0.83398 z m -4.375,1.85547 -1.972656,1.97461 1.941406,1.9707 v 0.0274 h 25.271484 v -1.13282 H 30.164062 L 30.367188,602.75 Z m -4.195312,3.26367 -1.972657,1.97461 1.972657,1.97266 1.871093,-1.34766 h 27.564453 v -1.13281 H 26.103516 Z m 4.332031,3.29492 -1.974609,1.97266 1.974609,1.97461 1.972656,-1.97461 -0.162109,-0.7793 h 23.292968 v -1.13281 H 29.003906 Z m 4.416015,1.88282 -1.974609,1.97461 1.974609,1.97265 1.972657,-1.97265 -0.158203,-0.77344 h 18.873046 v -1.13281 H 33.453125 Z m 4.564454,1.88476 -1.972657,1.97266 1.972657,1.97461 1.974609,-1.97461 -0.158203,-0.76563 h 14.30664 v -1.13281 H 38.041016 Z m 4.71875,1.96289 v 0.0137 l -0.15625,-0.008 -1.972657,1.97266 1.972657,1.97461 1.974609,-1.97461 -0.193359,-0.8457 h 9.779296 v -1.13282 z m 4.375,1.88086 v 0.002 l -1.972657,1.97265 1.972657,1.97461 1.974609,-1.97461 -0.185547,-0.83008 h 5.240234 v -1.13281 h -6.832031 z"
       style="fill:#376cd1;fill-opacity:1;stroke-width:0.55743593" />
  </g>
</svg>
