  0
SECTION
  2
HEADER
  9
$ACADVER
  1
AC1014
  9
$HANDSEED
  5
FFFF
  9
$MEASUREMENT
 70
     1
  0
ENDSEC
  0
SECTION
  2
TABLES
  0
TABLE
  2
VPORT
  5
8
330
0
100
AcDbSymbolTable
 70
     4
  0
VPORT
  5
2E
330
8
100
AcDbSymbolTableRecord
100
AcDbViewportTableRecord
  2
*ACTIVE
 70
     0
 10
0.0
 20
0.0
 11
1.0
 21
1.0
 12
210.0
 22
148.5
 13
0.0
 23
0.0
 14
10.0
 24
10.0
 15
10.0
 25
10.0
 16
0.0
 26
0.0
 36
1.0
 17
0.0
 27
0.0
 37
0.0
 40
341.0
 41
1.24
 42
50.0
 43
0.0
 44
0.0
 50
0.0
 51
0.0
 71
     0
 72
   100
 73
     1
 74
     3
 75
     0
 76
     0
 77
     0
 78
     0
  0
ENDTAB
  0
TABLE
  2
LTYPE
  5
5
330
0
100
AcDbSymbolTable
 70
     1
  0
LTYPE
  5
14
330
5
100
AcDbSymbolTableRecord
100
AcDbLinetypeTableRecord
  2
BYBLOCK
 70
     0
  3

 72
    65
 73
     0
 40
0.0
  0
LTYPE
  5
15
330
5
100
AcDbSymbolTableRecord
100
AcDbLinetypeTableRecord
  2
BYLAYER
 70
     0
  3

 72
    65
 73
     0
 40
0.0
  0
LTYPE
  5
16
330
5
100
AcDbSymbolTableRecord
100
AcDbLinetypeTableRecord
  2
CONTINUOUS
 70
     0
  3
Solid line
 72
    65
 73
     0
 40
0.0
  0
ENDTAB
  0
TABLE
  2
LAYER
  5
2
100
AcDbSymbolTable
 70
2
  0
LAYER
  5
50
100
AcDbSymbolTableRecord
100
AcDbLayerTableRecord
  2
0
 70
0
  6
CONTINUOUS
  0
LAYER
  5
51
100
AcDbSymbolTableRecord
100
AcDbLayerTableRecord
  2
Layer_1
 70
0
  6
CONTINUOUS
  0
ENDTAB
  0
TABLE
  2
STYLE
  5
3
330
0
100
AcDbSymbolTable
 70
     1
  0
STYLE
  5
11
330
3
100
AcDbSymbolTableRecord
100
AcDbTextStyleTableRecord
  2
STANDARD
 70
     0
 40
0.0
 41
1.0
 50
0.0
 71
     0
 42
2.5
  3
txt
  4

  0
ENDTAB
  0
TABLE
  2
VIEW
  5
6
330
0
100
AcDbSymbolTable
 70
     0
  0
ENDTAB
  0
TABLE
  2
UCS
  5
7
330
0
100
AcDbSymbolTable
 70
     0
  0
ENDTAB
  0
TABLE
  2
APPID
  5
9
330
0
100
AcDbSymbolTable
 70
     2
  0
APPID
  5
12
330
9
100
AcDbSymbolTableRecord
100
AcDbRegAppTableRecord
  2
ACAD
 70
     0
  0
ENDTAB
  0
TABLE
  2
DIMSTYLE
  5
A
330
0
100
AcDbSymbolTable
 70
     1
  0
DIMSTYLE
105
27
330
A
100
AcDbSymbolTableRecord
100
AcDbDimStyleTableRecord
  2
ISO-25
 70
     0
  3

  4

  5

  6

  7

 40
1.0
 41
2.5
 42
0.625
 43
3.75
 44
1.25
 45
0.0
 46
0.0
 47
0.0
 48
0.0
140
2.5
141
2.5
142
0.0
143
0.03937007874016
144
1.0
145
0.0
146
1.0
147
0.625
 71
     0
 72
     0
 73
     0
 74
     0
 75
     0
 76
     0
 77
     1
 78
     8
170
     0
171
     3
172
     1
173
     0
174
     0
175
     0
176
     0
177
     0
178
     0
270
     2
271
     2
272
     2
273
     2
274
     3
340
11
275
     0
280
     0
281
     0
282
     0
283
     0
284
     8
285
     0
286
     0
287
     3
288
     0
  0
ENDTAB
  0
TABLE
  2
BLOCK_RECORD
  5
1
330
0
100
AcDbSymbolTable
 70
     1
  0
BLOCK_RECORD
  5
1F
330
1
100
AcDbSymbolTableRecord
100
AcDbBlockTableRecord
  2
*MODEL_SPACE
  0
BLOCK_RECORD
  5
1B
330
1
100
AcDbSymbolTableRecord
100
AcDbBlockTableRecord
  2
*PAPER_SPACE
  0
ENDTAB
  0
ENDSEC
  0
SECTION
  2
BLOCKS
  0
BLOCK
  5
20
330
1F
100
AcDbEntity
  8
0
100
AcDbBlockBegin
  2
*MODEL_SPACE
 70
     0
 10
0.0
 20
0.0
 30
0.0
  3
*MODEL_SPACE
  1

  0
ENDBLK
  5
21
330
1F
100
AcDbEntity
  8
0
100
AcDbBlockEnd
  0
BLOCK
  5
1C
330
1B
100
AcDbEntity
 67
     1
  8
0
100
AcDbBlockBegin
  2
*PAPER_SPACE
  1

  0
ENDBLK
  5
1D
330
1B
100
AcDbEntity
 67
     1
  8
0
100
AcDbBlockEnd
  0
ENDSEC
  0
SECTION
  2
ENTITIES
  0
LWPOLYLINE
  5
100
100
AcDbEntity
  8
Layer_1
 62
7
100
AcDbPolyline
 90
5
 70
1
 10
1.000023
 20
78.004808
 30
0.0
 10
1.000023
 20
33.001999
 30
0.0
 10
14.000868
 20
33.001999
 30
0.0
 10
14.000868
 20
78.004808
 30
0.0
 10
1.000023
 20
78.004808
 30
0.0
  0
LWPOLYLINE
  5
101
100
AcDbEntity
  8
Layer_1
 62
7
100
AcDbPolyline
 90
12
 70
1
 10
5.605543
 20
77.734088
 30
0.0
 10
13.065517
 20
77.734088
 30
0.0
 10
13.065517
 20
39.652685
 30
0.0
 10
7.285647
 20
33.872815
 30
0.0
 10
4.670602
 20
33.872815
 30
0.0
 10
3.802931
 20
34.740486
 30
0.0
 10
3.164415
 20
34.740486
 30
0.0
 10
1.335278
 20
35.796566
 30
0.0
 10
1.335278
 20
36.286597
 30
0.0
 10
3.422146
 20
37.450419
 30
0.0
 10
3.422146
 20
45.991906
 30
0.0
 10
5.605543
 20
77.734088
 30
0.0
  0
LWPOLYLINE
  5
102
100
AcDbEntity
  8
Layer_1
 62
7
100
AcDbPolyline
 90
121
 70
1
 10
6.289863
 20
77.685550
 30
0.0
 10
6.289863
 20
76.622496
 30
0.0
 10
6.290956
 20
76.620445
 30
0.0
 10
6.290956
 20
76.283412
 30
0.0
 10
6.289863
 20
76.281361
 30
0.0
 10
6.289863
 20
74.157304
 30
0.0
 10
6.290956
 20
74.155253
 30
0.0
 10
6.290956
 20
73.822869
 30
0.0
 10
6.289863
 20
73.820818
 30
0.0
 10
6.289863
 20
71.696897
 30
0.0
 10
6.290956
 20
71.694847
 30
0.0
 10
6.290956
 20
71.362189
 30
0.0
 10
6.289863
 20
71.360139
 30
0.0
 10
6.289863
 20
69.236081
 30
0.0
 10
6.290956
 20
69.234030
 30
0.0
 10
6.290956
 20
68.901509
 30
0.0
 10
6.289863
 20
68.899459
 30
0.0
 10
6.289863
 20
66.775401
 30
0.0
 10
6.290956
 20
66.773350
 30
0.0
 10
6.290956
 20
66.440966
 30
0.0
 10
6.289863
 20
66.438915
 30
0.0
 10
6.289863
 20
64.314858
 30
0.0
 10
6.290956
 20
64.312807
 30
0.0
 10
6.290956
 20
63.980286
 30
0.0
 10
6.289863
 20
63.978098
 30
0.0
 10
6.289863
 20
61.854041
 30
0.0
 10
6.290956
 20
61.851990
 30
0.0
 10
6.290956
 20
61.519606
 30
0.0
 10
6.289863
 20
61.517556
 30
0.0
 10
6.289863
 20
59.393498
 30
0.0
 10
6.290956
 20
59.391447
 30
0.0
 10
6.290956
 20
59.058926
 30
0.0
 10
6.289863
 20
59.056876
 30
0.0
 10
6.289863
 20
56.932818
 30
0.0
 10
6.290956
 20
56.930767
 30
0.0
 10
6.290956
 20
56.598657
 30
0.0
 10
6.289863
 20
56.596606
 30
0.0
 10
6.289863
 20
54.472549
 30
0.0
 10
6.290956
 20
54.470498
 30
0.0
 10
6.290956
 20
54.137840
 30
0.0
 10
6.289863
 20
54.135789
 30
0.0
 10
6.289863
 20
52.011732
 30
0.0
 10
6.290956
 20
52.009544
 30
0.0
 10
6.290956
 20
51.679758
 30
0.0
 10
6.289863
 20
51.677707
 30
0.0
 10
6.289863
 20
49.553650
 30
0.0
 10
6.290956
 20
49.551462
 30
0.0
 10
6.290956
 20
49.216481
 30
0.0
 10
6.289863
 20
49.214430
 30
0.0
 10
6.289863
 20
47.090372
 30
0.0
 10
6.290956
 20
47.088184
 30
0.0
 10
6.290956
 20
46.755664
 30
0.0
 10
6.289863
 20
46.753613
 30
0.0
 10
6.289863
 20
44.629556
 30
0.0
 10
6.290956
 20
44.627368
 30
0.0
 10
6.290956
 20
44.294984
 30
0.0
 10
6.289863
 20
44.292933
 30
0.0
 10
6.289863
 20
42.168876
 30
0.0
 10
6.290956
 20
42.166688
 30
0.0
 10
6.290956
 20
39.792693
 30
0.0
 10
6.290956
 20
39.792009
 30
0.0
 10
6.291640
 20
39.792009
 30
0.0
 10
6.578220
 20
39.505429
 30
0.0
 10
6.578220
 20
35.233524
 30
0.0
 10
6.312559
 20
34.968000
 30
0.0
 10
5.519678
 20
34.968000
 30
0.0
 10
5.255795
 20
35.232020
 30
0.0
 10
5.255795
 20
35.350562
 30
0.0
 10
5.176356
 20
35.350562
 30
0.0
 10
5.176356
 20
35.199069
 30
0.0
 10
5.486727
 20
34.888698
 30
0.0
 10
6.347698
 20
34.888698
 30
0.0
 10
6.347698
 20
34.890749
 30
0.0
 10
6.657522
 20
35.200572
 30
0.0
 10
6.657522
 20
39.538381
 30
0.0
 10
6.364926
 20
39.830977
 30
0.0
 10
6.364926
 20
42.152058
 30
0.0
 10
6.942325
 20
43.230836
 30
0.0
 10
6.364926
 20
44.309477
 30
0.0
 10
6.364926
 20
44.612601
 30
0.0
 10
6.942325
 20
45.691379
 30
0.0
 10
6.364926
 20
46.770020
 30
0.0
 10
6.364926
 20
47.073281
 30
0.0
 10
6.942325
 20
48.152059
 30
0.0
 10
6.364926
 20
49.230700
 30
0.0
 10
6.364926
 20
49.536422
 30
0.0
 10
6.942325
 20
50.615200
 30
0.0
 10
6.364926
 20
51.693841
 30
0.0
 10
6.364926
 20
51.994368
 30
0.0
 10
6.942325
 20
53.073145
 30
0.0
 10
6.364926
 20
54.151787
 30
0.0
 10
6.364926
 20
54.455184
 30
0.0
 10
6.942325
 20
55.533962
 30
0.0
 10
6.364926
 20
56.612603
 30
0.0
 10
6.364926
 20
56.915727
 30
0.0
 10
6.942325
 20
57.994505
 30
0.0
 10
6.364926
 20
59.073146
 30
0.0
 10
6.364926
 20
59.376407
 30
0.0
 10
6.942325
 20
60.455185
 30
0.0
 10
6.364926
 20
61.533826
 30
0.0
 10
6.364926
 20
61.837087
 30
0.0
 10
6.942325
 20
62.915865
 30
0.0
 10
6.364926
 20
63.994506
 30
0.0
 10
6.364926
 20
64.297767
 30
0.0
 10
6.942325
 20
65.376545
 30
0.0
 10
6.364926
 20
66.455186
 30
0.0
 10
6.364926
 20
66.758310
 30
0.0
 10
6.942325
 20
67.837088
 30
0.0
 10
6.364926
 20
68.915729
 30
0.0
 10
6.364926
 20
69.218990
 30
0.0
 10
6.942325
 20
70.297768
 30
0.0
 10
6.364926
 20
71.376409
 30
0.0
 10
6.364926
 20
71.679670
 30
0.0
 10
6.942325
 20
72.758448
 30
0.0
 10
6.364926
 20
73.837089
 30
0.0
 10
6.364926
 20
74.140213
 30
0.0
 10
6.942325
 20
75.218991
 30
0.0
 10
6.364926
 20
76.297632
 30
0.0
 10
6.364926
 20
76.616206
 30
0.0
 10
6.937266
 20
77.685550
 30
0.0
 10
6.289863
 20
77.685550
 30
0.0
  0
SPLINE
  5
103
100
AcDbEntity
  8
Layer_1
 62
7
100
AcDbSpline
 70
8
 71
3
 72
8
 73
4
 74
0
 40
0
 40
0
 40
0
 40
0
 40
1
 40
1
 40
1
 40
1
 10
7.606135
 20
39.830566
 30
0.0
 10
7.310939
 20
39.535373
 30
0.0
 10
7.015640
 20
39.240288
 30
0.0
 10
6.720553
 20
38.944984
 30
0.0
  0
LWPOLYLINE
  5
104
100
AcDbEntity
  8
Layer_1
 62
7
100
AcDbPolyline
 90
46
 70
0
 10
7.031061
 20
77.685550
 30
0.0
 10
7.030514
 20
77.684866
 30
0.0
 10
7.606135
 20
76.609370
 30
0.0
 10
7.606135
 20
76.285190
 30
0.0
 10
7.033248
 20
75.214752
 30
0.0
 10
7.606135
 20
74.144315
 30
0.0
 10
7.606135
 20
73.824647
 30
0.0
 10
7.033248
 20
72.754209
 30
0.0
 10
7.606135
 20
71.683772
 30
0.0
 10
7.606135
 20
71.363966
 30
0.0
 10
7.033248
 20
70.293529
 30
0.0
 10
7.606135
 20
69.223092
 30
0.0
 10
7.606135
 20
68.903287
 30
0.0
 10
7.033248
 20
67.832850
 30
0.0
 10
7.606135
 20
66.762412
 30
0.0
 10
7.606135
 20
66.442744
 30
0.0
 10
7.033248
 20
65.372306
 30
0.0
 10
7.606135
 20
64.301868
 30
0.0
 10
7.606135
 20
63.982063
 30
0.0
 10
7.033248
 20
62.911626
 30
0.0
 10
7.606135
 20
61.841189
 30
0.0
 10
7.606135
 20
61.521521
 30
0.0
 10
7.033248
 20
60.451083
 30
0.0
 10
7.606135
 20
59.380646
 30
0.0
 10
7.606135
 20
59.060841
 30
0.0
 10
7.033248
 20
57.990403
 30
0.0
 10
7.606135
 20
56.919966
 30
0.0
 10
7.606135
 20
56.600161
 30
0.0
 10
7.033248
 20
55.529723
 30
0.0
 10
7.606135
 20
54.459286
 30
0.0
 10
7.606135
 20
54.139344
 30
0.0
 10
7.033248
 20
53.068907
 30
0.0
 10
7.606135
 20
51.998469
 30
0.0
 10
7.606135
 20
51.680169
 30
0.0
 10
7.033248
 20
50.609731
 30
0.0
 10
7.606135
 20
49.539293
 30
0.0
 10
7.606135
 20
49.218258
 30
0.0
 10
7.033248
 20
48.147820
 30
0.0
 10
7.606135
 20
47.077383
 30
0.0
 10
7.606135
 20
46.757715
 30
0.0
 10
7.033248
 20
45.687277
 30
0.0
 10
7.606135
 20
44.616840
 30
0.0
 10
7.606135
 20
44.297035
 30
0.0
 10
7.033248
 20
43.226597
 30
0.0
 10
7.606135
 20
42.156160
 30
0.0
 10
7.606135
 20
39.830566
 30
0.0
  0
SPLINE
  5
105
100
AcDbEntity
  8
Layer_1
 62
7
100
AcDbSpline
 70
8
 71
3
 72
8
 73
4
 74
0
 40
0
 40
0
 40
0
 40
0
 40
1
 40
1
 40
1
 40
1
 10
6.720553
 20
35.165980
 30
0.0
 10
6.605859
 20
35.051342
 30
0.0
 10
6.491206
 20
34.936879
 30
0.0
 10
6.377231
 20
34.822249
 30
0.0
  0
LWPOLYLINE
  5
106
100
AcDbEntity
  8
Layer_1
 62
7
100
AcDbPolyline
 90
2
 70
0
 10
6.720553
 20
38.944984
 30
0.0
 10
6.720553
 20
35.165980
 30
0.0
  0
SPLINE
  5
107
100
AcDbEntity
  8
Layer_1
 62
7
100
AcDbSpline
 70
8
 71
3
 72
8
 73
4
 74
0
 40
0
 40
0
 40
0
 40
0
 40
1
 40
1
 40
1
 40
1
 10
5.400452
 20
34.822249
 30
0.0
 10
5.263927
 20
34.958773
 30
0.0
 10
5.128178
 20
35.095384
 30
0.0
 10
4.991227
 20
35.232020
 30
0.0
  0
LWPOLYLINE
  5
108
100
AcDbEntity
  8
Layer_1
 62
7
100
AcDbPolyline
 90
2
 70
0
 10
6.377231
 20
34.822249
 30
0.0
 10
5.400452
 20
34.822249
 30
0.0
  0
SPLINE
  5
109
100
AcDbEntity
  8
Layer_1
 62
7
100
AcDbSpline
 70
8
 71
3
 72
8
 73
4
 74
0
 40
0
 40
0
 40
0
 40
0
 40
1
 40
1
 40
1
 40
1
 10
4.911789
 20
35.199069
 30
0.0
 10
5.063863
 20
35.046994
 30
0.0
 10
5.215020
 20
34.894816
 30
0.0
 10
5.367637
 20
34.742810
 30
0.0
  0
LWPOLYLINE
  5
10a
100
AcDbEntity
  8
Layer_1
 62
7
100
AcDbPolyline
 90
4
 70
0
 10
4.991227
 20
35.232020
 30
0.0
 10
4.991227
 20
35.350562
 30
0.0
 10
4.911789
 20
35.350562
 30
0.0
 10
4.911789
 20
35.199069
 30
0.0
  0
SPLINE
  5
10b
100
AcDbEntity
  8
Layer_1
 62
7
100
AcDbSpline
 70
8
 71
3
 72
8
 73
4
 74
0
 40
0
 40
0
 40
0
 40
0
 40
1
 40
1
 40
1
 40
1
 10
6.410046
 20
34.742810
 30
0.0
 10
6.525732
 20
34.858428
 30
0.0
 10
6.667405
 20
35.000227
 30
0.0
 10
6.799855
 20
35.133029
 30
0.0
  0
LWPOLYLINE
  5
10c
100
AcDbEntity
  8
Layer_1
 62
7
100
AcDbPolyline
 90
2
 70
0
 10
5.367637
 20
34.742810
 30
0.0
 10
6.410046
 20
34.742810
 30
0.0
  0
SPLINE
  5
10d
100
AcDbEntity
  8
Layer_1
 62
7
100
AcDbSpline
 70
8
 71
3
 72
8
 73
4
 74
0
 40
0
 40
0
 40
0
 40
0
 40
1
 40
1
 40
1
 40
1
 10
6.799855
 20
38.912033
 30
0.0
 10
7.093360
 20
39.205541
 30
0.0
 10
7.386924
 20
39.498998
 30
0.0
 10
7.680242
 20
39.792693
 30
0.0
  0
LWPOLYLINE
  5
10e
100
AcDbEntity
  8
Layer_1
 62
7
100
AcDbPolyline
 90
2
 70
0
 10
6.799855
 20
35.133029
 30
0.0
 10
6.799855
 20
38.912033
 30
0.0
  0
LWPOLYLINE
  5
10f
100
AcDbEntity
  8
Layer_1
 62
7
100
AcDbPolyline
 90
49
 70
0
 10
7.680242
 20
39.792693
 30
0.0
 10
7.680242
 20
39.792830
 30
0.0
 10
7.680242
 20
42.154656
 30
0.0
 10
8.253949
 20
43.226597
 30
0.0
 10
7.680242
 20
44.298539
 30
0.0
 10
7.680242
 20
44.615336
 30
0.0
 10
8.253949
 20
45.687277
 30
0.0
 10
7.680242
 20
46.759219
 30
0.0
 10
7.680242
 20
47.075879
 30
0.0
 10
8.253949
 20
48.147820
 30
0.0
 10
7.680242
 20
49.219762
 30
0.0
 10
7.680242
 20
49.537789
 30
0.0
 10
8.253949
 20
50.609731
 30
0.0
 10
7.680242
 20
51.681672
 30
0.0
 10
7.680242
 20
51.996966
 30
0.0
 10
8.253949
 20
53.068907
 30
0.0
 10
7.680242
 20
54.140848
 30
0.0
 10
7.680242
 20
54.457782
 30
0.0
 10
8.253949
 20
55.529723
 30
0.0
 10
7.680242
 20
56.601665
 30
0.0
 10
7.680242
 20
56.918462
 30
0.0
 10
8.253949
 20
57.990403
 30
0.0
 10
7.680242
 20
59.062345
 30
0.0
 10
7.680242
 20
59.379142
 30
0.0
 10
8.254086
 20
60.451083
 30
0.0
 10
7.680378
 20
61.523025
 30
0.0
 10
7.680378
 20
61.839685
 30
0.0
 10
8.254086
 20
62.911626
 30
0.0
 10
7.680378
 20
63.983568
 30
0.0
 10
7.680378
 20
64.300365
 30
0.0
 10
8.254086
 20
65.372306
 30
0.0
 10
7.680378
 20
66.444248
 30
0.0
 10
7.680378
 20
66.760908
 30
0.0
 10
8.254086
 20
67.832850
 30
0.0
 10
7.680378
 20
68.904791
 30
0.0
 10
7.680378
 20
69.221588
 30
0.0
 10
8.254086
 20
70.293529
 30
0.0
 10
7.680378
 20
71.365471
 30
0.0
 10
7.680378
 20
71.682268
 30
0.0
 10
8.254086
 20
72.754209
 30
0.0
 10
7.680378
 20
73.826151
 30
0.0
 10
7.680378
 20
74.142811
 30
0.0
 10
8.254086
 20
75.214752
 30
0.0
 10
7.680378
 20
76.286694
 30
0.0
 10
7.680378
 20
76.617984
 30
0.0
 10
8.251351
 20
77.684866
 30
0.0
 10
8.250805
 20
77.685550
 30
0.0
 10
7.031061
 20
77.685550
 30
0.0
 10
7.031061
 20
77.685550
 30
0.0
  0
SPLINE
  5
110
100
AcDbEntity
  8
Layer_1
 62
7
100
AcDbSpline
 70
8
 71
3
 72
8
 73
4
 74
0
 40
0
 40
0
 40
0
 40
0
 40
1
 40
1
 40
1
 40
1
 10
8.915709
 20
39.830704
 30
0.0
 10
8.233796
 20
39.148790
 30
0.0
 10
7.551797
 20
38.466420
 30
0.0
 10
6.869859
 20
37.785401
 30
0.0
  0
LWPOLYLINE
  5
111
100
AcDbEntity
  8
Layer_1
 62
7
100
AcDbPolyline
 90
46
 70
0
 10
8.345966
 20
77.685550
 30
0.0
 10
8.343095
 20
77.679807
 30
0.0
 10
8.915709
 20
76.609917
 30
0.0
 10
8.915709
 20
76.274525
 30
0.0
 10
8.345830
 20
75.209693
 30
0.0
 10
8.915709
 20
74.144862
 30
0.0
 10
8.915709
 20
73.813982
 30
0.0
 10
8.345830
 20
72.749150
 30
0.0
 10
8.915709
 20
71.684319
 30
0.0
 10
8.915709
 20
71.353302
 30
0.0
 10
8.345830
 20
70.288470
 30
0.0
 10
8.915709
 20
69.223638
 30
0.0
 10
8.915709
 20
68.892622
 30
0.0
 10
8.345830
 20
67.827790
 30
0.0
 10
8.915709
 20
66.762959
 30
0.0
 10
8.915709
 20
66.432079
 30
0.0
 10
8.345830
 20
65.367247
 30
0.0
 10
8.915709
 20
64.302416
 30
0.0
 10
8.915709
 20
63.971399
 30
0.0
 10
8.345830
 20
62.906567
 30
0.0
 10
8.915709
 20
61.841736
 30
0.0
 10
8.915709
 20
61.510856
 30
0.0
 10
8.345830
 20
60.446025
 30
0.0
 10
8.915709
 20
59.381193
 30
0.0
 10
8.915709
 20
59.050176
 30
0.0
 10
8.345830
 20
57.985345
 30
0.0
 10
8.915709
 20
56.920513
 30
0.0
 10
8.915709
 20
56.589496
 30
0.0
 10
8.345830
 20
55.524664
 30
0.0
 10
8.915709
 20
54.459833
 30
0.0
 10
8.915709
 20
54.128816
 30
0.0
 10
8.345830
 20
53.063984
 30
0.0
 10
8.915709
 20
51.999153
 30
0.0
 10
8.915709
 20
51.669504
 30
0.0
 10
8.345830
 20
50.604672
 30
0.0
 10
8.915709
 20
49.539977
 30
0.0
 10
8.915709
 20
49.207593
 30
0.0
 10
8.345830
 20
48.142762
 30
0.0
 10
8.915709
 20
47.077930
 30
0.0
 10
8.915709
 20
46.747050
 30
0.0
 10
8.345830
 20
45.682219
 30
0.0
 10
8.915709
 20
44.617387
 30
0.0
 10
8.915709
 20
44.286371
 30
0.0
 10
8.345830
 20
43.221539
 30
0.0
 10
8.915709
 20
42.156707
 30
0.0
 10
8.915709
 20
39.830704
 30
0.0
  0
SPLINE
  5
112
100
AcDbEntity
  8
Layer_1
 62
7
100
AcDbSpline
 70
8
 71
3
 72
8
 73
4
 74
0
 40
0
 40
0
 40
0
 40
0
 40
1
 40
1
 40
1
 40
1
 10
6.871090
 20
35.098027
 30
0.0
 10
6.724101
 20
34.951038
 30
0.0
 10
6.577134
 20
34.805052
 30
0.0
 10
6.430145
 20
34.657629
 30
0.0
  0
LWPOLYLINE
  5
113
100
AcDbEntity
  8
Layer_1
 62
7
100
AcDbPolyline
 90
3
 70
0
 10
6.869859
 20
37.785401
 30
0.0
 10
6.871090
 20
37.784034
 30
0.0
 10
6.871090
 20
35.098027
 30
0.0
  0
SPLINE
  5
114
100
AcDbEntity
  8
Layer_1
 62
7
100
AcDbSpline
 70
8
 71
3
 72
8
 73
4
 74
0
 40
0
 40
0
 40
0
 40
0
 40
1
 40
1
 40
1
 40
1
 10
5.300915
 20
34.657629
 30
0.0
 10
5.109475
 20
34.849071
 30
0.0
 10
4.918028
 20
35.040507
 30
0.0
 10
4.726660
 20
35.232020
 30
0.0
  0
LWPOLYLINE
  5
115
100
AcDbEntity
  8
Layer_1
 62
7
100
AcDbPolyline
 90
2
 70
0
 10
6.430145
 20
34.657629
 30
0.0
 10
5.300915
 20
34.657629
 30
0.0
  0
SPLINE
  5
116
100
AcDbEntity
  8
Layer_1
 62
7
100
AcDbSpline
 70
8
 71
3
 72
8
 73
4
 74
0
 40
0
 40
0
 40
0
 40
0
 40
1
 40
1
 40
1
 40
1
 10
4.647222
 20
35.199069
 30
0.0
 10
4.854158
 20
34.992130
 30
0.0
 10
5.061090
 20
34.785189
 30
0.0
 10
5.268100
 20
34.578327
 30
0.0
  0
LWPOLYLINE
  5
117
100
AcDbEntity
  8
Layer_1
 62
7
100
AcDbPolyline
 90
4
 70
0
 10
4.726660
 20
35.232020
 30
0.0
 10
4.726660
 20
35.350562
 30
0.0
 10
4.647222
 20
35.350562
 30
0.0
 10
4.647222
 20
35.199069
 30
0.0
  0
SPLINE
  5
118
100
AcDbEntity
  8
Layer_1
 62
7
100
AcDbSpline
 70
8
 71
3
 72
8
 73
4
 74
0
 40
0
 40
0
 40
0
 40
0
 40
1
 40
1
 40
1
 40
1
 10
6.463780
 20
34.578874
 30
0.0
 10
6.626027
 20
34.741122
 30
0.0
 10
6.788318
 20
34.902711
 30
0.0
 10
6.950528
 20
35.065213
 30
0.0
  0
LWPOLYLINE
  5
119
100
AcDbEntity
  8
Layer_1
 62
7
100
AcDbPolyline
 90
4
 70
0
 10
5.268100
 20
34.578327
 30
0.0
 10
6.463643
 20
34.578327
 30
0.0
 10
6.463643
 20
34.579011
 30
0.0
 10
6.463780
 20
34.578874
 30
0.0
  0
SPLINE
  5
11a
100
AcDbEntity
  8
Layer_1
 62
7
100
AcDbSpline
 70
8
 71
3
 72
8
 73
4
 74
0
 40
0
 40
0
 40
0
 40
0
 40
1
 40
1
 40
1
 40
1
 10
6.950528
 20
37.753953
 30
0.0
 10
7.629497
 20
38.432922
 30
0.0
 10
8.310554
 20
39.112730
 30
0.0
 10
8.989679
 20
39.792693
 30
0.0
  0
LWPOLYLINE
  5
11b
100
AcDbEntity
  8
Layer_1
 62
7
100
AcDbPolyline
 90
4
 70
0
 10
6.950528
 20
35.065213
 30
0.0
 10
6.949571
 20
35.066306
 30
0.0
 10
6.950528
 20
35.066306
 30
0.0
 10
6.950528
 20
37.753953
 30
0.0
  0
LWPOLYLINE
  5
11c
100
AcDbEntity
  8
Layer_1
 62
7
100
AcDbPolyline
 90
48
 70
0
 10
8.989679
 20
39.792693
 30
0.0
 10
8.989679
 20
42.143991
 30
0.0
 10
9.566394
 20
43.221539
 30
0.0
 10
8.989679
 20
44.299086
 30
0.0
 10
8.989679
 20
44.604671
 30
0.0
 10
9.566394
 20
45.682219
 30
0.0
 10
8.989679
 20
46.759766
 30
0.0
 10
8.989679
 20
47.065214
 30
0.0
 10
9.566394
 20
48.142762
 30
0.0
 10
8.989679
 20
49.220309
 30
0.0
 10
8.989679
 20
49.527262
 30
0.0
 10
9.566394
 20
50.604672
 30
0.0
 10
8.989679
 20
51.682219
 30
0.0
 10
8.989679
 20
51.986438
 30
0.0
 10
9.566394
 20
53.063984
 30
0.0
 10
8.989679
 20
54.141532
 30
0.0
 10
8.989679
 20
54.447117
 30
0.0
 10
9.566394
 20
55.524664
 30
0.0
 10
8.989679
 20
56.602212
 30
0.0
 10
8.989679
 20
56.907797
 30
0.0
 10
9.566394
 20
57.985345
 30
0.0
 10
8.989679
 20
59.062891
 30
0.0
 10
8.989679
 20
59.368477
 30
0.0
 10
9.566394
 20
60.446025
 30
0.0
 10
8.989679
 20
61.523571
 30
0.0
 10
8.989679
 20
61.829020
 30
0.0
 10
9.566394
 20
62.906567
 30
0.0
 10
8.989679
 20
63.984115
 30
0.0
 10
8.989679
 20
64.289700
 30
0.0
 10
9.566394
 20
65.367247
 30
0.0
 10
8.989679
 20
66.444794
 30
0.0
 10
8.989679
 20
66.750243
 30
0.0
 10
9.566394
 20
67.827790
 30
0.0
 10
8.989679
 20
68.905338
 30
0.0
 10
8.989679
 20
69.210923
 30
0.0
 10
9.566394
 20
70.288470
 30
0.0
 10
8.989679
 20
71.366018
 30
0.0
 10
8.989679
 20
71.671603
 30
0.0
 10
9.566394
 20
72.749150
 30
0.0
 10
8.989679
 20
73.826697
 30
0.0
 10
8.989679
 20
74.132146
 30
0.0
 10
9.566394
 20
75.209693
 30
0.0
 10
8.989679
 20
76.287241
 30
0.0
 10
8.989679
 20
76.607319
 30
0.0
 10
9.563659
 20
77.679807
 30
0.0
 10
9.560652
 20
77.685550
 30
0.0
 10
8.345966
 20
77.685550
 30
0.0
 10
8.345966
 20
77.685550
 30
0.0
  0
SPLINE
  5
11d
100
AcDbEntity
  8
Layer_1
 62
7
100
AcDbSpline
 70
8
 71
3
 72
8
 73
4
 74
0
 40
0
 40
0
 40
0
 40
0
 40
1
 40
1
 40
1
 40
1
 10
10.226102
 20
39.830704
 30
0.0
 10
9.160736
 20
38.765338
 30
0.0
 10
8.095212
 20
37.698740
 30
0.0
 10
7.029557
 20
36.635388
 30
0.0
  0
LWPOLYLINE
  5
11e
100
AcDbEntity
  8
Layer_1
 62
7
100
AcDbPolyline
 90
45
 70
0
 10
9.649797
 20
77.685550
 30
0.0
 10
10.226102
 20
76.608960
 30
0.0
 10
10.226102
 20
76.287924
 30
0.0
 10
9.652395
 20
75.215846
 30
0.0
 10
10.226102
 20
74.143905
 30
0.0
 10
10.226102
 20
73.827381
 30
0.0
 10
9.652395
 20
72.755303
 30
0.0
 10
10.226102
 20
71.683361
 30
0.0
 10
10.226102
 20
71.366701
 30
0.0
 10
9.652395
 20
70.294623
 30
0.0
 10
10.226102
 20
69.222681
 30
0.0
 10
10.226102
 20
68.906022
 30
0.0
 10
9.652395
 20
67.833943
 30
0.0
 10
10.226102
 20
66.762002
 30
0.0
 10
10.226102
 20
66.445478
 30
0.0
 10
9.652395
 20
65.373400
 30
0.0
 10
10.226102
 20
64.301458
 30
0.0
 10
10.226102
 20
63.984799
 30
0.0
 10
9.652395
 20
62.912720
 30
0.0
 10
10.226102
 20
61.840778
 30
0.0
 10
10.226102
 20
61.524255
 30
0.0
 10
9.652395
 20
60.452177
 30
0.0
 10
10.226102
 20
59.380236
 30
0.0
 10
10.226102
 20
59.063575
 30
0.0
 10
9.652395
 20
57.991497
 30
0.0
 10
10.226102
 20
56.919556
 30
0.0
 10
10.226102
 20
56.602896
 30
0.0
 10
9.652395
 20
55.530818
 30
0.0
 10
10.226102
 20
54.458876
 30
0.0
 10
10.226102
 20
54.142216
 30
0.0
 10
9.652395
 20
53.070137
 30
0.0
 10
10.226102
 20
51.998196
 30
0.0
 10
10.226102
 20
51.684407
 30
0.0
 10
9.652395
 20
50.612329
 30
0.0
 10
10.226102
 20
49.540387
 30
0.0
 10
10.226102
 20
49.221129
 30
0.0
 10
9.652395
 20
48.149051
 30
0.0
 10
10.226102
 20
47.077110
 30
0.0
 10
10.226102
 20
46.760449
 30
0.0
 10
9.652395
 20
45.688371
 30
0.0
 10
10.226102
 20
44.616430
 30
0.0
 10
10.226102
 20
44.299907
 30
0.0
 10
9.652395
 20
43.227828
 30
0.0
 10
10.226102
 20
42.155886
 30
0.0
 10
10.226102
 20
39.830704
 30
0.0
  0
SPLINE
  5
11f
100
AcDbEntity
  8
Layer_1
 62
7
100
AcDbSpline
 70
8
 71
3
 72
8
 73
4
 74
0
 40
0
 40
0
 40
0
 40
0
 40
1
 40
1
 40
1
 40
1
 10
7.022037
 20
35.029116
 30
0.0
 10
6.841009
 20
34.848089
 30
0.0
 10
6.662923
 20
34.668656
 30
0.0
 10
6.481964
 20
34.487813
 30
0.0
  0
LWPOLYLINE
  5
120
100
AcDbEntity
  8
Layer_1
 62
7
100
AcDbPolyline
 90
3
 70
0
 10
7.029557
 20
36.635388
 30
0.0
 10
7.022037
 20
36.635388
 30
0.0
 10
7.022037
 20
35.029116
 30
0.0
  0
SPLINE
  5
121
100
AcDbEntity
  8
Layer_1
 62
7
100
AcDbSpline
 70
8
 71
3
 72
8
 73
4
 74
0
 40
0
 40
0
 40
0
 40
0
 40
1
 40
1
 40
1
 40
1
 10
5.207803
 20
34.487813
 30
0.0
 10
4.986572
 20
34.709043
 30
0.0
 10
4.713571
 20
34.981243
 30
0.0
 10
4.462230
 20
35.232020
 30
0.0
  0
LWPOLYLINE
  5
122
100
AcDbEntity
  8
Layer_1
 62
7
100
AcDbPolyline
 90
2
 70
0
 10
6.481964
 20
34.487813
 30
0.0
 10
5.207803
 20
34.487813
 30
0.0
  0
SPLINE
  5
123
100
AcDbEntity
  8
Layer_1
 62
7
100
AcDbSpline
 70
8
 71
3
 72
8
 73
4
 74
0
 40
0
 40
0
 40
0
 40
0
 40
1
 40
1
 40
1
 40
1
 10
4.382791
 20
35.198932
 30
0.0
 10
4.646912
 20
34.934809
 30
0.0
 10
4.910732
 20
34.673319
 30
0.0
 10
5.174852
 20
34.408238
 30
0.0
  0
LWPOLYLINE
  5
124
100
AcDbEntity
  8
Layer_1
 62
7
100
AcDbPolyline
 90
4
 70
0
 10
4.462230
 20
35.232020
 30
0.0
 10
4.462230
 20
35.350562
 30
0.0
 10
4.382791
 20
35.350562
 30
0.0
 10
4.382791
 20
35.198932
 30
0.0
  0
SPLINE
  5
125
100
AcDbEntity
  8
Layer_1
 62
7
100
AcDbSpline
 70
8
 71
3
 72
8
 73
4
 74
0
 40
0
 40
0
 40
0
 40
0
 40
1
 40
1
 40
1
 40
1
 10
6.512591
 20
34.406188
 30
0.0
 10
6.709841
 20
34.603434
 30
0.0
 10
6.904131
 20
34.799098
 30
0.0
 10
7.101339
 20
34.996165
 30
0.0
  0
LWPOLYLINE
  5
126
100
AcDbEntity
  8
Layer_1
 62
7
100
AcDbPolyline
 90
3
 70
0
 10
5.174852
 20
34.408238
 30
0.0
 10
6.510540
 20
34.408238
 30
0.0
 10
6.512591
 20
34.406188
 30
0.0
  0
SPLINE
  5
127
100
AcDbEntity
  8
Layer_1
 62
7
100
AcDbSpline
 70
8
 71
3
 72
8
 73
4
 74
0
 40
0
 40
0
 40
0
 40
0
 40
1
 40
1
 40
1
 40
1
 10
7.101339
 20
36.594917
 30
0.0
 10
8.174283
 20
37.667861
 30
0.0
 10
9.109614
 20
38.600423
 30
0.0
 10
10.300072
 20
39.792693
 30
0.0
  0
LWPOLYLINE
  5
128
100
AcDbEntity
  8
Layer_1
 62
7
100
AcDbPolyline
 90
3
 70
0
 10
7.101339
 20
34.996165
 30
0.0
 10
7.101339
 20
34.996302
 30
0.0
 10
7.101339
 20
36.594917
 30
0.0
  0
LWPOLYLINE
  5
129
100
AcDbEntity
  8
Layer_1
 62
7
100
AcDbPolyline
 90
47
 70
0
 10
10.300072
 20
39.792693
 30
0.0
 10
10.300072
 20
42.157391
 30
0.0
 10
10.873096
 20
43.227828
 30
0.0
 10
10.300072
 20
44.298402
 30
0.0
 10
10.300072
 20
44.617933
 30
0.0
 10
10.873096
 20
45.688371
 30
0.0
 10
10.300072
 20
46.758946
 30
0.0
 10
10.300072
 20
47.078613
 30
0.0
 10
10.873096
 20
48.149051
 30
0.0
 10
10.300072
 20
49.219625
 30
0.0
 10
10.300072
 20
49.541891
 30
0.0
 10
10.873096
 20
50.612329
 30
0.0
 10
10.300072
 20
51.682903
 30
0.0
 10
10.300072
 20
51.999700
 30
0.0
 10
10.873096
 20
53.070137
 30
0.0
 10
10.300072
 20
54.140711
 30
0.0
 10
10.300072
 20
54.460380
 30
0.0
 10
10.873096
 20
55.530818
 30
0.0
 10
10.300072
 20
56.601391
 30
0.0
 10
10.300072
 20
56.921060
 30
0.0
 10
10.873096
 20
57.991497
 30
0.0
 10
10.300072
 20
59.062072
 30
0.0
 10
10.300072
 20
59.381739
 30
0.0
 10
10.873096
 20
60.452177
 30
0.0
 10
10.300072
 20
61.522751
 30
0.0
 10
10.300072
 20
61.842283
 30
0.0
 10
10.873096
 20
62.912720
 30
0.0
 10
10.300072
 20
63.983294
 30
0.0
 10
10.300072
 20
64.302963
 30
0.0
 10
10.873096
 20
65.373400
 30
0.0
 10
10.300072
 20
66.443974
 30
0.0
 10
10.300072
 20
66.763506
 30
0.0
 10
10.873096
 20
67.833943
 30
0.0
 10
10.300072
 20
68.904517
 30
0.0
 10
10.300072
 20
69.224186
 30
0.0
 10
10.873096
 20
70.294623
 30
0.0
 10
10.300072
 20
71.365197
 30
0.0
 10
10.300072
 20
71.684865
 30
0.0
 10
10.873096
 20
72.755303
 30
0.0
 10
10.300072
 20
73.825877
 30
0.0
 10
10.300072
 20
74.145409
 30
0.0
 10
10.873096
 20
75.215846
 30
0.0
 10
10.300072
 20
76.286420
 30
0.0
 10
10.300072
 20
76.620718
 30
0.0
 10
10.869951
 20
77.685550
 30
0.0
 10
9.649797
 20
77.685550
 30
0.0
 10
9.649797
 20
77.685550
 30
0.0
  0
SPLINE
  5
12a
100
AcDbEntity
  8
Layer_1
 62
7
100
AcDbSpline
 70
8
 71
3
 72
8
 73
4
 74
0
 40
0
 40
0
 40
0
 40
0
 40
1
 40
1
 40
1
 40
1
 10
11.539504
 20
39.830840
 30
0.0
 10
10.245816
 20
38.537160
 30
0.0
 10
8.668825
 20
36.957404
 30
0.0
 10
7.181871
 20
35.474301
 30
0.0
  0
LWPOLYLINE
  5
12b
100
AcDbEntity
  8
Layer_1
 62
7
100
AcDbPolyline
 90
46
 70
0
 10
10.967848
 20
77.685550
 30
0.0
 10
10.963746
 20
77.678440
 30
0.0
 10
11.539504
 20
76.602670
 30
0.0
 10
11.539504
 20
76.278900
 30
0.0
 10
10.966481
 20
75.208189
 30
0.0
 10
11.539504
 20
74.137478
 30
0.0
 10
11.539504
 20
73.818357
 30
0.0
 10
10.966481
 20
72.747646
 30
0.0
 10
11.539504
 20
71.676935
 30
0.0
 10
11.539504
 20
71.357677
 30
0.0
 10
10.966481
 20
70.286966
 30
0.0
 10
11.539504
 20
69.216256
 30
0.0
 10
11.539504
 20
68.896997
 30
0.0
 10
10.966481
 20
67.826287
 30
0.0
 10
11.539504
 20
66.755576
 30
0.0
 10
11.539504
 20
66.436454
 30
0.0
 10
10.966481
 20
65.365743
 30
0.0
 10
11.539504
 20
64.295033
 30
0.0
 10
11.539504
 20
63.975911
 30
0.0
 10
10.966481
 20
62.905200
 30
0.0
 10
11.539504
 20
61.834489
 30
0.0
 10
11.539504
 20
61.515368
 30
0.0
 10
10.966481
 20
60.444657
 30
0.0
 10
11.539504
 20
59.373946
 30
0.0
 10
11.539504
 20
59.054688
 30
0.0
 10
10.966481
 20
57.983977
 30
0.0
 10
11.539504
 20
56.913266
 30
0.0
 10
11.539504
 20
56.594008
 30
0.0
 10
10.966481
 20
55.523297
 30
0.0
 10
11.539504
 20
54.452586
 30
0.0
 10
11.539504
 20
54.133191
 30
0.0
 10
10.966481
 20
53.062481
 30
0.0
 10
11.539504
 20
51.991770
 30
0.0
 10
11.539504
 20
51.672648
 30
0.0
 10
10.966481
 20
50.601937
 30
0.0
 10
11.539504
 20
49.531227
 30
0.0
 10
11.539504
 20
49.212105
 30
0.0
 10
10.966481
 20
48.141395
 30
0.0
 10
11.539504
 20
47.070683
 30
0.0
 10
11.539504
 20
46.751426
 30
0.0
 10
10.966481
 20
45.680714
 30
0.0
 10
11.539504
 20
44.610003
 30
0.0
 10
11.539504
 20
44.290882
 30
0.0
 10
10.966481
 20
43.220172
 30
0.0
 10
11.539504
 20
42.149460
 30
0.0
 10
11.539504
 20
39.830840
 30
0.0
  0
SPLINE
  5
12c
100
AcDbEntity
  8
Layer_1
 62
7
100
AcDbSpline
 70
8
 71
3
 72
8
 73
4
 74
0
 40
0
 40
0
 40
0
 40
0
 40
1
 40
1
 40
1
 40
1
 10
7.182692
 20
34.969504
 30
0.0
 10
6.964357
 20
34.751267
 30
0.0
 10
6.745266
 20
34.532851
 30
0.0
 10
6.526948
 20
34.314170
 30
0.0
  0
LWPOLYLINE
  5
12d
100
AcDbEntity
  8
Layer_1
 62
7
100
AcDbPolyline
 90
4
 70
0
 10
7.181871
 20
35.474301
 30
0.0
 10
7.183785
 20
35.472387
 30
0.0
 10
7.182692
 20
35.472387
 30
0.0
 10
7.182692
 20
34.969504
 30
0.0
  0
SPLINE
  5
12e
100
AcDbEntity
  8
Layer_1
 62
7
100
AcDbSpline
 70
8
 71
3
 72
8
 73
4
 74
0
 40
0
 40
0
 40
0
 40
0
 40
1
 40
1
 40
1
 40
1
 10
5.115376
 20
34.314170
 30
0.0
 10
4.809329
 20
34.620071
 30
0.0
 10
4.503255
 20
34.925939
 30
0.0
 10
4.197389
 20
35.232020
 30
0.0
  0
LWPOLYLINE
  5
12f
100
AcDbEntity
  8
Layer_1
 62
7
100
AcDbPolyline
 90
2
 70
0
 10
6.526948
 20
34.314170
 30
0.0
 10
5.115376
 20
34.314170
 30
0.0
  0
SPLINE
  5
130
100
AcDbEntity
  8
Layer_1
 62
7
100
AcDbSpline
 70
8
 71
3
 72
8
 73
4
 74
0
 40
0
 40
0
 40
0
 40
0
 40
1
 40
1
 40
1
 40
1
 10
4.117951
 20
35.199069
 30
0.0
 10
4.439512
 20
34.877510
 30
0.0
 10
4.761163
 20
34.556043
 30
0.0
 10
5.082698
 20
34.234458
 30
0.0
  0
LWPOLYLINE
  5
131
100
AcDbEntity
  8
Layer_1
 62
7
100
AcDbPolyline
 90
4
 70
0
 10
4.197389
 20
35.232020
 30
0.0
 10
4.197389
 20
35.350562
 30
0.0
 10
4.117951
 20
35.350562
 30
0.0
 10
4.117951
 20
35.199069
 30
0.0
  0
SPLINE
  5
132
100
AcDbEntity
  8
Layer_1
 62
7
100
AcDbSpline
 70
8
 71
3
 72
8
 73
4
 74
0
 40
0
 40
0
 40
0
 40
0
 40
1
 40
1
 40
1
 40
1
 10
6.560993
 20
34.235825
 30
0.0
 10
6.794850
 20
34.469783
 30
0.0
 10
7.028263
 20
34.703180
 30
0.0
 10
7.262266
 20
34.936826
 30
0.0
  0
LWPOLYLINE
  5
133
100
AcDbEntity
  8
Layer_1
 62
7
100
AcDbPolyline
 90
5
 70
0
 10
5.082698
 20
34.234458
 30
0.0
 10
5.084612
 20
34.236373
 30
0.0
 10
5.084612
 20
34.234732
 30
0.0
 10
6.560993
 20
34.234732
 30
0.0
 10
6.560993
 20
34.235825
 30
0.0
  0
SPLINE
  5
134
100
AcDbEntity
  8
Layer_1
 62
7
100
AcDbSpline
 70
8
 71
3
 72
8
 73
4
 74
0
 40
0
 40
0
 40
0
 40
0
 40
1
 40
1
 40
1
 40
1
 10
7.313676
 20
35.492075
 30
0.0
 10
8.823577
 20
37.002769
 30
0.0
 10
10.007975
 20
38.186204
 30
0.0
 10
11.613884
 20
39.792693
 30
0.0
  0
LWPOLYLINE
  5
135
100
AcDbEntity
  8
Layer_1
 62
7
100
AcDbPolyline
 90
4
 70
0
 10
7.262266
 20
34.936826
 30
0.0
 10
7.262266
 20
35.442169
 30
0.0
 10
7.312992
 20
35.492895
 30
0.0
 10
7.313676
 20
35.492075
 30
0.0
  0
LWPOLYLINE
  5
136
100
AcDbEntity
  8
Layer_1
 62
7
100
AcDbPolyline
 90
48
 70
0
 10
11.613884
 20
39.792693
 30
0.0
 10
11.613884
 20
42.148367
 30
0.0
 10
12.187454
 20
43.220034
 30
0.0
 10
11.613884
 20
44.291703
 30
0.0
 10
11.613884
 20
44.608910
 30
0.0
 10
12.187454
 20
45.680578
 30
0.0
 10
11.613884
 20
46.752245
 30
0.0
 10
11.613884
 20
47.069590
 30
0.0
 10
12.187454
 20
48.141258
 30
0.0
 10
11.613884
 20
49.212926
 30
0.0
 10
11.613884
 20
49.530133
 30
0.0
 10
12.187454
 20
50.601801
 30
0.0
 10
11.613884
 20
51.673469
 30
0.0
 10
11.613884
 20
51.990676
 30
0.0
 10
12.187454
 20
53.062344
 30
0.0
 10
11.613884
 20
54.134012
 30
0.0
 10
11.613884
 20
54.451493
 30
0.0
 10
12.187454
 20
55.523160
 30
0.0
 10
11.613884
 20
56.594828
 30
0.0
 10
11.613884
 20
56.912173
 30
0.0
 10
12.187454
 20
57.983840
 30
0.0
 10
11.613884
 20
59.055508
 30
0.0
 10
11.613884
 20
59.372852
 30
0.0
 10
12.187454
 20
60.444520
 30
0.0
 10
11.613884
 20
61.516189
 30
0.0
 10
11.613884
 20
61.833396
 30
0.0
 10
12.187454
 20
62.905063
 30
0.0
 10
11.613884
 20
63.976731
 30
0.0
 10
11.613884
 20
64.294076
 30
0.0
 10
12.187454
 20
65.365743
 30
0.0
 10
11.613884
 20
66.437411
 30
0.0
 10
11.613884
 20
66.754618
 30
0.0
 10
12.187454
 20
67.826287
 30
0.0
 10
11.613884
 20
68.897954
 30
0.0
 10
11.613884
 20
69.215298
 30
0.0
 10
12.187454
 20
70.286966
 30
0.0
 10
11.613884
 20
71.358634
 30
0.0
 10
11.613884
 20
71.675978
 30
0.0
 10
12.187454
 20
72.747646
 30
0.0
 10
11.613884
 20
73.819314
 30
0.0
 10
11.613884
 20
74.136521
 30
0.0
 10
12.187454
 20
75.208189
 30
0.0
 10
11.613884
 20
76.279857
 30
0.0
 10
11.613884
 20
76.611831
 30
0.0
 10
12.184720
 20
77.678440
 30
0.0
 10
12.180892
 20
77.685550
 30
0.0
 10
10.967848
 20
77.685550
 30
0.0
 10
10.967848
 20
77.685550
 30
0.0
  0
SPLINE
  5
137
100
AcDbEntity
  8
Layer_1
 62
7
100
AcDbSpline
 70
8
 71
3
 72
8
 73
4
 74
0
 40
0
 40
0
 40
0
 40
0
 40
1
 40
1
 40
1
 40
1
 10
12.559080
 20
39.538381
 30
0.0
 10
10.959197
 20
37.938493
 30
0.0
 10
9.028509
 20
36.005971
 30
0.0
 10
7.166284
 20
34.147773
 30
0.0
  0
LWPOLYLINE
  5
138
100
AcDbEntity
  8
Layer_1
 62
7
100
AcDbPolyline
 90
47
 70
0
 10
12.277421
 20
77.685550
 30
0.0
 10
12.274277
 20
77.679671
 30
0.0
 10
12.846207
 20
76.611011
 30
0.0
 10
12.846207
 20
76.273021
 30
0.0
 10
12.277011
 20
75.209420
 30
0.0
 10
12.846207
 20
74.145819
 30
0.0
 10
12.846207
 20
73.812478
 30
0.0
 10
12.277011
 20
72.748877
 30
0.0
 10
12.846207
 20
71.685276
 30
0.0
 10
12.846207
 20
71.351798
 30
0.0
 10
12.277011
 20
70.288197
 30
0.0
 10
12.846207
 20
69.224596
 30
0.0
 10
12.846207
 20
68.891118
 30
0.0
 10
12.277011
 20
67.827517
 30
0.0
 10
12.846207
 20
66.763916
 30
0.0
 10
12.846207
 20
66.430575
 30
0.0
 10
12.277011
 20
65.366974
 30
0.0
 10
12.846207
 20
64.303373
 30
0.0
 10
12.846207
 20
63.969895
 30
0.0
 10
12.277011
 20
62.906294
 30
0.0
 10
12.846207
 20
61.842693
 30
0.0
 10
12.846207
 20
61.509352
 30
0.0
 10
12.277011
 20
60.445751
 30
0.0
 10
12.846207
 20
59.382150
 30
0.0
 10
12.846207
 20
59.048672
 30
0.0
 10
12.277011
 20
57.985071
 30
0.0
 10
12.846207
 20
56.921470
 30
0.0
 10
12.846207
 20
56.587992
 30
0.0
 10
12.277011
 20
55.524391
 30
0.0
 10
12.846207
 20
54.460790
 30
0.0
 10
12.846207
 20
54.127312
 30
0.0
 10
12.277011
 20
53.063711
 30
0.0
 10
12.846207
 20
52.000110
 30
0.0
 10
12.846207
 20
51.668000
 30
0.0
 10
12.277011
 20
50.604535
 30
0.0
 10
12.846207
 20
49.540934
 30
0.0
 10
12.846207
 20
49.206089
 30
0.0
 10
12.277011
 20
48.142488
 30
0.0
 10
12.846207
 20
47.078887
 30
0.0
 10
12.846207
 20
46.745546
 30
0.0
 10
12.277011
 20
45.681945
 30
0.0
 10
12.846207
 20
44.618344
 30
0.0
 10
12.846207
 20
44.284866
 30
0.0
 10
12.277011
 20
43.221265
 30
0.0
 10
12.846207
 20
42.157664
 30
0.0
 10
12.846207
 20
39.825508
 30
0.0
 10
12.559080
 20
39.538381
 30
0.0
  0
SPLINE
  5
139
100
AcDbEntity
  8
Layer_1
 62
7
100
AcDbSpline
 70
8
 71
3
 72
8
 73
4
 74
0
 40
0
 40
0
 40
0
 40
0
 40
1
 40
1
 40
1
 40
1
 10
5.015565
 20
34.147773
 30
0.0
 10
4.655234
 20
34.508384
 30
0.0
 10
4.294956
 20
34.871248
 30
0.0
 10
3.932959
 20
35.232020
 30
0.0
  0
LWPOLYLINE
  5
13a
100
AcDbEntity
  8
Layer_1
 62
7
100
AcDbPolyline
 90
2
 70
0
 10
7.166284
 20
34.147773
 30
0.0
 10
5.015565
 20
34.147773
 30
0.0
  0
SPLINE
  5
13b
100
AcDbEntity
  8
Layer_1
 62
7
100
AcDbSpline
 70
8
 71
3
 72
8
 73
4
 74
0
 40
0
 40
0
 40
0
 40
0
 40
1
 40
1
 40
1
 40
1
 10
3.853520
 20
35.199069
 30
0.0
 10
4.230655
 20
34.821932
 30
0.0
 10
4.607068
 20
34.445548
 30
0.0
 10
4.982750
 20
34.068471
 30
0.0
  0
LWPOLYLINE
  5
13c
100
AcDbEntity
  8
Layer_1
 62
7
100
AcDbPolyline
 90
4
 70
0
 10
3.932959
 20
35.232020
 30
0.0
 10
3.932959
 20
35.350562
 30
0.0
 10
3.853520
 20
35.350562
 30
0.0
 10
3.853520
 20
35.199069
 30
0.0
  0
SPLINE
  5
13d
100
AcDbEntity
  8
Layer_1
 62
7
100
AcDbSpline
 70
8
 71
3
 72
8
 73
4
 74
0
 40
0
 40
0
 40
0
 40
0
 40
1
 40
1
 40
1
 40
1
 10
7.199099
 20
34.068471
 30
0.0
 10
8.912192
 20
35.781564
 30
0.0
 10
10.662420
 20
37.526476
 30
0.0
 10
12.615138
 20
39.482186
 30
0.0
  0
LWPOLYLINE
  5
13e
100
AcDbEntity
  8
Layer_1
 62
7
100
AcDbPolyline
 90
2
 70
0
 10
4.982750
 20
34.068471
 30
0.0
 10
7.199099
 20
34.068471
 30
0.0
  0
LWPOLYLINE
  5
13f
100
AcDbEntity
  8
Layer_1
 62
7
100
AcDbPolyline
 90
35
 70
0
 10
12.615138
 20
39.482186
 30
0.0
 10
12.925508
 20
39.792693
 30
0.0
 10
12.925508
 20
40.153653
 30
0.0
 10
12.925508
 20
42.152058
 30
0.0
 10
12.925508
 20
44.290472
 30
0.0
 10
12.925508
 20
44.612738
 30
0.0
 10
12.925508
 20
46.751152
 30
0.0
 10
12.925508
 20
47.073281
 30
0.0
 10
12.925508
 20
49.211695
 30
0.0
 10
12.925508
 20
49.535328
 30
0.0
 10
12.925508
 20
51.673606
 30
0.0
 10
12.925508
 20
51.994504
 30
0.0
 10
12.925508
 20
54.132918
 30
0.0
 10
12.925508
 20
54.455184
 30
0.0
 10
12.925508
 20
56.593598
 30
0.0
 10
12.925508
 20
56.915864
 30
0.0
 10
12.925508
 20
59.054278
 30
0.0
 10
12.925508
 20
59.376544
 30
0.0
 10
12.925508
 20
61.514958
 30
0.0
 10
12.925508
 20
61.837087
 30
0.0
 10
12.925508
 20
63.975501
 30
0.0
 10
12.925508
 20
64.297767
 30
0.0
 10
12.925508
 20
66.436181
 30
0.0
 10
12.925508
 20
66.758310
 30
0.0
 10
12.925508
 20
68.896724
 30
0.0
 10
12.925508
 20
69.218990
 30
0.0
 10
12.925508
 20
71.357404
 30
0.0
 10
12.925508
 20
71.679670
 30
0.0
 10
12.925508
 20
73.818084
 30
0.0
 10
12.925508
 20
74.140213
 30
0.0
 10
12.925508
 20
76.278627
 30
0.0
 10
12.925508
 20
76.615659
 30
0.0
 10
12.925508
 20
77.685550
 30
0.0
 10
12.277421
 20
77.685550
 30
0.0
 10
12.277421
 20
77.685550
 30
0.0
  0
LWPOLYLINE
  5
140
100
AcDbEntity
  8
Layer_1
 62
7
100
AcDbPolyline
 90
9
 70
1
 10
6.105418
 20
77.632637
 30
0.0
 10
6.105418
 20
38.749055
 30
0.0
 10
6.412780
 20
38.441691
 30
0.0
 10
6.412780
 20
36.125669
 30
0.0
 10
6.518607
 20
36.125669
 30
0.0
 10
6.518607
 20
38.485581
 30
0.0
 10
6.211244
 20
38.793080
 30
0.0
 10
6.211244
 20
77.632637
 30
0.0
 10
6.105418
 20
77.632637
 30
0.0
  0
LWPOLYLINE
  5
141
100
AcDbEntity
  8
Layer_1
 62
7
100
AcDbPolyline
 90
5
 70
1
 10
9.607959
 20
77.611307
 30
0.0
 10
9.016750
 20
76.470865
 30
0.0
 10
9.607959
 20
75.330423
 30
0.0
 10
10.188913
 20
76.470865
 30
0.0
 10
9.607959
 20
77.611307
 30
0.0
  0
LWPOLYLINE
  5
142
100
AcDbEntity
  8
Layer_1
 62
7
100
AcDbPolyline
 90
5
 70
1
 10
6.988949
 20
77.610077
 30
0.0
 10
6.387076
 20
76.469635
 30
0.0
 10
6.988949
 20
75.329193
 30
0.0
 10
7.569903
 20
76.469635
 30
0.0
 10
6.988949
 20
77.610077
 30
0.0
  0
LWPOLYLINE
  5
143
100
AcDbEntity
  8
Layer_1
 62
7
100
AcDbPolyline
 90
5
 70
1
 10
8.301393
 20
77.605154
 30
0.0
 10
7.710185
 20
76.464713
 30
0.0
 10
8.301393
 20
75.324134
 30
0.0
 10
8.882347
 20
76.464713
 30
0.0
 10
8.301393
 20
77.605154
 30
0.0
  0
LWPOLYLINE
  5
144
100
AcDbEntity
  8
Layer_1
 62
7
100
AcDbPolyline
 90
5
 70
1
 10
12.232712
 20
77.604881
 30
0.0
 10
11.641366
 20
76.464439
 30
0.0
 10
12.232712
 20
75.323997
 30
0.0
 10
12.813666
 20
76.464439
 30
0.0
 10
12.232712
 20
77.604881
 30
0.0
  0
SPLINE
  5
145
100
AcDbEntity
  8
Layer_1
 62
7
100
AcDbSpline
 70
8
 71
3
 72
8
 73
4
 74
0
 40
0
 40
0
 40
0
 40
0
 40
1
 40
1
 40
1
 40
1
 10
5.880501
 20
76.606362
 30
0.0
 10
5.804201
 20
76.606393
 30
0.0
 10
5.742312
 20
76.544570
 30
0.0
 10
5.742270
 20
76.468267
 30
0.0
  0
SPLINE
  5
146
100
AcDbEntity
  8
Layer_1
 62
7
100
AcDbSpline
 70
8
 71
3
 72
8
 73
4
 74
0
 40
0
 40
0
 40
0
 40
0
 40
1
 40
1
 40
1
 40
1
 10
5.742270
 20
76.468267
 30
0.0
 10
5.742296
 20
76.446028
 30
0.0
 10
5.747701
 20
76.424125
 30
0.0
 10
5.757994
 20
76.404416
 30
0.0
  0
LWPOLYLINE
  5
147
100
AcDbEntity
  8
Layer_1
 62
7
100
AcDbPolyline
 90
5
 70
1
 10
10.922318
 20
77.603650
 30
0.0
 10
10.331109
 20
76.463209
 30
0.0
 10
10.922318
 20
75.322767
 30
0.0
 10
11.503272
 20
76.463209
 30
0.0
 10
10.922318
 20
77.603650
 30
0.0
  0
SPLINE
  5
148
100
AcDbEntity
  8
Layer_1
 62
7
100
AcDbSpline
 70
8
 71
3
 72
8
 73
4
 74
0
 40
0
 40
0
 40
0
 40
0
 40
1
 40
1
 40
1
 40
1
 10
5.813368
 20
76.347537
 30
0.0
 10
5.833895
 20
76.336089
 30
0.0
 10
5.857006
 20
76.330066
 30
0.0
 10
5.880501
 20
76.330036
 30
0.0
  0
SPLINE
  5
149
100
AcDbEntity
  8
Layer_1
 62
7
100
AcDbSpline
 70
8
 71
3
 72
8
 73
4
 74
0
 40
0
 40
0
 40
0
 40
0
 40
1
 40
1
 40
1
 40
1
 10
5.880501
 20
76.330036
 30
0.0
 10
5.956857
 20
76.330005
 30
0.0
 10
6.018764
 20
76.391912
 30
0.0
 10
6.018732
 20
76.468267
 30
0.0
  0
SPLINE
  5
14a
100
AcDbEntity
  8
Layer_1
 62
7
100
AcDbSpline
 70
8
 71
3
 72
8
 73
4
 74
0
 40
0
 40
0
 40
0
 40
0
 40
1
 40
1
 40
1
 40
1
 10
6.018732
 20
76.468267
 30
0.0
 10
6.018687
 20
76.544570
 30
0.0
 10
5.956804
 20
76.606393
 30
0.0
 10
5.880501
 20
76.606362
 30
0.0
  0
LWPOLYLINE
  5
14b
100
AcDbEntity
  8
Layer_1
 62
7
100
AcDbPolyline
 90
73
 70
0
 10
5.757994
 20
76.404416
 30
0.0
 10
5.658593
 20
76.305015
 30
0.0
 10
5.658593
 20
74.289382
 30
0.0
 10
5.517217
 20
74.148143
 30
0.0
 10
5.517217
 20
72.132510
 30
0.0
 10
5.375978
 20
71.991134
 30
0.0
 10
5.375978
 20
69.975638
 30
0.0
 10
5.234602
 20
69.834262
 30
0.0
 10
5.234602
 20
67.818767
 30
0.0
 10
5.093363
 20
67.677390
 30
0.0
 10
5.093363
 20
65.661895
 30
0.0
 10
4.951987
 20
65.520519
 30
0.0
 10
4.951987
 20
63.505022
 30
0.0
 10
4.810747
 20
63.363646
 30
0.0
 10
4.810747
 20
61.348014
 30
0.0
 10
4.669371
 20
61.206774
 30
0.0
 10
4.669371
 20
59.191141
 30
0.0
 10
4.528132
 20
59.049903
 30
0.0
 10
4.528132
 20
57.034270
 30
0.0
 10
4.386756
 20
56.893031
 30
0.0
 10
4.386756
 20
54.877398
 30
0.0
 10
4.245517
 20
54.736158
 30
0.0
 10
4.245380
 20
54.736158
 30
0.0
 10
4.245380
 20
52.720389
 30
0.0
 10
4.104141
 20
52.579287
 30
0.0
 10
4.104141
 20
50.563654
 30
0.0
 10
3.962902
 20
50.422278
 30
0.0
 10
3.962902
 20
48.406782
 30
0.0
 10
3.821526
 20
48.265406
 30
0.0
 10
3.821526
 20
46.249910
 30
0.0
 10
3.680150
 20
46.108534
 30
0.0
 10
3.680150
 20
37.448641
 30
0.0
 10
3.393023
 20
37.161651
 30
0.0
 10
3.393023
 20
37.019592
 30
0.0
 10
3.397945
 20
37.019592
 30
0.0
 10
3.397398
 20
37.019045
 30
0.0
 10
3.521820
 20
36.894623
 30
0.0
 10
3.754530
 20
36.894623
 30
0.0
 10
3.754530
 20
36.974062
 30
0.0
 10
3.553130
 20
36.974062
 30
0.0
 10
3.472461
 20
37.054730
 30
0.0
 10
3.472461
 20
37.128837
 30
0.0
 10
3.759589
 20
37.415964
 30
0.0
 10
3.759589
 20
46.075719
 30
0.0
 10
3.900964
 20
46.216959
 30
0.0
 10
3.900964
 20
48.232728
 30
0.0
 10
4.042204
 20
48.373831
 30
0.0
 10
4.042204
 20
50.389464
 30
0.0
 10
4.183580
 20
50.530702
 30
0.0
 10
4.183580
 20
52.546472
 30
0.0
 10
4.324819
 20
52.687711
 30
0.0
 10
4.324819
 20
54.703207
 30
0.0
 10
4.466195
 20
54.844583
 30
0.0
 10
4.466195
 20
56.860080
 30
0.0
 10
4.607434
 20
57.001455
 30
0.0
 10
4.607434
 20
59.016951
 30
0.0
 10
4.748810
 20
59.158328
 30
0.0
 10
4.748810
 20
61.173823
 30
0.0
 10
4.890049
 20
61.315199
 30
0.0
 10
4.890049
 20
63.330832
 30
0.0
 10
5.031425
 20
63.472071
 30
0.0
 10
5.031425
 20
65.487704
 30
0.0
 10
5.172664
 20
65.628944
 30
0.0
 10
5.172664
 20
67.644576
 30
0.0
 10
5.314040
 20
67.785815
 30
0.0
 10
5.314040
 20
69.801448
 30
0.0
 10
5.455280
 20
69.942687
 30
0.0
 10
5.455280
 20
71.958320
 30
0.0
 10
5.596656
 20
72.099559
 30
0.0
 10
5.596656
 20
74.115192
 30
0.0
 10
5.737895
 20
74.256568
 30
0.0
 10
5.737895
 20
76.272064
 30
0.0
 10
5.813368
 20
76.347537
 30
0.0
  0
LWPOLYLINE
  5
14c
100
AcDbEntity
  8
Layer_1
 62
7
100
AcDbPolyline
 90
1
 70
1
 10
5.880501
 20
76.606362
 30
0.0
  0
LWPOLYLINE
  5
14d
100
AcDbEntity
  8
Layer_1
 62
7
100
AcDbPolyline
 90
5
 70
1
 10
9.610147
 20
75.134767
 30
0.0
 10
9.018938
 20
73.994325
 30
0.0
 10
9.610147
 20
72.853883
 30
0.0
 10
10.191237
 20
73.994325
 30
0.0
 10
9.610147
 20
75.134767
 30
0.0
  0
LWPOLYLINE
  5
14e
100
AcDbEntity
  8
Layer_1
 62
7
100
AcDbPolyline
 90
5
 70
1
 10
6.991273
 20
75.133400
 30
0.0
 10
6.389263
 20
73.992958
 30
0.0
 10
6.991273
 20
72.852516
 30
0.0
 10
7.572227
 20
73.992958
 30
0.0
 10
6.991273
 20
75.133400
 30
0.0
  0
LWPOLYLINE
  5
14f
100
AcDbEntity
  8
Layer_1
 62
7
100
AcDbPolyline
 90
5
 70
1
 10
8.303581
 20
75.128341
 30
0.0
 10
7.712372
 20
73.987899
 30
0.0
 10
8.303581
 20
72.847457
 30
0.0
 10
8.884535
 20
73.987899
 30
0.0
 10
8.303581
 20
75.128341
 30
0.0
  0
LWPOLYLINE
  5
150
100
AcDbEntity
  8
Layer_1
 62
7
100
AcDbPolyline
 90
5
 70
1
 10
12.234899
 20
75.128204
 30
0.0
 10
11.643690
 20
73.987762
 30
0.0
 10
12.234899
 20
72.847184
 30
0.0
 10
12.815853
 20
73.987762
 30
0.0
 10
12.234899
 20
75.128204
 30
0.0
  0
SPLINE
  5
151
100
AcDbEntity
  8
Layer_1
 62
7
100
AcDbSpline
 70
8
 71
3
 72
8
 73
4
 74
0
 40
0
 40
0
 40
0
 40
0
 40
1
 40
1
 40
1
 40
1
 10
5.894584
 20
74.133924
 30
0.0
 10
5.818334
 20
74.133879
 30
0.0
 10
5.756532
 20
74.072078
 30
0.0
 10
5.756490
 20
73.995829
 30
0.0
  0
SPLINE
  5
152
100
AcDbEntity
  8
Layer_1
 62
7
100
AcDbSpline
 70
8
 71
3
 72
8
 73
4
 74
0
 40
0
 40
0
 40
0
 40
0
 40
1
 40
1
 40
1
 40
1
 10
5.756490
 20
73.995829
 30
0.0
 10
5.756569
 20
73.975335
 30
0.0
 10
5.761189
 20
73.955113
 30
0.0
 10
5.770026
 20
73.936626
 30
0.0
  0
LWPOLYLINE
  5
153
100
AcDbEntity
  8
Layer_1
 62
7
100
AcDbPolyline
 90
5
 70
1
 10
10.924642
 20
75.126837
 30
0.0
 10
10.333434
 20
73.986395
 30
0.0
 10
10.924642
 20
72.845953
 30
0.0
 10
11.505596
 20
73.986395
 30
0.0
 10
10.924642
 20
75.126837
 30
0.0
  0
SPLINE
  5
154
100
AcDbEntity
  8
Layer_1
 62
7
100
AcDbSpline
 70
8
 71
3
 72
8
 73
4
 74
0
 40
0
 40
0
 40
0
 40
0
 40
1
 40
1
 40
1
 40
1
 10
5.823349
 20
73.877697
 30
0.0
 10
5.844825
 20
73.864645
 30
0.0
 10
5.869449
 20
73.857696
 30
0.0
 10
5.894584
 20
73.857598
 30
0.0
  0
SPLINE
  5
155
100
AcDbEntity
  8
Layer_1
 62
7
100
AcDbSpline
 70
8
 71
3
 72
8
 73
4
 74
0
 40
0
 40
0
 40
0
 40
0
 40
1
 40
1
 40
1
 40
1
 10
5.894584
 20
73.857598
 30
0.0
 10
5.970940
 20
73.857567
 30
0.0
 10
6.032847
 20
73.919473
 30
0.0
 10
6.032815
 20
73.995829
 30
0.0
  0
SPLINE
  5
156
100
AcDbEntity
  8
Layer_1
 62
7
100
AcDbSpline
 70
8
 71
3
 72
8
 73
4
 74
0
 40
0
 40
0
 40
0
 40
0
 40
1
 40
1
 40
1
 40
1
 10
6.032815
 20
73.995829
 30
0.0
 10
6.032770
 20
74.072132
 30
0.0
 10
5.970887
 20
74.133955
 30
0.0
 10
5.894584
 20
74.133924
 30
0.0
  0
LWPOLYLINE
  5
157
100
AcDbEntity
  8
Layer_1
 62
7
100
AcDbPolyline
 90
59
 70
0
 10
5.770026
 20
73.936626
 30
0.0
 10
5.680469
 20
73.847070
 30
0.0
 10
5.680469
 20
71.831574
 30
0.0
 10
5.539093
 20
71.690198
 30
0.0
 10
5.539093
 20
69.674702
 30
0.0
 10
5.397854
 20
69.533326
 30
0.0
 10
5.397854
 20
67.517830
 30
0.0
 10
5.256478
 20
67.376454
 30
0.0
 10
5.256478
 20
65.360821
 30
0.0
 10
5.115239
 20
65.219582
 30
0.0
 10
5.115239
 20
63.203949
 30
0.0
 10
4.973863
 20
63.062710
 30
0.0
 10
4.973863
 20
61.047077
 30
0.0
 10
4.832624
 20
60.905838
 30
0.0
 10
4.832624
 20
58.890205
 30
0.0
 10
4.691248
 20
58.748966
 30
0.0
 10
4.691248
 20
56.733333
 30
0.0
 10
4.550009
 20
56.591957
 30
0.0
 10
4.550009
 20
54.576461
 30
0.0
 10
4.408633
 20
54.435085
 30
0.0
 10
4.408633
 20
52.419590
 30
0.0
 10
4.267393
 20
52.278213
 30
0.0
 10
4.267257
 20
52.278213
 30
0.0
 10
4.267257
 20
50.262581
 30
0.0
 10
4.126017
 20
50.121341
 30
0.0
 10
4.126017
 20
48.105845
 30
0.0
 10
3.984778
 20
47.964469
 30
0.0
 10
3.984778
 20
45.948974
 30
0.0
 10
3.843402
 20
45.807597
 30
0.0
 10
3.843402
 20
37.071275
 30
0.0
 10
3.922841
 20
37.071275
 30
0.0
 10
3.922841
 20
45.774646
 30
0.0
 10
4.064080
 20
45.916022
 30
0.0
 10
4.064080
 20
47.931655
 30
0.0
 10
4.205456
 20
48.072894
 30
0.0
 10
4.205456
 20
50.088527
 30
0.0
 10
4.346695
 20
50.229766
 30
0.0
 10
4.346695
 20
52.245399
 30
0.0
 10
4.488071
 20
52.386638
 30
0.0
 10
4.488071
 20
54.402271
 30
0.0
 10
4.629310
 20
54.543510
 30
0.0
 10
4.629310
 20
56.559143
 30
0.0
 10
4.770686
 20
56.700519
 30
0.0
 10
4.770686
 20
58.716015
 30
0.0
 10
4.911926
 20
58.857391
 30
0.0
 10
4.911926
 20
60.872887
 30
0.0
 10
5.053302
 20
61.014262
 30
0.0
 10
5.053302
 20
63.029759
 30
0.0
 10
5.194541
 20
63.171135
 30
0.0
 10
5.194541
 20
65.186631
 30
0.0
 10
5.335917
 20
65.328007
 30
0.0
 10
5.335917
 20
67.343502
 30
0.0
 10
5.477156
 20
67.484878
 30
0.0
 10
5.477156
 20
69.500511
 30
0.0
 10
5.618532
 20
69.641750
 30
0.0
 10
5.618532
 20
71.657383
 30
0.0
 10
5.759771
 20
71.798623
 30
0.0
 10
5.759771
 20
73.814255
 30
0.0
 10
5.823349
 20
73.877697
 30
0.0
  0
LWPOLYLINE
  5
158
100
AcDbEntity
  8
Layer_1
 62
7
100
AcDbPolyline
 90
1
 70
1
 10
5.894584
 20
74.133924
 30
0.0
  0
LWPOLYLINE
  5
159
100
AcDbEntity
  8
Layer_1
 62
7
100
AcDbPolyline
 90
5
 70
1
 10
9.610147
 20
72.674224
 30
0.0
 10
9.018938
 20
71.533782
 30
0.0
 10
9.610147
 20
70.393340
 30
0.0
 10
10.191237
 20
71.533782
 30
0.0
 10
9.610147
 20
72.674224
 30
0.0
  0
LWPOLYLINE
  5
15a
100
AcDbEntity
  8
Layer_1
 62
7
100
AcDbPolyline
 90
5
 70
1
 10
6.991273
 20
72.672720
 30
0.0
 10
6.389263
 20
71.532278
 30
0.0
 10
6.991273
 20
70.391836
 30
0.0
 10
7.572227
 20
71.532278
 30
0.0
 10
6.991273
 20
72.672720
 30
0.0
  0
LWPOLYLINE
  5
15b
100
AcDbEntity
  8
Layer_1
 62
7
100
AcDbPolyline
 90
5
 70
1
 10
8.303581
 20
72.667661
 30
0.0
 10
7.712372
 20
71.527219
 30
0.0
 10
8.303581
 20
70.386777
 30
0.0
 10
8.884535
 20
71.527219
 30
0.0
 10
8.303581
 20
72.667661
 30
0.0
  0
LWPOLYLINE
  5
15c
100
AcDbEntity
  8
Layer_1
 62
7
100
AcDbPolyline
 90
5
 70
1
 10
12.234899
 20
72.667524
 30
0.0
 10
11.643690
 20
71.527082
 30
0.0
 10
12.234899
 20
70.386504
 30
0.0
 10
12.815853
 20
71.527082
 30
0.0
 10
12.234899
 20
72.667524
 30
0.0
  0
SPLINE
  5
15d
100
AcDbEntity
  8
Layer_1
 62
7
100
AcDbSpline
 70
8
 71
3
 72
8
 73
4
 74
0
 40
0
 40
0
 40
0
 40
0
 40
1
 40
1
 40
1
 40
1
 10
5.894447
 20
71.672287
 30
0.0
 10
5.818144
 20
71.672243
 30
0.0
 10
5.756321
 20
71.610358
 30
0.0
 10
5.756353
 20
71.534055
 30
0.0
  0
SPLINE
  5
15e
100
AcDbEntity
  8
Layer_1
 62
7
100
AcDbSpline
 70
8
 71
3
 72
8
 73
4
 74
0
 40
0
 40
0
 40
0
 40
0
 40
1
 40
1
 40
1
 40
1
 10
5.756353
 20
71.534055
 30
0.0
 10
5.756353
 20
71.518794
 30
0.0
 10
5.758899
 20
71.503639
 30
0.0
 10
5.763873
 20
71.489209
 30
0.0
  0
LWPOLYLINE
  5
15f
100
AcDbEntity
  8
Layer_1
 62
7
100
AcDbPolyline
 90
5
 70
1
 10
10.924642
 20
72.666157
 30
0.0
 10
10.333434
 20
71.525715
 30
0.0
 10
10.924642
 20
70.385274
 30
0.0
 10
11.505596
 20
71.525715
 30
0.0
 10
10.924642
 20
72.666157
 30
0.0
  0
SPLINE
  5
160
100
AcDbEntity
  8
Layer_1
 62
7
100
AcDbSpline
 70
8
 71
3
 72
8
 73
4
 74
0
 40
0
 40
0
 40
0
 40
0
 40
1
 40
1
 40
1
 40
1
 10
5.811181
 20
71.424127
 30
0.0
 10
5.835168
 20
71.405896
 30
0.0
 10
5.864456
 20
71.396005
 30
0.0
 10
5.894584
 20
71.395961
 30
0.0
  0
SPLINE
  5
161
100
AcDbEntity
  8
Layer_1
 62
7
100
AcDbSpline
 70
8
 71
3
 72
8
 73
4
 74
0
 40
0
 40
0
 40
0
 40
0
 40
1
 40
1
 40
1
 40
1
 10
5.894584
 20
71.395961
 30
0.0
 10
5.970887
 20
71.395930
 30
0.0
 10
6.032770
 20
71.457753
 30
0.0
 10
6.032815
 20
71.534055
 30
0.0
  0
SPLINE
  5
162
100
AcDbEntity
  8
Layer_1
 62
7
100
AcDbSpline
 70
8
 71
3
 72
8
 73
4
 74
0
 40
0
 40
0
 40
0
 40
0
 40
1
 40
1
 40
1
 40
1
 10
6.032815
 20
71.534055
 30
0.0
 10
6.032847
 20
71.610411
 30
0.0
 10
5.970940
 20
71.672318
 30
0.0
 10
5.894584
 20
71.672287
 30
0.0
  0
LWPOLYLINE
  5
163
100
AcDbEntity
  8
Layer_1
 62
7
100
AcDbPolyline
 90
62
 70
0
 10
5.763873
 20
71.489209
 30
0.0
 10
5.687442
 20
71.412778
 30
0.0
 10
5.687442
 20
69.397009
 30
0.0
 10
5.546203
 20
69.255906
 30
0.0
 10
5.546203
 20
67.240273
 30
0.0
 10
5.404964
 20
67.098897
 30
0.0
 10
5.404964
 20
65.083402
 30
0.0
 10
5.263588
 20
64.942026
 30
0.0
 10
5.263588
 20
62.926530
 30
0.0
 10
5.122349
 20
62.785154
 30
0.0
 10
5.122349
 20
60.769657
 30
0.0
 10
4.980973
 20
60.628282
 30
0.0
 10
4.980973
 20
58.612786
 30
0.0
 10
4.839734
 20
58.471410
 30
0.0
 10
4.839734
 20
56.455914
 30
0.0
 10
4.698358
 20
56.314538
 30
0.0
 10
4.698358
 20
54.298905
 30
0.0
 10
4.557118
 20
54.157666
 30
0.0
 10
4.557118
 20
52.142033
 30
0.0
 10
4.415742
 20
52.000793
 30
0.0
 10
4.415742
 20
49.985161
 30
0.0
 10
4.274503
 20
49.843922
 30
0.0
 10
4.274503
 20
47.828289
 30
0.0
 10
4.133127
 20
47.687050
 30
0.0
 10
4.133127
 20
45.671417
 30
0.0
 10
3.991888
 20
45.530041
 30
0.0
 10
3.991888
 20
38.041764
 30
0.0
 10
3.990931
 20
38.041901
 30
0.0
 10
3.972199
 20
37.778974
 30
0.0
 10
3.972199
 20
37.071821
 30
0.0
 10
4.051638
 20
37.071821
 30
0.0
 10
4.051638
 20
37.137997
 30
0.0
 10
4.051638
 20
37.766259
 30
0.0
 10
4.052595
 20
37.766122
 30
0.0
 10
4.071327
 20
38.029049
 30
0.0
 10
4.071327
 20
45.497227
 30
0.0
 10
4.212703
 20
45.638466
 30
0.0
 10
4.212703
 20
45.638602
 30
0.0
 10
4.212703
 20
47.654099
 30
0.0
 10
4.353942
 20
47.795475
 30
0.0
 10
4.353942
 20
49.810970
 30
0.0
 10
4.495318
 20
49.952347
 30
0.0
 10
4.495318
 20
51.967842
 30
0.0
 10
4.636557
 20
52.109218
 30
0.0
 10
4.636557
 20
54.124715
 30
0.0
 10
4.777933
 20
54.266090
 30
0.0
 10
4.777933
 20
56.281586
 30
0.0
 10
4.919172
 20
56.422963
 30
0.0
 10
4.919172
 20
58.438595
 30
0.0
 10
5.060548
 20
58.579834
 30
0.0
 10
5.060548
 20
60.595467
 30
0.0
 10
5.201787
 20
60.736706
 30
0.0
 10
5.201787
 20
62.752339
 30
0.0
 10
5.343163
 20
62.893579
 30
0.0
 10
5.343163
 20
64.909211
 30
0.0
 10
5.484402
 20
65.050450
 30
0.0
 10
5.484402
 20
67.066083
 30
0.0
 10
5.625778
 20
67.207322
 30
0.0
 10
5.625778
 20
69.222955
 30
0.0
 10
5.767018
 20
69.364331
 30
0.0
 10
5.767018
 20
71.379964
 30
0.0
 10
5.811181
 20
71.424127
 30
0.0
  0
LWPOLYLINE
  5
164
100
AcDbEntity
  8
Layer_1
 62
7
100
AcDbPolyline
 90
3
 70
0
 10
5.894584
 20
71.672287
 30
0.0
 10
5.894447
 20
71.672287
 30
0.0
 10
5.894447
 20
71.672287
 30
0.0
  0
LWPOLYLINE
  5
165
100
AcDbEntity
  8
Layer_1
 62
7
100
AcDbPolyline
 90
5
 70
1
 10
9.610147
 20
70.213544
 30
0.0
 10
9.018938
 20
69.073102
 30
0.0
 10
9.610147
 20
67.932660
 30
0.0
 10
10.191237
 20
69.073102
 30
0.0
 10
9.610147
 20
70.213544
 30
0.0
  0
LWPOLYLINE
  5
166
100
AcDbEntity
  8
Layer_1
 62
7
100
AcDbPolyline
 90
5
 70
1
 10
6.991273
 20
70.212177
 30
0.0
 10
6.389263
 20
69.071735
 30
0.0
 10
6.991273
 20
67.931293
 30
0.0
 10
7.572227
 20
69.071735
 30
0.0
 10
6.991273
 20
70.212177
 30
0.0
  0
LWPOLYLINE
  5
167
100
AcDbEntity
  8
Layer_1
 62
7
100
AcDbPolyline
 90
5
 70
1
 10
8.303581
 20
70.206981
 30
0.0
 10
7.712372
 20
69.066539
 30
0.0
 10
8.303581
 20
67.926097
 30
0.0
 10
8.884535
 20
69.066539
 30
0.0
 10
8.303581
 20
70.206981
 30
0.0
  0
LWPOLYLINE
  5
168
100
AcDbEntity
  8
Layer_1
 62
7
100
AcDbPolyline
 90
5
 70
1
 10
12.234899
 20
70.206844
 30
0.0
 10
11.643690
 20
69.066402
 30
0.0
 10
12.234899
 20
67.925824
 30
0.0
 10
12.815853
 20
69.066402
 30
0.0
 10
12.234899
 20
70.206844
 30
0.0
  0
SPLINE
  5
169
100
AcDbEntity
  8
Layer_1
 62
7
100
AcDbSpline
 70
8
 71
3
 72
8
 73
4
 74
0
 40
0
 40
0
 40
0
 40
0
 40
1
 40
1
 40
1
 40
1
 10
5.898139
 20
69.214068
 30
0.0
 10
5.821839
 20
69.214024
 30
0.0
 10
5.760013
 20
69.152139
 30
0.0
 10
5.760045
 20
69.075837
 30
0.0
  0
SPLINE
  5
16a
100
AcDbEntity
  8
Layer_1
 62
7
100
AcDbSpline
 70
8
 71
3
 72
8
 73
4
 74
0
 40
0
 40
0
 40
0
 40
0
 40
1
 40
1
 40
1
 40
1
 10
5.760045
 20
69.075837
 30
0.0
 10
5.760045
 20
69.060575
 30
0.0
 10
5.762590
 20
69.045421
 30
0.0
 10
5.767565
 20
69.030990
 30
0.0
  0
LWPOLYLINE
  5
16b
100
AcDbEntity
  8
Layer_1
 62
7
100
AcDbPolyline
 90
5
 70
1
 10
10.924642
 20
70.205477
 30
0.0
 10
10.333434
 20
69.065035
 30
0.0
 10
10.924642
 20
67.924593
 30
0.0
 10
11.505596
 20
69.065035
 30
0.0
 10
10.924642
 20
70.205477
 30
0.0
  0
SPLINE
  5
16c
100
AcDbEntity
  8
Layer_1
 62
7
100
AcDbSpline
 70
8
 71
3
 72
8
 73
4
 74
0
 40
0
 40
0
 40
0
 40
0
 40
1
 40
1
 40
1
 40
1
 10
5.814735
 20
68.965908
 30
0.0
 10
5.838723
 20
68.947677
 30
0.0
 10
5.868011
 20
68.937787
 30
0.0
 10
5.898139
 20
68.937742
 30
0.0
  0
SPLINE
  5
16d
100
AcDbEntity
  8
Layer_1
 62
7
100
AcDbSpline
 70
8
 71
3
 72
8
 73
4
 74
0
 40
0
 40
0
 40
0
 40
0
 40
1
 40
1
 40
1
 40
1
 10
5.898139
 20
68.937742
 30
0.0
 10
5.974442
 20
68.937711
 30
0.0
 10
6.036328
 20
68.999534
 30
0.0
 10
6.036370
 20
69.075837
 30
0.0
  0
SPLINE
  5
16e
100
AcDbEntity
  8
Layer_1
 62
7
100
AcDbSpline
 70
8
 71
3
 72
8
 73
4
 74
0
 40
0
 40
0
 40
0
 40
0
 40
1
 40
1
 40
1
 40
1
 10
6.036370
 20
69.075837
 30
0.0
 10
6.036402
 20
69.152193
 30
0.0
 10
5.974495
 20
69.214100
 30
0.0
 10
5.898139
 20
69.214068
 30
0.0
  0
LWPOLYLINE
  5
16f
100
AcDbEntity
  8
Layer_1
 62
7
100
AcDbPolyline
 90
55
 70
0
 10
5.767565
 20
69.030990
 30
0.0
 10
5.691134
 20
68.954560
 30
0.0
 10
5.691134
 20
66.939064
 30
0.0
 10
5.549895
 20
66.797688
 30
0.0
 10
5.549895
 20
64.782191
 30
0.0
 10
5.408519
 20
64.640815
 30
0.0
 10
5.408519
 20
62.625320
 30
0.0
 10
5.267280
 20
62.483943
 30
0.0
 10
5.267280
 20
60.468448
 30
0.0
 10
5.125904
 20
60.327072
 30
0.0
 10
5.125904
 20
58.311575
 30
0.0
 10
4.984664
 20
58.170200
 30
0.0
 10
4.984664
 20
56.154567
 30
0.0
 10
4.843289
 20
56.013327
 30
0.0
 10
4.843289
 20
53.997695
 30
0.0
 10
4.702049
 20
53.856456
 30
0.0
 10
4.702049
 20
51.840823
 30
0.0
 10
4.560673
 20
51.699584
 30
0.0
 10
4.560673
 20
49.683951
 30
0.0
 10
4.419434
 20
49.542711
 30
0.0
 10
4.419434
 20
47.527079
 30
0.0
 10
4.278058
 20
47.385703
 30
0.0
 10
4.278058
 20
45.370207
 30
0.0
 10
4.136819
 20
45.228831
 30
0.0
 10
4.136819
 20
38.022076
 30
0.0
 10
4.104415
 20
37.755458
 30
0.0
 10
4.104415
 20
37.071821
 30
0.0
 10
4.183853
 20
37.071821
 30
0.0
 10
4.183853
 20
37.137997
 30
0.0
 10
4.183853
 20
37.746844
 30
0.0
 10
4.216121
 20
38.012094
 30
0.0
 10
4.216121
 20
45.196017
 30
0.0
 10
4.357497
 20
45.337255
 30
0.0
 10
4.357497
 20
47.352888
 30
0.0
 10
4.498736
 20
47.494128
 30
0.0
 10
4.498736
 20
49.509760
 30
0.0
 10
4.640112
 20
49.651136
 30
0.0
 10
4.640112
 20
51.666633
 30
0.0
 10
4.781351
 20
51.808008
 30
0.0
 10
4.781351
 20
53.823504
 30
0.0
 10
4.922727
 20
53.964881
 30
0.0
 10
4.922727
 20
55.980376
 30
0.0
 10
5.063966
 20
56.121752
 30
0.0
 10
5.063966
 20
58.137249
 30
0.0
 10
5.205342
 20
58.278624
 30
0.0
 10
5.205342
 20
60.294257
 30
0.0
 10
5.346581
 20
60.435497
 30
0.0
 10
5.346581
 20
62.451129
 30
0.0
 10
5.487957
 20
62.592368
 30
0.0
 10
5.487957
 20
64.608001
 30
0.0
 10
5.629197
 20
64.749240
 30
0.0
 10
5.629197
 20
66.764873
 30
0.0
 10
5.770573
 20
66.906112
 30
0.0
 10
5.770573
 20
68.921745
 30
0.0
 10
5.814735
 20
68.965908
 30
0.0
  0
LWPOLYLINE
  5
170
100
AcDbEntity
  8
Layer_1
 62
7
100
AcDbPolyline
 90
1
 70
1
 10
5.898139
 20
69.214068
 30
0.0
  0
LWPOLYLINE
  5
171
100
AcDbEntity
  8
Layer_1
 62
7
100
AcDbPolyline
 90
5
 70
1
 10
9.610147
 20
67.752727
 30
0.0
 10
9.018938
 20
66.612285
 30
0.0
 10
9.610147
 20
65.471844
 30
0.0
 10
10.191237
 20
66.612285
 30
0.0
 10
9.610147
 20
67.752727
 30
0.0
  0
LWPOLYLINE
  5
172
100
AcDbEntity
  8
Layer_1
 62
7
100
AcDbPolyline
 90
5
 70
1
 10
6.991273
 20
67.751360
 30
0.0
 10
6.389263
 20
66.610918
 30
0.0
 10
6.991273
 20
65.470476
 30
0.0
 10
7.572227
 20
66.610918
 30
0.0
 10
6.991273
 20
67.751360
 30
0.0
  0
LWPOLYLINE
  5
173
100
AcDbEntity
  8
Layer_1
 62
7
100
AcDbPolyline
 90
5
 70
1
 10
8.303581
 20
67.746301
 30
0.0
 10
7.712372
 20
66.605859
 30
0.0
 10
8.303581
 20
65.465418
 30
0.0
 10
8.884535
 20
66.605859
 30
0.0
 10
8.303581
 20
67.746301
 30
0.0
  0
LWPOLYLINE
  5
174
100
AcDbEntity
  8
Layer_1
 62
7
100
AcDbPolyline
 90
5
 70
1
 10
12.234899
 20
67.746165
 30
0.0
 10
11.643690
 20
66.605722
 30
0.0
 10
12.234899
 20
65.465144
 30
0.0
 10
12.815853
 20
66.605722
 30
0.0
 10
12.234899
 20
67.746165
 30
0.0
  0
SPLINE
  5
175
100
AcDbEntity
  8
Layer_1
 62
7
100
AcDbSpline
 70
8
 71
3
 72
8
 73
4
 74
0
 40
0
 40
0
 40
0
 40
0
 40
1
 40
1
 40
1
 40
1
 10
5.901147
 20
66.749423
 30
0.0
 10
5.824847
 20
66.749379
 30
0.0
 10
5.763021
 20
66.687494
 30
0.0
 10
5.763053
 20
66.611192
 30
0.0
  0
SPLINE
  5
176
100
AcDbEntity
  8
Layer_1
 62
7
100
AcDbSpline
 70
8
 71
3
 72
8
 73
4
 74
0
 40
0
 40
0
 40
0
 40
0
 40
1
 40
1
 40
1
 40
1
 10
5.763053
 20
66.611192
 30
0.0
 10
5.763053
 20
66.595930
 30
0.0
 10
5.765598
 20
66.580776
 30
0.0
 10
5.770573
 20
66.566345
 30
0.0
  0
LWPOLYLINE
  5
177
100
AcDbEntity
  8
Layer_1
 62
7
100
AcDbPolyline
 90
5
 70
1
 10
10.924642
 20
67.744660
 30
0.0
 10
10.333434
 20
66.604219
 30
0.0
 10
10.924642
 20
65.463777
 30
0.0
 10
11.505596
 20
66.604219
 30
0.0
 10
10.924642
 20
67.744660
 30
0.0
  0
SPLINE
  5
178
100
AcDbEntity
  8
Layer_1
 62
7
100
AcDbSpline
 70
8
 71
3
 72
8
 73
4
 74
0
 40
0
 40
0
 40
0
 40
0
 40
1
 40
1
 40
1
 40
1
 10
5.817743
 20
66.501126
 30
0.0
 10
5.841731
 20
66.482896
 30
0.0
 10
5.871019
 20
66.473005
 30
0.0
 10
5.901147
 20
66.472961
 30
0.0
  0
SPLINE
  5
179
100
AcDbEntity
  8
Layer_1
 62
7
100
AcDbSpline
 70
8
 71
3
 72
8
 73
4
 74
0
 40
0
 40
0
 40
0
 40
0
 40
1
 40
1
 40
1
 40
1
 10
5.901147
 20
66.472961
 30
0.0
 10
5.977450
 20
66.472929
 30
0.0
 10
6.039333
 20
66.534752
 30
0.0
 10
6.039378
 20
66.611055
 30
0.0
  0
SPLINE
  5
17a
100
AcDbEntity
  8
Layer_1
 62
7
100
AcDbSpline
 70
8
 71
3
 72
8
 73
4
 74
0
 40
0
 40
0
 40
0
 40
0
 40
1
 40
1
 40
1
 40
1
 10
6.039378
 20
66.611055
 30
0.0
 10
6.039410
 20
66.687411
 30
0.0
 10
5.977503
 20
66.749317
 30
0.0
 10
5.901147
 20
66.749286
 30
0.0
  0
LWPOLYLINE
  5
17b
100
AcDbEntity
  8
Layer_1
 62
7
100
AcDbPolyline
 90
53
 70
0
 10
5.770573
 20
66.566345
 30
0.0
 10
5.694142
 20
66.489914
 30
0.0
 10
5.694142
 20
64.474282
 30
0.0
 10
5.552903
 20
64.332906
 30
0.0
 10
5.552903
 20
62.317273
 30
0.0
 10
5.411527
 20
62.176034
 30
0.0
 10
5.411527
 20
60.160401
 30
0.0
 10
5.270288
 20
60.019162
 30
0.0
 10
5.270288
 20
58.003529
 30
0.0
 10
5.128912
 20
57.862290
 30
0.0
 10
5.128912
 20
55.846657
 30
0.0
 10
4.987672
 20
55.705418
 30
0.0
 10
4.987672
 20
53.689785
 30
0.0
 10
4.846297
 20
53.548546
 30
0.0
 10
4.846297
 20
51.532913
 30
0.0
 10
4.705057
 20
51.391537
 30
0.0
 10
4.705057
 20
49.376041
 30
0.0
 10
4.563681
 20
49.234665
 30
0.0
 10
4.563681
 20
47.219169
 30
0.0
 10
4.422442
 20
47.077794
 30
0.0
 10
4.422442
 20
45.062297
 30
0.0
 10
4.281066
 20
44.920921
 30
0.0
 10
4.281066
 20
37.965197
 30
0.0
 10
4.279836
 20
37.965471
 30
0.0
 10
4.236767
 20
37.713756
 30
0.0
 10
4.236767
 20
37.071685
 30
0.0
 10
4.316205
 20
37.071685
 30
0.0
 10
4.316205
 20
37.137861
 30
0.0
 10
4.316205
 20
37.693657
 30
0.0
 10
4.317436
 20
37.693384
 30
0.0
 10
4.360505
 20
37.945098
 30
0.0
 10
4.360505
 20
44.888107
 30
0.0
 10
4.501744
 20
45.029346
 30
0.0
 10
4.501744
 20
47.044979
 30
0.0
 10
4.643120
 20
47.186218
 30
0.0
 10
4.643120
 20
49.201851
 30
0.0
 10
4.784359
 20
49.343090
 30
0.0
 10
4.784359
 20
51.358723
 30
0.0
 10
4.925735
 20
51.499962
 30
0.0
 10
4.925735
 20
53.515595
 30
0.0
 10
5.066974
 20
53.656971
 30
0.0
 10
5.066974
 20
55.672466
 30
0.0
 10
5.208350
 20
55.813842
 30
0.0
 10
5.208350
 20
57.829339
 30
0.0
 10
5.349589
 20
57.970715
 30
0.0
 10
5.349589
 20
59.986211
 30
0.0
 10
5.490965
 20
60.127587
 30
0.0
 10
5.490965
 20
62.143082
 30
0.0
 10
5.632205
 20
62.284458
 30
0.0
 10
5.632205
 20
64.300091
 30
0.0
 10
5.773581
 20
64.441330
 30
0.0
 10
5.773581
 20
66.456963
 30
0.0
 10
5.817743
 20
66.501126
 30
0.0
  0
LWPOLYLINE
  5
17c
100
AcDbEntity
  8
Layer_1
 62
7
100
AcDbPolyline
 90
3
 70
0
 10
5.901147
 20
66.749286
 30
0.0
 10
5.901147
 20
66.749423
 30
0.0
 10
5.901147
 20
66.749423
 30
0.0
  0
LWPOLYLINE
  5
17d
100
AcDbEntity
  8
Layer_1
 62
7
100
AcDbPolyline
 90
5
 70
1
 10
9.610147
 20
65.292048
 30
0.0
 10
9.018938
 20
64.151606
 30
0.0
 10
9.610147
 20
63.011163
 30
0.0
 10
10.191237
 20
64.151606
 30
0.0
 10
9.610147
 20
65.292048
 30
0.0
  0
LWPOLYLINE
  5
17e
100
AcDbEntity
  8
Layer_1
 62
7
100
AcDbPolyline
 90
5
 70
1
 10
6.991273
 20
65.290680
 30
0.0
 10
6.389263
 20
64.150238
 30
0.0
 10
6.991273
 20
63.009796
 30
0.0
 10
7.572227
 20
64.150238
 30
0.0
 10
6.991273
 20
65.290680
 30
0.0
  0
LWPOLYLINE
  5
17f
100
AcDbEntity
  8
Layer_1
 62
7
100
AcDbPolyline
 90
5
 70
1
 10
8.303581
 20
65.285621
 30
0.0
 10
7.712372
 20
64.145179
 30
0.0
 10
8.303581
 20
63.004738
 30
0.0
 10
8.884535
 20
64.145179
 30
0.0
 10
8.303581
 20
65.285621
 30
0.0
  0
LWPOLYLINE
  5
180
100
AcDbEntity
  8
Layer_1
 62
7
100
AcDbPolyline
 90
5
 70
1
 10
12.234899
 20
65.285485
 30
0.0
 10
11.643690
 20
64.145043
 30
0.0
 10
12.234899
 20
63.004464
 30
0.0
 10
12.815853
 20
64.145043
 30
0.0
 10
12.234899
 20
65.285485
 30
0.0
  0
SPLINE
  5
181
100
AcDbEntity
  8
Layer_1
 62
7
100
AcDbSpline
 70
8
 71
3
 72
8
 73
4
 74
0
 40
0
 40
0
 40
0
 40
0
 40
1
 40
1
 40
1
 40
1
 10
5.902241
 20
64.279445
 30
0.0
 10
5.825938
 20
64.279401
 30
0.0
 10
5.764115
 20
64.217517
 30
0.0
 10
5.764146
 20
64.141214
 30
0.0
  0
SPLINE
  5
182
100
AcDbEntity
  8
Layer_1
 62
7
100
AcDbSpline
 70
8
 71
3
 72
8
 73
4
 74
0
 40
0
 40
0
 40
0
 40
0
 40
1
 40
1
 40
1
 40
1
 10
5.764146
 20
64.141214
 30
0.0
 10
5.764146
 20
64.125952
 30
0.0
 10
5.766692
 20
64.110798
 30
0.0
 10
5.771666
 20
64.096368
 30
0.0
  0
LWPOLYLINE
  5
183
100
AcDbEntity
  8
Layer_1
 62
7
100
AcDbPolyline
 90
5
 70
1
 10
10.924642
 20
65.284117
 30
0.0
 10
10.333434
 20
64.143675
 30
0.0
 10
10.924642
 20
63.003233
 30
0.0
 10
11.505596
 20
64.143675
 30
0.0
 10
10.924642
 20
65.284117
 30
0.0
  0
SPLINE
  5
184
100
AcDbEntity
  8
Layer_1
 62
7
100
AcDbSpline
 70
8
 71
3
 72
8
 73
4
 74
0
 40
0
 40
0
 40
0
 40
0
 40
1
 40
1
 40
1
 40
1
 10
5.818837
 20
64.031149
 30
0.0
 10
5.842824
 20
64.012919
 30
0.0
 10
5.872113
 20
64.003028
 30
0.0
 10
5.902241
 20
64.002983
 30
0.0
  0
SPLINE
  5
185
100
AcDbEntity
  8
Layer_1
 62
7
100
AcDbSpline
 70
8
 71
3
 72
8
 73
4
 74
0
 40
0
 40
0
 40
0
 40
0
 40
1
 40
1
 40
1
 40
1
 10
5.902241
 20
64.002983
 30
0.0
 10
5.978541
 20
64.002951
 30
0.0
 10
6.040427
 20
64.064775
 30
0.0
 10
6.040472
 20
64.141078
 30
0.0
  0
SPLINE
  5
186
100
AcDbEntity
  8
Layer_1
 62
7
100
AcDbSpline
 70
8
 71
3
 72
8
 73
4
 74
0
 40
0
 40
0
 40
0
 40
0
 40
1
 40
1
 40
1
 40
1
 10
6.040472
 20
64.141078
 30
0.0
 10
6.040501
 20
64.217433
 30
0.0
 10
5.978597
 20
64.279340
 30
0.0
 10
5.902241
 20
64.279309
 30
0.0
  0
LWPOLYLINE
  5
187
100
AcDbEntity
  8
Layer_1
 62
7
100
AcDbPolyline
 90
47
 70
0
 10
5.771666
 20
64.096368
 30
0.0
 10
5.695236
 20
64.019937
 30
0.0
 10
5.695236
 20
62.004304
 30
0.0
 10
5.553997
 20
61.863065
 30
0.0
 10
5.553997
 20
59.847569
 30
0.0
 10
5.412621
 20
59.706193
 30
0.0
 10
5.412621
 20
57.690423
 30
0.0
 10
5.271381
 20
57.549321
 30
0.0
 10
5.271381
 20
55.533688
 30
0.0
 10
5.130005
 20
55.392449
 30
0.0
 10
5.130005
 20
53.376816
 30
0.0
 10
4.988766
 20
53.235578
 30
0.0
 10
4.988766
 20
51.219945
 30
0.0
 10
4.847390
 20
51.078705
 30
0.0
 10
4.847390
 20
49.063073
 30
0.0
 10
4.706151
 20
48.921833
 30
0.0
 10
4.706151
 20
46.906200
 30
0.0
 10
4.564775
 20
46.764824
 30
0.0
 10
4.564775
 20
44.749329
 30
0.0
 10
4.423536
 20
44.607953
 30
0.0
 10
4.423536
 20
37.903533
 30
0.0
 10
4.368982
 20
37.654416
 30
0.0
 10
4.368982
 20
37.071685
 30
0.0
 10
4.448420
 20
37.071685
 30
0.0
 10
4.448420
 20
37.137861
 30
0.0
 10
4.448420
 20
37.638419
 30
0.0
 10
4.502838
 20
37.887536
 30
0.0
 10
4.502838
 20
44.575001
 30
0.0
 10
4.644214
 20
44.716241
 30
0.0
 10
4.644214
 20
46.731873
 30
0.0
 10
4.785453
 20
46.873113
 30
0.0
 10
4.785453
 20
48.888746
 30
0.0
 10
4.926829
 20
49.030121
 30
0.0
 10
4.926829
 20
51.045617
 30
0.0
 10
5.068068
 20
51.186993
 30
0.0
 10
5.068068
 20
53.202489
 30
0.0
 10
5.209444
 20
53.343865
 30
0.0
 10
5.209444
 20
55.359362
 30
0.0
 10
5.350683
 20
55.500737
 30
0.0
 10
5.350683
 20
57.516233
 30
0.0
 10
5.492059
 20
57.657610
 30
0.0
 10
5.492059
 20
59.673105
 30
0.0
 10
5.633298
 20
59.814481
 30
0.0
 10
5.633298
 20
61.830114
 30
0.0
 10
5.774674
 20
61.971353
 30
0.0
 10
5.774674
 20
63.986986
 30
0.0
 10
5.818837
 20
64.031149
 30
0.0
  0
LWPOLYLINE
  5
188
100
AcDbEntity
  8
Layer_1
 62
7
100
AcDbPolyline
 90
3
 70
0
 10
5.902241
 20
64.279309
 30
0.0
 10
5.902241
 20
64.279445
 30
0.0
 10
5.902241
 20
64.279445
 30
0.0
  0
LWPOLYLINE
  5
189
100
AcDbEntity
  8
Layer_1
 62
7
100
AcDbPolyline
 90
5
 70
1
 10
9.610147
 20
62.831367
 30
0.0
 10
9.018938
 20
61.690926
 30
0.0
 10
9.610147
 20
60.550484
 30
0.0
 10
10.191237
 20
61.690926
 30
0.0
 10
9.610147
 20
62.831367
 30
0.0
  0
LWPOLYLINE
  5
18a
100
AcDbEntity
  8
Layer_1
 62
7
100
AcDbPolyline
 90
5
 70
1
 10
6.991273
 20
62.830000
 30
0.0
 10
6.389263
 20
61.689559
 30
0.0
 10
6.991273
 20
60.549116
 30
0.0
 10
7.572227
 20
61.689559
 30
0.0
 10
6.991273
 20
62.830000
 30
0.0
  0
LWPOLYLINE
  5
18b
100
AcDbEntity
  8
Layer_1
 62
7
100
AcDbPolyline
 90
5
 70
1
 10
8.303581
 20
62.824941
 30
0.0
 10
7.712372
 20
61.684499
 30
0.0
 10
8.303581
 20
60.544058
 30
0.0
 10
8.884535
 20
61.684499
 30
0.0
 10
8.303581
 20
62.824941
 30
0.0
  0
LWPOLYLINE
  5
18c
100
AcDbEntity
  8
Layer_1
 62
7
100
AcDbPolyline
 90
5
 70
1
 10
12.234899
 20
62.824805
 30
0.0
 10
11.643690
 20
61.684363
 30
0.0
 10
12.234899
 20
60.543784
 30
0.0
 10
12.815853
 20
61.684363
 30
0.0
 10
12.234899
 20
62.824805
 30
0.0
  0
SPLINE
  5
18d
100
AcDbEntity
  8
Layer_1
 62
7
100
AcDbSpline
 70
8
 71
3
 72
8
 73
4
 74
0
 40
0
 40
0
 40
0
 40
0
 40
1
 40
1
 40
1
 40
1
 10
5.899917
 20
61.840916
 30
0.0
 10
5.823613
 20
61.840872
 30
0.0
 10
5.761790
 20
61.778987
 30
0.0
 10
5.761822
 20
61.702684
 30
0.0
  0
SPLINE
  5
18e
100
AcDbEntity
  8
Layer_1
 62
7
100
AcDbSpline
 70
8
 71
3
 72
8
 73
4
 74
0
 40
0
 40
0
 40
0
 40
0
 40
1
 40
1
 40
1
 40
1
 10
5.761822
 20
61.702684
 30
0.0
 10
5.761822
 20
61.687423
 30
0.0
 10
5.764368
 20
61.672268
 30
0.0
 10
5.769342
 20
61.657837
 30
0.0
  0
LWPOLYLINE
  5
18f
100
AcDbEntity
  8
Layer_1
 62
7
100
AcDbPolyline
 90
5
 70
1
 10
10.924642
 20
62.823437
 30
0.0
 10
10.333434
 20
61.682996
 30
0.0
 10
10.924642
 20
60.542554
 30
0.0
 10
11.505596
 20
61.682996
 30
0.0
 10
10.924642
 20
62.823437
 30
0.0
  0
SPLINE
  5
190
100
AcDbEntity
  8
Layer_1
 62
7
100
AcDbSpline
 70
8
 71
3
 72
8
 73
4
 74
0
 40
0
 40
0
 40
0
 40
0
 40
1
 40
1
 40
1
 40
1
 10
5.816513
 20
61.592756
 30
0.0
 10
5.840497
 20
61.574524
 30
0.0
 10
5.869788
 20
61.564634
 30
0.0
 10
5.899917
 20
61.564590
 30
0.0
  0
SPLINE
  5
191
100
AcDbEntity
  8
Layer_1
 62
7
100
AcDbSpline
 70
8
 71
3
 72
8
 73
4
 74
0
 40
0
 40
0
 40
0
 40
0
 40
1
 40
1
 40
1
 40
1
 10
5.899917
 20
61.564590
 30
0.0
 10
5.976220
 20
61.564558
 30
0.0
 10
6.038103
 20
61.626382
 30
0.0
 10
6.038148
 20
61.702684
 30
0.0
  0
SPLINE
  5
192
100
AcDbEntity
  8
Layer_1
 62
7
100
AcDbSpline
 70
8
 71
3
 72
8
 73
4
 74
0
 40
0
 40
0
 40
0
 40
0
 40
1
 40
1
 40
1
 40
1
 10
6.038148
 20
61.702684
 30
0.0
 10
6.038179
 20
61.779040
 30
0.0
 10
5.976273
 20
61.840947
 30
0.0
 10
5.899917
 20
61.840916
 30
0.0
  0
LWPOLYLINE
  5
193
100
AcDbEntity
  8
Layer_1
 62
7
100
AcDbPolyline
 90
44
 70
0
 10
5.769342
 20
61.657837
 30
0.0
 10
5.692912
 20
61.581407
 30
0.0
 10
5.692912
 20
59.565775
 30
0.0
 10
5.551672
 20
59.424535
 30
0.0
 10
5.551672
 20
57.408902
 30
0.0
 10
5.410433
 20
57.267663
 30
0.0
 10
5.410433
 20
55.252030
 30
0.0
 10
5.269057
 20
55.110792
 30
0.0
 10
5.269057
 20
53.095159
 30
0.0
 10
5.127818
 20
52.953919
 30
0.0
 10
5.127818
 20
50.938286
 30
0.0
 10
4.986442
 20
50.797047
 30
0.0
 10
4.986442
 20
48.781414
 30
0.0
 10
4.845203
 20
48.640176
 30
0.0
 10
4.845203
 20
48.640038
 30
0.0
 10
4.845203
 20
46.624543
 30
0.0
 10
4.703827
 20
46.483167
 30
0.0
 10
4.703827
 20
44.467671
 30
0.0
 10
4.562587
 20
44.326295
 30
0.0
 10
4.562587
 20
37.868394
 30
0.0
 10
4.501334
 20
37.588787
 30
0.0
 10
4.501334
 20
37.071685
 30
0.0
 10
4.580772
 20
37.071685
 30
0.0
 10
4.580772
 20
37.137861
 30
0.0
 10
4.580772
 20
37.576755
 30
0.0
 10
4.641889
 20
37.855815
 30
0.0
 10
4.641889
 20
44.293480
 30
0.0
 10
4.783265
 20
44.434720
 30
0.0
 10
4.783265
 20
46.450352
 30
0.0
 10
4.924504
 20
46.591591
 30
0.0
 10
4.924504
 20
48.607224
 30
0.0
 10
5.065880
 20
48.748600
 30
0.0
 10
5.065880
 20
50.764096
 30
0.0
 10
5.207120
 20
50.905472
 30
0.0
 10
5.207120
 20
52.920968
 30
0.0
 10
5.348496
 20
53.062344
 30
0.0
 10
5.348496
 20
55.077840
 30
0.0
 10
5.489735
 20
55.219216
 30
0.0
 10
5.489735
 20
57.234712
 30
0.0
 10
5.631111
 20
57.376088
 30
0.0
 10
5.631111
 20
59.391584
 30
0.0
 10
5.772350
 20
59.532960
 30
0.0
 10
5.772350
 20
61.548593
 30
0.0
 10
5.816513
 20
61.592756
 30
0.0
  0
LWPOLYLINE
  5
194
100
AcDbEntity
  8
Layer_1
 62
7
100
AcDbPolyline
 90
1
 70
1
 10
5.899917
 20
61.840916
 30
0.0
  0
LWPOLYLINE
  5
195
100
AcDbEntity
  8
Layer_1
 62
7
100
AcDbPolyline
 90
5
 70
1
 10
9.610147
 20
60.370824
 30
0.0
 10
9.018938
 20
59.230382
 30
0.0
 10
9.610147
 20
58.089941
 30
0.0
 10
10.191237
 20
59.230382
 30
0.0
 10
9.610147
 20
60.370824
 30
0.0
  0
LWPOLYLINE
  5
196
100
AcDbEntity
  8
Layer_1
 62
7
100
AcDbPolyline
 90
5
 70
1
 10
6.991273
 20
60.369320
 30
0.0
 10
6.389263
 20
59.228879
 30
0.0
 10
6.991273
 20
58.088437
 30
0.0
 10
7.572227
 20
59.228879
 30
0.0
 10
6.991273
 20
60.369320
 30
0.0
  0
LWPOLYLINE
  5
197
100
AcDbEntity
  8
Layer_1
 62
7
100
AcDbPolyline
 90
5
 70
1
 10
8.303581
 20
60.364262
 30
0.0
 10
7.712372
 20
59.223819
 30
0.0
 10
8.303581
 20
58.083378
 30
0.0
 10
8.884535
 20
59.223819
 30
0.0
 10
8.303581
 20
60.364262
 30
0.0
  0
LWPOLYLINE
  5
198
100
AcDbEntity
  8
Layer_1
 62
7
100
AcDbPolyline
 90
5
 70
1
 10
12.234899
 20
60.364124
 30
0.0
 10
11.643690
 20
59.223683
 30
0.0
 10
12.234899
 20
58.083104
 30
0.0
 10
12.815853
 20
59.223683
 30
0.0
 10
12.234899
 20
60.364124
 30
0.0
  0
SPLINE
  5
199
100
AcDbEntity
  8
Layer_1
 62
7
100
AcDbSpline
 70
8
 71
3
 72
8
 73
4
 74
0
 40
0
 40
0
 40
0
 40
0
 40
1
 40
1
 40
1
 40
1
 10
5.900327
 20
59.358222
 30
0.0
 10
5.824026
 20
59.358178
 30
0.0
 10
5.762200
 20
59.296294
 30
0.0
 10
5.762232
 20
59.219991
 30
0.0
  0
SPLINE
  5
19a
100
AcDbEntity
  8
Layer_1
 62
7
100
AcDbSpline
 70
8
 71
3
 72
8
 73
4
 74
0
 40
0
 40
0
 40
0
 40
0
 40
1
 40
1
 40
1
 40
1
 10
5.762232
 20
59.219991
 30
0.0
 10
5.762232
 20
59.204729
 30
0.0
 10
5.764778
 20
59.189575
 30
0.0
 10
5.769752
 20
59.175145
 30
0.0
  0
LWPOLYLINE
  5
19b
100
AcDbEntity
  8
Layer_1
 62
7
100
AcDbPolyline
 90
5
 70
1
 10
10.924642
 20
60.362757
 30
0.0
 10
10.333434
 20
59.222316
 30
0.0
 10
10.924642
 20
58.081874
 30
0.0
 10
11.505596
 20
59.222316
 30
0.0
 10
10.924642
 20
60.362757
 30
0.0
  0
SPLINE
  5
19c
100
AcDbEntity
  8
Layer_1
 62
7
100
AcDbSpline
 70
8
 71
3
 72
8
 73
4
 74
0
 40
0
 40
0
 40
0
 40
0
 40
1
 40
1
 40
1
 40
1
 10
5.816923
 20
59.109926
 30
0.0
 10
5.840910
 20
59.091695
 30
0.0
 10
5.870199
 20
59.081805
 30
0.0
 10
5.900327
 20
59.081760
 30
0.0
  0
SPLINE
  5
19d
100
AcDbEntity
  8
Layer_1
 62
7
100
AcDbSpline
 70
8
 71
3
 72
8
 73
4
 74
0
 40
0
 40
0
 40
0
 40
0
 40
1
 40
1
 40
1
 40
1
 10
5.900327
 20
59.081760
 30
0.0
 10
5.976630
 20
59.081729
 30
0.0
 10
6.038513
 20
59.143552
 30
0.0
 10
6.038558
 20
59.219854
 30
0.0
  0
SPLINE
  5
19e
100
AcDbEntity
  8
Layer_1
 62
7
100
AcDbSpline
 70
8
 71
3
 72
8
 73
4
 74
0
 40
0
 40
0
 40
0
 40
0
 40
1
 40
1
 40
1
 40
1
 10
6.038558
 20
59.219854
 30
0.0
 10
6.038590
 20
59.296210
 30
0.0
 10
5.976683
 20
59.358117
 30
0.0
 10
5.900327
 20
59.358086
 30
0.0
  0
LWPOLYLINE
  5
19f
100
AcDbEntity
  8
Layer_1
 62
7
100
AcDbPolyline
 90
40
 70
0
 10
5.769752
 20
59.175145
 30
0.0
 10
5.693322
 20
59.098714
 30
0.0
 10
5.693322
 20
57.083081
 30
0.0
 10
5.552082
 20
56.941843
 30
0.0
 10
5.552082
 20
54.926210
 30
0.0
 10
5.410707
 20
54.784970
 30
0.0
 10
5.410707
 20
52.769337
 30
0.0
 10
5.269467
 20
52.628098
 30
0.0
 10
5.269467
 20
50.612465
 30
0.0
 10
5.128091
 20
50.471226
 30
0.0
 10
5.128091
 20
48.455594
 30
0.0
 10
4.986852
 20
48.314354
 30
0.0
 10
4.986852
 20
48.314217
 30
0.0
 10
4.986852
 20
46.298722
 30
0.0
 10
4.845476
 20
46.157346
 30
0.0
 10
4.845476
 20
44.141849
 30
0.0
 10
4.704237
 20
44.000474
 30
0.0
 10
4.704237
 20
37.836263
 30
0.0
 10
4.633549
 20
37.576345
 30
0.0
 10
4.633549
 20
37.071685
 30
0.0
 10
4.712987
 20
37.071685
 30
0.0
 10
4.712987
 20
37.137861
 30
0.0
 10
4.712987
 20
37.548453
 30
0.0
 10
4.783539
 20
37.808371
 30
0.0
 10
4.783539
 20
43.967522
 30
0.0
 10
4.924915
 20
44.108762
 30
0.0
 10
4.924915
 20
46.124395
 30
0.0
 10
5.066154
 20
46.265633
 30
0.0
 10
5.066154
 20
48.281266
 30
0.0
 10
5.207530
 20
48.422642
 30
0.0
 10
5.207530
 20
50.438138
 30
0.0
 10
5.348769
 20
50.579514
 30
0.0
 10
5.348769
 20
52.595011
 30
0.0
 10
5.490145
 20
52.736386
 30
0.0
 10
5.490145
 20
54.751882
 30
0.0
 10
5.631384
 20
54.893258
 30
0.0
 10
5.631384
 20
56.908754
 30
0.0
 10
5.772760
 20
57.050130
 30
0.0
 10
5.772760
 20
59.065763
 30
0.0
 10
5.816923
 20
59.109926
 30
0.0
  0
LWPOLYLINE
  5
1a0
100
AcDbEntity
  8
Layer_1
 62
7
100
AcDbPolyline
 90
3
 70
0
 10
5.900327
 20
59.358086
 30
0.0
 10
5.900327
 20
59.358222
 30
0.0
 10
5.900327
 20
59.358222
 30
0.0
  0
LWPOLYLINE
  5
1a1
100
AcDbEntity
  8
Layer_1
 62
7
100
AcDbPolyline
 90
5
 70
1
 10
9.610147
 20
57.910145
 30
0.0
 10
9.018938
 20
56.769703
 30
0.0
 10
9.610147
 20
55.629261
 30
0.0
 10
10.191237
 20
56.769703
 30
0.0
 10
9.610147
 20
57.910145
 30
0.0
  0
LWPOLYLINE
  5
1a2
100
AcDbEntity
  8
Layer_1
 62
7
100
AcDbPolyline
 90
5
 70
1
 10
6.991273
 20
57.908777
 30
0.0
 10
6.389263
 20
56.768335
 30
0.0
 10
6.991273
 20
55.627893
 30
0.0
 10
7.572227
 20
56.768335
 30
0.0
 10
6.991273
 20
57.908777
 30
0.0
  0
LWPOLYLINE
  5
1a3
100
AcDbEntity
  8
Layer_1
 62
7
100
AcDbPolyline
 90
5
 70
1
 10
8.303581
 20
57.903718
 30
0.0
 10
7.712372
 20
56.763276
 30
0.0
 10
8.303581
 20
55.622835
 30
0.0
 10
8.884535
 20
56.763276
 30
0.0
 10
8.303581
 20
57.903718
 30
0.0
  0
LWPOLYLINE
  5
1a4
100
AcDbEntity
  8
Layer_1
 62
7
100
AcDbPolyline
 90
5
 70
1
 10
12.234899
 20
57.903582
 30
0.0
 10
11.643690
 20
56.763140
 30
0.0
 10
12.234899
 20
55.622561
 30
0.0
 10
12.815853
 20
56.763140
 30
0.0
 10
12.234899
 20
57.903582
 30
0.0
  0
SPLINE
  5
1a5
100
AcDbEntity
  8
Layer_1
 62
7
100
AcDbSpline
 70
8
 71
3
 72
8
 73
4
 74
0
 40
0
 40
0
 40
0
 40
0
 40
1
 40
1
 40
1
 40
1
 10
5.898002
 20
56.901781
 30
0.0
 10
5.821699
 20
56.901736
 30
0.0
 10
5.759876
 20
56.839853
 30
0.0
 10
5.759908
 20
56.763550
 30
0.0
  0
SPLINE
  5
1a6
100
AcDbEntity
  8
Layer_1
 62
7
100
AcDbSpline
 70
8
 71
3
 72
8
 73
4
 74
0
 40
0
 40
0
 40
0
 40
0
 40
1
 40
1
 40
1
 40
1
 10
5.759908
 20
56.763550
 30
0.0
 10
5.759908
 20
56.748288
 30
0.0
 10
5.762454
 20
56.733134
 30
0.0
 10
5.767428
 20
56.718704
 30
0.0
  0
LWPOLYLINE
  5
1a7
100
AcDbEntity
  8
Layer_1
 62
7
100
AcDbPolyline
 90
5
 70
1
 10
10.924642
 20
57.902215
 30
0.0
 10
10.333434
 20
56.761772
 30
0.0
 10
10.924642
 20
55.621330
 30
0.0
 10
11.505596
 20
56.761772
 30
0.0
 10
10.924642
 20
57.902215
 30
0.0
  0
SPLINE
  5
1a8
100
AcDbEntity
  8
Layer_1
 62
7
100
AcDbSpline
 70
8
 71
3
 72
8
 73
4
 74
0
 40
0
 40
0
 40
0
 40
0
 40
1
 40
1
 40
1
 40
1
 10
5.814599
 20
56.653621
 30
0.0
 10
5.838586
 20
56.635391
 30
0.0
 10
5.867874
 20
56.625501
 30
0.0
 10
5.898002
 20
56.625455
 30
0.0
  0
SPLINE
  5
1a9
100
AcDbEntity
  8
Layer_1
 62
7
100
AcDbSpline
 70
8
 71
3
 72
8
 73
4
 74
0
 40
0
 40
0
 40
0
 40
0
 40
1
 40
1
 40
1
 40
1
 10
5.898002
 20
56.625455
 30
0.0
 10
5.974303
 20
56.625424
 30
0.0
 10
6.036189
 20
56.687247
 30
0.0
 10
6.036234
 20
56.763550
 30
0.0
  0
SPLINE
  5
1aa
100
AcDbEntity
  8
Layer_1
 62
7
100
AcDbSpline
 70
8
 71
3
 72
8
 73
4
 74
0
 40
0
 40
0
 40
0
 40
0
 40
1
 40
1
 40
1
 40
1
 10
6.036234
 20
56.763550
 30
0.0
 10
6.036263
 20
56.839906
 30
0.0
 10
5.974358
 20
56.901813
 30
0.0
 10
5.898002
 20
56.901781
 30
0.0
  0
LWPOLYLINE
  5
1ab
100
AcDbEntity
  8
Layer_1
 62
7
100
AcDbPolyline
 90
35
 70
0
 10
5.767428
 20
56.718704
 30
0.0
 10
5.690997
 20
56.642273
 30
0.0
 10
5.690997
 20
54.626777
 30
0.0
 10
5.549758
 20
54.485401
 30
0.0
 10
5.549758
 20
52.469905
 30
0.0
 10
5.408382
 20
52.328529
 30
0.0
 10
5.408382
 20
50.313033
 30
0.0
 10
5.267143
 20
50.171657
 30
0.0
 10
5.267143
 20
48.156024
 30
0.0
 10
5.125767
 20
48.014785
 30
0.0
 10
5.125767
 20
45.999152
 30
0.0
 10
4.984528
 20
45.857913
 30
0.0
 10
4.984528
 20
43.842281
 30
0.0
 10
4.843152
 20
43.701041
 30
0.0
 10
4.843152
 20
37.788683
 30
0.0
 10
4.765901
 20
37.582771
 30
0.0
 10
4.765901
 20
37.071685
 30
0.0
 10
4.845339
 20
37.071685
 30
0.0
 10
4.845339
 20
37.137861
 30
0.0
 10
4.845339
 20
37.559938
 30
0.0
 10
4.922590
 20
37.765712
 30
0.0
 10
4.922590
 20
43.668089
 30
0.0
 10
5.063830
 20
43.809466
 30
0.0
 10
5.063830
 20
45.824962
 30
0.0
 10
5.205205
 20
45.966337
 30
0.0
 10
5.205205
 20
47.981834
 30
0.0
 10
5.346445
 20
48.123210
 30
0.0
 10
5.346445
 20
50.138843
 30
0.0
 10
5.487821
 20
50.280082
 30
0.0
 10
5.487821
 20
52.295714
 30
0.0
 10
5.629060
 20
52.436953
 30
0.0
 10
5.629060
 20
54.452586
 30
0.0
 10
5.770436
 20
54.593826
 30
0.0
 10
5.770436
 20
56.609458
 30
0.0
 10
5.814599
 20
56.653621
 30
0.0
  0
LWPOLYLINE
  5
1ac
100
AcDbEntity
  8
Layer_1
 62
7
100
AcDbPolyline
 90
1
 70
1
 10
5.898002
 20
56.901781
 30
0.0
  0
LWPOLYLINE
  5
1ad
100
AcDbEntity
  8
Layer_1
 62
7
100
AcDbPolyline
 90
5
 70
1
 10
9.610147
 20
55.449465
 30
0.0
 10
9.018938
 20
54.309023
 30
0.0
 10
9.610147
 20
53.168581
 30
0.0
 10
10.191237
 20
54.309023
 30
0.0
 10
9.610147
 20
55.449465
 30
0.0
  0
LWPOLYLINE
  5
1ae
100
AcDbEntity
  8
Layer_1
 62
7
100
AcDbPolyline
 90
5
 70
1
 10
6.991273
 20
55.448098
 30
0.0
 10
6.389263
 20
54.307656
 30
0.0
 10
6.991273
 20
53.167213
 30
0.0
 10
7.572227
 20
54.307656
 30
0.0
 10
6.991273
 20
55.448098
 30
0.0
  0
LWPOLYLINE
  5
1af
100
AcDbEntity
  8
Layer_1
 62
7
100
AcDbPolyline
 90
5
 70
1
 10
8.303581
 20
55.443038
 30
0.0
 10
7.712372
 20
54.302596
 30
0.0
 10
8.303581
 20
53.162155
 30
0.0
 10
8.884535
 20
54.302596
 30
0.0
 10
8.303581
 20
55.443038
 30
0.0
  0
LWPOLYLINE
  5
1b0
100
AcDbEntity
  8
Layer_1
 62
7
100
AcDbPolyline
 90
5
 70
1
 10
12.234899
 20
55.442765
 30
0.0
 10
11.643690
 20
54.302323
 30
0.0
 10
12.234899
 20
53.161745
 30
0.0
 10
12.815853
 20
54.302323
 30
0.0
 10
12.234899
 20
55.442765
 30
0.0
  0
SPLINE
  5
1b1
100
AcDbEntity
  8
Layer_1
 62
7
100
AcDbSpline
 70
8
 71
3
 72
8
 73
4
 74
0
 40
0
 40
0
 40
0
 40
0
 40
1
 40
1
 40
1
 40
1
 10
5.901010
 20
54.445613
 30
0.0
 10
5.824707
 20
54.445568
 30
0.0
 10
5.762884
 20
54.383684
 30
0.0
 10
5.762916
 20
54.307382
 30
0.0
  0
SPLINE
  5
1b2
100
AcDbEntity
  8
Layer_1
 62
7
100
AcDbSpline
 70
8
 71
3
 72
8
 73
4
 74
0
 40
0
 40
0
 40
0
 40
0
 40
1
 40
1
 40
1
 40
1
 10
5.762916
 20
54.307382
 30
0.0
 10
5.762916
 20
54.292120
 30
0.0
 10
5.765462
 20
54.276966
 30
0.0
 10
5.770436
 20
54.262536
 30
0.0
  0
LWPOLYLINE
  5
1b3
100
AcDbEntity
  8
Layer_1
 62
7
100
AcDbPolyline
 90
5
 70
1
 10
10.924642
 20
55.441398
 30
0.0
 10
10.333434
 20
54.300956
 30
0.0
 10
10.924642
 20
53.160514
 30
0.0
 10
11.505596
 20
54.300956
 30
0.0
 10
10.924642
 20
55.441398
 30
0.0
  0
SPLINE
  5
1b4
100
AcDbEntity
  8
Layer_1
 62
7
100
AcDbSpline
 70
8
 71
3
 72
8
 73
4
 74
0
 40
0
 40
0
 40
0
 40
0
 40
1
 40
1
 40
1
 40
1
 10
5.817607
 20
54.197453
 30
0.0
 10
5.841594
 20
54.179223
 30
0.0
 10
5.870880
 20
54.169333
 30
0.0
 10
5.901010
 20
54.169288
 30
0.0
  0
SPLINE
  5
1b5
100
AcDbEntity
  8
Layer_1
 62
7
100
AcDbSpline
 70
8
 71
3
 72
8
 73
4
 74
0
 40
0
 40
0
 40
0
 40
0
 40
1
 40
1
 40
1
 40
1
 10
5.901010
 20
54.169288
 30
0.0
 10
5.977311
 20
54.169256
 30
0.0
 10
6.039199
 20
54.231079
 30
0.0
 10
6.039242
 20
54.307382
 30
0.0
  0
SPLINE
  5
1b6
100
AcDbEntity
  8
Layer_1
 62
7
100
AcDbSpline
 70
8
 71
3
 72
8
 73
4
 74
0
 40
0
 40
0
 40
0
 40
0
 40
1
 40
1
 40
1
 40
1
 10
6.039242
 20
54.307382
 30
0.0
 10
6.039273
 20
54.383738
 30
0.0
 10
5.977364
 20
54.445645
 30
0.0
 10
5.901010
 20
54.445613
 30
0.0
  0
LWPOLYLINE
  5
1b7
100
AcDbEntity
  8
Layer_1
 62
7
100
AcDbPolyline
 90
32
 70
0
 10
5.770436
 20
54.262536
 30
0.0
 10
5.694005
 20
54.186105
 30
0.0
 10
5.694005
 20
52.170609
 30
0.0
 10
5.552766
 20
52.029233
 30
0.0
 10
5.552766
 20
50.013737
 30
0.0
 10
5.411390
 20
49.872361
 30
0.0
 10
5.411390
 20
47.856865
 30
0.0
 10
5.270151
 20
47.715489
 30
0.0
 10
5.270151
 20
45.699993
 30
0.0
 10
5.128775
 20
45.558617
 30
0.0
 10
5.128775
 20
43.542985
 30
0.0
 10
4.987536
 20
43.401745
 30
0.0
 10
4.987536
 20
37.747117
 30
0.0
 10
4.898526
 20
37.585095
 30
0.0
 10
4.898253
 20
37.585095
 30
0.0
 10
4.898253
 20
37.071685
 30
0.0
 10
4.977691
 20
37.071685
 30
0.0
 10
4.977691
 20
37.137861
 30
0.0
 10
4.977691
 20
37.581404
 30
0.0
 10
5.066838
 20
37.743562
 30
0.0
 10
5.066838
 20
43.368794
 30
0.0
 10
5.208214
 20
43.510169
 30
0.0
 10
5.208214
 20
45.525666
 30
0.0
 10
5.349453
 20
45.667042
 30
0.0
 10
5.349453
 20
47.682674
 30
0.0
 10
5.490829
 20
47.823914
 30
0.0
 10
5.490829
 20
49.839547
 30
0.0
 10
5.632068
 20
49.980786
 30
0.0
 10
5.632068
 20
51.996418
 30
0.0
 10
5.773444
 20
52.137658
 30
0.0
 10
5.773444
 20
54.153290
 30
0.0
 10
5.817607
 20
54.197453
 30
0.0
  0
LWPOLYLINE
  5
1b8
100
AcDbEntity
  8
Layer_1
 62
7
100
AcDbPolyline
 90
1
 70
1
 10
5.901010
 20
54.445613
 30
0.0
  0
LWPOLYLINE
  5
1b9
100
AcDbEntity
  8
Layer_1
 62
7
100
AcDbPolyline
 90
5
 70
1
 10
9.610147
 20
52.988511
 30
0.0
 10
9.018938
 20
51.848069
 30
0.0
 10
9.610147
 20
50.707628
 30
0.0
 10
10.191237
 20
51.848069
 30
0.0
 10
9.610147
 20
52.988511
 30
0.0
  0
LWPOLYLINE
  5
1ba
100
AcDbEntity
  8
Layer_1
 62
7
100
AcDbPolyline
 90
5
 70
1
 10
6.991273
 20
52.987144
 30
0.0
 10
6.389263
 20
51.846702
 30
0.0
 10
6.991273
 20
50.706261
 30
0.0
 10
7.572227
 20
51.846702
 30
0.0
 10
6.991273
 20
52.987144
 30
0.0
  0
LWPOLYLINE
  5
1bb
100
AcDbEntity
  8
Layer_1
 62
7
100
AcDbPolyline
 90
5
 70
1
 10
8.303581
 20
52.982085
 30
0.0
 10
7.712372
 20
51.841643
 30
0.0
 10
8.303581
 20
50.701201
 30
0.0
 10
8.884535
 20
51.841643
 30
0.0
 10
8.303581
 20
52.982085
 30
0.0
  0
LWPOLYLINE
  5
1bc
100
AcDbEntity
  8
Layer_1
 62
7
100
AcDbPolyline
 90
5
 70
1
 10
12.234899
 20
52.981948
 30
0.0
 10
11.643690
 20
51.841506
 30
0.0
 10
12.234899
 20
50.700928
 30
0.0
 10
12.815853
 20
51.841506
 30
0.0
 10
12.234899
 20
52.981948
 30
0.0
  0
SPLINE
  5
1bd
100
AcDbEntity
  8
Layer_1
 62
7
100
AcDbSpline
 70
8
 71
3
 72
8
 73
4
 74
0
 40
0
 40
0
 40
0
 40
0
 40
1
 40
1
 40
1
 40
1
 10
5.897729
 20
51.989309
 30
0.0
 10
5.821428
 20
51.989264
 30
0.0
 10
5.759603
 20
51.927381
 30
0.0
 10
5.759634
 20
51.851077
 30
0.0
  0
SPLINE
  5
1be
100
AcDbEntity
  8
Layer_1
 62
7
100
AcDbSpline
 70
8
 71
3
 72
8
 73
4
 74
0
 40
0
 40
0
 40
0
 40
0
 40
1
 40
1
 40
1
 40
1
 10
5.759634
 20
51.851077
 30
0.0
 10
5.759634
 20
51.835816
 30
0.0
 10
5.762180
 20
51.820651
 30
0.0
 10
5.767154
 20
51.806231
 30
0.0
  0
LWPOLYLINE
  5
1bf
100
AcDbEntity
  8
Layer_1
 62
7
100
AcDbPolyline
 90
5
 70
1
 10
10.924642
 20
52.980581
 30
0.0
 10
10.333434
 20
51.840139
 30
0.0
 10
10.924642
 20
50.699698
 30
0.0
 10
11.505596
 20
51.840139
 30
0.0
 10
10.924642
 20
52.980581
 30
0.0
  0
SPLINE
  5
1c0
100
AcDbEntity
  8
Layer_1
 62
7
100
AcDbSpline
 70
8
 71
3
 72
8
 73
4
 74
0
 40
0
 40
0
 40
0
 40
0
 40
1
 40
1
 40
1
 40
1
 10
5.814325
 20
51.741149
 30
0.0
 10
5.838312
 20
51.722903
 30
0.0
 10
5.867601
 20
51.713028
 30
0.0
 10
5.897729
 20
51.712983
 30
0.0
  0
SPLINE
  5
1c1
100
AcDbEntity
  8
Layer_1
 62
7
100
AcDbSpline
 70
8
 71
3
 72
8
 73
4
 74
0
 40
0
 40
0
 40
0
 40
0
 40
1
 40
1
 40
1
 40
1
 10
5.897729
 20
51.712983
 30
0.0
 10
5.974032
 20
51.712951
 30
0.0
 10
6.035918
 20
51.774777
 30
0.0
 10
6.035960
 20
51.851077
 30
0.0
  0
SPLINE
  5
1c2
100
AcDbEntity
  8
Layer_1
 62
7
100
AcDbSpline
 70
8
 71
3
 72
8
 73
4
 74
0
 40
0
 40
0
 40
0
 40
0
 40
1
 40
1
 40
1
 40
1
 10
6.035960
 20
51.851077
 30
0.0
 10
6.035992
 20
51.927434
 30
0.0
 10
5.974085
 20
51.989341
 30
0.0
 10
5.897729
 20
51.989309
 30
0.0
  0
LWPOLYLINE
  5
1c3
100
AcDbEntity
  8
Layer_1
 62
7
100
AcDbPolyline
 90
28
 70
0
 10
5.767154
 20
51.806231
 30
0.0
 10
5.690724
 20
51.729800
 30
0.0
 10
5.690724
 20
49.714168
 30
0.0
 10
5.549485
 20
49.572928
 30
0.0
 10
5.549485
 20
47.557433
 30
0.0
 10
5.408245
 20
47.416057
 30
0.0
 10
5.408245
 20
45.400560
 30
0.0
 10
5.266869
 20
45.259184
 30
0.0
 10
5.266869
 20
43.243688
 30
0.0
 10
5.125630
 20
43.102312
 30
0.0
 10
5.125630
 20
37.757508
 30
0.0
 10
5.030468
 20
37.588650
 30
0.0
 10
5.030468
 20
37.071548
 30
0.0
 10
5.109907
 20
37.071548
 30
0.0
 10
5.109907
 20
37.137724
 30
0.0
 10
5.109907
 20
37.577029
 30
0.0
 10
5.204932
 20
37.745887
 30
0.0
 10
5.204932
 20
43.069498
 30
0.0
 10
5.346308
 20
43.210737
 30
0.0
 10
5.346308
 20
45.226370
 30
0.0
 10
5.487547
 20
45.367609
 30
0.0
 10
5.487547
 20
47.383242
 30
0.0
 10
5.628923
 20
47.524481
 30
0.0
 10
5.628923
 20
49.540114
 30
0.0
 10
5.770162
 20
49.681353
 30
0.0
 10
5.770162
 20
49.681490
 30
0.0
 10
5.770162
 20
51.696986
 30
0.0
 10
5.814325
 20
51.741149
 30
0.0
  0
LWPOLYLINE
  5
1c4
100
AcDbEntity
  8
Layer_1
 62
7
100
AcDbPolyline
 90
1
 70
1
 10
5.897729
 20
51.989309
 30
0.0
  0
LWPOLYLINE
  5
1c5
100
AcDbEntity
  8
Layer_1
 62
7
100
AcDbPolyline
 90
5
 70
1
 10
6.991273
 20
50.527831
 30
0.0
 10
6.389263
 20
49.387389
 30
0.0
 10
6.991273
 20
48.246948
 30
0.0
 10
7.572227
 20
49.387389
 30
0.0
 10
6.991273
 20
50.527831
 30
0.0
  0
LWPOLYLINE
  5
1c6
100
AcDbEntity
  8
Layer_1
 62
7
100
AcDbPolyline
 90
5
 70
1
 10
9.610147
 20
50.527831
 30
0.0
 10
9.018938
 20
49.387389
 30
0.0
 10
9.610147
 20
48.246948
 30
0.0
 10
10.191237
 20
49.387389
 30
0.0
 10
9.610147
 20
50.527831
 30
0.0
  0
LWPOLYLINE
  5
1c7
100
AcDbEntity
  8
Layer_1
 62
7
100
AcDbPolyline
 90
5
 70
1
 10
8.303581
 20
50.522772
 30
0.0
 10
7.712372
 20
49.382331
 30
0.0
 10
8.303581
 20
48.241889
 30
0.0
 10
8.884535
 20
49.382331
 30
0.0
 10
8.303581
 20
50.522772
 30
0.0
  0
LWPOLYLINE
  5
1c8
100
AcDbEntity
  8
Layer_1
 62
7
100
AcDbPolyline
 90
5
 70
1
 10
12.234899
 20
50.522636
 30
0.0
 10
11.643690
 20
49.382194
 30
0.0
 10
12.234899
 20
48.241616
 30
0.0
 10
12.815853
 20
49.382194
 30
0.0
 10
12.234899
 20
50.522636
 30
0.0
  0
SPLINE
  5
1c9
100
AcDbEntity
  8
Layer_1
 62
7
100
AcDbSpline
 70
8
 71
3
 72
8
 73
4
 74
0
 40
0
 40
0
 40
0
 40
0
 40
1
 40
1
 40
1
 40
1
 10
5.900463
 20
49.520152
 30
0.0
 10
5.824224
 20
49.520031
 30
0.0
 10
5.762474
 20
49.458177
 30
0.0
 10
5.762506
 20
49.381921
 30
0.0
  0
SPLINE
  5
1ca
100
AcDbEntity
  8
Layer_1
 62
7
100
AcDbSpline
 70
8
 71
3
 72
8
 73
4
 74
0
 40
0
 40
0
 40
0
 40
0
 40
1
 40
1
 40
1
 40
1
 10
5.762506
 20
49.381921
 30
0.0
 10
5.762506
 20
49.366659
 30
0.0
 10
5.765051
 20
49.351494
 30
0.0
 10
5.770026
 20
49.337074
 30
0.0
  0
LWPOLYLINE
  5
1cb
100
AcDbEntity
  8
Layer_1
 62
7
100
AcDbPolyline
 90
5
 70
1
 10
10.924642
 20
50.520038
 30
0.0
 10
10.333434
 20
49.379596
 30
0.0
 10
10.924642
 20
48.239154
 30
0.0
 10
11.505596
 20
49.379596
 30
0.0
 10
10.924642
 20
50.520038
 30
0.0
  0
SPLINE
  5
1cc
100
AcDbEntity
  8
Layer_1
 62
7
100
AcDbSpline
 70
8
 71
3
 72
8
 73
4
 74
0
 40
0
 40
0
 40
0
 40
0
 40
1
 40
1
 40
1
 40
1
 10
5.817060
 20
49.271992
 30
0.0
 10
5.841047
 20
49.253749
 30
0.0
 10
5.870335
 20
49.243869
 30
0.0
 10
5.900463
 20
49.243826
 30
0.0
  0
SPLINE
  5
1cd
100
AcDbEntity
  8
Layer_1
 62
7
100
AcDbSpline
 70
8
 71
3
 72
8
 73
4
 74
0
 40
0
 40
0
 40
0
 40
0
 40
1
 40
1
 40
1
 40
1
 10
5.900463
 20
49.243826
 30
0.0
 10
5.976767
 20
49.243794
 30
0.0
 10
6.038650
 20
49.305617
 30
0.0
 10
6.038695
 20
49.381921
 30
0.0
  0
SPLINE
  5
1ce
100
AcDbEntity
  8
Layer_1
 62
7
100
AcDbSpline
 70
8
 71
3
 72
8
 73
4
 74
0
 40
0
 40
0
 40
0
 40
0
 40
1
 40
1
 40
1
 40
1
 10
6.038695
 20
49.381921
 30
0.0
 10
6.038726
 20
49.458227
 30
0.0
 10
5.976892
 20
49.520108
 30
0.0
 10
5.900600
 20
49.520152
 30
0.0
  0
LWPOLYLINE
  5
1cf
100
AcDbEntity
  8
Layer_1
 62
7
100
AcDbPolyline
 90
32
 70
0
 10
5.770026
 20
49.337074
 30
0.0
 10
5.693595
 20
49.260644
 30
0.0
 10
5.693595
 20
47.245147
 30
0.0
 10
5.552356
 20
47.103771
 30
0.0
 10
5.552356
 20
45.088275
 30
0.0
 10
5.410980
 20
44.946899
 30
0.0
 10
5.410980
 20
42.931404
 30
0.0
 10
5.269741
 20
42.790028
 30
0.0
 10
5.269741
 20
38.248769
 30
0.0
 10
5.580112
 20
37.938399
 30
0.0
 10
5.580248
 20
37.938535
 30
0.0
 10
5.717522
 20
37.801261
 30
0.0
 10
5.717522
 20
37.106550
 30
0.0
 10
5.593784
 20
36.982675
 30
0.0
 10
5.473601
 20
36.982675
 30
0.0
 10
5.473601
 20
36.903237
 30
0.0
 10
5.624958
 20
36.903237
 30
0.0
 10
5.796961
 20
37.075240
 30
0.0
 10
5.796961
 20
37.829837
 30
0.0
 10
5.796414
 20
37.829837
 30
0.0
 10
5.798738
 20
37.832298
 30
0.0
 10
5.488368
 20
38.142669
 30
0.0
 10
5.488094
 20
38.142396
 30
0.0
 10
5.348906
 20
38.281584
 30
0.0
 10
5.348906
 20
42.757076
 30
0.0
 10
5.490282
 20
42.898452
 30
0.0
 10
5.490282
 20
44.914085
 30
0.0
 10
5.631521
 20
45.055324
 30
0.0
 10
5.631521
 20
47.070957
 30
0.0
 10
5.772897
 20
47.212196
 30
0.0
 10
5.772897
 20
49.227829
 30
0.0
 10
5.817060
 20
49.271992
 30
0.0
  0
LWPOLYLINE
  5
1d0
100
AcDbEntity
  8
Layer_1
 62
7
100
AcDbPolyline
 90
3
 70
0
 10
5.900600
 20
49.520152
 30
0.0
 10
5.900463
 20
49.520152
 30
0.0
 10
5.900463
 20
49.520152
 30
0.0
  0
LWPOLYLINE
  5
1d1
100
AcDbEntity
  8
Layer_1
 62
7
100
AcDbPolyline
 90
5
 70
1
 10
9.610147
 20
48.067288
 30
0.0
 10
9.018938
 20
46.926847
 30
0.0
 10
9.610147
 20
45.786405
 30
0.0
 10
10.191237
 20
46.926847
 30
0.0
 10
9.610147
 20
48.067288
 30
0.0
  0
LWPOLYLINE
  5
1d2
100
AcDbEntity
  8
Layer_1
 62
7
100
AcDbPolyline
 90
5
 70
1
 10
6.991273
 20
48.065921
 30
0.0
 10
6.389263
 20
46.925479
 30
0.0
 10
6.991273
 20
45.785037
 30
0.0
 10
7.572227
 20
46.925479
 30
0.0
 10
6.991273
 20
48.065921
 30
0.0
  0
LWPOLYLINE
  5
1d3
100
AcDbEntity
  8
Layer_1
 62
7
100
AcDbPolyline
 90
5
 70
1
 10
8.303581
 20
48.060862
 30
0.0
 10
7.712372
 20
46.920420
 30
0.0
 10
8.303581
 20
45.779978
 30
0.0
 10
8.884535
 20
46.920420
 30
0.0
 10
8.303581
 20
48.060862
 30
0.0
  0
LWPOLYLINE
  5
1d4
100
AcDbEntity
  8
Layer_1
 62
7
100
AcDbPolyline
 90
5
 70
1
 10
12.234899
 20
48.060725
 30
0.0
 10
11.643690
 20
46.920284
 30
0.0
 10
12.234899
 20
45.779705
 30
0.0
 10
12.815853
 20
46.920284
 30
0.0
 10
12.234899
 20
48.060725
 30
0.0
  0
SPLINE
  5
1d5
100
AcDbEntity
  8
Layer_1
 62
7
100
AcDbSpline
 70
8
 71
3
 72
8
 73
4
 74
0
 40
0
 40
0
 40
0
 40
0
 40
1
 40
1
 40
1
 40
1
 10
5.897182
 20
47.061249
 30
0.0
 10
5.820879
 20
47.061204
 30
0.0
 10
5.759058
 20
46.999322
 30
0.0
 10
5.759087
 20
46.923018
 30
0.0
  0
SPLINE
  5
1d6
100
AcDbEntity
  8
Layer_1
 62
7
100
AcDbSpline
 70
8
 71
3
 72
8
 73
4
 74
0
 40
0
 40
0
 40
0
 40
0
 40
1
 40
1
 40
1
 40
1
 10
5.759087
 20
46.923018
 30
0.0
 10
5.759087
 20
46.907712
 30
0.0
 10
5.761633
 20
46.892507
 30
0.0
 10
5.766607
 20
46.878035
 30
0.0
  0
LWPOLYLINE
  5
1d7
100
AcDbEntity
  8
Layer_1
 62
7
100
AcDbPolyline
 90
5
 70
1
 10
10.924642
 20
48.059495
 30
0.0
 10
10.333434
 20
46.919053
 30
0.0
 10
10.924642
 20
45.778611
 30
0.0
 10
11.505596
 20
46.919053
 30
0.0
 10
10.924642
 20
48.059495
 30
0.0
  0
SPLINE
  5
1d8
100
AcDbEntity
  8
Layer_1
 62
7
100
AcDbSpline
 70
8
 71
3
 72
8
 73
4
 74
0
 40
0
 40
0
 40
0
 40
0
 40
1
 40
1
 40
1
 40
1
 10
5.813778
 20
46.812816
 30
0.0
 10
5.837784
 20
46.794628
 30
0.0
 10
5.867067
 20
46.784792
 30
0.0
 10
5.897182
 20
46.784787
 30
0.0
  0
SPLINE
  5
1d9
100
AcDbEntity
  8
Layer_1
 62
7
100
AcDbSpline
 70
8
 71
3
 72
8
 73
4
 74
0
 40
0
 40
0
 40
0
 40
0
 40
1
 40
1
 40
1
 40
1
 10
5.897182
 20
46.784787
 30
0.0
 10
5.973485
 20
46.784758
 30
0.0
 10
6.035368
 20
46.846576
 30
0.0
 10
6.035413
 20
46.922881
 30
0.0
  0
SPLINE
  5
1da
100
AcDbEntity
  8
Layer_1
 62
7
100
AcDbSpline
 70
8
 71
3
 72
8
 73
4
 74
0
 40
0
 40
0
 40
0
 40
0
 40
1
 40
1
 40
1
 40
1
 10
6.035413
 20
46.922881
 30
0.0
 10
6.035445
 20
46.999235
 30
0.0
 10
5.973538
 20
47.061147
 30
0.0
 10
5.897182
 20
47.061112
 30
0.0
  0
LWPOLYLINE
  5
1db
100
AcDbEntity
  8
Layer_1
 62
7
100
AcDbPolyline
 90
35
 70
0
 10
5.766607
 20
46.878035
 30
0.0
 10
5.690177
 20
46.801741
 30
0.0
 10
5.690177
 20
44.785971
 30
0.0
 10
5.548938
 20
44.644733
 30
0.0
 10
5.548938
 20
42.629236
 30
0.0
 10
5.407698
 20
42.487860
 30
0.0
 10
5.407698
 20
38.342565
 30
0.0
 10
5.406878
 20
38.341744
 30
0.0
 10
5.590093
 20
38.158666
 30
0.0
 10
5.589956
 20
38.158529
 30
0.0
 10
5.876263
 20
37.872086
 30
0.0
 10
5.876263
 20
37.061293
 30
0.0
 10
5.728324
 20
36.913491
 30
0.0
 10
5.728871
 20
36.913081
 30
0.0
 10
5.666386
 20
36.850597
 30
0.0
 10
5.473601
 20
36.850597
 30
0.0
 10
5.473601
 20
36.771158
 30
0.0
 10
5.697697
 20
36.771158
 30
0.0
 10
5.869700
 20
36.943025
 30
0.0
 10
5.869153
 20
36.943435
 30
0.0
 10
5.955701
 20
37.029983
 30
0.0
 10
5.955701
 20
37.903260
 30
0.0
 10
5.956522
 20
37.904080
 30
0.0
 10
5.955701
 20
37.904900
 30
0.0
 10
5.955701
 20
37.906267
 30
0.0
 10
5.954334
 20
37.906267
 30
0.0
 10
5.773307
 20
38.087158
 30
0.0
 10
5.773444
 20
38.087294
 30
0.0
 10
5.487000
 20
38.373875
 30
0.0
 10
5.487000
 20
42.454909
 30
0.0
 10
5.628376
 20
42.596148
 30
0.0
 10
5.628376
 20
44.611781
 30
0.0
 10
5.769615
 20
44.753157
 30
0.0
 10
5.769615
 20
46.768790
 30
0.0
 10
5.813778
 20
46.812816
 30
0.0
  0
LWPOLYLINE
  5
1dc
100
AcDbEntity
  8
Layer_1
 62
7
100
AcDbPolyline
 90
3
 70
0
 10
5.897182
 20
47.061112
 30
0.0
 10
5.897182
 20
47.061249
 30
0.0
 10
5.897182
 20
47.061249
 30
0.0
  0
LWPOLYLINE
  5
1dd
100
AcDbEntity
  8
Layer_1
 62
7
100
AcDbPolyline
 90
5
 70
1
 10
9.610147
 20
45.606745
 30
0.0
 10
9.018938
 20
44.466303
 30
0.0
 10
9.610147
 20
43.325861
 30
0.0
 10
10.191237
 20
44.466303
 30
0.0
 10
9.610147
 20
45.606745
 30
0.0
  0
LWPOLYLINE
  5
1de
100
AcDbEntity
  8
Layer_1
 62
7
100
AcDbPolyline
 90
5
 70
1
 10
6.991273
 20
45.605378
 30
0.0
 10
6.389263
 20
44.464936
 30
0.0
 10
6.991273
 20
43.324494
 30
0.0
 10
7.572227
 20
44.464936
 30
0.0
 10
6.991273
 20
45.605378
 30
0.0
  0
LWPOLYLINE
  5
1df
100
AcDbEntity
  8
Layer_1
 62
7
100
AcDbPolyline
 90
5
 70
1
 10
8.303581
 20
45.600456
 30
0.0
 10
7.712372
 20
44.460014
 30
0.0
 10
8.303581
 20
43.319572
 30
0.0
 10
8.884535
 20
44.460014
 30
0.0
 10
8.303581
 20
45.600456
 30
0.0
  0
LWPOLYLINE
  5
1e0
100
AcDbEntity
  8
Layer_1
 62
7
100
AcDbPolyline
 90
5
 70
1
 10
12.234899
 20
45.600319
 30
0.0
 10
11.643690
 20
44.459740
 30
0.0
 10
12.234899
 20
43.319162
 30
0.0
 10
12.815853
 20
44.459740
 30
0.0
 10
12.234899
 20
45.600319
 30
0.0
  0
SPLINE
  5
1e1
100
AcDbEntity
  8
Layer_1
 62
7
100
AcDbSpline
 70
8
 71
3
 72
8
 73
4
 74
0
 40
0
 40
0
 40
0
 40
0
 40
1
 40
1
 40
1
 40
1
 10
5.894858
 20
44.600980
 30
0.0
 10
5.818618
 20
44.600859
 30
0.0
 10
5.756868
 20
44.539005
 30
0.0
 10
5.756900
 20
44.462749
 30
0.0
  0
SPLINE
  5
1e2
100
AcDbEntity
  8
Layer_1
 62
7
100
AcDbSpline
 70
8
 71
3
 72
8
 73
4
 74
0
 40
0
 40
0
 40
0
 40
0
 40
1
 40
1
 40
1
 40
1
 10
5.756900
 20
44.462749
 30
0.0
 10
5.756900
 20
44.447487
 30
0.0
 10
5.759446
 20
44.432322
 30
0.0
 10
5.764420
 20
44.417902
 30
0.0
  0
LWPOLYLINE
  5
1e3
100
AcDbEntity
  8
Layer_1
 62
7
100
AcDbPolyline
 90
5
 70
1
 10
10.924642
 20
45.598952
 30
0.0
 10
10.333434
 20
44.458510
 30
0.0
 10
10.924642
 20
43.318068
 30
0.0
 10
11.505596
 20
44.458510
 30
0.0
 10
10.924642
 20
45.598952
 30
0.0
  0
SPLINE
  5
1e4
100
AcDbEntity
  8
Layer_1
 62
7
100
AcDbSpline
 70
8
 71
3
 72
8
 73
4
 74
0
 40
0
 40
0
 40
0
 40
0
 40
1
 40
1
 40
1
 40
1
 10
5.811454
 20
44.352819
 30
0.0
 10
5.835441
 20
44.334577
 30
0.0
 10
5.864729
 20
44.324699
 30
0.0
 10
5.894858
 20
44.324654
 30
0.0
  0
SPLINE
  5
1e5
100
AcDbEntity
  8
Layer_1
 62
7
100
AcDbSpline
 70
8
 71
3
 72
8
 73
4
 74
0
 40
0
 40
0
 40
0
 40
0
 40
1
 40
1
 40
1
 40
1
 10
5.894858
 20
44.324654
 30
0.0
 10
5.971161
 20
44.324624
 30
0.0
 10
6.033044
 20
44.386445
 30
0.0
 10
6.033089
 20
44.462749
 30
0.0
  0
SPLINE
  5
1e6
100
AcDbEntity
  8
Layer_1
 62
7
100
AcDbSpline
 70
8
 71
3
 72
8
 73
4
 74
0
 40
0
 40
0
 40
0
 40
0
 40
1
 40
1
 40
1
 40
1
 10
6.033089
 20
44.462749
 30
0.0
 10
6.033121
 20
44.539058
 30
0.0
 10
5.971287
 20
44.600939
 30
0.0
 10
5.894994
 20
44.600980
 30
0.0
  0
LWPOLYLINE
  5
1e7
100
AcDbEntity
  8
Layer_1
 62
7
100
AcDbPolyline
 90
27
 70
0
 10
5.764420
 20
44.417902
 30
0.0
 10
5.687989
 20
44.341471
 30
0.0
 10
5.687989
 20
42.325839
 30
0.0
 10
5.546750
 20
42.184462
 30
0.0
 10
5.546750
 20
38.414073
 30
0.0
 10
5.748286
 20
38.212674
 30
0.0
 10
5.857258
 20
38.103702
 30
0.0
 10
6.037601
 20
37.923358
 30
0.0
 10
6.037601
 20
37.013849
 30
0.0
 10
5.889799
 20
36.865911
 30
0.0
 10
5.741860
 20
36.718108
 30
0.0
 10
5.473601
 20
36.718108
 30
0.0
 10
5.473601
 20
36.638669
 30
0.0
 10
5.773170
 20
36.638669
 30
0.0
 10
5.945173
 20
36.810536
 30
0.0
 10
6.117039
 20
36.982538
 30
0.0
 10
6.117039
 20
37.958224
 30
0.0
 10
6.114578
 20
37.958224
 30
0.0
 10
6.114715
 20
37.958360
 30
0.0
 10
5.804344
 20
38.268868
 30
0.0
 10
5.804207
 20
38.268732
 30
0.0
 10
5.625915
 20
38.446887
 30
0.0
 10
5.625915
 20
42.151648
 30
0.0
 10
5.767291
 20
42.292887
 30
0.0
 10
5.767291
 20
42.293024
 30
0.0
 10
5.767291
 20
44.308520
 30
0.0
 10
5.811454
 20
44.352819
 30
0.0
  0
LWPOLYLINE
  5
1e8
100
AcDbEntity
  8
Layer_1
 62
7
100
AcDbPolyline
 90
3
 70
0
 10
5.894994
 20
44.600980
 30
0.0
 10
5.894858
 20
44.600980
 30
0.0
 10
5.894858
 20
44.600980
 30
0.0
  0
LWPOLYLINE
  5
1e9
100
AcDbEntity
  8
Layer_1
 62
7
100
AcDbPolyline
 90
5
 70
1
 10
9.610147
 20
43.146202
 30
0.0
 10
9.018938
 20
42.005760
 30
0.0
 10
9.610147
 20
40.865319
 30
0.0
 10
10.191237
 20
42.005760
 30
0.0
 10
9.610147
 20
43.146202
 30
0.0
  0
LWPOLYLINE
  5
1ea
100
AcDbEntity
  8
Layer_1
 62
7
100
AcDbPolyline
 90
5
 70
1
 10
6.991273
 20
43.144971
 30
0.0
 10
6.389263
 20
42.004529
 30
0.0
 10
6.991273
 20
40.864088
 30
0.0
 10
7.572227
 20
42.004529
 30
0.0
 10
6.991273
 20
43.144971
 30
0.0
  0
LWPOLYLINE
  5
1eb
100
AcDbEntity
  8
Layer_1
 62
7
100
AcDbPolyline
 90
5
 70
1
 10
8.303581
 20
43.139912
 30
0.0
 10
7.712372
 20
41.999471
 30
0.0
 10
8.303581
 20
40.859029
 30
0.0
 10
8.884535
 20
41.999471
 30
0.0
 10
8.303581
 20
43.139912
 30
0.0
  0
LWPOLYLINE
  5
1ec
100
AcDbEntity
  8
Layer_1
 62
7
100
AcDbPolyline
 90
5
 70
1
 10
12.234899
 20
43.139776
 30
0.0
 10
11.643690
 20
41.999334
 30
0.0
 10
12.234899
 20
40.858755
 30
0.0
 10
12.815853
 20
41.999334
 30
0.0
 10
12.234899
 20
43.139776
 30
0.0
  0
LWPOLYLINE
  5
1ed
100
AcDbEntity
  8
Layer_1
 62
7
100
AcDbPolyline
 90
5
 70
1
 10
10.924642
 20
43.138409
 30
0.0
 10
10.333434
 20
41.997966
 30
0.0
 10
10.924642
 20
40.857525
 30
0.0
 10
11.505596
 20
41.997966
 30
0.0
 10
10.924642
 20
43.138409
 30
0.0
  0
SPLINE
  5
1ee
100
AcDbEntity
  8
Layer_1
 62
7
100
AcDbSpline
 70
8
 71
3
 72
8
 73
4
 74
0
 40
0
 40
0
 40
0
 40
0
 40
1
 40
1
 40
1
 40
1
 10
5.902651
 20
42.150281
 30
0.0
 10
5.826348
 20
42.150236
 30
0.0
 10
5.764525
 20
42.088353
 30
0.0
 10
5.764557
 20
42.012049
 30
0.0
  0
SPLINE
  5
1ef
100
AcDbEntity
  8
Layer_1
 62
7
100
AcDbSpline
 70
8
 71
3
 72
8
 73
4
 74
0
 40
0
 40
0
 40
0
 40
0
 40
1
 40
1
 40
1
 40
1
 10
5.764557
 20
42.012049
 30
0.0
 10
5.764557
 20
41.996788
 30
0.0
 10
5.767102
 20
41.981486
 30
0.0
 10
5.772077
 20
41.967067
 30
0.0
  0
LWPOLYLINE
  5
1f0
100
AcDbEntity
  8
Layer_1
 62
7
100
AcDbPolyline
 90
2
 70
0
 10
5.902514
 20
42.150418
 30
0.0
 10
5.902651
 20
42.150281
 30
0.0
  0
SPLINE
  5
1f1
100
AcDbEntity
  8
Layer_1
 62
7
100
AcDbSpline
 70
8
 71
3
 72
8
 73
4
 74
0
 40
0
 40
0
 40
0
 40
0
 40
1
 40
1
 40
1
 40
1
 10
5.819111
 20
41.902258
 30
0.0
 10
5.843098
 20
41.884012
 30
0.0
 10
5.872386
 20
41.874137
 30
0.0
 10
5.902514
 20
41.874092
 30
0.0
  0
SPLINE
  5
1f2
100
AcDbEntity
  8
Layer_1
 62
7
100
AcDbSpline
 70
8
 71
3
 72
8
 73
4
 74
0
 40
0
 40
0
 40
0
 40
0
 40
1
 40
1
 40
1
 40
1
 10
5.902514
 20
41.874092
 30
0.0
 10
5.978817
 20
41.874060
 30
0.0
 10
6.040701
 20
41.935886
 30
0.0
 10
6.040746
 20
42.012186
 30
0.0
  0
SPLINE
  5
1f3
100
AcDbEntity
  8
Layer_1
 62
7
100
AcDbSpline
 70
8
 71
3
 72
8
 73
4
 74
0
 40
0
 40
0
 40
0
 40
0
 40
1
 40
1
 40
1
 40
1
 10
6.040746
 20
42.012186
 30
0.0
 10
6.040777
 20
42.088542
 30
0.0
 10
5.978870
 20
42.150449
 30
0.0
 10
5.902514
 20
42.150418
 30
0.0
  0
LWPOLYLINE
  5
1f4
100
AcDbEntity
  8
Layer_1
 62
7
100
AcDbPolyline
 90
31
 70
0
 10
5.772077
 20
41.967067
 30
0.0
 10
5.695646
 20
41.890772
 30
0.0
 10
5.695646
 20
39.842325
 30
0.0
 10
5.695646
 20
38.485171
 30
0.0
 10
5.696877
 20
38.485171
 30
0.0
 10
5.696603
 20
38.484897
 30
0.0
 10
6.006974
 20
38.174390
 30
0.0
 10
6.197435
 20
37.983929
 30
0.0
 10
6.197435
 20
36.964491
 30
0.0
 10
6.110476
 20
36.877532
 30
0.0
 10
6.110340
 20
36.877668
 30
0.0
 10
5.938474
 20
36.705803
 30
0.0
 10
5.818154
 20
36.585483
 30
0.0
 10
5.473464
 20
36.585483
 30
0.0
 10
5.473464
 20
36.506044
 30
0.0
 10
5.847823
 20
36.506044
 30
0.0
 10
5.848644
 20
36.505360
 30
0.0
 10
5.993848
 20
36.650565
 30
0.0
 10
6.104734
 20
36.761451
 30
0.0
 10
6.104871
 20
36.761314
 30
0.0
 10
6.276737
 20
36.933317
 30
0.0
 10
6.276737
 20
38.015239
 30
0.0
 10
6.277831
 20
38.016197
 30
0.0
 10
6.276737
 20
38.017290
 30
0.0
 10
6.276737
 20
38.017837
 30
0.0
 10
6.276190
 20
38.017837
 30
0.0
 10
6.063032
 20
38.230858
 30
0.0
 10
5.774948
 20
38.518943
 30
0.0
 10
5.774948
 20
39.842462
 30
0.0
 10
5.774948
 20
41.858095
 30
0.0
 10
5.819111
 20
41.902258
 30
0.0
  0
SPLINE
  5
1f5
100
AcDbEntity
  8
Layer_1
 62
7
100
AcDbSpline
 70
8
 71
3
 72
8
 73
4
 74
0
 40
0
 40
0
 40
0
 40
0
 40
1
 40
1
 40
1
 40
1
 10
5.425336
 20
37.880700
 30
0.0
 10
5.348980
 20
37.880731
 30
0.0
 10
5.287076
 20
37.818824
 30
0.0
 10
5.287105
 20
37.742469
 30
0.0
  0
SPLINE
  5
1f6
100
AcDbEntity
  8
Layer_1
 62
7
100
AcDbSpline
 70
8
 71
3
 72
8
 73
4
 74
0
 40
0
 40
0
 40
0
 40
0
 40
1
 40
1
 40
1
 40
1
 10
5.287105
 20
37.742469
 30
0.0
 10
5.287153
 20
37.712573
 30
0.0
 10
5.296895
 20
37.683504
 30
0.0
 10
5.314861
 20
37.659612
 30
0.0
  0
LWPOLYLINE
  5
1f7
100
AcDbEntity
  8
Layer_1
 62
7
100
AcDbPolyline
 90
1
 70
1
 10
5.902514
 20
42.150418
 30
0.0
  0
SPLINE
  5
1f8
100
AcDbEntity
  8
Layer_1
 62
7
100
AcDbSpline
 70
8
 71
3
 72
8
 73
4
 74
0
 40
0
 40
0
 40
0
 40
0
 40
1
 40
1
 40
1
 40
1
 10
5.378576
 20
37.612578
 30
0.0
 10
5.393564
 20
37.607127
 30
0.0
 10
5.409382
 20
37.604298
 30
0.0
 10
5.425336
 20
37.604237
 30
0.0
  0
SPLINE
  5
1f9
100
AcDbEntity
  8
Layer_1
 62
7
100
AcDbSpline
 70
8
 71
3
 72
8
 73
4
 74
0
 40
0
 40
0
 40
0
 40
0
 40
1
 40
1
 40
1
 40
1
 10
5.425336
 20
37.604237
 30
0.0
 10
5.501639
 20
37.604282
 30
0.0
 10
5.563460
 20
37.666165
 30
0.0
 10
5.563431
 20
37.742469
 30
0.0
  0
SPLINE
  5
1fa
100
AcDbEntity
  8
Layer_1
 62
7
100
AcDbSpline
 70
8
 71
3
 72
8
 73
4
 74
0
 40
0
 40
0
 40
0
 40
0
 40
1
 40
1
 40
1
 40
1
 10
5.563431
 20
37.742469
 30
0.0
 10
5.563460
 20
37.818772
 30
0.0
 10
5.501639
 20
37.880655
 30
0.0
 10
5.425336
 20
37.880700
 30
0.0
  0
LWPOLYLINE
  5
1fb
100
AcDbEntity
  8
Layer_1
 62
7
100
AcDbPolyline
 90
7
 70
0
 10
5.314861
 20
37.659612
 30
0.0
 10
5.162820
 20
37.507571
 30
0.0
 10
5.162820
 20
37.071548
 30
0.0
 10
5.242259
 20
37.071548
 30
0.0
 10
5.242259
 20
37.137724
 30
0.0
 10
5.242259
 20
37.476261
 30
0.0
 10
5.378576
 20
37.612578
 30
0.0
  0
SPLINE
  5
1fc
100
AcDbEntity
  8
Layer_1
 62
7
100
AcDbSpline
 70
8
 71
3
 72
8
 73
4
 74
0
 40
0
 40
0
 40
0
 40
0
 40
1
 40
1
 40
1
 40
1
 10
5.428754
 20
37.511810
 30
0.0
 10
5.367413
 20
37.511828
 30
0.0
 10
5.313406
 20
37.471403
 30
0.0
 10
5.296129
 20
37.412546
 30
0.0
  0
LWPOLYLINE
  5
1fd
100
AcDbEntity
  8
Layer_1
 62
7
100
AcDbPolyline
 90
1
 70
1
 10
5.425336
 20
37.880700
 30
0.0
  0
SPLINE
  5
1fe
100
AcDbEntity
  8
Layer_1
 62
7
100
AcDbSpline
 70
8
 71
3
 72
8
 73
4
 74
0
 40
0
 40
0
 40
0
 40
0
 40
1
 40
1
 40
1
 40
1
 10
5.295035
 20
37.408034
 30
0.0
 10
5.292125
 20
37.396784
 30
0.0
 10
5.290571
 20
37.385194
 30
0.0
 10
5.290523
 20
37.373579
 30
0.0
  0
SPLINE
  5
1ff
100
AcDbEntity
  8
Layer_1
 62
7
100
AcDbSpline
 70
8
 71
3
 72
8
 73
4
 74
0
 40
0
 40
0
 40
0
 40
0
 40
1
 40
1
 40
1
 40
1
 10
5.290523
 20
37.373579
 30
0.0
 10
5.290550
 20
37.361955
 30
0.0
 10
5.292098
 20
37.350368
 30
0.0
 10
5.295035
 20
37.339123
 30
0.0
  0
LWPOLYLINE
  5
200
100
AcDbEntity
  8
Layer_1
 62
7
100
AcDbPolyline
 90
3
 70
0
 10
5.296129
 20
37.412546
 30
0.0
 10
5.295035
 20
37.412546
 30
0.0
 10
5.295035
 20
37.408034
 30
0.0
  0
SPLINE
  5
201
100
AcDbEntity
  8
Layer_1
 62
7
100
AcDbSpline
 70
8
 71
3
 72
8
 73
4
 74
0
 40
0
 40
0
 40
0
 40
0
 40
1
 40
1
 40
1
 40
1
 10
5.374474
 20
37.246422
 30
0.0
 10
5.391643
 20
37.239172
 30
0.0
 10
5.410101
 20
37.235428
 30
0.0
 10
5.428754
 20
37.235484
 30
0.0
  0
SPLINE
  5
202
100
AcDbEntity
  8
Layer_1
 62
7
100
AcDbSpline
 70
8
 71
3
 72
8
 73
4
 74
0
 40
0
 40
0
 40
0
 40
0
 40
1
 40
1
 40
1
 40
1
 10
5.428754
 20
37.235484
 30
0.0
 10
5.505005
 20
37.235526
 30
0.0
 10
5.566804
 20
37.297328
 30
0.0
 10
5.566849
 20
37.373579
 30
0.0
  0
SPLINE
  5
203
100
AcDbEntity
  8
Layer_1
 62
7
100
AcDbSpline
 70
8
 71
3
 72
8
 73
4
 74
0
 40
0
 40
0
 40
0
 40
0
 40
1
 40
1
 40
1
 40
1
 10
5.566849
 20
37.373579
 30
0.0
 10
5.566881
 20
37.449879
 30
0.0
 10
5.505058
 20
37.511765
 30
0.0
 10
5.428754
 20
37.511810
 30
0.0
  0
LWPOLYLINE
  5
204
100
AcDbEntity
  8
Layer_1
 62
7
100
AcDbPolyline
 90
5
 70
0
 10
5.295035
 20
37.339123
 30
0.0
 10
5.295035
 20
37.071548
 30
0.0
 10
5.374474
 20
37.071548
 30
0.0
 10
5.374474
 20
37.137724
 30
0.0
 10
5.374474
 20
37.246422
 30
0.0
  0
SPLINE
  5
205
100
AcDbEntity
  8
Layer_1
 62
7
100
AcDbSpline
 70
8
 71
3
 72
8
 73
4
 74
0
 40
0
 40
0
 40
0
 40
0
 40
1
 40
1
 40
1
 40
1
 10
3.207757
 20
37.048441
 30
0.0
 10
3.131507
 20
37.048399
 30
0.0
 10
3.069708
 20
36.986597
 30
0.0
 10
3.069663
 20
36.910347
 30
0.0
  0
SPLINE
  5
206
100
AcDbEntity
  8
Layer_1
 62
7
100
AcDbSpline
 70
8
 71
3
 72
8
 73
4
 74
0
 40
0
 40
0
 40
0
 40
0
 40
1
 40
1
 40
1
 40
1
 10
3.069663
 20
36.910347
 30
0.0
 10
3.069631
 20
36.834046
 30
0.0
 10
3.131454
 20
36.772160
 30
0.0
 10
3.207757
 20
36.772115
 30
0.0
  0
SPLINE
  5
207
100
AcDbEntity
  8
Layer_1
 62
7
100
AcDbSpline
 70
8
 71
3
 72
8
 73
4
 74
0
 40
0
 40
0
 40
0
 40
0
 40
1
 40
1
 40
1
 40
1
 10
3.207757
 20
36.772115
 30
0.0
 10
3.217539
 20
36.772168
 30
0.0
 10
3.227302
 20
36.773280
 30
0.0
 10
3.236880
 20
36.775397
 30
0.0
  0
LWPOLYLINE
  5
208
100
AcDbEntity
  8
Layer_1
 62
7
100
AcDbPolyline
 90
1
 70
1
 10
5.428754
 20
37.511810
 30
0.0
  0
SPLINE
  5
209
100
AcDbEntity
  8
Layer_1
 62
7
100
AcDbSpline
 70
8
 71
3
 72
8
 73
4
 74
0
 40
0
 40
0
 40
0
 40
0
 40
1
 40
1
 40
1
 40
1
 10
3.334230
 20
36.854699
 30
0.0
 10
3.341956
 20
36.872230
 30
0.0
 10
3.345973
 20
36.891191
 30
0.0
 10
3.345989
 20
36.910347
 30
0.0
  0
SPLINE
  5
20a
100
AcDbEntity
  8
Layer_1
 62
7
100
AcDbSpline
 70
8
 71
3
 72
8
 73
4
 74
0
 40
0
 40
0
 40
0
 40
0
 40
1
 40
1
 40
1
 40
1
 10
3.345989
 20
36.910347
 30
0.0
 10
3.345946
 20
36.986650
 30
0.0
 10
3.284058
 20
37.048473
 30
0.0
 10
3.207757
 20
37.048441
 30
0.0
  0
LWPOLYLINE
  5
20b
100
AcDbEntity
  8
Layer_1
 62
7
100
AcDbPolyline
 90
5
 70
0
 10
3.236880
 20
36.775397
 30
0.0
 10
3.754530
 20
36.775397
 30
0.0
 10
3.754530
 20
36.841573
 30
0.0
 10
3.754530
 20
36.854699
 30
0.0
 10
3.334230
 20
36.854699
 30
0.0
  0
SPLINE
  5
20c
100
AcDbEntity
  8
Layer_1
 62
7
100
AcDbSpline
 70
8
 71
3
 72
8
 73
4
 74
0
 40
0
 40
0
 40
0
 40
0
 40
1
 40
1
 40
1
 40
1
 10
2.901488
 20
36.919371
 30
0.0
 10
2.825241
 20
36.919325
 30
0.0
 10
2.763439
 20
36.857524
 30
0.0
 10
2.763394
 20
36.781276
 30
0.0
  0
SPLINE
  5
20d
100
AcDbEntity
  8
Layer_1
 62
7
100
AcDbSpline
 70
8
 71
3
 72
8
 73
4
 74
0
 40
0
 40
0
 40
0
 40
0
 40
1
 40
1
 40
1
 40
1
 10
2.763394
 20
36.781276
 30
0.0
 10
2.763362
 20
36.704973
 30
0.0
 10
2.825188
 20
36.643087
 30
0.0
 10
2.901488
 20
36.643045
 30
0.0
  0
SPLINE
  5
20e
100
AcDbEntity
  8
Layer_1
 62
7
100
AcDbSpline
 70
8
 71
3
 72
8
 73
4
 74
0
 40
0
 40
0
 40
0
 40
0
 40
1
 40
1
 40
1
 40
1
 10
2.901488
 20
36.643045
 30
0.0
 10
2.906621
 20
36.643309
 30
0.0
 10
2.911722
 20
36.643610
 30
0.0
 10
2.916802
 20
36.644139
 30
0.0
  0
LWPOLYLINE
  5
20f
100
AcDbEntity
  8
Layer_1
 62
7
100
AcDbPolyline
 90
1
 70
1
 10
3.207757
 20
37.048441
 30
0.0
  0
SPLINE
  5
210
100
AcDbEntity
  8
Layer_1
 62
7
100
AcDbSpline
 70
8
 71
3
 72
8
 73
4
 74
0
 40
0
 40
0
 40
0
 40
0
 40
1
 40
1
 40
1
 40
1
 10
3.026320
 20
36.722346
 30
0.0
 10
3.035078
 20
36.740762
 30
0.0
 10
3.039656
 20
36.760877
 30
0.0
 10
3.039720
 20
36.781276
 30
0.0
  0
SPLINE
  5
211
100
AcDbEntity
  8
Layer_1
 62
7
100
AcDbSpline
 70
8
 71
3
 72
8
 73
4
 74
0
 40
0
 40
0
 40
0
 40
0
 40
1
 40
1
 40
1
 40
1
 10
3.039720
 20
36.781276
 30
0.0
 10
3.039675
 20
36.857577
 30
0.0
 10
2.977792
 20
36.919399
 30
0.0
 10
2.901488
 20
36.919371
 30
0.0
  0
LWPOLYLINE
  5
212
100
AcDbEntity
  8
Layer_1
 62
7
100
AcDbPolyline
 90
6
 70
0
 10
2.916802
 20
36.644139
 30
0.0
 10
2.916802
 20
36.643045
 30
0.0
 10
3.754530
 20
36.643045
 30
0.0
 10
3.754530
 20
36.709221
 30
0.0
 10
3.754530
 20
36.722346
 30
0.0
 10
3.026320
 20
36.722346
 30
0.0
  0
SPLINE
  5
213
100
AcDbEntity
  8
Layer_1
 62
7
100
AcDbSpline
 70
8
 71
3
 72
8
 73
4
 74
0
 40
0
 40
0
 40
0
 40
0
 40
1
 40
1
 40
1
 40
1
 10
2.600278
 20
36.784148
 30
0.0
 10
2.523975
 20
36.784179
 30
0.0
 10
2.462092
 20
36.722356
 30
0.0
 10
2.462047
 20
36.646053
 30
0.0
  0
SPLINE
  5
214
100
AcDbEntity
  8
Layer_1
 62
7
100
AcDbSpline
 70
8
 71
3
 72
8
 73
4
 74
0
 40
0
 40
0
 40
0
 40
0
 40
1
 40
1
 40
1
 40
1
 10
2.462047
 20
36.646053
 30
0.0
 10
2.462015
 20
36.569697
 30
0.0
 10
2.523922
 20
36.507790
 30
0.0
 10
2.600278
 20
36.507822
 30
0.0
  0
SPLINE
  5
215
100
AcDbEntity
  8
Layer_1
 62
7
100
AcDbSpline
 70
8
 71
3
 72
8
 73
4
 74
0
 40
0
 40
0
 40
0
 40
0
 40
1
 40
1
 40
1
 40
1
 10
2.600278
 20
36.507822
 30
0.0
 10
2.609563
 20
36.507901
 30
0.0
 10
2.618822
 20
36.508977
 30
0.0
 10
2.627897
 20
36.510830
 30
0.0
  0
LWPOLYLINE
  5
216
100
AcDbEntity
  8
Layer_1
 62
7
100
AcDbPolyline
 90
1
 70
1
 10
2.901488
 20
36.919371
 30
0.0
  0
SPLINE
  5
217
100
AcDbEntity
  8
Layer_1
 62
7
100
AcDbSpline
 70
8
 71
3
 72
8
 73
4
 74
0
 40
0
 40
0
 40
0
 40
0
 40
1
 40
1
 40
1
 40
1
 10
2.726478
 20
36.590131
 30
0.0
 10
2.734309
 20
36.607739
 30
0.0
 10
2.738352
 20
36.626791
 30
0.0
 10
2.738373
 20
36.646053
 30
0.0
  0
SPLINE
  5
218
100
AcDbEntity
  8
Layer_1
 62
7
100
AcDbSpline
 70
8
 71
3
 72
8
 73
4
 74
0
 40
0
 40
0
 40
0
 40
0
 40
1
 40
1
 40
1
 40
1
 10
2.738373
 20
36.646053
 30
0.0
 10
2.738328
 20
36.722300
 30
0.0
 10
2.676526
 20
36.784102
 30
0.0
 10
2.600278
 20
36.784148
 30
0.0
  0
LWPOLYLINE
  5
219
100
AcDbEntity
  8
Layer_1
 62
7
100
AcDbPolyline
 90
5
 70
0
 10
2.627897
 20
36.510830
 30
0.0
 10
3.754530
 20
36.510830
 30
0.0
 10
3.754530
 20
36.577005
 30
0.0
 10
3.754530
 20
36.590131
 30
0.0
 10
2.726478
 20
36.590131
 30
0.0
  0
SPLINE
  5
21a
100
AcDbEntity
  8
Layer_1
 62
7
100
AcDbSpline
 70
8
 71
3
 72
8
 73
4
 74
0
 40
0
 40
0
 40
0
 40
0
 40
1
 40
1
 40
1
 40
1
 10
2.293873
 20
36.654257
 30
0.0
 10
2.217625
 20
36.654212
 30
0.0
 10
2.155823
 20
36.592410
 30
0.0
 10
2.155778
 20
36.516162
 30
0.0
  0
SPLINE
  5
21b
100
AcDbEntity
  8
Layer_1
 62
7
100
AcDbSpline
 70
8
 71
3
 72
8
 73
4
 74
0
 40
0
 40
0
 40
0
 40
0
 40
1
 40
1
 40
1
 40
1
 10
2.155778
 20
36.516162
 30
0.0
 10
2.155746
 20
36.439859
 30
0.0
 10
2.217569
 20
36.377976
 30
0.0
 10
2.293873
 20
36.377931
 30
0.0
  0
SPLINE
  5
21c
100
AcDbEntity
  8
Layer_1
 62
7
100
AcDbSpline
 70
8
 71
3
 72
8
 73
4
 74
0
 40
0
 40
0
 40
0
 40
0
 40
1
 40
1
 40
1
 40
1
 10
2.293873
 20
36.377931
 30
0.0
 10
2.297841
 20
36.377931
 30
0.0
 10
2.301826
 20
36.378213
 30
0.0
 10
2.305768
 20
36.378477
 30
0.0
  0
LWPOLYLINE
  5
21d
100
AcDbEntity
  8
Layer_1
 62
7
100
AcDbPolyline
 90
1
 70
1
 10
2.600278
 20
36.784148
 30
0.0
  0
SPLINE
  5
21e
100
AcDbEntity
  8
Layer_1
 62
7
100
AcDbSpline
 70
8
 71
3
 72
8
 73
4
 74
0
 40
0
 40
0
 40
0
 40
0
 40
1
 40
1
 40
1
 40
1
 10
2.418978
 20
36.457780
 30
0.0
 10
2.427577
 20
36.476049
 30
0.0
 10
2.432046
 20
36.495974
 30
0.0
 10
2.432104
 20
36.516162
 30
0.0
  0
SPLINE
  5
21f
100
AcDbEntity
  8
Layer_1
 62
7
100
AcDbSpline
 70
8
 71
3
 72
8
 73
4
 74
0
 40
0
 40
0
 40
0
 40
0
 40
1
 40
1
 40
1
 40
1
 10
2.432104
 20
36.516162
 30
0.0
 10
2.432059
 20
36.592465
 30
0.0
 10
2.370176
 20
36.654288
 30
0.0
 10
2.293873
 20
36.654257
 30
0.0
  0
LWPOLYLINE
  5
220
100
AcDbEntity
  8
Layer_1
 62
7
100
AcDbPolyline
 90
5
 70
0
 10
2.305768
 20
36.378477
 30
0.0
 10
3.754530
 20
36.378477
 30
0.0
 10
3.754530
 20
36.444654
 30
0.0
 10
3.754530
 20
36.457780
 30
0.0
 10
2.418978
 20
36.457780
 30
0.0
  0
SPLINE
  5
221
100
AcDbEntity
  8
Layer_1
 62
7
100
AcDbSpline
 70
8
 71
3
 72
8
 73
4
 74
0
 40
0
 40
0
 40
0
 40
0
 40
1
 40
1
 40
1
 40
1
 10
1.987604
 20
36.524366
 30
0.0
 10
1.911300
 20
36.524321
 30
0.0
 10
1.849477
 20
36.462435
 30
0.0
 10
1.849509
 20
36.386134
 30
0.0
  0
SPLINE
  5
222
100
AcDbEntity
  8
Layer_1
 62
7
100
AcDbSpline
 70
8
 71
3
 72
8
 73
4
 74
0
 40
0
 40
0
 40
0
 40
0
 40
1
 40
1
 40
1
 40
1
 10
1.849509
 20
36.386134
 30
0.0
 10
1.849615
 20
36.310787
 30
0.0
 10
1.910076
 20
36.249499
 30
0.0
 10
1.985416
 20
36.248177
 30
0.0
  0
LWPOLYLINE
  5
223
100
AcDbEntity
  8
Layer_1
 62
7
100
AcDbPolyline
 90
1
 70
1
 10
2.293873
 20
36.654257
 30
0.0
  0
SPLINE
  5
224
100
AcDbEntity
  8
Layer_1
 62
7
100
AcDbSpline
 70
8
 71
3
 72
8
 73
4
 74
0
 40
0
 40
0
 40
0
 40
0
 40
1
 40
1
 40
1
 40
1
 10
2.111615
 20
36.325565
 30
0.0
 10
2.120902
 20
36.344410
 30
0.0
 10
2.125766
 20
36.365127
 30
0.0
 10
2.125835
 20
36.386134
 30
0.0
  0
SPLINE
  5
225
100
AcDbEntity
  8
Layer_1
 62
7
100
AcDbSpline
 70
8
 71
3
 72
8
 73
4
 74
0
 40
0
 40
0
 40
0
 40
0
 40
1
 40
1
 40
1
 40
1
 10
2.125835
 20
36.386134
 30
0.0
 10
2.125867
 20
36.462490
 30
0.0
 10
2.063960
 20
36.524395
 30
0.0
 10
1.987604
 20
36.524366
 30
0.0
  0
LWPOLYLINE
  5
226
100
AcDbEntity
  8
Layer_1
 62
7
100
AcDbPolyline
 90
6
 70
0
 10
1.985416
 20
36.248177
 30
0.0
 10
1.985416
 20
36.246262
 30
0.0
 10
3.754530
 20
36.246262
 30
0.0
 10
3.754530
 20
36.312302
 30
0.0
 10
3.754530
 20
36.325565
 30
0.0
 10
2.111615
 20
36.325565
 30
0.0
  0
SPLINE
  5
227
100
AcDbEntity
  8
Layer_1
 62
7
100
AcDbSpline
 70
8
 71
3
 72
8
 73
4
 74
0
 40
0
 40
0
 40
0
 40
0
 40
1
 40
1
 40
1
 40
1
 10
1.693914
 20
36.295895
 30
0.0
 10
1.617610
 20
36.295849
 30
0.0
 10
1.555787
 20
36.233967
 30
0.0
 10
1.555819
 20
36.157663
 30
0.0
  0
SPLINE
  5
228
100
AcDbEntity
  8
Layer_1
 62
7
100
AcDbSpline
 70
8
 71
3
 72
8
 73
4
 74
0
 40
0
 40
0
 40
0
 40
0
 40
1
 40
1
 40
1
 40
1
 10
1.555819
 20
36.157663
 30
0.0
 10
1.555864
 20
36.081415
 30
0.0
 10
1.617666
 20
36.019613
 30
0.0
 10
1.693914
 20
36.019569
 30
0.0
  0
SPLINE
  5
229
100
AcDbEntity
  8
Layer_1
 62
7
100
AcDbSpline
 70
8
 71
3
 72
8
 73
4
 74
0
 40
0
 40
0
 40
0
 40
0
 40
1
 40
1
 40
1
 40
1
 10
1.693914
 20
36.019569
 30
0.0
 10
1.753315
 20
36.019592
 30
0.0
 10
1.806060
 20
36.057575
 30
0.0
 10
1.824898
 20
36.113911
 30
0.0
  0
LWPOLYLINE
  5
22a
100
AcDbEntity
  8
Layer_1
 62
7
100
AcDbPolyline
 90
1
 70
1
 10
1.987604
 20
36.524366
 30
0.0
  0
SPLINE
  5
22b
100
AcDbEntity
  8
Layer_1
 62
7
100
AcDbSpline
 70
8
 71
3
 72
8
 73
4
 74
0
 40
0
 40
0
 40
0
 40
0
 40
1
 40
1
 40
1
 40
1
 10
1.827359
 20
36.193212
 30
0.0
 10
1.811278
 20
36.253720
 30
0.0
 10
1.756522
 20
36.295852
 30
0.0
 10
1.693914
 20
36.295895
 30
0.0
  0
LWPOLYLINE
  5
22c
100
AcDbEntity
  8
Layer_1
 62
7
100
AcDbPolyline
 90
5
 70
0
 10
1.824898
 20
36.113911
 30
0.0
 10
3.754530
 20
36.113911
 30
0.0
 10
3.754530
 20
36.180086
 30
0.0
 10
3.754530
 20
36.193212
 30
0.0
 10
1.827359
 20
36.193212
 30
0.0
  0
SPLINE
  5
22d
100
AcDbEntity
  8
Layer_1
 62
7
100
AcDbSpline
 70
8
 71
3
 72
8
 73
4
 74
0
 40
0
 40
0
 40
0
 40
0
 40
1
 40
1
 40
1
 40
1
 10
1.997175
 20
36.065236
 30
0.0
 10
1.920874
 20
36.065267
 30
0.0
 10
1.858986
 20
36.003445
 30
0.0
 10
1.858943
 20
35.927141
 30
0.0
  0
SPLINE
  5
22e
100
AcDbEntity
  8
Layer_1
 62
7
100
AcDbSpline
 70
8
 71
3
 72
8
 73
4
 74
0
 40
0
 40
0
 40
0
 40
0
 40
1
 40
1
 40
1
 40
1
 10
1.858943
 20
35.927141
 30
0.0
 10
1.858912
 20
35.850785
 30
0.0
 10
1.920821
 20
35.788878
 30
0.0
 10
1.997175
 20
35.788910
 30
0.0
  0
SPLINE
  5
22f
100
AcDbEntity
  8
Layer_1
 62
7
100
AcDbSpline
 70
8
 71
3
 72
8
 73
4
 74
0
 40
0
 40
0
 40
0
 40
0
 40
1
 40
1
 40
1
 40
1
 10
1.997175
 20
35.788910
 30
0.0
 10
2.073478
 20
35.788955
 30
0.0
 10
2.135301
 20
35.850841
 30
0.0
 10
2.135269
 20
35.927141
 30
0.0
  0
SPLINE
  5
230
100
AcDbEntity
  8
Layer_1
 62
7
100
AcDbSpline
 70
8
 71
3
 72
8
 73
4
 74
0
 40
0
 40
0
 40
0
 40
0
 40
1
 40
1
 40
1
 40
1
 10
2.135269
 20
35.927141
 30
0.0
 10
2.135216
 20
35.945908
 30
0.0
 10
2.131355
 20
35.964471
 30
0.0
 10
2.123921
 20
35.981696
 30
0.0
  0
LWPOLYLINE
  5
231
100
AcDbEntity
  8
Layer_1
 62
7
100
AcDbPolyline
 90
1
 70
1
 10
1.693914
 20
36.295895
 30
0.0
  0
SPLINE
  5
232
100
AcDbEntity
  8
Layer_1
 62
7
100
AcDbSpline
 70
8
 71
3
 72
8
 73
4
 74
0
 40
0
 40
0
 40
0
 40
0
 40
1
 40
1
 40
1
 40
1
 10
2.030399
 20
36.060997
 30
0.0
 10
2.019530
 20
36.063643
 30
0.0
 10
2.008393
 20
36.065175
 30
0.0
 10
1.997175
 20
36.065236
 30
0.0
  0
LWPOLYLINE
  5
233
100
AcDbEntity
  8
Layer_1
 62
7
100
AcDbPolyline
 90
5
 70
0
 10
2.123921
 20
35.981696
 30
0.0
 10
3.754530
 20
35.981696
 30
0.0
 10
3.754530
 20
36.047735
 30
0.0
 10
3.754530
 20
36.060997
 30
0.0
 10
2.030399
 20
36.060997
 30
0.0
  0
SPLINE
  5
234
100
AcDbEntity
  8
Layer_1
 62
7
100
AcDbSpline
 70
8
 71
3
 72
8
 73
4
 74
0
 40
0
 40
0
 40
0
 40
0
 40
1
 40
1
 40
1
 40
1
 10
2.306315
 20
35.933430
 30
0.0
 10
2.229961
 20
35.933463
 30
0.0
 10
2.168052
 20
35.871556
 30
0.0
 10
2.168084
 20
35.795199
 30
0.0
  0
SPLINE
  5
235
100
AcDbEntity
  8
Layer_1
 62
7
100
AcDbSpline
 70
8
 71
3
 72
8
 73
4
 74
0
 40
0
 40
0
 40
0
 40
0
 40
1
 40
1
 40
1
 40
1
 10
2.168084
 20
35.795199
 30
0.0
 10
2.168126
 20
35.718896
 30
0.0
 10
2.230014
 20
35.657073
 30
0.0
 10
2.306315
 20
35.657105
 30
0.0
  0
SPLINE
  5
236
100
AcDbEntity
  8
Layer_1
 62
7
100
AcDbSpline
 70
8
 71
3
 72
8
 73
4
 74
0
 40
0
 40
0
 40
0
 40
0
 40
1
 40
1
 40
1
 40
1
 10
2.306315
 20
35.657105
 30
0.0
 10
2.382565
 20
35.657147
 30
0.0
 10
2.444364
 20
35.718949
 30
0.0
 10
2.444409
 20
35.795199
 30
0.0
  0
SPLINE
  5
237
100
AcDbEntity
  8
Layer_1
 62
7
100
AcDbSpline
 70
8
 71
3
 72
8
 73
4
 74
0
 40
0
 40
0
 40
0
 40
0
 40
1
 40
1
 40
1
 40
1
 10
2.444409
 20
35.795199
 30
0.0
 10
2.444383
 20
35.813810
 30
0.0
 10
2.440637
 20
35.832225
 30
0.0
 10
2.433334
 20
35.849343
 30
0.0
  0
LWPOLYLINE
  5
238
100
AcDbEntity
  8
Layer_1
 62
7
100
AcDbPolyline
 90
1
 70
1
 10
1.997175
 20
36.065236
 30
0.0
  0
SPLINE
  5
239
100
AcDbEntity
  8
Layer_1
 62
7
100
AcDbSpline
 70
8
 71
3
 72
8
 73
4
 74
0
 40
0
 40
0
 40
0
 40
0
 40
1
 40
1
 40
1
 40
1
 10
2.341864
 20
35.928645
 30
0.0
 10
2.330286
 20
35.931847
 30
0.0
 10
2.318327
 20
35.933388
 30
0.0
 10
2.306315
 20
35.933430
 30
0.0
  0
LWPOLYLINE
  5
23a
100
AcDbEntity
  8
Layer_1
 62
7
100
AcDbPolyline
 90
5
 70
0
 10
2.433334
 20
35.849343
 30
0.0
 10
3.754530
 20
35.849343
 30
0.0
 10
3.754530
 20
35.915519
 30
0.0
 10
3.754530
 20
35.928645
 30
0.0
 10
2.341864
 20
35.928645
 30
0.0
  0
SPLINE
  5
23b
100
AcDbEntity
  8
Layer_1
 62
7
100
AcDbSpline
 70
8
 71
3
 72
8
 73
4
 74
0
 40
0
 40
0
 40
0
 40
0
 40
1
 40
1
 40
1
 40
1
 10
2.625846
 20
35.801489
 30
0.0
 10
2.549599
 20
35.801443
 30
0.0
 10
2.487797
 20
35.739639
 30
0.0
 10
2.487752
 20
35.663394
 30
0.0
  0
SPLINE
  5
23c
100
AcDbEntity
  8
Layer_1
 62
7
100
AcDbSpline
 70
8
 71
3
 72
8
 73
4
 74
0
 40
0
 40
0
 40
0
 40
0
 40
1
 40
1
 40
1
 40
1
 10
2.487752
 20
35.663394
 30
0.0
 10
2.487720
 20
35.587089
 30
0.0
 10
2.549546
 20
35.525197
 30
0.0
 10
2.625846
 20
35.525163
 30
0.0
  0
SPLINE
  5
23d
100
AcDbEntity
  8
Layer_1
 62
7
100
AcDbSpline
 70
8
 71
3
 72
8
 73
4
 74
0
 40
0
 40
0
 40
0
 40
0
 40
1
 40
1
 40
1
 40
1
 10
2.625846
 20
35.525163
 30
0.0
 10
2.702202
 20
35.525131
 30
0.0
 10
2.764109
 20
35.587036
 30
0.0
 10
2.764078
 20
35.663394
 30
0.0
  0
SPLINE
  5
23e
100
AcDbEntity
  8
Layer_1
 62
7
100
AcDbSpline
 70
8
 71
3
 72
8
 73
4
 74
0
 40
0
 40
0
 40
0
 40
0
 40
1
 40
1
 40
1
 40
1
 10
2.764078
 20
35.663394
 30
0.0
 10
2.763998
 20
35.681814
 30
0.0
 10
2.760226
 20
35.700032
 30
0.0
 10
2.753003
 20
35.716992
 30
0.0
  0
LWPOLYLINE
  5
23f
100
AcDbEntity
  8
Layer_1
 62
7
100
AcDbPolyline
 90
1
 70
1
 10
2.306315
 20
35.933430
 30
0.0
  0
SPLINE
  5
240
100
AcDbEntity
  8
Layer_1
 62
7
100
AcDbSpline
 70
8
 71
3
 72
8
 73
4
 74
0
 40
0
 40
0
 40
0
 40
0
 40
1
 40
1
 40
1
 40
1
 10
2.663036
 20
35.796293
 30
0.0
 10
2.650929
 20
35.799627
 30
0.0
 10
2.638414
 20
35.801457
 30
0.0
 10
2.625846
 20
35.801489
 30
0.0
  0
LWPOLYLINE
  5
241
100
AcDbEntity
  8
Layer_1
 62
7
100
AcDbPolyline
 90
5
 70
0
 10
2.753003
 20
35.716992
 30
0.0
 10
3.754530
 20
35.716992
 30
0.0
 10
3.754530
 20
35.783167
 30
0.0
 10
3.754530
 20
35.796293
 30
0.0
 10
2.663036
 20
35.796293
 30
0.0
  0
LWPOLYLINE
  5
242
100
AcDbEntity
  8
Layer_1
 62
7
100
AcDbPolyline
 90
1
 70
1
 10
2.625846
 20
35.801489
 30
0.0
  0
SPLINE
  5
243
100
AcDbEntity
  8
Layer_1
 62
7
100
AcDbSpline
 70
8
 71
3
 72
8
 73
4
 74
0
 40
0
 40
0
 40
0
 40
0
 40
1
 40
1
 40
1
 40
1
 10
2.956179
 20
35.663121
 30
0.0
 10
2.952555
 20
35.663441
 30
0.0
 10
2.948892
 20
35.663631
 30
0.0
 10
2.945241
 20
35.663668
 30
0.0
  0
SPLINE
  5
244
100
AcDbEntity
  8
Layer_1
 62
7
100
AcDbSpline
 70
8
 71
3
 72
8
 73
4
 74
0
 40
0
 40
0
 40
0
 40
0
 40
1
 40
1
 40
1
 40
1
 10
2.945241
 20
35.663668
 30
0.0
 10
2.868991
 20
35.663625
 30
0.0
 10
2.807189
 20
35.601823
 30
0.0
 10
2.807147
 20
35.525573
 30
0.0
  0
SPLINE
  5
245
100
AcDbEntity
  8
Layer_1
 62
7
100
AcDbSpline
 70
8
 71
3
 72
8
 73
4
 74
0
 40
0
 40
0
 40
0
 40
0
 40
1
 40
1
 40
1
 40
1
 10
2.807147
 20
35.525573
 30
0.0
 10
2.807115
 20
35.449270
 30
0.0
 10
2.868938
 20
35.387387
 30
0.0
 10
2.945241
 20
35.387342
 30
0.0
  0
SPLINE
  5
246
100
AcDbEntity
  8
Layer_1
 62
7
100
AcDbSpline
 70
8
 71
3
 72
8
 73
4
 74
0
 40
0
 40
0
 40
0
 40
0
 40
1
 40
1
 40
1
 40
1
 10
2.945241
 20
35.387342
 30
0.0
 10
3.021597
 20
35.387310
 30
0.0
 10
3.083504
 20
35.449217
 30
0.0
 10
3.083472
 20
35.525573
 30
0.0
  0
SPLINE
  5
247
100
AcDbEntity
  8
Layer_1
 62
7
100
AcDbSpline
 70
8
 71
3
 72
8
 73
4
 74
0
 40
0
 40
0
 40
0
 40
0
 40
1
 40
1
 40
1
 40
1
 10
3.083472
 20
35.525573
 30
0.0
 10
3.083393
 20
35.546068
 30
0.0
 10
3.078773
 20
35.566282
 30
0.0
 10
3.069936
 20
35.584776
 30
0.0
  0
LWPOLYLINE
  5
248
100
AcDbEntity
  8
Layer_1
 62
7
100
AcDbPolyline
 90
2
 70
0
 10
2.956179
 20
35.664078
 30
0.0
 10
2.956179
 20
35.663121
 30
0.0
  0
LWPOLYLINE
  5
249
100
AcDbEntity
  8
Layer_1
 62
7
100
AcDbPolyline
 90
6
 70
0
 10
3.069936
 20
35.584776
 30
0.0
 10
3.754530
 20
35.584776
 30
0.0
 10
3.754530
 20
35.650952
 30
0.0
 10
3.754530
 20
35.664078
 30
0.0
 10
2.956179
 20
35.664078
 30
0.0
 10
2.956179
 20
35.664078
 30
0.0
  0
SPLINE
  5
24a
100
AcDbEntity
  8
Layer_1
 62
7
100
AcDbSpline
 70
8
 71
3
 72
8
 73
4
 74
0
 40
0
 40
0
 40
0
 40
0
 40
1
 40
1
 40
1
 40
1
 10
3.262448
 20
35.532273
 30
0.0
 10
3.186201
 20
35.532228
 30
0.0
 10
3.124399
 20
35.470429
 30
0.0
 10
3.124354
 20
35.394179
 30
0.0
  0
SPLINE
  5
24b
100
AcDbEntity
  8
Layer_1
 62
7
100
AcDbSpline
 70
8
 71
3
 72
8
 73
4
 74
0
 40
0
 40
0
 40
0
 40
0
 40
1
 40
1
 40
1
 40
1
 10
3.124354
 20
35.394179
 30
0.0
 10
3.124322
 20
35.317878
 30
0.0
 10
3.186145
 20
35.255989
 30
0.0
 10
3.262448
 20
35.255947
 30
0.0
  0
SPLINE
  5
24c
100
AcDbEntity
  8
Layer_1
 62
7
100
AcDbSpline
 70
8
 71
3
 72
8
 73
4
 74
0
 40
0
 40
0
 40
0
 40
0
 40
1
 40
1
 40
1
 40
1
 10
3.262448
 20
35.255947
 30
0.0
 10
3.338804
 20
35.255916
 30
0.0
 10
3.400711
 20
35.317825
 30
0.0
 10
3.400680
 20
35.394179
 30
0.0
  0
SPLINE
  5
24d
100
AcDbEntity
  8
Layer_1
 62
7
100
AcDbSpline
 70
8
 71
3
 72
8
 73
4
 74
0
 40
0
 40
0
 40
0
 40
0
 40
1
 40
1
 40
1
 40
1
 10
3.400680
 20
35.394179
 30
0.0
 10
3.400627
 20
35.414263
 30
0.0
 10
3.396184
 20
35.434084
 30
0.0
 10
3.387690
 20
35.452288
 30
0.0
  0
LWPOLYLINE
  5
24e
100
AcDbEntity
  8
Layer_1
 62
7
100
AcDbPolyline
 90
2
 70
0
 10
3.262448
 20
35.532410
 30
0.0
 10
3.262448
 20
35.532273
 30
0.0
  0
SPLINE
  5
24f
100
AcDbEntity
  8
Layer_1
 62
7
100
AcDbSpline
 70
8
 71
3
 72
8
 73
4
 74
0
 40
0
 40
0
 40
0
 40
0
 40
1
 40
1
 40
1
 40
1
 10
3.276258
 20
35.531589
 30
0.0
 10
3.271680
 20
35.532171
 30
0.0
 10
3.267052
 20
35.532413
 30
0.0
 10
3.262448
 20
35.532410
 30
0.0
  0
LWPOLYLINE
  5
250
100
AcDbEntity
  8
Layer_1
 62
7
100
AcDbPolyline
 90
5
 70
0
 10
3.387690
 20
35.452288
 30
0.0
 10
3.754530
 20
35.452288
 30
0.0
 10
3.754530
 20
35.518464
 30
0.0
 10
3.754530
 20
35.531589
 30
0.0
 10
3.276258
 20
35.531589
 30
0.0
  0
LWPOLYLINE
  5
251
100
AcDbEntity
  8
Layer_1
 62
7
100
AcDbPolyline
 90
1
 70
1
 10
3.262448
 20
35.532410
 30
0.0
  0
ENDSEC
  0
SECTION
  2
OBJECTS
  0
DICTIONARY
  5
C
330
0
100
AcDbDictionary
  3
ACAD_GROUP
350
D
  3
ACAD_MLINESTYLE
350
17
  0
DICTIONARY
  5
D
330
C
100
AcDbDictionary
  0
DICTIONARY
  5
1A
330
C
100
AcDbDictionary
  0
DICTIONARY
  5
17
330
C
100
AcDbDictionary
  3
STANDARD
350
18
  0
DICTIONARY
  5
19
330
C
100
AcDbDictionary
  0
ENDSEC
  0
EOF
